<?xml version="1.0" encoding="UTF-8" standalone="no"?>
<!-- Created with Inkscape (http://www.inkscape.org/) -->

<svg
   xmlns:dc="http://purl.org/dc/elements/1.1/"
   xmlns:cc="http://creativecommons.org/ns#"
   xmlns:rdf="http://www.w3.org/1999/02/22-rdf-syntax-ns#"
   xmlns:svg="http://www.w3.org/2000/svg"
   xmlns="http://www.w3.org/2000/svg"
   xmlns:sodipodi="http://sodipodi.sourceforge.net/DTD/sodipodi-0.dtd"
   xmlns:inkscape="http://www.inkscape.org/namespaces/inkscape"
   version="1.1"
   width="64"
   height="64"
   id="svg2985"
   inkscape:version="0.48.5 r"
   sodipodi:docname="duck-launcher.svg">
  <sodipodi:namedview
     pagecolor="#ffffff"
     bordercolor="#666666"
     borderopacity="1"
     objecttolerance="10"
     gridtolerance="10"
     guidetolerance="10"
     inkscape:pageopacity="0"
     inkscape:pageshadow="2"
     inkscape:window-width="1233"
     inkscape:window-height="998"
     id="namedview24"
     showgrid="false"
     showguides="true"
     inkscape:guide-bbox="true"
     inkscape:zoom="8"
     inkscape:cx="28.072811"
     inkscape:cy="30.213346"
     inkscape:window-x="47"
     inkscape:window-y="0"
     inkscape:window-maximized="1"
     inkscape:current-layer="svg2985" />
  <defs
     id="defs2987" />
  <metadata
     id="metadata2990">
    <rdf:RDF>
      <cc:Work
         rdf:about="">
        <dc:format>image/svg+xml</dc:format>
        <dc:type
           rdf:resource="http://purl.org/dc/dcmitype/StillImage" />
        <dc:title />
      </cc:Work>
    </rdf:RDF>
  </metadata>
  <g
     id="layer3"
     style="display:inline" />
  <g
     id="layer4" />
  <g
     transform="matrix(0.94816808,0,0,0.94816808,1.6620487,1.6573155)"
     id="layer2"
     style="display:inline">
    <rect
       width="54.561356"
       height="54.494404"
       ry="8.0747871"
       x="4.7815166"
       y="4.727603"
       id="rect3872"
       style="fill:#ff7f29;fill-opacity:1;stroke:none" />
  </g>
  <g
     transform="matrix(0.94816808,0,0,0.94816808,1.6620487,1.6573155)"
     id="g3836"
     style="opacity:0.2;display:inline">
    <path
       d="m 21.786406,47.369792 17.795736,11.837111 c 0,0 7.493501,-5.81e-4 11.928728,-5.81e-4 4.435225,0 7.83986,-3.938333 7.83986,-7.78465 0,-3.846317 0,-24.612718 0,-24.612718 l -15.546008,-10.618763 -6.662753,-1.769793 -7.39149,-0.624633 -6.975071,1.769794 -6.506594,4.216273 -2.758796,4.684748 -0.780791,7.703808 1.978005,6.766858 6.24633,6.923016 z"
       id="path3810"
       style="fill:#000000;fill-opacity:0.77570093;stroke:none" />
  </g>
  <g
     transform="matrix(0.94816808,0,0,0.94816808,1.6229862,1.633878)"
     id="layer1"
     style="display:inline">
    <path
       d="m 31.318941,12.510226 c -8.745514,0.31752 -14.48095,5.399158 -16.594718,8.527537 -2.254689,3.336938 -5.2039527,13.160253 -0.153453,20.014502 5.0505,6.85425 11.785197,8.476192 13.679136,8.746754 1.893936,0.270563 4.362415,0.350748 4.362415,0.350748 1.826296,-0.03383 12.15359,-2.10668 16.178206,-8.352165 4.024618,-6.245484 4.448732,-13.357406 2.126404,-17.449663 -2.322328,-4.092258 -8.048888,-11.465688 -17.800411,-11.837713 -0.60947,-0.02325 -1.214546,-0.02116 -1.797579,0 z M 30.66129,14.5051 c 2.603739,-0.07961 5.343566,0.327774 8.352164,1.205693 6.876797,2.00667 10.247472,9.528514 10.675863,11.377356 0.428391,1.848844 1.553739,6.964503 -2.301778,12.736502 -3.855516,5.772 -10.440431,8.010168 -11.815791,7.694513 -1.375359,-0.315656 -1.046574,-4.576753 -0.460355,-7.124549 0.58622,-2.547798 1.729352,-3.432953 2.608681,-3.74861 0.879329,-0.315656 4.173953,-0.410259 5.43658,-0.635729 1.262623,-0.225469 3.128589,-1.354848 4.143198,-3.090958 1.014611,-1.736108 1.067872,-3.16489 0.504198,-3.660921 -0.563671,-0.496031 -2.248716,0.492944 -5.743481,0.898788 -3.494765,0.405844 -5.008814,-0.263723 -5.414658,-1.030319 -0.405843,-0.766592 0.869992,-1.736895 1.118007,-3.134803 0.248015,-1.397903 -3.177435,-4.244677 -4.01167,-4.537788 -0.834233,-0.293109 -3.465078,-0.480321 -7.365688,1.030319 -3.900608,1.510642 -5.901894,5.928396 -4.93238,8.746755 0.969516,2.818359 5.552521,8.339105 6.905333,10.193585 1.352812,1.85448 1.751862,4.072452 1.819501,4.647397 0.06763,0.574946 -0.231137,1.790703 -0.591887,2.038718 0,0 -0.515493,0.153451 -0.898789,0.153451 -0.383297,0 -3.321509,-1.1318 -4.493945,-1.424909 C 23.021955,46.546482 16.139632,41.87555 14.110414,35.111487 12.081196,28.347426 15.400951,20.5572 21.037669,17.332998 24.208323,15.519383 27.313625,14.607452 30.66129,14.5051 z m 4.515869,13.613368 -2.564838,1.008398 c 0,0 0.787325,-0.541165 1.249535,-0.789182 0.462212,-0.248015 1.315303,-0.219216 1.315303,-0.219216 z"
       id="path3060"
       style="fill:#e3dbdb;fill-opacity:1;stroke:none" />
    <path
       d="m 31.318941,12.510226 c -8.745514,0.31752 -14.48095,5.399158 -16.594718,8.527537 -2.254689,3.336938 -5.2039527,13.160253 -0.153453,20.014502 5.0505,6.85425 11.785197,8.476192 13.679136,8.746754 1.893936,0.270563 4.362415,0.350748 4.362415,0.350748 1.826296,-0.03383 12.15359,-2.10668 16.178206,-8.352165 4.024618,-6.245484 4.448732,-13.357406 2.126404,-17.449663 -2.322328,-4.092258 -8.048888,-11.465688 -17.800411,-11.837713 -0.60947,-0.02325 -1.214546,-0.02116 -1.797579,0 z M 30.66129,14.5051 c 2.603739,-0.07961 5.343566,0.327774 8.352164,1.205693 6.876797,2.00667 10.247472,9.528514 10.675863,11.377356 0.428391,1.848844 1.553739,6.964503 -2.301778,12.736502 -3.855516,5.772 -10.440431,8.010168 -11.815791,7.694513 -1.375359,-0.315656 -1.046574,-4.576753 -0.460355,-7.124549 0.58622,-2.547798 1.729352,-3.432953 2.608681,-3.74861 0.879329,-0.315656 4.173953,-0.410259 5.43658,-0.635729 1.262623,-0.225469 3.128589,-1.354848 4.143198,-3.090958 1.014611,-1.736108 1.067872,-3.16489 0.504198,-3.660921 -0.563671,-0.496031 -2.248716,0.492944 -5.743481,0.898788 -3.494765,0.405844 -5.008814,-0.263723 -5.414658,-1.030319 -0.405843,-0.766592 0.869992,-1.736895 1.118007,-3.134803 0.248015,-1.397903 -3.177435,-4.244677 -4.01167,-4.537788 -0.834233,-0.293109 -3.465078,-0.480321 -7.365688,1.030319 -3.900608,1.510642 -5.901894,5.928396 -4.93238,8.746755 0.969516,2.818359 5.552521,8.339105 6.905333,10.193585 1.352812,1.85448 1.751862,4.072452 1.819501,4.647397 0.06763,0.574946 -0.231137,1.790703 -0.591887,2.038718 0,0 -0.515493,0.153451 -0.898789,0.153451 -0.383297,0 -3.321509,-1.1318 -4.493945,-1.424909 C 23.021955,46.546482 16.139632,41.87555 14.110414,35.111487 12.081196,28.347426 15.400951,20.5572 21.037669,17.332998 24.208323,15.519383 27.313625,14.607452 30.66129,14.5051 z m 4.515869,13.613368 -2.564838,1.008398 c 0,0 0.787325,-0.541165 1.249535,-0.789182 0.462212,-0.248015 1.315303,-0.219216 1.315303,-0.219216 z"
       id="path3838"
       style="fill:#808080;fill-opacity:1;stroke:none" />
  </g>
  <g
     id="layer5"
     style="display:inline">
    <g
       transform="matrix(0.94816808,0,0,0.94816808,1.6846212,1.5975405)"
       id="layer2-4"
       style="fill:#cccccc;display:inline" />
    <g
       transform="matrix(0.94816808,0,0,0.94816808,1.5097883,2.0429012)"
       id="layer2-4-0-1"
       style="fill:#808080;display:inline">
      <path
         d="M 14.03125,4.75 C 8.8308064,4.75 4.625,8.9558064 4.625,14.15625 l 0,35.6875 c 0,5.200443 4.2058063,9.40625 9.40625,9.40625 l 35.75,0 c 5.200443,0 9.40625,-4.205807 9.40625,-9.40625 l 0,-35.6875 C 59.1875,8.9558063 54.981693,4.75 49.78125,4.75 l -35.75,0 z m 0,1.78125 35.75,0 c 4.244932,0 7.625,3.3800668 7.625,7.625 l 0,35.6875 c 0,4.244932 -3.380068,7.625 -7.625,7.625 l -35.75,0 c -4.2449332,0 -7.625,-3.380068 -7.625,-7.625 l 0,-35.6875 c 0,-4.2449332 3.3800668,-7.625 7.625,-7.625 z"
         transform="matrix(1.0546653,0,0,1.0546653,-1.4038306,-1.7780908)"
         id="path3811-3"
         style="fill:#808080;fill-opacity:1;stroke:none" />
    </g>
    <g
       transform="matrix(0.94816808,0,0,0.94816808,1.3346068,1.4892971)"
       id="layer1-2"
       style="stroke:#000000;stroke-width:0.10546653;stroke-miterlimit:4;stroke-opacity:0.14507775;stroke-dasharray:none;display:inline">
      <path
         d="M 31.3125,12.40625 C 22.53672,12.724869 16.785375,17.848893 14.65625,21 c -1.138922,1.685604 -2.453781,4.971095 -2.84375,8.71875 -0.389969,3.747655 0.14669,7.958009 2.6875,11.40625 5.067415,6.877206 11.837624,8.508054 13.75,8.78125 1.90177,0.271682 4.375,0.34375 4.375,0.34375 0.470513,-0.0087 1.46058,-0.172041 2.75,-0.46875 1.28942,-0.296709 2.872973,-0.753997 4.53125,-1.40625 3.316554,-1.304506 6.910238,-3.385301 8.9375,-6.53125 4.038523,-6.267062 4.4695,-13.399922 2.125,-17.53125 C 48.638884,20.206958 42.916373,12.779795 33.125,12.40625 c -0.611762,-0.02334 -1.227567,-0.02123 -1.8125,0 z m 0.3125,2.15625 c 2.299435,0.03899 4.716496,0.483358 7.34375,1.25 3.41555,0.996668 5.967024,3.33509 7.71875,5.6875 1.751726,2.35241 2.697221,4.722877 2.90625,5.625 0.427971,1.847033 1.557912,6.908736 -2.28125,12.65625 -1.918585,2.872267 -4.522753,4.851271 -6.8125,6.09375 -1.144873,0.62124 -2.198207,1.056493 -3.0625,1.3125 -0.864293,0.256007 -1.534439,0.320989 -1.84375,0.25 -0.3041,-0.06979 -0.540315,-0.341887 -0.6875,-0.8125 -0.147185,-0.470613 -0.213419,-1.105564 -0.21875,-1.8125 -0.01066,-1.413871 0.23957,-3.107314 0.53125,-4.375 0.582019,-2.529541 1.67675,-3.412006 2.53125,-3.71875 0.412134,-0.147945 1.471633,-0.247396 2.5625,-0.34375 1.090867,-0.09635 2.202712,-0.166778 2.84375,-0.28125 1.295354,-0.231314 3.1898,-1.395601 4.21875,-3.15625 0.511919,-0.875948 0.804725,-1.662263 0.875,-2.3125 0.07028,-0.650237 -0.06322,-1.163134 -0.375,-1.4375 -0.166274,-0.146322 -0.4167,-0.187237 -0.71875,-0.15625 -0.30205,0.03099 -0.659396,0.130953 -1.125,0.25 -0.931209,0.238095 -2.227468,0.579036 -3.96875,0.78125 -1.740937,0.202173 -2.993686,0.146791 -3.84375,-0.0625 -0.850064,-0.209291 -1.311993,-0.551125 -1.5,-0.90625 -0.09005,-0.170101 -0.09172,-0.355368 -0.03125,-0.5625 0.06047,-0.207132 0.197893,-0.433421 0.34375,-0.6875 0.291713,-0.508157 0.684931,-1.124723 0.8125,-1.84375 0.06846,-0.385845 -0.134249,-0.837149 -0.4375,-1.3125 -0.303251,-0.475351 -0.721287,-0.973946 -1.1875,-1.4375 -0.466213,-0.463554 -0.9697,-0.887085 -1.40625,-1.21875 -0.43655,-0.331665 -0.800237,-0.543833 -1.03125,-0.625 -0.437407,-0.153684 -1.302305,-0.293821 -2.5625,-0.1875 -1.260195,0.106321 -2.917863,0.460784 -4.875,1.21875 -1.970792,0.763256 -3.443925,2.251688 -4.3125,3.90625 -0.868575,1.654562 -1.119537,3.468641 -0.625,4.90625 0.492267,1.431009 1.874788,3.527441 3.3125,5.5 1.437712,1.972559 2.92038,3.826921 3.59375,4.75 1.339169,1.835778 1.715069,3.999947 1.78125,4.5625 0.03138,0.266792 -0.01528,0.7199 -0.125,1.125 -0.05486,0.20255 -0.112782,0.408888 -0.1875,0.5625 -0.06874,0.141323 -0.153638,0.228303 -0.21875,0.28125 0,0 -0.509438,0.125 -0.875,0.125 -0.02817,0 -0.13276,-8.22e-4 -0.25,-0.03125 C 28.32026,48.094572 28.173412,48.054246 28,48 27.653176,47.891508 27.215186,47.751185 26.75,47.59375 25.819628,47.278881 24.812952,46.898551 24.21875,46.75 23.956834,46.68452 23.273532,46.362571 22.4375,45.78125 c -0.836032,-0.581321 -1.851904,-1.416984 -2.90625,-2.4375 -2.108693,-2.041032 -4.303679,-4.887263 -5.3125,-8.25 -2.017272,-6.724241 1.244297,-14.484614 6.84375,-17.6875 3.161128,-1.808166 6.259594,-2.710561 9.59375,-2.8125 0.324154,-0.0099 0.640259,-0.03682 0.96875,-0.03125 z m 3.900421,13.594867 c -1.487116,0.284807 -1.660029,0.480988 -2.135061,0.804497 0.135897,-0.254058 0.341355,-0.475437 0.679025,-0.60805 0.368104,-0.144566 0.847096,-0.167387 1.456036,-0.196447 z"
         id="path3777"
         style="fill:#ffffff;fill-opacity:1;stroke:#000000;stroke-width:0.10546653;stroke-miterlimit:4;stroke-opacity:0.14507775;stroke-dasharray:none"
         inkscape:connector-curvature="0"
         sodipodi:nodetypes="csssscssssscssssssssssssssssssssscssssssssssssscsscssssssssscsccsc" />
    </g>
  </g>
  <g
     id="layer6"
     style="display:inline">
    <g
       transform="matrix(0.94816808,0,0,0.94816808,1.3310674,1.6859289)"
       id="layer2-4-0"
       style="fill:#cccccc;display:inline">
      <path
         d="m 14.03125,4.59375 c -5.2873069,0 -9.5625,4.2751931 -9.5625,9.5625 l 0,35.6875 c 0,5.287306 4.275193,9.5625 9.5625,9.5625 l 35.75,0 c 5.287306,0 9.5625,-4.275194 9.5625,-9.5625 l 0,-35.6875 c 0,-5.287307 -4.275194,-9.5625 -9.5625,-9.5625 l -35.75,0 z m 0,2.09375 35.75,0 c 4.159409,0 7.46875,3.3093396 7.46875,7.46875 l 0,35.6875 c 0,4.159409 -3.309341,7.46875 -7.46875,7.46875 l -35.75,0 c -4.1594104,0 -7.46875,-3.309341 -7.46875,-7.46875 l 0,-35.6875 c 0,-4.1594104 3.3093396,-7.46875 7.46875,-7.46875 z"
         transform="matrix(1.0546653,0,0,1.0546653,-1.4038306,-1.7780908)"
         id="path3769"
         style="fill:#ffffff;fill-opacity:1;stroke:#000000;stroke-width:0.1;stroke-miterlimit:4;stroke-opacity:0.29015545;stroke-dasharray:none" />
    </g>
  </g>
</svg>
