<?xml version="1.0" encoding="UTF-8" standalone="no"?>
<!-- Created with Inkscape (http://www.inkscape.org/) -->

<svg
   xmlns:dc="http://purl.org/dc/elements/1.1/"
   xmlns:cc="http://creativecommons.org/ns#"
   xmlns:rdf="http://www.w3.org/1999/02/22-rdf-syntax-ns#"
   xmlns:svg="http://www.w3.org/2000/svg"
   xmlns="http://www.w3.org/2000/svg"
   xmlns:sodipodi="http://sodipodi.sourceforge.net/DTD/sodipodi-0.dtd"
   xmlns:inkscape="http://www.inkscape.org/namespaces/inkscape"
   width="64px"
   height="64px"
   id="svg2985"
   version="1.1"
   inkscape:version="0.48.4 r9939"
   sodipodi:docname="New document 2">
  <defs
     id="defs2987">
    <filter
       inkscape:collect="always"
       id="filter3864">
      <feGaussianBlur
         inkscape:collect="always"
         stdDeviation="1.4808309"
         id="feGaussianBlur3866" />
    </filter>
  </defs>
  <sodipodi:namedview
     id="base"
     pagecolor="#ffffff"
     bordercolor="#666666"
     borderopacity="1.0"
     inkscape:pageopacity="0.0"
     inkscape:pageshadow="2"
     inkscape:zoom="7.7781746"
     inkscape:cx="25.946182"
     inkscape:cy="30.977748"
     inkscape:current-layer="layer2"
     showgrid="true"
     inkscape:document-units="px"
     inkscape:grid-bbox="true"
     inkscape:window-width="1237"
     inkscape:window-height="977"
     inkscape:window-x="43"
     inkscape:window-y="22"
     inkscape:window-maximized="1" />
  <metadata
     id="metadata2990">
    <rdf:RDF>
      <cc:Work
         rdf:about="">
        <dc:format>image/svg+xml</dc:format>
        <dc:type
           rdf:resource="http://purl.org/dc/dcmitype/StillImage" />
        <dc:title></dc:title>
      </cc:Work>
    </rdf:RDF>
  </metadata>
  <g
     inkscape:groupmode="layer"
     id="layer2"
     inkscape:label="bg2"
     style="display:inline">
    <rect
       style="fill:#644c40;fill-opacity:1;stroke:none"
       id="rect3872"
       width="63.320343"
       height="63.242638"
       x="0.4039683"
       y="0.4351632"
       ry="9.3710699" />
  </g>
  <g
     inkscape:groupmode="layer"
     inkscape:label="bg"
     id="g3836"
     style="display:inline">
    <path
       inkscape:connector-curvature="0"
       id="path3838"
       d="M 30.35962,2.7121826 C 17.109825,3.193237 8.4204165,10.892118 5.2179735,15.631733 c -3.415939,5.05559 -7.884189,19.938296 -0.2324854,30.322751 7.6517029,10.384455 17.8550329,12.84176 20.7244219,13.251673 2.869389,0.409912 6.60923,0.531396 6.60923,0.531396 2.766911,-0.05124 18.413163,-3.191702 24.510614,-12.653854 6.097452,-9.462151 6.740001,-20.236992 3.221584,-26.436922 C 56.532921,14.446848 47.856958,3.2758125 33.083021,2.7121826 c -0.923371,-0.035227 -1.840082,-0.03207 -2.723401,0 z M 29.363253,5.734494 c 3.944767,-0.1206087 8.095709,0.4965901 12.653853,1.8266717 10.418615,3.0401853 15.52532,14.4360693 16.174348,17.2371383 0.649029,2.80107 2.353974,10.551493 -3.487282,19.296296 -5.841256,8.744805 -15.817661,12.135718 -17.901383,11.657487 -2.083723,-0.478231 -1.585601,-6.933959 -0.697457,-10.793969 0.888144,-3.860012 2.620037,-5.201057 3.952254,-5.679289 1.332216,-0.478231 6.323703,-0.62156 8.236629,-0.963154 1.912925,-0.341595 4.739935,-2.05265 6.277108,-4.682922 1.537173,-2.630273 1.617866,-4.794934 0.763881,-5.54644 -0.853984,-0.751507 -3.406895,0.746832 -8.7016,1.361701 -5.294706,0.614869 -7.588548,-0.399554 -8.203417,-1.560974 -0.614868,-1.161419 1.31807,-2.631464 1.693823,-4.749347 0.375754,-2.117881 -4.813937,-6.430855 -6.077835,-6.874928 -1.263897,-0.444071 -5.249729,-0.727704 -11.159303,1.560974 -5.909576,2.28868 -8.941602,8.98175 -7.472748,13.251673 1.468853,4.269925 8.412283,12.63407 10.461847,15.44368 2.049563,2.809609 2.654139,6.169924 2.756613,7.040989 0.102478,0.871065 -0.35018,2.712983 -0.896729,3.088736 0,0 -0.780992,0.232485 -1.361701,0.232485 -0.58071,0 -5.032215,-1.714721 -6.808504,-2.158794 C 17.789362,54.278436 7.3623768,47.201791 4.2880316,36.953974 1.2136865,26.706157 6.2432431,14.903662 14.783091,10.018869 19.586756,7.2711726 24.291409,5.8895626 29.363253,5.734494 z m 6.841716,20.624784 -3.885829,1.527762 c 0,0 1.192829,-0.819887 1.893096,-1.19564 0.700268,-0.375753 1.992733,-0.332122 1.992733,-0.332122 z"
       style="opacity:0.7;fill:#000000;fill-opacity:1;stroke:none;filter:url(#filter3864)"
       transform="matrix(0.91932313,0,0,0.91932313,3.1186923,2.7919965)" />
  </g>
  <g
     id="layer1"
     inkscape:label="Layer 1"
     inkscape:groupmode="layer"
     style="display:inline">
    <path
       style="fill:#ff7a00;fill-opacity:1;stroke:none"
       d="M 31.028993,5.2853687 C 18.848151,5.7276131 10.859776,12.805372 7.915696,17.16261 4.7753443,21.810331 0.6675787,35.492346 7.7019668,45.039016 c 7.0343882,9.54667 16.4145452,11.805727 19.0524412,12.18257 2.637895,0.376841 6.076018,0.488524 6.076018,0.488524 C 35.374111,57.663 49.758072,54.775905 55.3636,46.07713 60.969128,37.378355 61.559839,27.472795 58.325277,21.773056 55.090714,16.073318 47.114701,5.8035267 33.532679,5.2853687 c -0.848876,-0.032385 -1.69163,-0.029483 -2.503686,0 z M 30.11301,8.0638494 c 3.626516,-0.110878 7.442573,0.456527 11.63298,1.679302 9.578074,2.7949116 14.272786,13.2714116 14.869452,15.8464986 0.596668,2.575089 2.164063,9.700232 -3.205939,17.739532 -5.370002,8.039301 -14.541541,11.156646 -16.457155,10.716997 -1.915615,-0.439649 -1.45768,-6.374549 -0.641189,-9.923145 0.816492,-3.548599 2.408661,-4.781452 3.633399,-5.221102 1.224737,-0.439649 5.813526,-0.571414 7.572123,-0.88545 1.758597,-0.314036 4.357532,-1.887048 5.770691,-4.305118 1.413159,-2.418071 1.487342,-4.408094 0.702253,-5.098971 -0.785087,-0.690878 -3.132037,0.68658 -7.999582,1.251843 -4.867545,0.565264 -6.976327,-0.367319 -7.541591,-1.435039 -0.565262,-1.067719 1.211733,-2.419166 1.557171,-4.366185 0.345439,-1.947017 -4.425564,-5.912033 -5.587494,-6.32028 -1.16193,-0.408245 -4.826198,-0.668995 -10.259006,1.43504 -5.432809,2.104036 -8.220221,8.25713 -6.86987,12.182569 1.350351,3.925441 7.733607,11.614793 9.617818,14.197732 1.884211,2.582939 2.440012,5.672154 2.534218,6.472944 0.09421,0.80079 -0.321928,2.494108 -0.824383,2.839547 0,0 -0.717984,0.213729 -1.251844,0.213729 -0.53386,0 -4.626231,-1.576383 -6.259215,-1.98463 C 19.472865,52.691418 9.8870956,46.185694 7.0607789,36.764639 4.2344623,27.343584 8.8582501,16.493277 16.70913,12.002574 21.12525,9.4765534 25.450347,8.2064074 30.11301,8.0638494 z m 6.289748,18.9608406 -3.572332,1.404507 c 0,0 1.096595,-0.753741 1.740366,-1.09918 0.643773,-0.345438 1.831966,-0.305327 1.831966,-0.305327 z"
       id="path3060"
       inkscape:connector-curvature="0" />
  </g>
</svg>
