<?xml version="1.0" encoding="UTF-8" standalone="no"?>
<!-- Created with Inkscape (http://www.inkscape.org/) -->

<svg
   xmlns:dc="http://purl.org/dc/elements/1.1/"
   xmlns:cc="http://creativecommons.org/ns#"
   xmlns:rdf="http://www.w3.org/1999/02/22-rdf-syntax-ns#"
   xmlns:svg="http://www.w3.org/2000/svg"
   xmlns="http://www.w3.org/2000/svg"
   version="1.1"
   width="64"
   height="64"
   id="svg2985">
  <defs
     id="defs2987" />
  <metadata
     id="metadata2990">
    <rdf:RDF>
      <cc:Work
         rdf:about="">
        <dc:format>image/svg+xml</dc:format>
        <dc:type
           rdf:resource="http://purl.org/dc/dcmitype/StillImage" />
        <dc:title></dc:title>
      </cc:Work>
    </rdf:RDF>
  </metadata>
  <g
     id="layer3"
     style="display:inline">
    <rect
       width="54.561356"
       height="54.494404"
       ry="8.0747871"
       x="4.8121743"
       y="6.016294"
       id="rect3872-3"
       style="fill:#666666;fill-opacity:1;stroke:none;display:inline" />
  </g>
  <g
     id="layer4">
    <path
       d="m 12.96875,3.46875 c -5.1246401,0 -9.28125,4.19348 -9.28125,9.3125 l 0,38.34375 c 0,0.251911 0.039607,0.526729 0.0625,0.8125 l -0.03125,0 0,0.46875 c 0,5.11902 4.162231,9.28125 9.28125,9.28125 l 38.4375,0 c 5.11902,0 9.28125,-4.16223 9.28125,-9.28125 l 0,-38.34375 c 0,-0.253195 -0.03888,-0.546053 -0.0625,-0.84375 l 0.03125,0 0,-0.4375 c 0,-5.1190199 -4.156609,-9.3125 -9.28125,-9.3125 l -38.4375,0 z"
       id="path3024"
       style="opacity:0.1;fill:#000000;fill-opacity:1;stroke:none;display:inline" />
    <path
       d="m 12.96875,3.9375 c -4.8717359,0 -8.8125,3.9754512 -8.8125,8.84375 l 0,38.34375 c 0,0.265824 0.00558,0.525594 0.03125,0.8125 0.00197,0.02204 -0.00225,0.04022 0,0.0625 l 0,0.40625 c 0,4.868298 3.9442022,8.8125 8.8125,8.8125 l 38.4375,0 c 4.868298,0 8.8125,-3.944202 8.8125,-8.8125 l 0,-38.34375 c 0,-0.266559 -0.005,-0.548445 -0.03125,-0.84375 l 0,-0.0625 0,-0.375 c 0,-4.8682987 -3.940764,-8.84375 -8.8125,-8.84375 l -38.4375,0 z"
       id="path3794"
       style="opacity:0.15;fill:#000000;fill-opacity:1;stroke:none;display:inline" />
    <path
       d="m 12.96875,4.28125 c -4.6980495,0 -8.46875,3.8038883 -8.46875,8.5 l 0,38.34375 c 0,0.272863 0.00443,0.529928 0.03125,0.8125 0.00103,0.01085 -0.0011,0.02035 0,0.03125 l 0,0.4375 c 0,4.696111 3.7726393,8.46875 8.46875,8.46875 l 38.4375,0 c 4.696111,0 8.46875,-3.772639 8.46875,-8.46875 l 0,-38.34375 c 0,-0.273255 -0.0041,-0.556079 -0.03125,-0.84375 l 0,-0.03125 0,-0.40625 c 0,-4.6961116 -3.7707,-8.5 -8.46875,-8.5 l -38.4375,0 z"
       id="path3796"
       style="opacity:0.3;fill:#000000;fill-opacity:1;stroke:none;display:inline" />
  </g>
  <g
     id="layer2"
     style="display:inline">
    <rect
       width="54.561356"
       height="54.494404"
       ry="8.0747871"
       x="4.7815166"
       y="4.727603"
       id="rect3872"
       style="fill:#ff5c24;fill-opacity:1;stroke:none" />
  </g>
  <g
     id="g3836"
     style="opacity:0.2;display:inline">
    <path
       d="m 21.786406,47.369792 17.795736,11.837111 c 0,0 7.493501,-5.81e-4 11.928728,-5.81e-4 4.435225,0 7.83986,-3.938333 7.83986,-7.78465 0,-3.846317 0,-24.612718 0,-24.612718 l -15.546008,-10.618763 -6.662753,-1.769793 -7.39149,-0.624633 -6.975071,1.769794 -6.506594,4.216273 -2.758796,4.684748 -0.780791,7.703808 1.978005,6.766858 6.24633,6.923016 z"
       id="path3810"
       style="fill:#000000;stroke:none" />
  </g>
  <g
     id="layer1"
     style="display:inline">
    <path
       d="m 31.318941,12.510226 c -8.745514,0.31752 -14.48095,5.399158 -16.594718,8.527537 -2.254689,3.336938 -5.2039527,13.160253 -0.153453,20.014502 5.0505,6.85425 11.785197,8.476192 13.679136,8.746754 1.893936,0.270563 4.362415,0.350748 4.362415,0.350748 1.826296,-0.03383 12.15359,-2.10668 16.178206,-8.352165 4.024618,-6.245484 4.448732,-13.357406 2.126404,-17.449663 -2.322328,-4.092258 -8.048888,-11.465688 -17.800411,-11.837713 -0.60947,-0.02325 -1.214546,-0.02116 -1.797579,0 z M 30.66129,14.5051 c 2.603739,-0.07961 5.343566,0.327774 8.352164,1.205693 6.876797,2.00667 10.247472,9.528514 10.675863,11.377356 0.428391,1.848844 1.553739,6.964503 -2.301778,12.736502 -3.855516,5.772 -10.440431,8.010168 -11.815791,7.694513 -1.375359,-0.315656 -1.046574,-4.576753 -0.460355,-7.124549 0.58622,-2.547798 1.729352,-3.432953 2.608681,-3.74861 0.879329,-0.315656 4.173953,-0.410259 5.43658,-0.635729 1.262623,-0.225469 3.128589,-1.354848 4.143198,-3.090958 1.014611,-1.736108 1.067872,-3.16489 0.504198,-3.660921 -0.563671,-0.496031 -2.248716,0.492944 -5.743481,0.898788 -3.494765,0.405844 -5.008814,-0.263723 -5.414658,-1.030319 -0.405843,-0.766592 0.869992,-1.736895 1.118007,-3.134803 0.248015,-1.397903 -3.177435,-4.244677 -4.01167,-4.537788 -0.834233,-0.293109 -3.465078,-0.480321 -7.365688,1.030319 -3.900608,1.510642 -5.901894,5.928396 -4.93238,8.746755 0.969516,2.818359 5.552521,8.339105 6.905333,10.193585 1.352812,1.85448 1.751862,4.072452 1.819501,4.647397 0.06763,0.574946 -0.231137,1.790703 -0.591887,2.038718 0,0 -0.515493,0.153451 -0.898789,0.153451 -0.383297,0 -3.321509,-1.1318 -4.493945,-1.424909 C 23.021955,46.546482 16.139632,41.87555 14.110414,35.111487 12.081196,28.347426 15.400951,20.5572 21.037669,17.332998 24.208323,15.519383 27.313625,14.607452 30.66129,14.5051 z m 4.515869,13.613368 -2.564838,1.008398 c 0,0 0.787325,-0.541165 1.249535,-0.789182 0.462212,-0.248015 1.315303,-0.219216 1.315303,-0.219216 z"
       id="path3060"
       style="fill:#e3dbdb;fill-opacity:1;stroke:none" />
  </g>
</svg>
