<?xml version="1.0" encoding="UTF-8" standalone="no"?>
<!-- Created with Inkscape (http://www.inkscape.org/) -->

<svg
   xmlns:dc="http://purl.org/dc/elements/1.1/"
   xmlns:cc="http://creativecommons.org/ns#"
   xmlns:rdf="http://www.w3.org/1999/02/22-rdf-syntax-ns#"
   xmlns:svg="http://www.w3.org/2000/svg"
   xmlns="http://www.w3.org/2000/svg"
   xmlns:sodipodi="http://sodipodi.sourceforge.net/DTD/sodipodi-0.dtd"
   xmlns:inkscape="http://www.inkscape.org/namespaces/inkscape"
   width="64px"
   height="64px"
   id="svg2985"
   version="1.1"
   inkscape:version="0.48.4 r9939"
   sodipodi:docname="back.svg">
  <defs
     id="defs2987">
    <filter
       inkscape:collect="always"
       id="filter3791">
      <feGaussianBlur
         inkscape:collect="always"
         stdDeviation="1.5511719"
         id="feGaussianBlur3793" />
    </filter>
  </defs>
  <sodipodi:namedview
     id="base"
     pagecolor="#ffffff"
     bordercolor="#666666"
     borderopacity="1.0"
     inkscape:pageopacity="0.0"
     inkscape:pageshadow="2"
     inkscape:zoom="10.482021"
     inkscape:cx="34.059779"
     inkscape:cy="31.61446"
     inkscape:current-layer="g3793"
     showgrid="true"
     inkscape:document-units="px"
     inkscape:grid-bbox="true"
     inkscape:window-width="1280"
     inkscape:window-height="977"
     inkscape:window-x="0"
     inkscape:window-y="22"
     inkscape:window-maximized="1" />
  <metadata
     id="metadata2990">
    <rdf:RDF>
      <cc:Work
         rdf:about="">
        <dc:format>image/svg+xml</dc:format>
        <dc:type
           rdf:resource="http://purl.org/dc/dcmitype/StillImage" />
        <dc:title />
      </cc:Work>
    </rdf:RDF>
  </metadata>
  <g
     id="layer1"
     inkscape:label="bg"
     inkscape:groupmode="layer"
     style="display:inline">
    <path
       style="fill:#000000;fill-opacity:1;stroke:none;display:inline;filter:url(#filter3791);opacity:0.5"
       d="m 32.630599,1.5906924 c -17.306116,0 -31.2187503,13.1124216 -31.2187503,30.4374996 0,17.325078 14.0376343,30.84375 31.3437503,30.84375 17.306116,0 31.46875,-13.393672 31.46875,-30.71875 l -0.03125,-0.59375 C 63.871183,14.467919 49.706451,1.5906924 32.630599,1.5906924 z m 0.25,4.243522 c 15.114181,0 26.575203,10.6909256 26.860137,25.8189776 l 0,0.5 c 0,15.334776 -11.542144,26.636433 -26.860137,26.636433 -15.317993,0 -26.8913873,-11.301657 -26.8913873,-26.636433 0,-15.334776 11.5733943,-26.3189776 26.8913873,-26.3189776 z m -8.0625,10.4752276 -16.5000003,16.5 16.6250003,16.59375 2.46875,-2.46875 -12.90625,-12.90625 42.46875,0 0,-3.875 -41.375,0.28125 12.46875,-12.46875 z"
       id="path3795-1"
       inkscape:connector-curvature="0"
       sodipodi:nodetypes="sssccsscsssscccccccccc" />
  </g>
  <g
     inkscape:groupmode="layer"
     inkscape:label="layer"
     id="g3793"
     style="display:inline">
    <path
       style="fill:#ffffff;fill-opacity:1;stroke:none"
       d="m 32.123349,1.4424544 c -17.306116,0 -31.21875045,13.1124216 -31.21875045,30.4374996 0,17.325078 14.03763445,30.84375 31.34375045,30.84375 17.306116,0 31.46875,-13.393672 31.46875,-30.71875 l -0.03125,-0.59375 C 63.363933,14.319681 49.199201,1.4424544 32.123349,1.4424544 z m 0.25,5.0067333 c 15.114181,0 26.3844,9.9277143 26.669334,25.0557663 l 0,0.5 c 0,15.334776 -11.351341,26.254827 -26.669334,26.254827 -15.317993,0 -26.1281759,-10.920051 -26.1281759,-26.254827 0,-15.334776 10.8101829,-25.5557663 26.1281759,-25.5557663 z m -8.0625,9.7120163 -16.5000005,16.5 16.6250005,16.59375 2.46875,-2.46875 -12.90625,-12.90625 42.46875,0 0,-3.875 -41.375,0.28125 12.46875,-12.46875 z"
       id="path3795"
       inkscape:connector-curvature="0"
       sodipodi:nodetypes="sssccsscsssscccccccccc" />
  </g>
</svg>
