<?xml version="1.0" encoding="UTF-8" standalone="no"?>
<!-- Created with Inkscape (http://www.inkscape.org/) -->

<svg
   xmlns:dc="http://purl.org/dc/elements/1.1/"
   xmlns:cc="http://creativecommons.org/ns#"
   xmlns:rdf="http://www.w3.org/1999/02/22-rdf-syntax-ns#"
   xmlns:svg="http://www.w3.org/2000/svg"
   xmlns="http://www.w3.org/2000/svg"
   xmlns:sodipodi="http://sodipodi.sourceforge.net/DTD/sodipodi-0.dtd"
   xmlns:inkscape="http://www.inkscape.org/namespaces/inkscape"
   width="64px"
   height="64px"
   id="svg2985"
   version="1.1"
   inkscape:version="0.48.4 r9939"
   sodipodi:docname="close.svg">
  <defs
     id="defs2987">
    <filter
       inkscape:collect="always"
       id="filter3790">
      <feGaussianBlur
         inkscape:collect="always"
         stdDeviation="1.2409375"
         id="feGaussianBlur3792" />
    </filter>
    <filter
       inkscape:collect="always"
       id="filter3789">
      <feGaussianBlur
         inkscape:collect="always"
         stdDeviation="1.5511719"
         id="feGaussianBlur3791" />
    </filter>
  </defs>
  <sodipodi:namedview
     id="base"
     pagecolor="#ffffff"
     bordercolor="#666666"
     borderopacity="1.0"
     inkscape:pageopacity="0.0"
     inkscape:pageshadow="2"
     inkscape:zoom="11"
     inkscape:cx="27.788943"
     inkscape:cy="37.887585"
     inkscape:current-layer="layer1"
     showgrid="true"
     inkscape:document-units="px"
     inkscape:grid-bbox="true"
     inkscape:window-width="1280"
     inkscape:window-height="977"
     inkscape:window-x="0"
     inkscape:window-y="22"
     inkscape:window-maximized="1" />
  <metadata
     id="metadata2990">
    <rdf:RDF>
      <cc:Work
         rdf:about="">
        <dc:format>image/svg+xml</dc:format>
        <dc:type
           rdf:resource="http://purl.org/dc/dcmitype/StillImage" />
        <dc:title />
      </cc:Work>
    </rdf:RDF>
  </metadata>
  <g
     id="layer1"
     inkscape:label="bg"
     inkscape:groupmode="layer"
     style="display:inline">
    <path
       style="fill:#000000;fill-opacity:1;stroke:none;display:inline;filter:url(#filter3789);opacity:0.5"
       d="m 32.176137,1.0866475 c -17.306116,0 -31.21875018,13.1124215 -31.21875018,30.4375005 0,17.325077 14.03763418,30.843749 31.34375018,30.843749 17.306116,0 31.46875,-13.393672 31.46875,-30.718749 l -0.03125,-0.59375 C 63.416721,13.963874 49.251989,1.0866475 32.176137,1.0866475 z m 0.25,4.085228 c 15.114181,0 26.342907,10.8492205 26.627841,25.9772725 l 0,0.5 c 0,15.334775 -11.309848,26.872158 -26.627841,26.872158 -15.317993,0 -27.0227282,-11.537383 -27.0227282,-26.872158 0,-15.334776 11.7047352,-26.4772725 27.0227282,-26.4772725 z m 14.5625,9.2897725 -15.15625,15.09375 -14.90625,-14.9375 -3.3125,3.5625 15.15625,14.46875 -14.75,14.718749 3.5625,3.28125 14.3125,-15 15.4375,14.71875 2.53125,-2.75 -15.03125,-15.062499 14.90625,-15.59375 z"
       id="path3795-6"
       inkscape:connector-curvature="0"
       sodipodi:nodetypes="sssccsscssssccccccccccccc" />
  </g>
  <g
     inkscape:groupmode="layer"
     inkscape:label="layer"
     id="g3793"
     style="display:inline">
    <path
       style="fill:#ffffff;fill-opacity:1;stroke:none"
       d="M 32.21875,1.15625 C 14.912634,1.15625 1,14.268672 1,31.59375 1,48.918828 15.037634,62.4375 32.34375,62.4375 49.649866,62.4375 63.8125,49.043828 63.8125,31.71875 L 63.78125,31.125 C 63.459334,14.033477 49.294602,1.15625 32.21875,1.15625 z m 0.25,4.0852273 c 15.114181,0 26.342907,10.8492207 26.627841,25.9772727 l 0,0.5 c 0,15.334776 -11.309848,26.872159 -26.627841,26.872159 -15.317993,0 -27.0227273,-11.537383 -27.0227273,-26.872159 0,-15.334776 11.7047343,-26.4772727 27.0227273,-26.4772727 z M 47.03125,14.53125 31.875,29.625 16.96875,14.6875 13.65625,18.25 28.8125,32.71875 l -14.75,14.71875 3.5625,3.28125 14.3125,-15 15.4375,14.71875 2.53125,-2.75 L 34.875,32.625 49.78125,17.03125 z"
       id="path3795"
       inkscape:connector-curvature="0"
       sodipodi:nodetypes="sssccsscssssccccccccccccc" />
  </g>
</svg>
