<?xml version="1.0" encoding="UTF-8" standalone="no"?>
<!-- Created with Inkscape (http://www.inkscape.org/) -->

<svg
   xmlns:dc="http://purl.org/dc/elements/1.1/"
   xmlns:cc="http://creativecommons.org/ns#"
   xmlns:rdf="http://www.w3.org/1999/02/22-rdf-syntax-ns#"
   xmlns:svg="http://www.w3.org/2000/svg"
   xmlns="http://www.w3.org/2000/svg"
   xmlns:sodipodi="http://sodipodi.sourceforge.net/DTD/sodipodi-0.dtd"
   xmlns:inkscape="http://www.inkscape.org/namespaces/inkscape"
   width="64px"
   height="64px"
   id="svg2985"
   version="1.1"
   inkscape:version="0.48.4 r9939"
   sodipodi:docname="close.svg">
  <defs
     id="defs2987">
    <filter
       inkscape:collect="always"
       id="filter3790">
      <feGaussianBlur
         inkscape:collect="always"
         stdDeviation="1.2409375"
         id="feGaussianBlur3792" />
    </filter>
  </defs>
  <sodipodi:namedview
     id="base"
     pagecolor="#ffffff"
     bordercolor="#666666"
     borderopacity="1.0"
     inkscape:pageopacity="0.0"
     inkscape:pageshadow="2"
     inkscape:zoom="11"
     inkscape:cx="25.56167"
     inkscape:cy="29.614858"
     inkscape:current-layer="g3793"
     showgrid="true"
     inkscape:document-units="px"
     inkscape:grid-bbox="true"
     inkscape:window-width="1237"
     inkscape:window-height="978"
     inkscape:window-x="43"
     inkscape:window-y="22"
     inkscape:window-maximized="1" />
  <metadata
     id="metadata2990">
    <rdf:RDF>
      <cc:Work
         rdf:about="">
        <dc:format>image/svg+xml</dc:format>
        <dc:type
           rdf:resource="http://purl.org/dc/dcmitype/StillImage" />
        <dc:title />
      </cc:Work>
    </rdf:RDF>
  </metadata>
  <g
     id="layer1"
     inkscape:label="bg"
     inkscape:groupmode="layer"
     style="display:inline">
    <path
       inkscape:connector-curvature="0"
       style="fill:#000000;fill-opacity:1;stroke:none;display:inline;filter:url(#filter3790);opacity:0.7"
       d="m 32.085227,1.5411932 c -17.306116,0 -31.21875,13.1124218 -31.21875,30.4374998 0,17.325078 14.037634,30.84375 31.34375,30.84375 17.306116,0 31.46875,-13.393672 31.46875,-30.71875 l -0.03125,-0.59375 C 63.325811,14.41842 49.161079,1.5411932 32.085227,1.5411932 z m 0.25,2.8125 c 15.114181,0 27.433816,12.1219478 27.71875,27.2499998 l 0,0.5 c 0,15.334776 -12.400757,27.78125 -27.71875,27.78125 -15.317993,0 -27.75,-12.446474 -27.75,-27.78125 0,-15.334776 12.432007,-27.7499998 27.75,-27.7499998 z m 14.5625,10.5624998 -15.15625,15.09375 -14.90625,-14.9375 -3.3125,3.5625 15.15625,14.46875 -14.75,14.71875 3.5625,3.28125 14.3125,-15 15.4375,14.71875 2.53125,-2.75 -15.03125,-15.0625 14.90625,-15.59375 -2.75,-2.5 z"
       id="path3795-5" />
  </g>
  <g
     inkscape:groupmode="layer"
     inkscape:label="layer"
     id="g3793"
     style="display:inline">
    <path
       style="fill:#ffffff;fill-opacity:1;stroke:none"
       d="M 32.21875 1.15625 C 14.912634 1.15625 1 14.268672 1 31.59375 C 1 48.918828 15.037634 62.4375 32.34375 62.4375 C 49.649866 62.4375 63.8125 49.043828 63.8125 31.71875 L 63.78125 31.125 C 63.459334 14.033477 49.294602 1.15625 32.21875 1.15625 z M 32.46875 3.96875 C 47.582931 3.96875 59.902566 16.090698 60.1875 31.21875 L 60.1875 31.71875 C 60.1875 47.053526 47.786743 59.5 32.46875 59.5 C 17.150757 59.5 4.71875 47.053526 4.71875 31.71875 C 4.71875 16.383974 17.150757 3.96875 32.46875 3.96875 z M 47.03125 14.53125 L 31.875 29.625 L 16.96875 14.6875 L 13.65625 18.25 L 28.8125 32.71875 L 14.0625 47.4375 L 17.625 50.71875 L 31.9375 35.71875 L 47.375 50.4375 L 49.90625 47.6875 L 34.875 32.625 L 49.78125 17.03125 L 47.03125 14.53125 z "
       id="path3795" />
  </g>
</svg>
