<?xml version="1.0" encoding="UTF-8" standalone="no"?>
<!-- Created with Inkscape (http://www.inkscape.org/) -->

<svg
   xmlns:dc="http://purl.org/dc/elements/1.1/"
   xmlns:cc="http://creativecommons.org/ns#"
   xmlns:rdf="http://www.w3.org/1999/02/22-rdf-syntax-ns#"
   xmlns:svg="http://www.w3.org/2000/svg"
   xmlns="http://www.w3.org/2000/svg"
   xmlns:sodipodi="http://sodipodi.sourceforge.net/DTD/sodipodi-0.dtd"
   xmlns:inkscape="http://www.inkscape.org/namespaces/inkscape"
   width="64px"
   height="64px"
   id="svg3004"
   version="1.1"
   inkscape:version="0.48.4 r9939"
   sodipodi:docname="close.svg">
  <defs
     id="defs3006">
    <filter
       inkscape:collect="always"
       id="filter3916">
      <feGaussianBlur
         inkscape:collect="always"
         stdDeviation="1.3371265"
         id="feGaussianBlur3918" />
    </filter>
  </defs>
  <sodipodi:namedview
     id="base"
     pagecolor="#ffffff"
     bordercolor="#666666"
     borderopacity="1.0"
     inkscape:pageopacity="0.0"
     inkscape:pageshadow="2"
     inkscape:zoom="11"
     inkscape:cx="28.805459"
     inkscape:cy="36.341107"
     inkscape:current-layer="layer1"
     showgrid="true"
     inkscape:document-units="px"
     inkscape:grid-bbox="true"
     inkscape:window-width="1280"
     inkscape:window-height="978"
     inkscape:window-x="0"
     inkscape:window-y="22"
     inkscape:window-maximized="1" />
  <metadata
     id="metadata3009">
    <rdf:RDF>
      <cc:Work
         rdf:about="">
        <dc:format>image/svg+xml</dc:format>
        <dc:type
           rdf:resource="http://purl.org/dc/dcmitype/StillImage" />
        <dc:title />
      </cc:Work>
    </rdf:RDF>
  </metadata>
  <g
     id="layer1"
     inkscape:label="Layer 1"
     inkscape:groupmode="layer">
    <path
       style="opacity:0.69819821;fill:#000000;fill-opacity:0.61616163;stroke:none"
       d="M 50.027685,12.422011 C 39.869369,1.8803949 22.95144,1.7314219 12.225424,12.067435 1.4994062,22.403446 1.0219534,39.315293 11.18027,49.856908 21.338585,60.398525 38.282583,60.57455 49.008599,50.238537 l 0.378736,-0.364964 C 59.779801,39.480811 60.05084,22.823366 50.027685,12.422011 z M 49.644036,15.922121 34.322474,31.208315 48.852671,45.745354 44.848898,49.603547 30.210491,35.170783 15.640498,50.045777 11.359301,45.927892 26.00455,31.29342 11.682903,16.972801 l 4.005741,-3.964435 14.350666,14.188307 15.562082,-15.36145 4.042644,4.086898 z"
       id="path2985"
       inkscape:connector-curvature="0" />
    <path
       inkscape:connector-curvature="0"
       id="path3762"
       d="M 49.799074,12.1934 C 39.640758,1.6517841 22.722829,1.5028111 11.996813,11.838824 1.2707954,22.174835 0.7933426,39.086682 10.951659,49.628297 21.109974,60.169914 38.053972,60.345939 48.779988,50.009926 l 0.378736,-0.364964 C 59.55119,39.2522 59.822229,22.594755 49.799074,12.1934 z M 49.415425,15.69351 34.093863,30.979704 48.62406,45.516743 44.620287,49.374936 29.98188,34.942172 15.411887,49.817166 11.13069,45.699281 25.775939,31.064809 11.454292,16.74419 l 4.005741,-3.964435 14.350666,14.188307 15.562082,-15.36145 4.042644,4.086898 z"
       style="opacity:0.69819821000000004;fill:#000000;fill-opacity:0.52020204000000003;stroke:none;filter:url(#filter3916)" />
  </g>
</svg>
