<?xml version="1.0" encoding="UTF-8" standalone="no"?>
<!-- Created with Inkscape (http://www.inkscape.org/) -->

<svg
   xmlns:dc="http://purl.org/dc/elements/1.1/"
   xmlns:cc="http://creativecommons.org/ns#"
   xmlns:rdf="http://www.w3.org/1999/02/22-rdf-syntax-ns#"
   xmlns:svg="http://www.w3.org/2000/svg"
   xmlns="http://www.w3.org/2000/svg"
   xmlns:sodipodi="http://sodipodi.sourceforge.net/DTD/sodipodi-0.dtd"
   xmlns:inkscape="http://www.inkscape.org/namespaces/inkscape"
   width="64px"
   height="64px"
   id="svg2993"
   version="1.1"
   inkscape:version="0.48.5 r"
   sodipodi:docname="duck-settings.svg">
  <defs
     id="defs2995">
    <linearGradient
       id="linearGradient3862">
      <stop
         style="stop-color:#000000;stop-opacity:1;"
         offset="0"
         id="stop3864" />
      <stop
         style="stop-color:#000000;stop-opacity:0;"
         offset="1"
         id="stop3866" />
    </linearGradient>
  </defs>
  <sodipodi:namedview
     id="base"
     pagecolor="#ffffff"
     bordercolor="#666666"
     borderopacity="1.0"
     inkscape:pageopacity="0.0"
     inkscape:pageshadow="2"
     inkscape:zoom="11.313708"
     inkscape:cx="34.736153"
     inkscape:cy="19.349833"
     inkscape:current-layer="g3845"
     showgrid="true"
     inkscape:document-units="px"
     inkscape:grid-bbox="true"
     showguides="true"
     inkscape:guide-bbox="true"
     inkscape:window-width="801"
     inkscape:window-height="798"
     inkscape:window-x="264"
     inkscape:window-y="108"
     inkscape:window-maximized="0">
    <sodipodi:guide
       position="0,0"
       orientation="0,64"
       id="guide3016" />
    <sodipodi:guide
       position="64,0"
       orientation="-64,0"
       id="guide3018" />
    <sodipodi:guide
       position="64,64"
       orientation="0,-64"
       id="guide3020" />
    <sodipodi:guide
       position="0,64"
       orientation="64,0"
       id="guide3022" />
    <sodipodi:guide
       orientation="0.70710678,0.70710678"
       position="48.163614,46.090506"
       id="guide3851" />
    <sodipodi:guide
       orientation="0.70710678,0.70710678"
       position="37.846283,51.699148"
       id="guide3853" />
    <sodipodi:guide
       orientation="0.70710678,0.70710678"
       position="35.741034,13.499311"
       id="guide3855" />
    <sodipodi:guide
       orientation="0.70710678,0.70710678"
       position="16.231315,17.195551"
       id="guide3857" />
  </sodipodi:namedview>
  <metadata
     id="metadata2998">
    <rdf:RDF>
      <cc:Work
         rdf:about="">
        <dc:format>image/svg+xml</dc:format>
        <dc:type
           rdf:resource="http://purl.org/dc/dcmitype/StillImage" />
        <dc:title />
      </cc:Work>
    </rdf:RDF>
  </metadata>
  <g
     id="layer1"
     inkscape:label="Layer 1"
     inkscape:groupmode="layer"
     style="display:inline">
    <rect
       style="fill:#6f67ff;fill-opacity:1;stroke:none"
       id="rect3024"
       width="64"
       height="64"
       x="1.1324883e-06"
       y="0"
       ry="4.3528175"
       rx="4.3528175" />
  </g>
  <g
     style="display:inline;opacity:1"
     inkscape:groupmode="layer"
     inkscape:label="Layer 1 copy"
     id="g3845">
    <path
       style="fill:#000000;fill-opacity:1;stroke:none;opacity:0.2"
       d="m 36.96875,11.4375 -0.40625,0.46875 -7.78125,4.46875 -3.1875,4.28125 -6.375,1.5 L 11.375,26.125 15.8125,30.5625 16.34375,46.90625 33.4375,64 59.65625,64 C 62.067711,64 64,62.067711 64,59.65625 L 64,33.75 47.71875,17.46875 l -2.3125,2.375 z"
       id="rect3847"
       inkscape:connector-curvature="0"
       sodipodi:nodetypes="cccccccccsscccc" />
  </g>
  <g
     inkscape:groupmode="layer"
     id="layer3"
     inkscape:label="Layer"
     style="display:inline">
    <path
       inkscape:connector-curvature="0"
       d="m 27.051232,11.313708 -1.09316,5.119117 c -1.705521,0.631058 -3.271479,1.525252 -4.668091,2.632687 l -4.579456,-1.667369 -5.436258,8.804879 3.870379,3.159227 c -0.154702,0.91017 -0.236359,1.854326 -0.236359,2.8082 0,0.890485 0.101611,1.750394 0.236359,2.603437 l -3.781744,3.100721 4.993084,9.068149 4.786272,-1.784378 c 1.410056,1.143207 3.021802,2.041641 4.756724,2.691193 l 0.797711,4.797342 10.429343,0.263271 0.856802,-5.089866 c 1.711599,-0.654752 3.275171,-1.587151 4.668091,-2.720444 l 4.993084,1.696621 5.08172,-8.453854 -4.077194,-3.627259 c 0.127344,-0.828045 0.206814,-1.680939 0.206814,-2.544933 0,-0.92649 -0.09071,-1.834709 -0.236358,-2.720445 l 3.929468,-3.363991 -4.845359,-8.600114 -5.08172,1.638118 c -1.376027,-1.113245 -2.952746,-1.987806 -4.638546,-2.632689 l -1.004526,-5.060612 z"
       id="path3773-5"
       style="fill:#ffffff;fill-opacity:1;stroke:none"
       sodipodi:nodetypes="ccccccsccccccccccccsccccccc" />
    <g
       id="g3837"
       transform="matrix(0.72074646,0,0,0.72074646,8.8337191,9.2913514)"
       style="fill:#8080ff;fill-opacity:1">
      <g
         style="fill:#8080ff;fill-opacity:1;display:inline"
         inkscape:label="bg4"
         id="layer4" />
      <g
         style="opacity:0.6;fill:#8080ff;fill-opacity:1;display:inline"
         inkscape:label="bg3"
         id="layer3-2" />
      <g
         style="fill:#8080ff;fill-opacity:1;display:inline"
         inkscape:label="bg2"
         id="layer2" />
      <g
         style="opacity:0.2;fill:#8080ff;fill-opacity:1;display:inline"
         id="g3836"
         inkscape:label="bg" />
      <g
         style="fill:#8080ff;fill-opacity:1;display:inline"
         inkscape:label="Layer 1"
         id="layer1-1">
        <path
           sodipodi:type="inkscape:offset"
           inkscape:radius="0.6744895"
           inkscape:original="M 31.40625 15.0625 C 23.769318 15.339771 18.783327 19.768175 16.9375 22.5 C 14.968616 25.413948 12.370952 33.983346 16.78125 39.96875 C 21.191548 45.954155 27.096137 47.388734 28.75 47.625 C 30.403861 47.861266 32.53125 47.9375 32.53125 47.9375 C 34.126045 47.90796 43.173044 46.078807 46.6875 40.625 C 50.201957 35.171194 50.559199 28.979772 48.53125 25.40625 C 46.5033 21.832727 41.515419 15.387367 33 15.0625 C 32.467786 15.0422 31.915378 15.04402 31.40625 15.0625 z M 30.84375 16.8125 C 33.117439 16.74298 35.497772 17.077116 38.125 17.84375 C 44.130094 19.596055 47.094662 26.166767 47.46875 27.78125 C 47.842838 29.395734 48.804291 33.86591 45.4375 38.90625 C 42.070709 43.946591 36.326019 45.900643 35.125 45.625 C 33.923982 45.349357 34.20684 41.631087 34.71875 39.40625 C 35.23066 37.181411 36.232135 36.400644 37 36.125 C 37.767865 35.849356 40.647424 35.790639 41.75 35.59375 C 42.852573 35.396861 44.489003 34.39104 45.375 32.875 C 46.260999 31.358961 46.304722 30.120654 45.8125 29.6875 C 45.32028 29.254346 43.833018 30.114351 40.78125 30.46875 C 37.729481 30.823149 36.416899 30.231922 36.0625 29.5625 C 35.708102 28.893081 36.814674 28.064459 37.03125 26.84375 C 37.247827 25.623045 34.259737 23.130956 33.53125 22.875 C 32.802764 22.619046 30.499918 22.462099 27.09375 23.78125 C 23.687583 25.100403 21.965881 28.945146 22.8125 31.40625 C 23.65912 33.867353 27.662421 38.693094 28.84375 40.3125 C 30.02508 41.931906 30.347185 43.872935 30.40625 44.375 C 30.46531 44.877066 30.221271 45.939673 29.90625 46.15625 C 29.90625 46.15625 29.45971 46.28125 29.125 46.28125 C 28.79029 46.28125 26.211318 45.287205 25.1875 45.03125 C 24.16368 44.775296 18.146994 40.6879 16.375 34.78125 C 14.603006 28.874602 17.515292 22.096752 22.4375 19.28125 C 25.206241 17.697529 27.920435 16.901878 30.84375 16.8125 z M 34.78125 28.6875 L 32.53125 29.5625 C 32.53125 29.5625 33.22138 29.091578 33.625 28.875 C 34.028622 28.658423 34.78125 28.6875 34.78125 28.6875 z "
           style="fill:#8080ff;fill-opacity:1;stroke:none"
           id="path3908"
           d="m 31.375,14.375 c -7.886522,0.286333 -13.028027,4.831478 -15,7.75 -1.079121,1.597099 -2.237469,4.506374 -2.59375,7.875 -0.356281,3.368626 0.134899,7.207631 2.46875,10.375 4.550309,6.175421 10.596482,7.647712 12.40625,7.90625 C 30.370166,48.526095 32.5,48.625 32.5,48.625 a 0.67455695,0.67455695 0 0 0 0.03125,0 c 0.515761,-0.0096 1.374343,-0.138555 2.53125,-0.40625 1.156907,-0.267695 2.575869,-0.695545 4.0625,-1.28125 C 42.098262,45.76609 45.368624,43.919559 47.25,41 50.879087,35.368308 51.334786,28.956443 49.125,25.0625 47.034563,21.378867 41.87625,14.712441 33.03125,14.375 c -0.551512,-0.02104 -1.131052,-0.01906 -1.65625,0 z m -0.5,3.125 c 2.193327,-0.06706 4.489848,0.249291 7.0625,1 2.813572,0.821009 4.956809,2.795312 6.4375,4.78125 1.480691,1.985938 2.293477,4.034679 2.4375,4.65625 0.369654,1.595346 1.294035,5.755898 -1.9375,10.59375 -1.607338,2.406306 -3.790689,4.083617 -5.71875,5.125 -0.964031,0.520692 -1.855274,0.88608 -2.5625,1.09375 -0.707226,0.20767 -1.29585,0.222571 -1.3125,0.21875 0.02761,0.0063 -0.05622,0.0017 -0.15625,-0.3125 -0.100025,-0.314206 -0.149026,-0.824481 -0.15625,-1.40625 -0.01445,-1.163539 0.162619,-2.628644 0.40625,-3.6875 0.476538,-2.071108 1.281564,-2.61069 1.84375,-2.8125 0.14592,-0.05238 1.146167,-0.176727 2.09375,-0.25 0.947583,-0.07327 1.922603,-0.135732 2.5625,-0.25 1.380213,-0.246468 3.090775,-1.315048 4.09375,-3.03125 0.480926,-0.822916 0.738666,-1.602198 0.8125,-2.28125 0.07383,-0.679052 -0.0384,-1.316295 -0.53125,-1.75 -0.332614,-0.2927 -0.727129,-0.314287 -1.0625,-0.28125 -0.335371,0.03304 -0.681842,0.115038 -1.09375,0.21875 -0.823816,0.207423 -1.898743,0.516064 -3.375,0.6875 -1.472188,0.170964 -2.517757,0.09603 -3.15625,-0.0625 -0.638493,-0.158527 -0.85174,-0.397037 -0.90625,-0.5 0.0062,0.01178 0.0053,0.05513 0.03125,-0.03125 0.02592,-0.08638 0.09497,-0.257165 0.21875,-0.46875 0.247567,-0.42317 0.643031,-1.002192 0.78125,-1.78125 C 37.795144,26.362032 37.552712,25.849598 37.25,25.375 36.947288,24.900402 36.554003,24.458451 36.125,24.03125 35.695997,23.604049 35.217038,23.214248 34.8125,22.90625 34.407962,22.598252 34.119019,22.379656 33.75,22.25 c -0.533271,-0.187365 -1.338989,-0.287033 -2.5,-0.1875 -1.161011,0.09953 -2.64703,0.412434 -4.40625,1.09375 -1.87318,0.725452 -3.274164,2.121531 -4.09375,3.6875 -0.819586,1.565969 -1.066702,3.315544 -0.5625,4.78125 0.485575,1.411553 1.702469,3.204632 2.96875,4.9375 1.266281,1.732868 2.591379,3.381906 3.15625,4.15625 1.064502,1.459254 1.388112,3.33019 1.4375,3.75 0.01049,0.08915 -0.01756,0.427518 -0.09375,0.71875 -0.03524,0.134695 -0.08696,0.259888 -0.125,0.34375 -0.139338,0.02958 -0.292208,0.0625 -0.40625,0.0625 0.12509,0 0.02329,0.02271 -0.0625,0 -0.08579,-0.02271 -0.197241,-0.07829 -0.34375,-0.125 -0.293018,-0.09342 -0.687014,-0.203684 -1.09375,-0.34375 -0.813471,-0.280131 -1.699302,-0.604513 -2.28125,-0.75 0.003,7.57e-4 -0.638955,-0.291275 -1.34375,-0.78125 -0.704795,-0.489975 -1.569685,-1.193251 -2.46875,-2.0625 -1.79813,-1.738498 -3.662073,-4.144408 -4.5,-6.9375 -1.67274,-5.575802 1.133228,-12.077957 5.75,-14.71875 2.688347,-1.537735 5.279903,-2.288969 8.09375,-2.375 z"
           transform="matrix(0.82667638,0,0,0.82667638,5.5586257,5.4584058)" />
      </g>
    </g>
  </g>
</svg>
