<?xml version="1.0" encoding="UTF-8" standalone="no"?>
<!-- Created with Inkscape (http://www.inkscape.org/) -->

<svg
   xmlns:dc="http://purl.org/dc/elements/1.1/"
   xmlns:cc="http://creativecommons.org/ns#"
   xmlns:rdf="http://www.w3.org/1999/02/22-rdf-syntax-ns#"
   xmlns:svg="http://www.w3.org/2000/svg"
   xmlns="http://www.w3.org/2000/svg"
   xmlns:sodipodi="http://sodipodi.sourceforge.net/DTD/sodipodi-0.dtd"
   xmlns:inkscape="http://www.inkscape.org/namespaces/inkscape"
   width="64px"
   height="64px"
   id="svg3965"
   version="1.1"
   inkscape:version="0.48.4 r9939"
   sodipodi:docname="file.svg">
  <defs
     id="defs3967">
    <filter
       inkscape:collect="always"
       id="filter4665">
      <feGaussianBlur
         inkscape:collect="always"
         stdDeviation="1.1125"
         id="feGaussianBlur4667" />
    </filter>
  </defs>
  <sodipodi:namedview
     id="base"
     pagecolor="#ffffff"
     bordercolor="#666666"
     borderopacity="1.0"
     inkscape:pageopacity="0.0"
     inkscape:pageshadow="2"
     inkscape:zoom="7.7781746"
     inkscape:cx="24.489318"
     inkscape:cy="32.033811"
     inkscape:current-layer="layer3"
     showgrid="true"
     inkscape:document-units="px"
     inkscape:grid-bbox="true"
     inkscape:window-width="1280"
     inkscape:window-height="977"
     inkscape:window-x="0"
     inkscape:window-y="22"
     inkscape:window-maximized="1" />
  <metadata
     id="metadata3970">
    <rdf:RDF>
      <cc:Work
         rdf:about="">
        <dc:format>image/svg+xml</dc:format>
        <dc:type
           rdf:resource="http://purl.org/dc/dcmitype/StillImage" />
        <dc:title />
      </cc:Work>
    </rdf:RDF>
  </metadata>
  <g
     inkscape:groupmode="layer"
     id="layer3"
     inkscape:label="bg"
     style="display:inline">
    <path
       style="opacity:0.7;fill:#000000;stroke:none;filter:url(#filter4665)"
       d="m 13.399895,6.4550246 26.227273,-0.04546 10,11.2727274 0,41.5 -36.136364,0 z"
       id="path4051-5"
       inkscape:connector-curvature="0"
       transform="matrix(1.1556819,0,0,1.1556819,-5.1530348,-5.3757078)" />
  </g>
  <g
     id="layer1"
     inkscape:label="Layer 1"
     inkscape:groupmode="layer"
     style="display:inline">
    <path
       style="fill:#ffffff;fill-opacity:1;stroke:none"
       d="m 10.454545,1.9541811 30.429316,-0.052738 11.602165,13.0788039 0,48.148985 -41.926007,0 z"
       id="path4051"
       inkscape:connector-curvature="0" />
    <path
       style="fill:#999999;stroke:none"
       d="m 39.881855,5.0656708 0.369161,10.4946852 8.965309,0 -6.803088,-1.951272 z"
       id="path4561"
       inkscape:connector-curvature="0" />
    <path
       style="fill:#b3b3b3;fill-opacity:1;stroke:none"
       d="m 16.993947,7.6497889 c 0,0 5.379187,11.2330061 6.539403,14.8718651 1.160216,3.638862 7.594144,18.510729 9.12352,19.670945 1.529377,1.160216 2.056748,0.896531 2.056748,0.896531 0,0 -0.632845,0.685582 0.158211,1.476638 0.791057,0.791058 4.693603,3.533388 4.693603,3.533388 0,0 -0.949266,-3.955284 -1.318427,-5.062764 -0.369161,-1.107479 -1.212955,-1.582113 -1.212955,-1.582113 0,0 0.632847,-1.212953 0,-2.373169 C 36.401206,37.920894 26.27568,23.840083 24.324406,19.726588 22.373134,15.613093 16.993947,7.6497889 16.993947,7.6497889 z"
       id="path4563"
       inkscape:connector-curvature="0" />
    <path
       style="fill:#b3b3b3;stroke:none"
       d="m 39.80275,48.468316 c -0.07911,0.105475 -2.795068,1.423901 -4.56176,1.45027 -1.766694,0.02638 -5.932927,-0.395528 -8.042411,0.05273 -2.109485,0.448266 -5.326449,1.582115 -5.326449,1.582115 0,0 3.757519,-2.808252 7.106326,-2.992832 3.348807,-0.18458 4.498439,0.30477 6.813462,0.293804 1.257792,-0.0059 4.010832,-0.38609 4.010832,-0.386089 z"
       id="path4565"
       inkscape:connector-curvature="0"
       sodipodi:nodetypes="csscssc" />
    <path
       style="fill:#999999;stroke:none"
       d="m 52.470849,62.239272 0,0.941593 -41.933473,0 0,-0.811074 0.09322,0.652589 41.709728,-0.05594 z"
       id="path4570"
       inkscape:connector-curvature="0" />
  </g>
</svg>
