<?xml version="1.0" encoding="UTF-8" standalone="no"?>
<!-- Created with Inkscape (http://www.inkscape.org/) -->

<svg
   xmlns:dc="http://purl.org/dc/elements/1.1/"
   xmlns:cc="http://creativecommons.org/ns#"
   xmlns:rdf="http://www.w3.org/1999/02/22-rdf-syntax-ns#"
   xmlns:svg="http://www.w3.org/2000/svg"
   xmlns="http://www.w3.org/2000/svg"
   xmlns:sodipodi="http://sodipodi.sourceforge.net/DTD/sodipodi-0.dtd"
   xmlns:inkscape="http://www.inkscape.org/namespaces/inkscape"
   width="64px"
   height="64px"
   id="svg2985"
   version="1.1"
   inkscape:version="0.48.4 r9939"
   sodipodi:docname="home.svg">
  <defs
     id="defs2987">
    <filter
       inkscape:collect="always"
       id="filter3789">
      <feGaussianBlur
         inkscape:collect="always"
         stdDeviation="1.5511719"
         id="feGaussianBlur3791" />
    </filter>
    <filter
       inkscape:collect="always"
       id="filter3791">
      <feGaussianBlur
         inkscape:collect="always"
         stdDeviation="1.5511719"
         id="feGaussianBlur3793" />
    </filter>
  </defs>
  <sodipodi:namedview
     id="base"
     pagecolor="#ffffff"
     bordercolor="#666666"
     borderopacity="1.0"
     inkscape:pageopacity="0.0"
     inkscape:pageshadow="2"
     inkscape:zoom="5.2410105"
     inkscape:cx="11.58489"
     inkscape:cy="26.476908"
     inkscape:current-layer="layer1"
     showgrid="true"
     inkscape:document-units="px"
     inkscape:grid-bbox="true"
     inkscape:window-width="1280"
     inkscape:window-height="977"
     inkscape:window-x="0"
     inkscape:window-y="22"
     inkscape:window-maximized="1" />
  <metadata
     id="metadata2990">
    <rdf:RDF>
      <cc:Work
         rdf:about="">
        <dc:format>image/svg+xml</dc:format>
        <dc:type
           rdf:resource="http://purl.org/dc/dcmitype/StillImage" />
        <dc:title />
      </cc:Work>
    </rdf:RDF>
  </metadata>
  <g
     id="layer1"
     inkscape:label="bg"
     inkscape:groupmode="layer"
     style="display:inline">
    <path
       style="fill:#000000;fill-opacity:1;stroke:none;display:inline;filter:url(#filter3791);opacity:0.5"
       d="m 31.867387,1.4952911 c -17.306116,0 -31.21874992,13.1124219 -31.21874992,30.4374999 0,17.325078 14.03763392,30.84375 31.34374992,30.84375 17.306116,0 31.46875,-13.393672 31.46875,-30.71875 l -0.03125,-0.59375 C 63.107971,14.372518 48.943239,1.4952911 31.867387,1.4952911 z m 0.25,4.6251272 c 15.114181,0 26.670604,10.3093207 26.955538,25.4373727 l 0,0.5 c 0,15.334776 -11.637545,26.827236 -26.955538,26.827236 -15.317993,0 -27.0821898,-11.49246 -27.0821898,-26.827236 0,-15.334776 11.7641968,-25.9373727 27.0821898,-25.9373727 z m -1.278075,4.2268797 -19.370173,19.1875 5.15625,0.1875 0.375,22.125 30.735392,0.46875 -0.46875,-21.9375 6,0.09375 -9.375,-8.90625 -0.15625,-6.75 -3.0625,-1.625 -0.5,2.5 -0.46875,1.90625 z m 19.050752,18.667664 c -32.604972,23.361886 -16.302486,11.680943 0,0 z"
       id="path3795-7"
       inkscape:connector-curvature="0"
       sodipodi:nodetypes="sssccsscssssccccccccccccccc" />
  </g>
  <g
     inkscape:groupmode="layer"
     inkscape:label="layer"
     id="g3793"
     style="display:inline">
    <path
       style="fill:#ffffff;fill-opacity:1;stroke:none"
       d="m 32.125,1.4375 c -17.306116,0 -31.21875,13.112422 -31.21875,30.4375 0,17.325078 14.037634,30.84375 31.34375,30.84375 17.306116,0 31.46875,-13.393672 31.46875,-30.71875 L 63.6875,31.40625 C 63.365584,14.314727 49.200852,1.4375 32.125,1.4375 z m 0.25,4.6251275 c 15.114181,0 26.670604,10.3093205 26.955538,25.4373725 l 0,0.5 c 0,15.334776 -11.637545,26.827236 -26.955538,26.827236 C 17.057007,58.827236 5.2928101,47.334776 5.2928101,32 5.2928101,16.665224 17.057007,6.0626275 32.375,6.0626275 z m -1.278075,4.2268795 -19.370173,19.1875 5.15625,0.1875 0.375,22.125 30.735392,0.46875 -0.46875,-21.9375 6,0.09375 -9.375,-8.90625 -0.15625,-6.75 -3.0625,-1.625 -0.5,2.5 -0.46875,1.90625 z m 19.050752,18.667664 c -32.604972,23.361886 -16.302486,11.680943 0,0 z"
       id="path3795"
       inkscape:connector-curvature="0"
       sodipodi:nodetypes="sssccsscssssccccccccccccccc" />
  </g>
</svg>
