<?xml version="1.0" encoding="UTF-8" standalone="no"?>
<!-- Created with Inkscape (http://www.inkscape.org/) -->

<svg
   xmlns:dc="http://purl.org/dc/elements/1.1/"
   xmlns:cc="http://creativecommons.org/ns#"
   xmlns:rdf="http://www.w3.org/1999/02/22-rdf-syntax-ns#"
   xmlns:svg="http://www.w3.org/2000/svg"
   xmlns="http://www.w3.org/2000/svg"
   xmlns:sodipodi="http://sodipodi.sourceforge.net/DTD/sodipodi-0.dtd"
   xmlns:inkscape="http://www.inkscape.org/namespaces/inkscape"
   version="1.1"
   width="64"
   height="64"
   id="svg2985"
   inkscape:version="0.48.5 r"
   sodipodi:docname="home.svg">
  <sodipodi:namedview
     pagecolor="#ffffff"
     bordercolor="#666666"
     borderopacity="1"
     objecttolerance="10"
     gridtolerance="10"
     guidetolerance="10"
     inkscape:pageopacity="0"
     inkscape:pageshadow="2"
     inkscape:window-width="1233"
     inkscape:window-height="998"
     id="namedview11"
     showgrid="false"
     inkscape:zoom="7.375"
     inkscape:cx="44.552788"
     inkscape:cy="48.588119"
     inkscape:window-x="47"
     inkscape:window-y="0"
     inkscape:window-maximized="1"
     inkscape:current-layer="svg2985" />
  <defs
     id="defs2987" />
  <metadata
     id="metadata2990">
    <rdf:RDF>
      <cc:Work
         rdf:about="">
        <dc:format>image/svg+xml</dc:format>
        <dc:type
           rdf:resource="http://purl.org/dc/dcmitype/StillImage" />
        <dc:title />
      </cc:Work>
    </rdf:RDF>
  </metadata>
  <g
     id="layer1"
     style="display:inline"
     transform="matrix(1.0722151,0,0,1,-3.2871185,0)">
    <path
       sodipodi:type="inkscape:offset"
       inkscape:radius="0.43248981"
       inkscape:original="M 30.71875 9.15625 A 1.1935911 1.1935911 0 0 0 30 9.5 L 10.625 28.6875 A 1.1935911 1.1935911 0 0 0 11.4375 30.71875 L 15.46875 30.875 L 15.8125 51.875 A 1.1935911 1.1935911 0 0 0 16.96875 53.03125 L 47.71875 53.5 A 1.1935911 1.1935911 0 0 0 48.9375 52.28125 L 48.5 31.59375 L 53.25 31.65625 A 1.1935911 1.1935911 0 0 0 54.09375 29.59375 L 45.09375 21.03125 L 44.9375 14.78125 A 1.1935911 1.1935911 0 0 0 44.3125 13.75 L 41.25 12.125 A 1.1935911 1.1935911 0 0 0 39.53125 12.96875 L 39.03125 15.40625 L 39.03125 15.46875 L 31.59375 9.40625 A 1.1935911 1.1935911 0 0 0 30.71875 9.15625 z "
       style="opacity:0.1;fill:#000000;fill-opacity:1;stroke:none;display:inline"
       id="path2988"
       d="m 30.65625,8.71875 c -0.01823,0.00226 -0.05503,0.030133 -0.0625,0.03125 -0.01067,0.0016 -0.05191,-0.00205 -0.0625,0 -0.01059,0.00205 -0.052,-0.0025 -0.0625,0 -0.0105,0.0025 -0.05212,0.02831 -0.0625,0.03125 -0.01038,0.00294 -0.05225,0.027871 -0.0625,0.03125 -0.01025,0.00338 -0.05241,-0.00381 -0.0625,0 -0.01009,0.00381 -0.05258,0.027012 -0.0625,0.03125 -0.0099,0.00424 -0.05277,0.026594 -0.0625,0.03125 -0.0097,0.00466 -0.05297,0.026184 -0.0625,0.03125 -0.0095,0.00507 -0.0532,0.025784 -0.0625,0.03125 -0.0093,0.00547 -0.05344,0.025393 -0.0625,0.03125 -0.0091,0.00586 -0.05369,0.056263 -0.0625,0.0625 -0.0088,0.00624 -0.05397,0.024644 -0.0625,0.03125 -0.0085,0.00661 -0.05426,0.024287 -0.0625,0.03125 -0.0082,0.00696 -0.02331,0.055193 -0.03125,0.0625 -0.0079,0.00731 -0.05488,0.023612 -0.0625,0.03125 L 10.3125,28.375 c -0.0065,0.0065 -0.02504,0.05573 -0.03125,0.0625 -0.0062,0.0068 -0.02529,0.02426 -0.03125,0.03125 -0.006,0.007 -0.05679,0.0553 -0.0625,0.0625 -0.0057,0.0072 -0.02581,0.02385 -0.03125,0.03125 -0.0054,0.0074 -0.02608,0.0549 -0.03125,0.0625 -0.0052,0.0076 -0.02636,0.02347 -0.03125,0.03125 -0.0049,0.0078 -0.02664,0.05455 -0.03125,0.0625 -0.0046,0.008 -0.02693,0.02314 -0.03125,0.03125 -0.0043,0.0081 -0.02723,0.05424 -0.03125,0.0625 -0.00402,0.0083 0.0037,0.0541 0,0.0625 -0.00372,0.0084 -0.02784,0.05397 -0.03125,0.0625 -0.00341,0.0085 -0.028151,0.0226 -0.03125,0.03125 -0.0031,0.0087 0.00278,0.05374 0,0.0625 -0.00278,0.0088 -0.028786,0.05365 -0.03125,0.0625 -0.00246,0.0089 0.00214,0.05356 0,0.0625 -0.00214,0.0089 -0.029433,0.05349 -0.03125,0.0625 -0.00182,0.009 0.00149,0.02218 0,0.03125 -0.00149,0.0091 0.00116,0.05338 0,0.0625 -0.00116,0.0091 -0.030421,0.05335 -0.03125,0.0625 -8.294e-4,0.0092 4.974e-4,0.05332 0,0.0625 -4.974e-4,0.0092 1.648e-4,0.05331 0,0.0625 -1.648e-4,0.0092 -1.68e-4,0.05331 0,0.0625 1.68e-4,0.0092 -5.007e-4,0.05332 0,0.0625 5.007e-4,0.0092 -8.326e-4,0.05335 0,0.0625 8.326e-4,0.0092 0.030086,0.02213 0.03125,0.03125 0.00116,0.0091 -0.00149,0.05343 0,0.0625 0.00149,0.0091 -0.00182,0.05349 0,0.0625 0.00182,0.009 0.029105,0.05356 0.03125,0.0625 0.00215,0.0089 -0.00247,0.05365 0,0.0625 0.00247,0.0089 0.028464,0.05374 0.03125,0.0625 0.00279,0.0088 -0.0031,0.0226 0,0.03125 0.0031,0.0086 0.027837,0.05397 0.03125,0.0625 0.00341,0.0085 0.02753,0.0541 0.03125,0.0625 0.0037,0.0084 -0.00402,0.05424 0,0.0625 0.004,0.0083 0.02693,0.02314 0.03125,0.03125 0.0043,0.0081 0.02664,0.05455 0.03125,0.0625 0.0046,0.008 0.02636,0.05472 0.03125,0.0625 0.0049,0.0078 0.02608,0.02365 0.03125,0.03125 0.0052,0.0076 0.02581,0.0551 0.03125,0.0625 0.0054,0.0074 0.02554,0.02405 0.03125,0.03125 0.0057,0.0072 0.05653,0.05551 0.0625,0.0625 0.006,0.007 0.02504,0.02448 0.03125,0.03125 0.0062,0.0068 0.02479,0.02471 0.03125,0.03125 0.0065,0.0065 0.05581,0.0562 0.0625,0.0625 0.0067,0.0063 0.02434,0.0252 0.03125,0.03125 0.0069,0.0061 0.02412,0.02545 0.03125,0.03125 0.0071,0.0058 0.05517,0.02571 0.0625,0.03125 0.0073,0.0055 0.02372,0.02598 0.03125,0.03125 0.0075,0.0053 0.05479,0.05751 0.0625,0.0625 0.0077,0.005 0.05461,-0.0047 0.0625,0 0.0079,0.0047 0.02319,0.02683 0.03125,0.03125 0.0081,0.0044 0.05429,0.02712 0.0625,0.03125 0.0082,0.0041 0.05415,0.02742 0.0625,0.03125 0.0084,0.0038 0.02276,0.02773 0.03125,0.03125 0.0085,0.0035 0.05389,0.02804 0.0625,0.03125 0.0086,0.0032 0.05378,-0.0029 0.0625,0 0.0087,0.0029 0.05368,0.02867 0.0625,0.03125 0.0088,0.0026 0.02234,-0.0023 0.03125,0 0.0089,0.0023 0.05352,0.02931 0.0625,0.03125 0.009,0.0019 0.05345,-0.0016 0.0625,0 0.009,0.0016 0.0534,-0.0013 0.0625,0 0.0091,0.0013 0.05336,0.0303 0.0625,0.03125 0.0091,9.51e-4 0.05333,-6.19e-4 0.0625,0 0.0046,3.09e-4 0.01884,-6.12e-4 0.03125,0 0.01241,6.12e-4 0.02666,-1.43e-4 0.03125,0 L 15.03125,31.3125 15.375,51.875 c 3.69e-4,0.01196 -9.32e-4,0.08182 0,0.09375 9.32e-4,0.01193 0.02976,0.05063 0.03125,0.0625 0.0015,0.01187 -0.0021,0.08196 0,0.09375 0.0021,0.01179 -0.0026,0.05082 0,0.0625 0.0026,0.01168 0.0281,0.08221 0.03125,0.09375 0.0032,0.01154 0.02756,0.05112 0.03125,0.0625 0.0037,0.01138 -0.0042,0.05131 0,0.0625 0.0042,0.01119 0.0265,0.05152 0.03125,0.0625 0.0047,0.01098 0.02599,0.083 0.03125,0.09375 0.0053,0.01075 0.05674,0.05201 0.0625,0.0625 0.0058,0.01049 0.025,0.0523 0.03125,0.0625 0.0062,0.0102 0.02453,0.0526 0.03125,0.0625 0.0067,0.0099 0.05532,0.05293 0.0625,0.0625 0.0072,0.0096 0.02362,0.05328 0.03125,0.0625 0.0076,0.0092 0.05445,0.05365 0.0625,0.0625 0.0081,0.0089 0.02279,0.05404 0.03125,0.0625 0.0085,0.0085 0.05365,0.0232 0.0625,0.03125 0.0089,0.0081 0.05328,0.05487 0.0625,0.0625 0.0092,0.0076 0.05293,0.02407 0.0625,0.03125 0.0096,0.0072 0.0526,0.05578 0.0625,0.0625 0.0099,0.0067 0.0523,0.025 0.0625,0.03125 0.0102,0.0063 0.05201,0.02549 0.0625,0.03125 0.01049,0.0058 0.05175,0.05724 0.0625,0.0625 0.01075,0.0053 0.08277,0.0265 0.09375,0.03125 0.01098,0.0047 0.05131,0.02702 0.0625,0.03125 0.01119,0.0042 0.05112,-0.0037 0.0625,0 0.01138,0.0037 0.05096,0.0281 0.0625,0.03125 0.01154,0.0032 0.08207,0.02864 0.09375,0.03125 0.01168,0.0026 0.05071,-0.0021 0.0625,0 0.01179,0.0021 0.08188,-0.0015 0.09375,0 0.01187,0.0015 0.05057,0.03032 0.0625,0.03125 0.01193,9.32e-4 0.08179,-3.69e-4 0.09375,0 l 30.75,0.46875 c 0.01279,2.73e-4 0.04971,3.72e-4 0.0625,0 0.01279,-3.72e-4 0.081,0.001 0.09375,0 0.01275,-0.001 0.08107,-0.02959 0.09375,-0.03125 0.01268,-0.0017 0.04992,0.0023 0.0625,0 0.01258,-0.0023 0.0813,-0.02832 0.09375,-0.03125 0.01245,-0.0029 0.05021,0.0035 0.0625,0 0.01229,-0.0035 0.08166,-0.02708 0.09375,-0.03125 0.01209,-0.0042 0.05063,-0.02648 0.0625,-0.03125 0.01187,-0.0048 0.08214,-0.02589 0.09375,-0.03125 0.01161,-0.0054 0.05117,-0.02531 0.0625,-0.03125 0.01133,-0.0059 0.05148,-0.02475 0.0625,-0.03125 0.01102,-0.0065 0.05183,-0.05545 0.0625,-0.0625 0.01067,-0.007 0.08345,-0.02367 0.09375,-0.03125 0.0103,-0.0076 0.05259,-0.05441 0.0625,-0.0625 0.0099,-0.0081 0.05301,-0.05392 0.0625,-0.0625 0.0095,-0.0086 0.05345,-0.0222 0.0625,-0.03125 0.009,-0.009 0.02267,-0.05301 0.03125,-0.0625 0.0086,-0.0095 0.05441,-0.05259 0.0625,-0.0625 0.0081,-0.0099 0.05492,-0.0522 0.0625,-0.0625 0.0076,-0.0103 0.0242,-0.08308 0.03125,-0.09375 0.007,-0.01067 0.056,-0.05148 0.0625,-0.0625 0.0065,-0.01102 0.02531,-0.05117 0.03125,-0.0625 0.0059,-0.01133 0.02589,-0.05089 0.03125,-0.0625 0.0054,-0.01161 0.02648,-0.08188 0.03125,-0.09375 0.0048,-0.01187 0.02708,-0.05041 0.03125,-0.0625 0.0042,-0.01209 0.0277,-0.08146 0.03125,-0.09375 0.0035,-0.01229 -0.0029,-0.05005 0,-0.0625 0.0029,-0.01245 0.02896,-0.08117 0.03125,-0.09375 0.0023,-0.01258 -0.0017,-0.04982 0,-0.0625 0.0017,-0.01268 0.03023,-0.081 0.03125,-0.09375 0.001,-0.01275 -3.72e-4,-0.08096 0,-0.09375 3.72e-4,-0.01279 2.73e-4,-0.04971 0,-0.0625 l -0.4375,-20.25 4.3125,0.0625 c 0.0095,2.06e-4 0.05296,1.53e-4 0.0625,0 0.0095,-1.53e-4 0.05297,5.12e-4 0.0625,0 0.0095,-5.12e-4 0.05299,8.71e-4 0.0625,0 0.0095,-8.71e-4 0.05303,-0.03002 0.0625,-0.03125 0.0095,-0.0012 0.02184,0.0016 0.03125,0 0.0094,-0.0016 0.05315,0.0019 0.0625,0 0.0093,-0.0019 0.05323,-0.02896 0.0625,-0.03125 0.0093,-0.0023 0.05333,0.0026 0.0625,0 0.0092,-0.0026 0.05343,-0.02827 0.0625,-0.03125 0.0091,-0.003 0.05355,0.0033 0.0625,0 0.009,-0.0033 0.05368,-0.0276 0.0625,-0.03125 0.0088,-0.0037 0.05382,-0.02727 0.0625,-0.03125 0.0087,-0.004 0.02273,-0.02695 0.03125,-0.03125 0.0085,-0.0043 0.05415,-0.02663 0.0625,-0.03125 0.0084,-0.0046 0.05433,-0.02632 0.0625,-0.03125 0.0082,-0.0049 0.02327,-0.02602 0.03125,-0.03125 0.008,-0.0052 0.05472,-0.02572 0.0625,-0.03125 0.0078,-0.0055 0.05493,-0.02543 0.0625,-0.03125 0.0076,-0.0058 0.02391,-0.02515 0.03125,-0.03125 0.0073,-0.0061 0.05539,-0.02488 0.0625,-0.03125 0.0071,-0.0064 0.02439,-0.05587 0.03125,-0.0625 0.0069,-0.0066 0.02464,-0.02436 0.03125,-0.03125 0.0066,-0.0069 0.05616,-0.05537 0.0625,-0.0625 0.0063,-0.0071 0.02518,-0.02388 0.03125,-0.03125 0.0061,-0.0074 0.02546,-0.05491 0.03125,-0.0625 0.0058,-0.0076 0.02575,-0.02345 0.03125,-0.03125 0.0055,-0.0078 0.02605,-0.0545 0.03125,-0.0625 0.0052,-0.008 0.02635,-0.02306 0.03125,-0.03125 0.0049,-0.0082 0.02666,-0.05413 0.03125,-0.0625 0.0046,-0.0084 0.02698,-0.05396 0.03125,-0.0625 0.0043,-0.0085 0.02731,-0.05381 0.03125,-0.0625 0.0039,-0.0087 0.02764,-0.02241 0.03125,-0.03125 0.0036,-0.0088 0.02797,-0.05354 0.03125,-0.0625 0.0033,-0.009 -0.0029,-0.05342 0,-0.0625 0.0029,-0.0091 0.02865,-0.05331 0.03125,-0.0625 0.0026,-0.0092 -0.0022,-0.05322 0,-0.0625 0.0022,-0.0093 0.02935,-0.05315 0.03125,-0.0625 0.0019,-0.0094 -0.0015,-0.05308 0,-0.0625 0.0015,-0.0094 -0.0012,-0.05303 0,-0.0625 0.0012,-0.0095 0.03042,-0.05299 0.03125,-0.0625 8.32e-4,-0.0095 -4.74e-4,-0.05297 0,-0.0625 4.74e-4,-0.0095 -1.15e-4,-0.05296 0,-0.0625 1.15e-4,-0.0095 2.44e-4,-0.05296 0,-0.0625 -2.44e-4,-0.0095 6.03e-4,-0.02172 0,-0.03125 -6.03e-4,-0.0095 9.61e-4,-0.053 0,-0.0625 -9.61e-4,-0.0095 -0.02993,-0.05305 -0.03125,-0.0625 -0.0013,-0.0095 0.0017,-0.0531 0,-0.0625 -0.0017,-0.0094 0.002,-0.05317 0,-0.0625 -0.002,-0.0093 -0.02888,-0.05325 -0.03125,-0.0625 -0.0024,-0.0092 0.0027,-0.05335 0,-0.0625 -0.0027,-0.0092 -0.02819,-0.05346 -0.03125,-0.0625 -0.0031,-0.009 -0.02785,-0.05358 -0.03125,-0.0625 -0.0034,-0.0089 0.0037,-0.05372 0,-0.0625 -0.0037,-0.0088 -0.02719,-0.02261 -0.03125,-0.03125 -0.0041,-0.0086 -0.02687,-0.05402 -0.03125,-0.0625 -0.0044,-0.0085 -0.02655,-0.05419 -0.03125,-0.0625 -0.0047,-0.0083 -0.02624,-0.02312 -0.03125,-0.03125 -0.005,-0.0081 -0.02594,-0.05457 -0.03125,-0.0625 -0.0053,-0.0079 -0.02564,-0.05477 -0.03125,-0.0625 -0.0056,-0.0077 -0.02536,-0.02374 -0.03125,-0.03125 -0.0059,-0.0075 -0.02508,-0.05522 -0.03125,-0.0625 -0.0062,-0.0073 -0.05606,-0.0242 -0.0625,-0.03125 -0.0064,-0.007 -0.02455,-0.0557 -0.03125,-0.0625 -0.004,-0.0041 -0.02044,-0.02071 -0.03125,-0.03125 l -0.03125,0 -8.84375,-8.4375 -0.15625,-6.0625 c -1.29e-4,-0.0084 4.06e-4,-0.05411 0,-0.0625 -4.06e-4,-0.0084 6.84e-4,-0.05413 0,-0.0625 -6.84e-4,-0.0084 9.6e-4,-0.02291 0,-0.03125 -9.6e-4,-0.0083 -0.03001,-0.05419 -0.03125,-0.0625 -0.0012,-0.0083 0.0015,-0.05424 0,-0.0625 -0.0015,-0.0083 0.0018,-0.02304 0,-0.03125 -0.0018,-0.0082 -0.0292,-0.05436 -0.03125,-0.0625 -0.0021,-0.0081 0.0023,-0.05443 0,-0.0625 -0.0023,-0.0081 -0.02866,-0.02326 -0.03125,-0.03125 -0.0026,-0.008 0.0029,-0.0546 0,-0.0625 -0.0029,-0.0079 -0.02814,-0.0547 -0.03125,-0.0625 -0.0031,-0.0078 -0.02788,-0.02356 -0.03125,-0.03125 -0.0034,-0.0077 0.0036,-0.05492 0,-0.0625 -0.0036,-0.0076 -0.02738,-0.0238 -0.03125,-0.03125 -0.0039,-0.0075 -0.02714,-0.05518 -0.03125,-0.0625 -0.0041,-0.0073 -0.0269,-0.02407 -0.03125,-0.03125 -0.0044,-0.0072 -0.02666,-0.05547 -0.03125,-0.0625 -0.0046,-0.007 -0.02643,-0.02437 -0.03125,-0.03125 -0.0048,-0.0069 -0.02621,-0.05579 -0.03125,-0.0625 -0.005,-0.0067 -0.02599,-0.02471 -0.03125,-0.03125 -0.0053,-0.0065 -0.02578,-0.02488 -0.03125,-0.03125 -0.0055,-0.0064 -0.02557,-0.05632 -0.03125,-0.0625 -0.0057,-0.0062 -0.02537,-0.02526 -0.03125,-0.03125 -0.0059,-0.006 -0.02517,-0.02546 -0.03125,-0.03125 -0.0061,-0.0058 -0.05623,-0.02566 -0.0625,-0.03125 -0.0063,-0.0056 -0.0248,-0.02587 -0.03125,-0.03125 -0.0064,-0.0054 -0.02463,-0.02609 -0.03125,-0.03125 -0.0066,-0.0052 -0.05571,-0.02631 -0.0625,-0.03125 -0.0068,-0.0049 -0.0243,-0.02654 -0.03125,-0.03125 -0.007,-0.0047 -0.02415,-0.02677 -0.03125,-0.03125 -0.0071,-0.0045 -0.05525,-0.02701 -0.0625,-0.03125 -0.0072,-0.0042 -0.02387,-0.02725 -0.03125,-0.03125 a 0.43253306,0.43253306 0 0 0 -0.03125,0 L 41.4375,11.75 c -0.01313,-0.0067 -0.049,-0.05653 -0.0625,-0.0625 -0.0135,-0.006 -0.07993,-0.02608 -0.09375,-0.03125 -0.01382,-0.0052 -0.07965,-0.02689 -0.09375,-0.03125 -0.0141,-0.0044 -0.07942,-0.02772 -0.09375,-0.03125 -0.01433,-0.0035 -0.07924,0.0027 -0.09375,0 -0.01451,-0.0027 -0.07911,-0.02941 -0.09375,-0.03125 -0.01464,-0.0018 -0.07903,9.91e-4 -0.09375,0 -0.01472,-9.91e-4 -0.07899,1.33e-4 -0.09375,0 -0.01476,-1.33e-4 -0.07901,-7.25e-4 -0.09375,0 -0.01474,7.25e-4 -0.07908,-0.0016 -0.09375,0 -0.01467,0.0016 -0.07919,0.02882 -0.09375,0.03125 -0.01456,0.0024 -0.07936,-0.0033 -0.09375,0 -0.01439,0.0033 -0.07957,0.02715 -0.09375,0.03125 -0.01418,0.0041 -0.07984,0.02633 -0.09375,0.03125 -0.01391,0.0049 -0.08015,0.02553 -0.09375,0.03125 -0.0136,0.0057 -0.04925,0.02475 -0.0625,0.03125 -0.01325,0.0065 -0.0809,0.05524 -0.09375,0.0625 -0.01285,0.0073 -0.08135,0.02325 -0.09375,0.03125 -0.0124,0.008 -0.05058,0.05379 -0.0625,0.0625 -0.01192,0.0087 -0.08236,0.05312 -0.09375,0.0625 -0.01139,0.0094 -0.05167,0.05247 -0.0625,0.0625 -0.01083,0.01003 -0.05228,0.05186 -0.0625,0.0625 -0.01022,0.01064 -0.05291,0.05128 -0.0625,0.0625 -0.0096,0.01122 -0.05358,0.08199 -0.0625,0.09375 -0.0089,0.01176 -0.05428,0.05024 -0.0625,0.0625 -0.0082,0.01226 -0.02375,0.08104 -0.03125,0.09375 -0.0075,0.01271 -0.05576,0.04937 -0.0625,0.0625 -0.0067,0.01313 -0.02528,0.08025 -0.03125,0.09375 -0.006,0.0135 -0.02608,0.07993 -0.03125,0.09375 -0.0052,0.01382 -0.02689,0.07965 -0.03125,0.09375 -0.0044,0.0141 -0.02772,0.07942 -0.03125,0.09375 -0.0035,0.01433 -0.02855,0.04799 -0.03125,0.0625 l -0.375,1.78125 L 31.875,9.0625 c -0.0097,-0.0077 -0.05241,-0.024038 -0.0625,-0.03125 -0.01009,-0.00721 -0.08332,-0.05579 -0.09375,-0.0625 -0.01043,-0.00671 -0.05175,-0.025058 -0.0625,-0.03125 -0.01075,-0.00619 -0.05146,-0.02559 -0.0625,-0.03125 -0.01104,-0.00566 -0.0512,-0.026136 -0.0625,-0.03125 -0.0113,-0.00511 -0.08221,-0.026695 -0.09375,-0.03125 -0.01154,-0.00456 -0.05075,-0.027264 -0.0625,-0.03125 -0.01175,-0.00399 -0.05057,-0.027843 -0.0625,-0.03125 -0.01193,-0.00341 -0.08167,-0.028429 -0.09375,-0.03125 -0.01208,-0.00282 -0.0503,0.00223 -0.0625,0 -0.0122,-0.00223 -0.08145,-0.029622 -0.09375,-0.03125 -0.0123,-0.00163 -0.05014,0.00103 -0.0625,0 -0.01236,-0.00103 -0.08135,4.199e-4 -0.09375,0 -0.0124,-4.199e-4 -0.0501,-1.864e-4 -0.0625,0 -0.0124,1.864e-4 -0.08137,-7.922e-4 -0.09375,0 -0.0083,5.281e-4 -0.04179,-0.0019 -0.0625,0 -0.01036,9.511e-4 -0.02714,-4.654e-4 -0.03125,0 z" />
    <path
       sodipodi:type="inkscape:offset"
       inkscape:radius="0.17977291"
       inkscape:original="M 30.78125 9.625 A 0.70750701 0.70750701 0 0 0 30.34375 9.84375 L 10.96875 29.03125 A 0.70750701 0.70750701 0 0 0 11.4375 30.25 L 15.90625 30.40625 L 16.28125 51.84375 A 0.70750701 0.70750701 0 0 0 17 52.5625 L 47.75 53.03125 A 0.70750701 0.70750701 0 0 0 48.46875 52.3125 L 48 31.09375 L 53.28125 31.1875 A 0.70750701 0.70750701 0 0 0 53.78125 29.96875 L 44.625 21.25 L 44.46875 14.78125 A 0.70750701 0.70750701 0 0 0 44.09375 14.1875 L 41.03125 12.5625 A 0.70750701 0.70750701 0 0 0 40 13.0625 L 39.5 15.53125 L 39.5 15.5625 L 39.3125 16.34375 L 31.28125 9.78125 A 0.70750701 0.70750701 0 0 0 30.84375 9.625 A 0.70750701 0.70750701 0 0 0 30.78125 9.625 z "
       style="opacity:0.2;fill:#000000;fill-opacity:1;stroke:none;display:inline"
       id="path2990"
       d="m 30.71875,9.4375 c -0.0038,5.983e-4 0.0038,0.030567 0,0.03125 -0.0038,6.828e-4 -0.02745,-7.669e-4 -0.03125,0 -0.0038,7.669e-4 -0.02746,-8.506e-4 -0.03125,0 -0.0038,9.339e-4 -0.02751,-0.00102 -0.03125,0 -0.0037,0.00102 -0.02753,-0.0011 -0.03125,0 -0.0037,0.00118 -0.02758,0.029988 -0.03125,0.03125 -0.0036,0.00134 -0.02764,-0.00142 -0.03125,0 -0.0036,0.0015 -0.02771,0.029669 -0.03125,0.03125 -0.0035,0.00158 -0.02774,-0.00166 -0.03125,0 -0.0035,0.00174 -0.02782,-0.00181 -0.03125,0 -0.0034,0.00181 0.0034,0.029363 0,0.03125 -0.0034,0.00189 -0.0279,-0.00196 -0.03125,0 -0.0033,0.00203 -0.02799,0.029143 -0.03125,0.03125 -0.0032,0.00218 -0.02809,-0.00225 -0.03125,0 -0.0032,0.00225 0.0031,0.028932 0,0.03125 -0.0031,0.00232 -0.02819,-0.00239 -0.03125,0 -0.0031,0.00239 0.003,0.028797 0,0.03125 -0.003,0.00245 -0.0283,-0.00252 -0.03125,0 -0.0029,0.00258 -0.02841,0.028604 -0.03125,0.03125 -0.0028,0.00271 -0.02853,0.028481 -0.03125,0.03125 l -19.375,19.1875 c -0.0047,0.0045 -0.02675,0.02662 -0.03125,0.03125 -0.0043,0.0048 -0.0271,0.0263 -0.03125,0.03125 -0.0042,0.005 -0.02728,0.02615 -0.03125,0.03125 -0.004,0.0051 0.0038,0.02601 0,0.03125 -0.0038,0.0052 -0.02767,0.02587 -0.03125,0.03125 -0.0036,0.0054 -0.02787,0.02575 -0.03125,0.03125 -0.0032,0.0056 -0.02828,0.02551 -0.03125,0.03125 -0.003,0.0057 0.0028,0.02541 0,0.03125 -0.0028,0.0058 0.0025,0.02531 0,0.03125 -0.0025,0.0059 -0.02893,0.02522 -0.03125,0.03125 -0.0023,0.006 0.0021,0.02514 0,0.03125 -0.0021,0.0061 -0.02938,0.02507 -0.03125,0.03125 -0.0019,0.0062 0.0016,0.025 0,0.03125 -0.0016,0.0062 0.0014,0.02494 0,0.03125 -0.0014,0.0063 0.0012,0.0249 0,0.03125 -0.0012,0.0064 9.46e-4,0.02486 0,0.03125 -9.46e-4,0.0064 -0.03054,0.02483 -0.03125,0.03125 -7.11e-4,0.0064 4.75e-4,0.02481 0,0.03125 -4.75e-4,0.0064 2.38e-4,0.02479 0,0.03125 -2.38e-4,0.0065 10e-7,0.02479 0,0.03125 -10e-7,0.0065 -2.37e-4,0.02479 0,0.03125 2.37e-4,0.0065 -4.73e-4,0.02481 0,0.03125 4.73e-4,0.0064 -7.1e-4,0.02483 0,0.03125 7.1e-4,0.0064 0.03031,0.05611 0.03125,0.0625 9.45e-4,0.0064 -0.0012,0.0249 0,0.03125 0.0012,0.0064 -0.0014,0.02494 0,0.03125 0.0014,0.0063 -0.0016,0.025 0,0.03125 0.0016,0.0062 -0.0019,0.02507 0,0.03125 0.0019,0.0062 0.02915,0.02514 0.03125,0.03125 0.0021,0.0061 -0.0023,0.02522 0,0.03125 0.0023,0.006 0.02871,0.02531 0.03125,0.03125 0.0028,0.0058 -0.003,0.02551 0,0.03125 0.003,0.0057 0.02807,0.02562 0.03125,0.03125 0.0032,0.0056 -0.0034,0.02575 0,0.03125 0.0034,0.0055 0.02767,0.02587 0.03125,0.03125 0.0036,0.0054 0.02747,0.02601 0.03125,0.03125 0.0038,0.0052 -0.004,0.02615 0,0.03125 0.004,0.0051 0.0271,0.0263 0.03125,0.03125 0.0042,0.005 0.02692,-0.0048 0.03125,0 0.0043,0.0048 -0.0045,0.02662 0,0.03125 0.0045,0.0046 0.02658,0.02679 0.03125,0.03125 0.0047,0.0045 0.02642,0.02696 0.03125,0.03125 0.0048,0.0043 0.02627,-0.0041 0.03125,0 0.005,0.0041 -0.0051,0.02733 0,0.03125 0.0051,0.0039 0.02598,0.02752 0.03125,0.03125 0.0053,0.0037 0.02584,-0.0035 0.03125,0 0.0054,0.0035 0.02572,0.02791 0.03125,0.03125 0.0055,0.0033 0.0256,-0.0031 0.03125,0 0.0057,0.0031 0.02549,0.02833 0.03125,0.03125 0.0058,0.0029 0.02538,-0.0027 0.03125,0 0.0059,0.0027 0.02529,0.02876 0.03125,0.03125 0.006,0.0025 0.0252,-0.0023 0.03125,0 0.006,0.0023 0.02512,-0.002 0.03125,0 0.0061,0.002 0.02505,0.02943 0.03125,0.03125 0.0062,0.0018 0.02499,-0.0016 0.03125,0 0.0063,0.0016 0.02493,-0.0014 0.03125,0 0.0063,0.0014 0.02489,-0.0011 0.03125,0 0.0064,0.0011 0.02485,-8.92e-4 0.03125,0 0.0064,8.92e-4 0.02482,0.03059 0.03125,0.03125 0.0064,6.56e-4 0.0248,-4.2e-4 0.03125,0 0.0064,4.2e-4 0.02479,-1.83e-4 0.03125,0 l 4.28125,0.15625 0.375,21.25 c -7.1e-5,0.0044 -4e-5,0.02685 0,0.03125 1.5e-4,0.0044 -2.6e-4,0.02685 0,0.03125 2.6e-4,0.0044 -3.7e-4,0.02686 0,0.03125 4.8e-4,0.0044 -5.9e-4,0.02688 0,0.03125 5.9e-4,0.0044 0.03055,0.0269 0.03125,0.03125 6.99e-4,0.0044 -8.08e-4,0.02692 0,0.03125 9.16e-4,0.0043 -0.001,0.02696 0,0.03125 0.001,0.0043 -0.0011,0.02699 0,0.03125 0.0012,0.0042 0.02991,0.02705 0.03125,0.03125 0.0013,0.0042 -0.0014,0.02709 0,0.03125 0.0016,0.0041 -0.0017,0.02717 0,0.03125 0.0017,0.0041 0.0295,0.02721 0.03125,0.03125 0.0019,0.004 -0.002,0.0273 0,0.03125 0.002,0.0039 0.0292,0.02735 0.03125,0.03125 0.0022,0.0038 -0.0022,0.02746 0,0.03125 0.0022,0.0038 0.02891,-0.0037 0.03125,0 0.0023,0.0037 -0.0024,0.02758 0,0.03125 0.0024,0.0037 -0.0025,0.02764 0,0.03125 0.0025,0.0036 0.02864,-0.0035 0.03125,0 0.0026,0.0035 -0.0027,0.02777 0,0.03125 0.0027,0.0035 0.02846,-0.0034 0.03125,0 0.0028,0.0034 -0.0029,0.02791 0,0.03125 0.0029,0.0033 0.02829,-0.0033 0.03125,0 0.003,0.0033 -0.003,0.02806 0,0.03125 0.003,0.0032 0.02813,-0.0031 0.03125,0 0.0031,0.0031 -0.0032,0.02821 0,0.03125 0.0032,0.003 0.02798,-0.003 0.03125,0 0.0033,0.003 -0.0033,0.02838 0,0.03125 0.0033,0.0029 0.02784,-0.0028 0.03125,0 0.0034,0.0028 -0.0035,0.02855 0,0.03125 0.0035,0.0027 0.0277,-0.0026 0.03125,0 0.0035,0.0026 -0.0036,0.02873 0,0.03125 0.0036,0.0025 0.02758,-0.0024 0.03125,0 0.0037,0.0024 0.02752,-0.0023 0.03125,0 0.0037,0.0023 -0.0038,0.029 0,0.03125 0.0038,0.0022 0.02741,-0.0022 0.03125,0 0.0039,0.0021 0.0273,0.02929 0.03125,0.03125 0.0039,0.002 0.02725,-0.0019 0.03125,0 0.004,0.0018 0.02717,0.0296 0.03125,0.03125 0.0041,0.0017 0.02713,-0.0016 0.03125,0 0.0042,0.0014 0.02705,-0.0013 0.03125,0 0.0042,0.0013 0.02702,0.03001 0.03125,0.03125 0.0043,0.0011 0.02697,-0.001 0.03125,0 0.0043,0.001 0.02694,-9.16e-4 0.03125,0 0.0043,8.08e-4 0.0269,-6.99e-4 0.03125,0 0.0043,6.99e-4 0.02688,0.03066 0.03125,0.03125 0.0044,5.9e-4 0.02687,-4.8e-4 0.03125,0 0.0044,3.7e-4 0.02685,-2.6e-4 0.03125,0 0.0044,2.6e-4 0.02685,-1.5e-4 0.03125,0 0.0044,4e-5 0.02685,7.1e-5 0.03125,0 l 30.75,0.46875 c 0.0044,7.1e-5 0.02685,4e-5 0.03125,0 0.0044,-1.5e-4 0.02685,2.6e-4 0.03125,0 0.0044,-2.6e-4 0.02686,3.7e-4 0.03125,0 0.0044,-4.8e-4 0.02688,5.9e-4 0.03125,0 0.0044,-5.9e-4 0.0269,-0.03055 0.03125,-0.03125 0.0044,-6.99e-4 0.02692,8.08e-4 0.03125,0 0.0043,-9.16e-4 0.02696,0.001 0.03125,0 0.0043,-0.001 0.02699,0.0011 0.03125,0 0.0042,-0.0012 0.02705,-0.02991 0.03125,-0.03125 0.0042,-0.0013 0.02709,0.0014 0.03125,0 0.0041,-0.0016 0.02717,0.0017 0.03125,0 0.0041,-0.0017 0.02721,-0.02949 0.03125,-0.03125 0.004,-0.0019 0.0273,0.002 0.03125,0 0.0039,-0.002 0.02735,-0.0292 0.03125,-0.03125 0.0038,-0.0022 0.02746,0.0022 0.03125,0 0.0038,-0.0022 -0.0037,-0.02891 0,-0.03125 0.0037,-0.0023 0.02758,0.0024 0.03125,0 0.0037,-0.0024 0.02764,0.0025 0.03125,0 0.0036,-0.0025 -0.0035,-0.02864 0,-0.03125 0.0035,-0.0026 0.02777,0.0027 0.03125,0 0.0035,-0.0027 -0.0034,-0.02846 0,-0.03125 0.0034,-0.0028 0.02791,0.0029 0.03125,0 0.0033,-0.0029 -0.0033,-0.02829 0,-0.03125 0.0033,-0.003 0.02806,0.003 0.03125,0 0.0032,-0.003 -0.0031,-0.02813 0,-0.03125 0.0031,-0.0031 0.02821,0.0032 0.03125,0 0.003,-0.0032 -0.003,-0.02798 0,-0.03125 0.003,-0.0033 0.02838,0.0033 0.03125,0 0.0029,-0.0033 -0.0028,-0.02784 0,-0.03125 0.0028,-0.0034 0.02855,0.0035 0.03125,0 0.0027,-0.0035 -0.0026,-0.0277 0,-0.03125 0.0026,-0.0035 0.02873,0.0036 0.03125,0 0.0025,-0.0036 -0.0024,-0.02758 0,-0.03125 0.0024,-0.0037 -0.0023,-0.02752 0,-0.03125 0.0023,-0.0037 0.029,0.0038 0.03125,0 0.0022,-0.0038 -0.0022,-0.02741 0,-0.03125 0.0021,-0.0039 0.02929,-0.0273 0.03125,-0.03125 0.002,-0.0039 -0.0019,-0.02725 0,-0.03125 0.0018,-0.004 0.0296,-0.02717 0.03125,-0.03125 0.0017,-0.0041 -0.0016,-0.02713 0,-0.03125 0.0014,-0.0042 -0.0013,-0.02705 0,-0.03125 0.0013,-0.0042 0.03001,-0.02702 0.03125,-0.03125 0.0011,-0.0043 -0.001,-0.02696 0,-0.03125 0.001,-0.0043 -9.16e-4,-0.02694 0,-0.03125 8.08e-4,-0.0043 -6.99e-4,-0.0269 0,-0.03125 6.99e-4,-0.0044 0.03066,-0.02688 0.03125,-0.03125 5.9e-4,-0.0044 -4.8e-4,-0.02687 0,-0.03125 3.7e-4,-0.0044 -2.6e-4,-0.02685 0,-0.03125 2.6e-4,-0.0044 -1.5e-4,-0.02685 0,-0.03125 4e-5,-0.0044 7.1e-5,-0.02685 0,-0.03125 L 48.1875,31.28125 53.28125,31.375 c 0.0066,1.02e-4 0.02467,1.44e-4 0.03125,0 0.0066,-1.44e-4 0.02468,3.9e-4 0.03125,0 0.0066,-3.9e-4 0.0247,6.35e-4 0.03125,0 0.0065,-6.35e-4 0.02473,8.8e-4 0.03125,0 0.0065,-8.8e-4 0.02477,-0.03013 0.03125,-0.03125 0.0065,-0.0011 0.02481,0.0014 0.03125,0 0.0064,-0.0014 0.02487,0.0016 0.03125,0 0.0064,-0.0016 0.02493,0.0018 0.03125,0 0.0063,-0.0018 0.02501,-0.02917 0.03125,-0.03125 0.0062,-0.0021 0.02509,0.0023 0.03125,0 0.0062,-0.0023 0.02518,0.0025 0.03125,0 0.0061,-0.0025 0.02528,-0.02849 0.03125,-0.03125 0.006,-0.0028 0.02538,0.003 0.03125,0 0.0059,-0.003 0.0255,-0.02805 0.03125,-0.03125 0.0057,-0.0032 0.02562,0.0034 0.03125,0 0.0056,-0.0034 0.02576,-0.02763 0.03125,-0.03125 0.0055,-0.0036 0.0259,-0.02743 0.03125,-0.03125 0.0054,-0.0038 0.02604,0.004 0.03125,0 0.0052,-0.004 0.0262,-0.02704 0.03125,-0.03125 0.0051,-0.0042 -0.0049,-0.02685 0,-0.03125 0.0049,-0.0044 0.02653,0.0046 0.03125,0 0.0047,-0.0046 0.0267,-0.0265 0.03125,-0.03125 0.0046,-0.0048 0.02688,-0.02633 0.03125,-0.03125 0.0044,-0.0049 -0.0042,-0.02617 0,-0.03125 0.0042,-0.0051 0.02726,0.0052 0.03125,0 0.004,-0.0052 0.02746,-0.02587 0.03125,-0.03125 0.0038,-0.0054 -0.0036,-0.02573 0,-0.03125 0.0036,-0.0055 0.02787,-0.0256 0.03125,-0.03125 0.0034,-0.0056 -0.0032,-0.02548 0,-0.03125 0.0032,-0.0058 0.0283,-0.02537 0.03125,-0.03125 0.0029,-0.0059 -0.0027,-0.02526 0,-0.03125 0.0027,-0.006 0.02875,-0.02516 0.03125,-0.03125 0.0025,-0.0061 -0.0023,-0.02507 0,-0.03125 0.0023,-0.0062 -0.002,-0.02499 0,-0.03125 0.002,-0.0063 0.02945,-0.02492 0.03125,-0.03125 0.0018,-0.0063 -0.0016,-0.02486 0,-0.03125 0.0016,-0.0064 -0.0013,-0.0248 0,-0.03125 0.0013,-0.0064 -0.0011,-0.02476 0,-0.03125 0.0011,-0.0065 0.03041,-0.02472 0.03125,-0.03125 8.36e-4,-0.0065 -5.92e-4,-0.0247 0,-0.03125 5.92e-4,-0.0066 -3.46e-4,-0.02468 0,-0.03125 3.46e-4,-0.0066 -1e-4,-0.02467 0,-0.03125 1e-4,-0.0066 1.46e-4,-0.02467 0,-0.03125 -1.46e-4,-0.0066 3.92e-4,-0.02468 0,-0.03125 -3.92e-4,-0.0066 6.37e-4,-0.0247 0,-0.03125 -6.37e-4,-0.0066 -0.03037,-0.02473 -0.03125,-0.03125 -8.82e-4,-0.0065 0.0011,-0.02477 0,-0.03125 -0.0011,-0.0065 0.0014,-0.05606 0,-0.0625 -0.0014,-0.0064 0.0016,-0.02487 0,-0.03125 -0.0016,-0.0064 0.0018,-0.02493 0,-0.03125 -0.0018,-0.0063 -0.02917,-0.02501 -0.03125,-0.03125 -0.0021,-0.0062 0.0023,-0.02509 0,-0.03125 -0.0023,-0.0062 0.0025,-0.02518 0,-0.03125 -0.0025,-0.0061 -0.02849,-0.02528 -0.03125,-0.03125 -0.0028,-0.006 0.003,-0.02539 0,-0.03125 -0.003,-0.0059 -0.02805,0.0057 -0.03125,0 -0.0032,-0.0057 0.0034,-0.02563 0,-0.03125 -0.0034,-0.0056 -0.02763,-0.02576 -0.03125,-0.03125 -0.0036,-0.0055 -0.02742,-0.0259 -0.03125,-0.03125 -0.0038,-0.0054 0.004,-0.02604 0,-0.03125 -0.004,-0.0052 -0.02703,-0.0262 -0.03125,-0.03125 -0.0042,-0.0051 -0.02685,-0.02636 -0.03125,-0.03125 -0.0046,-0.0047 -0.02649,-0.0267 -0.03125,-0.03125 L 44.8125,21.1875 44.65625,14.78125 c -2.51e-4,-0.0057 4.36e-4,-0.02556 0,-0.03125 -4.36e-4,-0.0057 6.21e-4,-0.02557 0,-0.03125 -6.21e-4,-0.0057 -0.03045,-0.0256 -0.03125,-0.03125 -8.04e-4,-0.0057 9.87e-4,-0.02563 0,-0.03125 -9.87e-4,-0.0056 0.0012,-0.02566 0,-0.03125 -0.0012,-0.0056 0.0014,-0.0257 0,-0.03125 -0.0014,-0.0055 0.0015,-0.02575 0,-0.03125 -0.0015,-0.0055 -0.02954,0.0054 -0.03125,0 -0.0017,-0.0054 0.0019,-0.02586 0,-0.03125 -0.0019,-0.0054 0.0021,-0.02592 0,-0.03125 -0.0021,-0.0053 0.0022,-0.02599 0,-0.03125 -0.0022,-0.0053 -0.02885,-0.02607 -0.03125,-0.03125 -0.0024,-0.0052 0.0026,-0.02615 0,-0.03125 -0.0026,-0.0051 -0.02852,-0.02623 -0.03125,-0.03125 -0.0029,-0.0049 -0.0282,-0.02642 -0.03125,-0.03125 -0.003,-0.0048 0.0032,-0.02652 0,-0.03125 -0.0032,-0.0047 -0.02789,-0.02663 -0.03125,-0.03125 -0.0035,-0.0045 -0.0276,-0.02686 -0.03125,-0.03125 -0.0036,-0.0044 0.0038,-0.02698 0,-0.03125 -0.0038,-0.0043 -0.02732,-0.0271 -0.03125,-0.03125 -0.0039,-0.0041 -0.02719,0.004 -0.03125,0 -0.0041,-0.004 0.0042,-0.02737 0,-0.03125 -0.0042,-0.0039 -0.02694,0.0037 -0.03125,0 -0.0043,-0.0037 -0.02682,-0.02765 -0.03125,-0.03125 -0.0044,-0.0036 0.0045,-0.02779 0,-0.03125 -0.0045,-0.0035 -0.0266,0.0033 -0.03125,0 -0.0047,-0.0033 -0.02649,-0.0281 -0.03125,-0.03125 -0.0048,-0.0032 -0.02639,0.003 -0.03125,0 -0.0049,-0.003 0.005,-0.02841 0,-0.03125 -0.005,-0.0028 -0.02621,0.0027 -0.03125,0 l -3.0625,-1.625 c -0.0046,-0.0025 -0.02661,0.0023 -0.03125,0 -0.0046,-0.0023 -0.02654,-0.02907 -0.03125,-0.03125 -0.0047,-0.0022 -0.02648,0.002 -0.03125,0 -0.0048,-0.0019 -0.02637,-0.02949 -0.03125,-0.03125 -0.0049,-0.0018 -0.02632,0.0016 -0.03125,0 -0.0049,-0.0016 -0.02627,0.0015 -0.03125,0 -0.005,-0.0015 -0.02623,-0.02993 -0.03125,-0.03125 -0.0051,-0.0012 -0.02616,0.001 -0.03125,0 -0.0051,-0.001 -0.02613,8.68e-4 -0.03125,0 -0.0051,-8.68e-4 -0.02611,7.17e-4 -0.03125,0 -0.0051,-7.17e-4 -0.02609,5.65e-4 -0.03125,0 -0.0052,-4.13e-4 -0.02607,2.6e-4 -0.03125,0 -0.0052,-2.6e-4 -0.02606,1.07e-4 -0.03125,0 -0.0052,-1.07e-4 -0.02606,-4.6e-5 -0.03125,0 -0.0052,4.6e-5 -0.02606,-1.99e-4 -0.03125,0 -0.0052,1.99e-4 -0.02607,-3.52e-4 -0.03125,0 -0.0052,5.05e-4 -0.0261,-6.57e-4 -0.03125,0 -0.0051,6.57e-4 -0.02612,-8.09e-4 -0.03125,0 -0.0051,8.09e-4 -0.02615,-9.59e-4 -0.03125,0 -0.0051,9.59e-4 -0.02618,-0.0011 -0.03125,0 -0.0051,0.0011 -0.02622,-0.0013 -0.03125,0 -0.005,0.0013 0.005,0.02984 0,0.03125 -0.005,0.0014 -0.0263,-0.0016 -0.03125,0 -0.005,0.0016 -0.02635,-0.0017 -0.03125,0 -0.0049,0.0017 -0.0264,-0.0018 -0.03125,0 -0.0049,0.0018 -0.02645,0.02927 -0.03125,0.03125 -0.0047,0.0021 -0.02658,-0.0023 -0.03125,0 -0.0047,0.0023 -0.02665,0.02885 -0.03125,0.03125 -0.0046,0.0024 -0.02672,-0.0025 -0.03125,0 -0.0045,0.0025 0.0045,0.02858 0,0.03125 -0.0045,0.0027 -0.02688,-0.0028 -0.03125,0 -0.0044,0.0028 -0.02696,-0.0029 -0.03125,0 -0.0043,0.0029 0.0042,0.0282 0,0.03125 -0.0042,0.0031 -0.02714,-0.0032 -0.03125,0 -0.0041,0.0032 -0.02724,0.02796 -0.03125,0.03125 -0.004,0.0033 0.0039,0.02784 0,0.03125 -0.0039,0.0034 -0.02744,-0.0035 -0.03125,0 -0.0038,0.0035 -0.02755,0.02762 -0.03125,0.03125 -0.0036,0.0037 -0.02777,0.0274 -0.03125,0.03125 -0.0035,0.0038 0.0034,0.0273 0,0.03125 -0.0034,0.0039 -0.028,-0.004 -0.03125,0 -0.0033,0.004 0.0031,0.02711 0,0.03125 -0.0031,0.0041 -0.02824,0.02702 -0.03125,0.03125 -0.0029,0.0043 -0.0285,0.02685 -0.03125,0.03125 -0.0028,0.0044 0.0026,0.02677 0,0.03125 -0.0026,0.0045 -0.02876,-0.0046 -0.03125,0 -0.0025,0.0046 0.0024,0.02662 0,0.03125 -0.0024,0.0046 0.0022,0.02656 0,0.03125 -0.0022,0.0047 -0.02918,0.02649 -0.03125,0.03125 -0.0019,0.0048 0.0018,0.02638 0,0.03125 -0.0018,0.0049 -0.0296,0.02633 -0.03125,0.03125 -0.0016,0.0049 0.0015,0.02628 0,0.03125 -0.0015,0.005 0.0014,0.02624 0,0.03125 -0.0012,0.005 -0.03019,0.02617 -0.03125,0.03125 -0.0011,0.0051 9.05e-4,0.02614 0,0.03125 l -0.5,2.46875 a 0.17979089,0.17979089 0 0 0 0,0.03125 l 0,0.03125 -0.125,0.46875 -7.78125,-6.375 c -0.0057,-0.00461 -0.02533,-0.026882 -0.03125,-0.03125 -0.0059,-0.00437 -0.02515,-0.027134 -0.03125,-0.03125 -0.0061,-0.00412 -0.02499,-0.027392 -0.03125,-0.03125 -0.0063,-0.00386 -0.02483,0.00359 -0.03125,0 -0.0064,-0.00359 -0.02469,-0.027929 -0.03125,-0.03125 -0.0066,-0.00332 -0.02455,0.00304 -0.03125,0 -0.0067,-0.00304 -0.05568,-0.028489 -0.0625,-0.03125 -0.0068,-0.00276 -0.02432,0.00247 -0.03125,0 -0.0069,-0.00247 -0.02423,0.00218 -0.03125,0 -0.007,-0.00218 -0.02414,-0.029363 -0.03125,-0.03125 -0.0071,-0.00189 -0.02407,0.00159 -0.03125,0 -0.0072,-0.00159 -0.02401,0.00129 -0.03125,0 -0.0072,-0.00129 -0.02396,9.824e-4 -0.03125,0 -0.0073,-9.824e-4 -0.05518,-0.030573 -0.0625,-0.03125 -0.0073,-6.768e-4 -0.0239,3.7e-4 -0.03125,0 -0.0073,-3.7e-4 -0.02389,6.26e-5 -0.03125,0 -0.0039,-8.58e-5 -0.02736,0 -0.03125,0 -0.0039,0 -0.02736,-8.58e-5 -0.03125,0 a 0.17979089,0.17979089 0 0 0 -0.03125,0 c -0.0038,5.136e-4 -0.02742,-5.983e-4 -0.03125,0 z" />
    <path
       sodipodi:type="inkscape:offset"
       inkscape:radius="0.032692693"
       inkscape:original="M 30.78125 10.03125 A 0.2916752 0.2916752 0 0 0 30.71875 10.0625 A 0.2916752 0.2916752 0 0 0 30.6875 10.09375 A 0.2916752 0.2916752 0 0 0 30.625 10.125 L 11.25 29.3125 A 0.2916752 0.2916752 0 0 0 11.21875 29.34375 A 0.2916752 0.2916752 0 0 0 11.21875 29.6875 A 0.2916752 0.2916752 0 0 0 11.25 29.71875 A 0.2916752 0.2916752 0 0 0 11.28125 29.75 A 0.2916752 0.2916752 0 0 0 11.34375 29.78125 A 0.2916752 0.2916752 0 0 0 11.4375 29.8125 A 0.2916752 0.2916752 0 0 0 11.46875 29.8125 L 16.34375 30 L 16.71875 51.84375 A 0.2916752 0.2916752 0 0 0 16.75 52 A 0.2916752 0.2916752 0 0 0 16.78125 52.03125 A 0.2916752 0.2916752 0 0 0 16.8125 52.0625 A 0.2916752 0.2916752 0 0 0 16.875 52.09375 A 0.2916752 0.2916752 0 0 0 16.96875 52.125 A 0.2916752 0.2916752 0 0 0 17 52.125 L 47.75 52.59375 A 0.2916752 0.2916752 0 0 0 47.875 52.5625 A 0.2916752 0.2916752 0 0 0 48 52.4375 A 0.2916752 0.2916752 0 0 0 48.03125 52.3125 L 47.5625 30.65625 L 53.28125 30.75 A 0.2916752 0.2916752 0 0 0 53.375 30.75 A 0.2916752 0.2916752 0 0 0 53.5625 30.5625 A 0.2916752 0.2916752 0 0 0 53.53125 30.3125 A 0.2916752 0.2916752 0 0 0 53.5 30.28125 A 0.2916752 0.2916752 0 0 0 53.46875 30.25 L 44.1875 21.4375 L 44.03125 14.8125 A 0.2916752 0.2916752 0 0 0 44 14.65625 A 0.2916752 0.2916752 0 0 0 43.96875 14.625 A 0.2916752 0.2916752 0 0 0 43.9375 14.59375 A 0.2916752 0.2916752 0 0 0 43.875 14.5625 L 40.8125 12.9375 A 0.2916752 0.2916752 0 0 0 40.6875 12.90625 A 0.2916752 0.2916752 0 0 0 40.53125 12.9375 A 0.2916752 0.2916752 0 0 0 40.5 12.96875 A 0.2916752 0.2916752 0 0 0 40.46875 13 A 0.2916752 0.2916752 0 0 0 40.4375 13.0625 A 0.2916752 0.2916752 0 0 0 40.40625 13.125 L 39.90625 15.625 L 39.5625 17.09375 L 31.03125 10.125 A 0.2916752 0.2916752 0 0 0 31 10.09375 A 0.2916752 0.2916752 0 0 0 30.78125 10.03125 z "
       style="opacity:0.3;fill:#000000;fill-opacity:1;stroke:none;display:inline"
       id="path2992"
       d="m 30.75,10 c -0.0012,5.62e-4 0.0012,0.03067 0,0.03125 -0.0012,5.79e-4 -0.0301,-5.97e-4 -0.03125,0 -0.0011,6.98e-4 -0.03017,-7.14e-4 -0.03125,0 -6e-4,5.56e-4 5.95e-4,0.03069 0,0.03125 -0.0012,4.55e-4 -0.03004,-4.73e-4 -0.03125,0 -0.0012,5.62e-4 0.0012,0.03067 0,0.03125 -0.0012,5.79e-4 -0.0301,-5.97e-4 -0.03125,0 -0.0011,6.98e-4 -0.03017,-7.14e-4 -0.03125,0 l -19.375,19.1875 c -6e-4,5.56e-4 5.95e-4,0.03069 0,0.03125 -5.62e-4,5.95e-4 -0.03069,-6e-4 -0.03125,0 -4.94e-4,6.92e-4 4.87e-4,0.03055 0,0.03125 -4.24e-4,7.37e-4 -0.03083,-7.41e-4 -0.03125,0 -4.16e-4,7.41e-4 4.09e-4,0.03051 0,0.03125 -3.34e-4,7.82e-4 3.26e-4,0.03046 0,0.03125 -2.47e-4,8.13e-4 2.39e-4,0.03043 0,0.03125 -2.23e-4,8.2e-4 -0.03103,-8.22e-4 -0.03125,0 -1.66e-4,8.34e-4 1.58e-4,0.03042 0,0.03125 -8.4e-5,8.46e-4 7.5e-5,0.0304 0,0.03125 0,8.5e-4 -8e-6,0.0304 0,0.03125 7.5e-5,8.47e-4 -8.4e-5,0.0304 0,0.03125 1.58e-4,8.35e-4 -1.66e-4,0.03042 0,0.03125 2.15e-4,8.22e-4 0.03103,-8.2e-4 0.03125,0 2.39e-4,8.16e-4 -2.47e-4,0.03044 0,0.03125 3.26e-4,7.85e-4 -3.34e-4,0.03047 0,0.03125 4.09e-4,7.45e-4 -4.16e-4,0.03051 0,0.03125 4.16e-4,7.41e-4 0.03083,-7.37e-4 0.03125,0 4.87e-4,6.96e-4 -4.94e-4,0.03056 0,0.03125 5.56e-4,6e-4 0.03069,-5.95e-4 0.03125,0 5.95e-4,5.62e-4 -6e-4,0.03069 0,0.03125 l 0.03125,0 c 5.95e-4,5.62e-4 -6e-4,0.03069 0,0.03125 0.0011,7.14e-4 0.03016,-6.98e-4 0.03125,0 0.0012,5.97e-4 0.03009,-5.79e-4 0.03125,0 0.0012,5.79e-4 -0.0012,0.03069 0,0.03125 0.0012,4.73e-4 0.03004,-4.55e-4 0.03125,0 8.47e-4,3.54e-4 0.0304,-3.45e-4 0.03125,0 8.58e-4,3.27e-4 -8.62e-4,0.03093 0,0.03125 8.8e-4,2.62e-4 0.03037,-2.53e-4 0.03125,0 9.01e-4,1.77e-4 0.03035,-1.68e-4 0.03125,0 0.0012,0 0.03009,1.5e-5 0.03125,0 l 4.84375,0.1875 0.375,21.8125 c -4.1e-5,0.0015 1.5e-5,0.02976 0,0.03125 8.8e-5,0.0015 -1.14e-4,0.02976 0,0.03125 2.42e-4,0.0015 -2.67e-4,0.02978 0,0.03125 3.93e-4,0.0014 -4.18e-4,0.02982 0,0.03125 4.67e-4,0.0014 0.03076,-0.0014 0.03125,0 5.4e-4,0.0014 -5.64e-4,0.02987 0,0.03125 a 0.03269596,0.03269596 0 0 0 0,0.03125 c 5.56e-4,6e-4 0.03069,-5.95e-4 0.03125,0 5.95e-4,5.62e-4 -6e-4,0.03069 0,0.03125 l 0.03125,0 c 5.95e-4,5.62e-4 -6e-4,0.03069 0,0.03125 0.0011,7.14e-4 0.03016,-6.98e-4 0.03125,0 0.0011,5.97e-4 0.03009,-5.79e-4 0.03125,0 0.0012,5.79e-4 -0.0012,0.03069 0,0.03125 0.0012,4.73e-4 0.03004,-4.55e-4 0.03125,0 8.47e-4,3.54e-4 0.0304,-3.45e-4 0.03125,0 8.58e-4,3.27e-4 -8.62e-4,0.03093 0,0.03125 8.8e-4,2.62e-4 0.03037,-2.53e-4 0.03125,0 9.01e-4,1.77e-4 0.03035,-1.68e-4 0.03125,0 0.0012,1.5e-5 0.03009,0 0.03125,0 L 47.75,52.625 c 0.0012,-7.7e-5 0.03005,9.4e-5 0.03125,0 0.0012,-1.93e-4 0.03007,2.1e-4 0.03125,0 0.0012,-3.08e-4 0.03009,3.24e-4 0.03125,0 0.0011,-3.72e-4 -0.0011,-0.03086 0,-0.03125 0.0011,-4.19e-4 0.03013,4.35e-4 0.03125,0 7.38e-4,-3.82e-4 0.03052,3.89e-4 0.03125,0 7.06e-4,-4.37e-4 -7.02e-4,-0.03081 0,-0.03125 6.93e-4,-4.58e-4 0.03056,4.64e-4 0.03125,0 6.31e-4,-5.4e-4 0.03063,5.46e-4 0.03125,0 6.25e-4,-5.46e-4 -6.2e-4,-0.0307 0,-0.03125 5.52e-4,-6.2e-4 0.0307,6.25e-4 0.03125,0 5.46e-4,-6.25e-4 -5.4e-4,-0.03062 0,-0.03125 4.64e-4,-6.89e-4 -4.58e-4,-0.03056 0,-0.03125 4.44e-4,-7.02e-4 0.03081,7.06e-4 0.03125,0 3.89e-4,-7.34e-4 -3.82e-4,-0.03051 0,-0.03125 4.35e-4,-0.0011 -4.19e-4,-0.03012 0,-0.03125 3.88e-4,-0.0011 0.03088,0.0011 0.03125,0 3.24e-4,-0.0012 -3.08e-4,-0.03009 0,-0.03125 2.1e-4,-0.0012 -1.93e-4,-0.03006 0,-0.03125 9.4e-5,-0.0012 -7.7e-5,-0.03005 0,-0.03125 l -0.46875,-21.625 5.6875,0.09375 c 8.66e-4,8.8e-5 0.03038,-7.9e-5 0.03125,0 8.71e-4,0 0.03038,9e-6 0.03125,0 8.67e-4,-7.9e-5 0.03038,8.8e-5 0.03125,0 0.0012,-4.1e-4 0.03005,4.28e-4 0.03125,0 0.0012,-5.32e-4 0.0301,-0.0307 0.03125,-0.03125 0.0011,-6.49e-4 0.03016,6.65e-4 0.03125,0 0.001,-7.43e-4 -0.001,-0.03049 0,-0.03125 0.001,-7.73e-4 0.03025,7.88e-4 0.03125,0 9.13e-4,-8.87e-4 -9e-4,-0.03035 0,-0.03125 9e-4,-9e-4 0.03036,9.13e-4 0.03125,0 7.88e-4,-0.001 -7.73e-4,-0.03024 0,-0.03125 7.58e-4,-0.001 0.03051,0.001 0.03125,0 6.65e-4,-0.0011 -6.49e-4,-0.03016 0,-0.03125 5.49e-4,-0.0011 0.03072,-0.03009 0.03125,-0.03125 4.28e-4,-0.0012 -4.1e-4,-0.03005 0,-0.03125 3.01e-4,-0.0012 -2.85e-4,-0.03008 0,-0.03125 1.69e-4,-0.0012 -1.52e-4,-0.03006 0,-0.03125 1.02e-4,-0.0012 0.03116,0.0012 0.03125,0 6.9e-5,-0.0012 -5.2e-5,-0.03005 0,-0.03125 -4.9e-5,-0.0012 6.6e-5,-0.03005 0,-0.03125 -8.3e-5,-0.0012 -0.03115,0.0012 -0.03125,0 -1.66e-4,-0.0012 1.83e-4,-0.03006 0,-0.03125 -2.82e-4,-0.0012 2.98e-4,-0.03008 0,-0.03125 -4.1e-4,-0.0011 4.26e-4,-0.03012 0,-0.03125 -5.19e-4,-0.0011 -0.03072,-0.03017 -0.03125,-0.03125 -6.37e-4,-0.001 6.51e-4,-0.03024 0,-0.03125 -5.56e-4,-6e-4 -0.03069,5.95e-4 -0.03125,0 -5.95e-4,-5.62e-4 6e-4,-0.03069 0,-0.03125 -5.56e-4,-6e-4 -0.03069,5.95e-4 -0.03125,0 l 0,-0.03125 -9.28125,-8.8125 -0.15625,-6.59375 c 4.1e-5,-0.0015 -1.5e-5,-0.02976 0,-0.03125 -8.8e-5,-0.0015 1.14e-4,-0.02976 0,-0.03125 -2.42e-4,-0.0015 2.67e-4,-0.02978 0,-0.03125 -3.93e-4,-0.0014 4.18e-4,-0.02982 0,-0.03125 -4.67e-4,-0.0014 -0.03076,0.0014 -0.03125,0 -5.4e-4,-0.0014 5.64e-4,-0.02987 0,-0.03125 a 0.03269596,0.03269596 0 0 0 0,-0.03125 c -5.56e-4,-6e-4 -0.03069,5.95e-4 -0.03125,0 -5.95e-4,-5.62e-4 6e-4,-0.03069 0,-0.03125 -5.56e-4,-6e-4 -0.03069,5.95e-4 -0.03125,0 -5.95e-4,-5.62e-4 6e-4,-0.03069 0,-0.03125 -0.0011,-7.14e-4 -0.03016,6.98e-4 -0.03125,0 -0.0012,-5.97e-4 -0.03009,5.79e-4 -0.03125,0 -0.0012,-5.79e-4 0.0012,-0.03069 0,-0.03125 -0.0012,-4.73e-4 -0.03004,4.55e-4 -0.03125,0 l -3.0625,-1.625 c -0.0011,-4.35e-4 -0.03012,4.19e-4 -0.03125,0 -0.0011,-3.88e-4 0.0011,-0.03088 0,-0.03125 -0.0012,-3.24e-4 -0.03009,3.08e-4 -0.03125,0 -0.0012,-2.1e-4 -0.03006,1.93e-4 -0.03125,0 -0.0012,-9.4e-5 -0.03005,7.7e-5 -0.03125,0 -0.0015,-4.1e-5 -0.02976,1.5e-5 -0.03125,0 -0.0015,8.8e-5 -0.02976,-1.14e-4 -0.03125,0 -0.0015,2.42e-4 -0.02978,-2.67e-4 -0.03125,0 -0.0014,3.93e-4 -0.02982,-4.18e-4 -0.03125,0 -0.0014,4.67e-4 0.0014,0.03076 0,0.03125 -0.0014,5.4e-4 -0.02987,-5.64e-4 -0.03125,0 a 0.03269596,0.03269596 0 0 0 -0.03125,0 c -6e-4,5.56e-4 5.95e-4,0.03069 0,0.03125 l -0.03125,0 c -6e-4,5.56e-4 5.95e-4,0.03069 0,0.03125 -5.62e-4,5.95e-4 -0.03069,-6e-4 -0.03125,0 -7.14e-4,0.0011 6.98e-4,0.03016 0,0.03125 -5.97e-4,0.0012 5.79e-4,0.03009 0,0.03125 -5.79e-4,0.0012 -0.03069,-0.0012 -0.03125,0 -4.73e-4,0.0012 4.55e-4,0.03004 0,0.03125 -5.97e-4,0.0012 5.79e-4,0.03009 0,0.03125 -5.79e-4,0.0012 -0.03069,-0.0012 -0.03125,0 -4.73e-4,0.0012 4.55e-4,0.03004 0,0.03125 l -0.5,2.5 -0.3125,1.40625 -8.5,-6.9375 c -5.56e-4,-6e-4 -0.03069,5.95e-4 -0.03125,0 -5.95e-4,-5.62e-4 6e-4,-0.03069 0,-0.03125 -8.5e-4,-6.68e-4 -0.03039,6.57e-4 -0.03125,0 -9.12e-4,-5.8e-4 9.19e-4,-0.03068 0,-0.03125 -9.19e-4,-5.68e-4 -0.03032,5.57e-4 -0.03125,0 -9.77e-4,-4.61e-4 -0.03027,4.49e-4 -0.03125,0 -0.001,-3.74e-4 0.001,-0.03089 0,-0.03125 -0.001,-3.613e-4 -0.03023,3.49e-4 -0.03125,0 -0.001,-2.577e-4 -0.0302,2.45e-4 -0.03125,0 -0.0011,-1.514e-4 -0.03018,1.38e-4 -0.03125,0 -0.0011,-4.37e-5 -0.03017,3e-5 -0.03125,0 -0.0011,6.5e-5 -0.03017,-7.8e-5 -0.03125,0 -0.0012,4.55e-4 -0.03004,-4.729e-4 -0.03125,0 z" />
  </g>
  <g
     id="g3793"
     style="display:inline"
     transform="matrix(1.0722151,0,0,1,-3.2871185,0)">
    <path
       d="m 30.906122,10.337208 -19.370173,19.1875 5.15625,0.1875 0.375,22.125 30.735392,0.46875 -0.46875,-21.9375 6,0.09375 -9.375,-8.90625 -0.15625,-6.75 -3.0625,-1.625 -0.5,2.938484 -0.46875,1.467766 z"
       id="path3795"
       style="fill:#ffffff;fill-opacity:1;stroke:none"
       inkscape:connector-curvature="0" />
  </g>
</svg>
