<?xml version="1.0" encoding="UTF-8" standalone="no"?>
<!-- Created with Inkscape (http://www.inkscape.org/) -->

<svg
   xmlns:dc="http://purl.org/dc/elements/1.1/"
   xmlns:cc="http://creativecommons.org/ns#"
   xmlns:rdf="http://www.w3.org/1999/02/22-rdf-syntax-ns#"
   xmlns:svg="http://www.w3.org/2000/svg"
   xmlns="http://www.w3.org/2000/svg"
   xmlns:sodipodi="http://sodipodi.sourceforge.net/DTD/sodipodi-0.dtd"
   xmlns:inkscape="http://www.inkscape.org/namespaces/inkscape"
   width="64px"
   height="64px"
   id="svg2985"
   version="1.1"
   inkscape:version="0.48.4 r9939"
   sodipodi:docname="home.svg">
  <defs
     id="defs2987">
    <filter
       inkscape:collect="always"
       id="filter3796">
      <feGaussianBlur
         inkscape:collect="always"
         stdDeviation="1.2409375"
         id="feGaussianBlur3798" />
    </filter>
    <filter
       inkscape:collect="always"
       id="filter3797">
      <feGaussianBlur
         inkscape:collect="always"
         stdDeviation="1.2409375"
         id="feGaussianBlur3799" />
    </filter>
  </defs>
  <sodipodi:namedview
     id="base"
     pagecolor="#ffffff"
     bordercolor="#666666"
     borderopacity="1.0"
     inkscape:pageopacity="0.0"
     inkscape:pageshadow="2"
     inkscape:zoom="10.482021"
     inkscape:cx="25.609532"
     inkscape:cy="39.489646"
     inkscape:current-layer="g3793"
     showgrid="true"
     inkscape:document-units="px"
     inkscape:grid-bbox="true"
     inkscape:window-width="1237"
     inkscape:window-height="978"
     inkscape:window-x="43"
     inkscape:window-y="22"
     inkscape:window-maximized="1" />
  <metadata
     id="metadata2990">
    <rdf:RDF>
      <cc:Work
         rdf:about="">
        <dc:format>image/svg+xml</dc:format>
        <dc:type
           rdf:resource="http://purl.org/dc/dcmitype/StillImage" />
        <dc:title />
      </cc:Work>
    </rdf:RDF>
  </metadata>
  <g
     id="layer1"
     inkscape:label="bg"
     inkscape:groupmode="layer"
     style="display:inline">
    <path
       style="fill:#000000;fill-opacity:1;stroke:none;display:inline;filter:url(#filter3797);opacity:0.7"
       d="m 32.248993,2.0676995 c -17.306116,0 -31.21875,13.1124215 -31.21875,30.4374995 0,17.325078 14.037634,30.84375 31.34375,30.84375 17.306116,0 31.46875,-13.393672 31.46875,-30.71875 l -0.03125,-0.59375 C 63.489577,14.944926 49.324845,2.0676995 32.248993,2.0676995 z m 0.25,2.8124995 c 15.114181,0 27.433816,12.121948 27.71875,27.25 l 0,0.5 c 0,15.334776 -12.400757,27.78125 -27.71875,27.78125 -15.317993,0 -27.75,-12.446474 -27.75,-27.78125 0,-15.334776 12.432007,-27.75 27.75,-27.75 z m -1.278075,6.039507 -17.84375,19.1875 5.15625,0.1875 0.375,22.125 27.96875,0.46875 -0.46875,-21.9375 6,0.09375 -9.375,-8.90625 -0.15625,-6.75 -3.0625,-1.625 -0.5,2.5 -0.46875,1.90625 z m 0.0625,1.875 8.0625,7.625 c 0,0 0.99275,-4.864731 1.019364,-4.915189 0.01574,-0.02983 1.199386,0.696439 1.199386,0.696439 l 0.317459,6.373504 7.149324,7.01291 -4.151291,0.04613 0.184508,21.786209 -24.625,-0.875 -0.53125,-22.15625 -3.434508,0.06596 z"
       id="path3795-3"
       inkscape:connector-curvature="0"
       sodipodi:nodetypes="sssccsscsssscccccccccccccccsccccccccc" />
  </g>
  <g
     inkscape:groupmode="layer"
     inkscape:label="layer"
     id="g3793"
     style="display:inline">
    <path
       style="fill:#ffffff;fill-opacity:1;stroke:none"
       d="m 32.125,1.4375 c -17.306116,0 -31.21875,13.112422 -31.21875,30.4375 0,17.325078 14.037634,30.84375 31.34375,30.84375 17.306116,0 31.46875,-13.393672 31.46875,-30.71875 L 63.6875,31.40625 C 63.365584,14.314727 49.200852,1.4375 32.125,1.4375 z m 0.25,2.8125 c 15.114181,0 27.433816,12.121948 27.71875,27.25 l 0,0.5 c 0,15.334776 -12.400757,27.78125 -27.71875,27.78125 C 17.057007,59.78125 4.625,47.334776 4.625,32 4.625,16.665224 17.057007,4.25 32.375,4.25 z m -1.278075,6.039507 -17.84375,19.1875 5.15625,0.1875 0.375,22.125 27.96875,0.46875 -0.46875,-21.9375 6,0.09375 -9.375,-8.90625 -0.15625,-6.75 -3.0625,-1.625 -0.5,2.5 -0.46875,1.90625 z m 0.0625,1.875 8.0625,7.625 c 0,0 0.99275,-4.864731 1.019364,-4.915189 0.01574,-0.02983 1.199386,0.696439 1.199386,0.696439 l 0.317459,6.373504 7.149324,7.01291 -4.151291,0.04613 0.184508,21.786209 -24.625,-0.875 -0.53125,-22.15625 -3.434508,0.06596 z"
       id="path3795"
       inkscape:connector-curvature="0"
       sodipodi:nodetypes="sssccsscsssscccccccccccccccsccccccccc" />
  </g>
</svg>
