<?xml version="1.0" encoding="UTF-8" standalone="no"?>
<!-- Created with Inkscape (http://www.inkscape.org/) -->

<svg
   xmlns:dc="http://purl.org/dc/elements/1.1/"
   xmlns:cc="http://creativecommons.org/ns#"
   xmlns:rdf="http://www.w3.org/1999/02/22-rdf-syntax-ns#"
   xmlns:svg="http://www.w3.org/2000/svg"
   xmlns="http://www.w3.org/2000/svg"
   version="1.1"
   width="64"
   height="64"
   id="svg3854">
  <defs
     id="defs3856" />
  <metadata
     id="metadata3859">
    <rdf:RDF>
      <cc:Work
         rdf:about="">
        <dc:format>image/svg+xml</dc:format>
        <dc:type
           rdf:resource="http://purl.org/dc/dcmitype/StillImage" />
        <dc:title></dc:title>
      </cc:Work>
    </rdf:RDF>
  </metadata>
  <g
     id="layer3">
    <path
       d="m 10.09375,5.84375 a 0.96800458,0.96800458 0 0 0 -0.875,0.96875 l 0,3.625 0.4375,47.28125 A 0.96800458,0.96800458 0 0 0 10.625,58.6875 l 34.09375,0 a 0.96800458,0.96800458 0 0 0 0.96875,-0.96875 l 0,-18.375 A 0.96800458,0.96800458 0 0 0 44.71875,38.375 l -2.625,0 A 0.96800458,0.96800458 0 0 0 41.125,39.34375 l 0,13.84375 -26.25,0 0,-41.96875 25.4375,0 0,18.6875 a 0.96800458,0.96800458 0 0 0 0.96875,0.96875 l 3.625,0 A 0.96800458,0.96800458 0 0 0 45.875,29.90625 l 0,-23.09375 A 0.96800458,0.96800458 0 0 0 44.90625,5.84375 l -34.71875,0 a 0.96800458,0.96800458 0 0 0 -0.09375,0 z M 48.03125,27.1875 A 0.96800458,0.96800458 0 0 0 47.125,28.15625 l 0,3.3125 -19.3125,0 a 0.96800458,0.96800458 0 0 0 -0.96875,1 l 0.1875,4.65625 A 0.96800458,0.96800458 0 0 0 28,38.0625 l 19.375,0 0,3.3125 a 0.96800458,0.96800458 0 0 0 1.4375,0.84375 L 60.125,35.6875 A 0.96800458,0.96800458 0 0 0 60.15625,34 l -11.5625,-6.6875 a 0.96800458,0.96800458 0 0 0 -0.5625,-0.125 z"
       transform="translate(-0.08838835,0.37565048)"
       id="path3759"
       style="opacity:0.1;fill:#000000;stroke:none" />
    <path
       d="M 10.0625,6.15625 A 0.66412891,0.66412891 0 0 0 9.53125,6.8125 l 0,3.625 0.4375,47.28125 A 0.66412891,0.66412891 0 0 0 10.625,58.375 l 34.09375,0 A 0.66412891,0.66412891 0 0 0 45.375,57.71875 l 0,-18.375 A 0.66412891,0.66412891 0 0 0 44.71875,38.6875 l -2.625,0 a 0.66412891,0.66412891 0 0 0 -0.65625,0.65625 l 0,14.15625 -26.875,0 0,-42.59375 26.0625,0 0,19 a 0.66412891,0.66412891 0 0 0 0.65625,0.65625 l 3.625,0 a 0.66412891,0.66412891 0 0 0 0.65625,-0.65625 l 0,-23.09375 A 0.66412891,0.66412891 0 0 0 44.90625,6.15625 l -34.71875,0 a 0.66412891,0.66412891 0 0 0 -0.125,0 z M 47.96875,27.5 a 0.66412891,0.66412891 0 0 0 -0.53125,0.65625 l 0,3.625 -19.625,0 a 0.66412891,0.66412891 0 0 0 -0.65625,0.6875 l 0.1875,4.65625 A 0.66412891,0.66412891 0 0 0 28,37.75 l 19.6875,0 0,3.625 a 0.66412891,0.66412891 0 0 0 1,0.5625 L 60,35.40625 a 0.66412891,0.66412891 0 0 0 0,-1.125 L 48.4375,27.59375 A 0.66412891,0.66412891 0 0 0 47.96875,27.5 z"
       transform="translate(-0.08838835,0.37565048)"
       id="path3761"
       style="opacity:0.15;fill:#000000;stroke:none" />
    <path
       d="M 10.09375,6.5 A 0.31546797,0.31546797 0 0 0 9.875,6.8125 l 0,3.625 0.4375,47.28125 A 0.31546797,0.31546797 0 0 0 10.5,58 a 0.31546797,0.31546797 0 0 0 0.125,0.03125 l 34.09375,0 a 0.31546797,0.31546797 0 0 0 0.3125,-0.3125 l 0,-18.375 a 0.31546797,0.31546797 0 0 0 -0.3125,-0.3125 l -2.625,0 a 0.31546797,0.31546797 0 0 0 -0.3125,0.3125 l 0,14.5 -27.5625,0 0,-43.28125 26.75,0 0,19.34375 a 0.31546797,0.31546797 0 0 0 0.3125,0.3125 l 3.625,0 a 0.31546797,0.31546797 0 0 0 0.3125,-0.3125 l 0,-23.09375 A 0.31546797,0.31546797 0 0 0 44.90625,6.5 l -34.71875,0 a 0.31546797,0.31546797 0 0 0 -0.09375,0 z M 48,27.84375 a 0.31546797,0.31546797 0 0 0 -0.15625,0.125 0.31546797,0.31546797 0 0 0 -0.0625,0.1875 l 0,3.96875 -19.96875,0 A 0.31546797,0.31546797 0 0 0 27.5,32.4375 l 0.1875,4.65625 A 0.31546797,0.31546797 0 0 0 28,37.40625 l 20.03125,0 0,3.96875 A 0.31546797,0.31546797 0 0 0 48.5,41.65625 L 59.8125,35.125 a 0.31546797,0.31546797 0 0 0 0,-0.5625 L 48.25,27.875 A 0.31546797,0.31546797 0 0 0 48,27.84375 z"
       transform="translate(-0.08838835,0.37565048)"
       id="path3763"
       style="opacity:0.3;fill:#000000;stroke:none" />
  </g>
  <g
     id="layer1"
     style="display:inline">
    <path
       d="m 10.09375,7.1875 0,3.625 0.4375,47.28125 34.09375,0 0,-18.375 -2.625,0 0,14.8125 -28.1875,0 0,-43.90625 27.375,0 0,19.65625 3.625,0 0,-23.09375 -34.71875,0 z M 48,28.53125 l 0,4.28125 -20.28125,0 0.1875,4.65625 20.34375,0 0,4.28125 L 59.5625,35.21875 48,28.53125 z"
       id="path3862"
       style="fill:#ffffff;stroke:none" />
  </g>
</svg>
