<?xml version="1.0" encoding="UTF-8" standalone="no"?>
<!-- Created with Inkscape (http://www.inkscape.org/) -->

<svg
   xmlns:dc="http://purl.org/dc/elements/1.1/"
   xmlns:cc="http://creativecommons.org/ns#"
   xmlns:rdf="http://www.w3.org/1999/02/22-rdf-syntax-ns#"
   xmlns:svg="http://www.w3.org/2000/svg"
   xmlns="http://www.w3.org/2000/svg"
   xmlns:sodipodi="http://sodipodi.sourceforge.net/DTD/sodipodi-0.dtd"
   xmlns:inkscape="http://www.inkscape.org/namespaces/inkscape"
   version="1.1"
   width="64"
   height="64"
   id="svg2985"
   inkscape:version="0.48.4 r9939"
   sodipodi:docname="open-apps.svg">
  <sodipodi:namedview
     pagecolor="#ffffff"
     bordercolor="#666666"
     borderopacity="1"
     objecttolerance="10"
     gridtolerance="10"
     guidetolerance="10"
     inkscape:pageopacity="0"
     inkscape:pageshadow="2"
     inkscape:window-width="686"
     inkscape:window-height="480"
     id="namedview14"
     showgrid="false"
     inkscape:zoom="29.5"
     inkscape:cx="59.880593"
     inkscape:cy="45.759613"
     inkscape:window-x="43"
     inkscape:window-y="0"
     inkscape:window-maximized="0"
     inkscape:current-layer="svg2985" />
  <defs
     id="defs2987">
    <linearGradient
       id="linearGradient3768">
      <stop
         id="stop3770"
         style="stop-color:#c8c8c8;stop-opacity:1"
         offset="0" />
      <stop
         id="stop3772"
         style="stop-color:#e3dbdb;stop-opacity:1"
         offset="1" />
    </linearGradient>
  </defs>
  <metadata
     id="metadata2990">
    <rdf:RDF>
      <cc:Work
         rdf:about="">
        <dc:format>image/svg+xml</dc:format>
        <dc:type
           rdf:resource="http://purl.org/dc/dcmitype/StillImage" />
        <dc:title />
      </cc:Work>
    </rdf:RDF>
  </metadata>
  <g
     id="g3755">
    <path
       d="M 31.40625,0.46875 C 21.435347,0.25103436 13.476554,1.8554508 8.03125,7.125 c -5.4512761,5.275328 -8.15982029,13.992013 -8.125,27.5 0.0268463,10.414612 1.1159902,18.036521 5.96875,23.09375 4.85276,5.057229 13.126458,7.1875 26.90625,7.1875 8.212005,0 16.13359,-0.01367 22.15625,-4.09375 6.02266,-4.080085 9.71875,-12.131951 9.71875,-27.21875 0,-15.638726 -3.554489,-24.12402 -9.6875,-28.53125 C 48.842903,0.66041764 40.577969,0.46920231 31.4375,0.46875 c -0.01069,-5.3e-7 -0.02056,0 -0.03125,0 z m -2.875,4.9375 c 1.090651,-0.02961 2.20635,-0.02597 3.375,0 a 1.1459433,1.1459433 0 0 0 0.03125,0 c 8.764085,0 15.726555,0.1110518 20.34375,3.5625 4.617195,3.451448 7.40625,10.48085 7.40625,25.1875 0,7.07721 -0.721019,12.206484 -2,15.84375 -1.278981,3.637266 -3.061969,5.778992 -5.28125,7.15625 -4.438561,2.754516 -11.101448,2.3125 -19.03125,2.3125 -13.027365,0 -20.107304,-1.615345 -23.84375,-5.28125 C 5.7948039,50.521595 4.9316664,44.391117 4.90625,34.53125 4.8755921,22.638023 6.880382,15.493009 10.6875,11.3125 14.494618,7.1319914 20.298911,5.629747 28.53125,5.40625 z"
       id="path3758"
       style="opacity:0.05;fill:#000000;fill-opacity:1;stroke:#000000;stroke-width:0.09758190999999999;stroke-linecap:butt;stroke-linejoin:miter;stroke-miterlimit:4;stroke-opacity:1;stroke-dasharray:none" />
    <path
       d="M 31.40625,0.8125 C 21.473076,0.59564309 13.606577,2.1600642 8.25,7.34375 2.887495,12.533172 0.21528956,21.159627 0.25,34.625 0.27678913,45.017434 1.3368654,52.542686 6.09375,57.5 c 4.756885,4.957314 12.940542,7.0625 26.6875,7.0625 8.209746,0 16.055524,-0.0253 21.96875,-4.03125 5.913226,-4.005948 9.5625,-11.901643 9.5625,-26.9375 0,-15.591291 -3.507266,-23.9211175 -9.53125,-28.25 C 48.764335,1.0199474 40.571764,0.81299773 31.4375,0.8125 c -0.01073,-5.8e-7 -0.02052,0 -0.03125,0 z m -2.875,4.25 c 1.097297,-0.02979 2.202519,-0.026056 3.375,0 a 0.82760783,0.82760783 0 0 0 0.03125,0 c 8.765299,0 15.798145,0.1181563 20.53125,3.65625 4.733105,3.538094 7.5625,10.690242 7.5625,25.4375 0,7.098922 -0.734119,12.248617 -2.03125,15.9375 -1.297131,3.688883 -3.123185,5.895658 -5.40625,7.3125 C 48.02762,60.239934 41.290305,59.8125 33.375,59.8125 20.322375,59.8125 13.155573,58.208018 9.3125,54.4375 5.4694271,50.666982 4.5879621,44.408871 4.5625,34.53125 4.5317499,22.602243 6.547515,15.365253 10.4375,11.09375 14.327485,6.8222471 20.263642,5.2869545 28.53125,5.0625 z"
       id="path3760"
       style="opacity:0.1;fill:#000000;fill-opacity:1;stroke:#000000;stroke-width:0.09758190999999999;stroke-linecap:butt;stroke-linejoin:miter;stroke-miterlimit:4;stroke-opacity:1;stroke-dasharray:none" />
    <path
       d="M 27.8125,1.25 C 19.632701,1.4740034 13.145432,3.2524892 8.5625,7.6875 3.3248638,12.756084 0.65294407,21.219568 0.6875,34.625 c 0.0267087,10.361238 1.0967271,17.74573 5.71875,22.5625 4.622023,4.81677 12.674228,6.9375 26.375,6.9375 8.206567,0 15.959458,-0.06709 21.71875,-3.96875 5.759292,-3.901665 9.375,-11.5983 9.375,-26.5625 C 63.875,18.069182 60.401873,9.9061759 54.53125,5.6875 48.660627,1.4688241 40.545013,1.25 31.40625,1.25 c -1.237004,-0.02749 -2.425207,-0.032001 -3.59375,0 z M 28.5,4.625 c 1.106645,-0.030044 2.25963,-0.026175 3.4375,0 8.767006,0 15.916351,0.090027 20.8125,3.75 4.896149,3.659973 7.71875,10.97687 7.71875,25.78125 0,7.129461 -0.739838,12.332261 -2.0625,16.09375 -1.322662,3.761489 -3.220963,6.089978 -5.59375,7.5625 C 48.066926,60.757545 41.269913,60.25 33.375,60.25 20.286844,60.25 12.993058,58.667672 9,54.75 5.0069417,50.832328 4.1505265,44.433844 4.125,34.53125 4.0941201,22.551914 6.1184512,15.211999 10.125,10.8125 14.131549,6.4130009 20.182781,4.8508014 28.5,4.625 z"
       id="path3762"
       style="opacity:0.2;fill:#000000;fill-opacity:1;stroke:#000000;stroke-width:0.09758190999999999;stroke-linecap:butt;stroke-linejoin:miter;stroke-miterlimit:4;stroke-opacity:1;stroke-dasharray:none" />
  </g>
  <g
     id="layer1"
     style="display:inline">
    <path
       d="M 31.39407,1.6357566 C 11.691466,1.1979079 0.98334488,7.9214654 1.0521946,34.630639 c 0.053281,20.669553 4.4214241,29.1221 31.7446154,29.1221 16.407743,0 30.707806,-0.352071 30.707806,-30.158908 0,-30.9359412 -13.847338,-31.9580744 -32.110546,-31.9580744 z m -2.901108,2.6001992 c 1.114574,-0.030259 2.26342,-0.026277 3.445861,0 17.536908,0 28.901311,0.2002577 28.901311,29.9059222 0,28.621466 -11.709551,26.496402 -27.464782,26.496402 C 7.1387624,60.63828 3.8016266,54.386711 3.7504644,34.539156 3.6884846,10.495102 11.774361,4.6898435 28.492962,4.2359558 z"
       id="path2995"
       style="fill:#ffffff;fill-opacity:1;stroke:none" />
  </g>
</svg>
