<?xml version="1.0" encoding="UTF-8" standalone="no"?>
<!-- Created with Inkscape (http://www.inkscape.org/) -->

<svg
   xmlns:dc="http://purl.org/dc/elements/1.1/"
   xmlns:cc="http://creativecommons.org/ns#"
   xmlns:rdf="http://www.w3.org/1999/02/22-rdf-syntax-ns#"
   xmlns:svg="http://www.w3.org/2000/svg"
   xmlns="http://www.w3.org/2000/svg"
   xmlns:sodipodi="http://sodipodi.sourceforge.net/DTD/sodipodi-0.dtd"
   xmlns:inkscape="http://www.inkscape.org/namespaces/inkscape"
   version="1.1"
   width="48"
   height="48"
   id="svg2985"
   inkscape:version="0.48.5 r"
   sodipodi:docname="remove.svg">
  <sodipodi:namedview
     pagecolor="#ffffff"
     bordercolor="#666666"
     borderopacity="1"
     objecttolerance="10"
     gridtolerance="10"
     guidetolerance="10"
     inkscape:pageopacity="0"
     inkscape:pageshadow="2"
     inkscape:window-width="1233"
     inkscape:window-height="998"
     id="namedview11"
     showgrid="false"
     inkscape:zoom="9.8333333"
     inkscape:cx="37.105554"
     inkscape:cy="30.997659"
     inkscape:window-x="47"
     inkscape:window-y="0"
     inkscape:window-maximized="1"
     inkscape:current-layer="svg2985" />
  <defs
     id="defs2987" />
  <metadata
     id="metadata2990">
    <rdf:RDF>
      <cc:Work
         rdf:about="">
        <dc:format>image/svg+xml</dc:format>
        <dc:type
           rdf:resource="http://purl.org/dc/dcmitype/StillImage" />
        <dc:title />
      </cc:Work>
    </rdf:RDF>
  </metadata>
  <g
     id="layer2"
     transform="matrix(0.81482192,0,0,0.81482192,4.4327003,4.4587826)">
    <path
       d="m 12.21875,3.21875 a 1.5248864,1.5248864 0 0 0 -1.0625,0.46875 l -7.625,7.65625 a 1.5248864,1.5248864 0 0 0 0,2.15625 l 10,10 -10,10 a 1.5248864,1.5248864 0 0 0 0,2.1875 l 8.78125,8.78125 a 1.5248864,1.5248864 0 0 0 2.1875,0 l 10,-10 L 34.53125,44.5 a 1.5248864,1.5248864 0 0 0 2.1875,-0.03125 l 7.625,-7.65625 a 1.5248864,1.5248864 0 0 0 0,-2.125 L 34.3125,24.65625 44.34375,14.625 a 1.5248864,1.5248864 0 0 0 0,-2.1875 L 35.5625,3.65625 a 1.5248864,1.5248864 0 0 0 -2.15625,0 L 23.375,13.6875 13.34375,3.65625 a 1.5248864,1.5248864 0 0 0 -1.125,-0.4375 z"
       id="path3812"
       style="opacity:0.1;fill:#1a1a1a;stroke:none"
       inkscape:connector-curvature="0" />
    <path
       d="M 12.125,3.6875 A 1.0704977,1.0704977 0 0 0 11.5,4 l -7.625,7.65625 a 1.0704977,1.0704977 0 0 0 0,1.5 L 14.21875,23.5 3.875,33.84375 a 1.0704977,1.0704977 0 0 0 0,1.5 l 8.78125,8.78125 a 1.0704977,1.0704977 0 0 0 1.5,0 L 24.5,33.78125 l 10.375,10.375 a 1.0704977,1.0704977 0 0 0 1.5,0 L 44,36.5 A 1.0704977,1.0704977 0 0 0 44,35 L 33.65625,24.625 44,14.28125 a 1.0704977,1.0704977 0 0 0 0,-1.5 L 35.21875,4 a 1.0704977,1.0704977 0 0 0 -1.5,0 L 23.34375,14.34375 13,4 A 1.0704977,1.0704977 0 0 0 12.125,3.6875 z"
       id="path3814"
       style="opacity:0.2;fill:#1a1a1a;stroke:none"
       inkscape:connector-curvature="0" />
    <path
       d="M 12.125,4.21875 A 0.53679487,0.53679487 0 0 0 11.875,4.375 L 4.25,12.03125 a 0.53679487,0.53679487 0 0 0 0,0.75 L 14.96875,23.5 4.25,34.21875 a 0.53679487,0.53679487 0 0 0 0,0.75 L 13.03125,43.75 a 0.53679487,0.53679487 0 0 0 0.75,0 L 24.5,33.03125 l 10.75,10.75 a 0.53679487,0.53679487 0 0 0 0.75,0 L 43.625,36.125 a 0.53679487,0.53679487 0 0 0 0,-0.75 L 32.90625,24.625 43.625,13.90625 a 0.53679487,0.53679487 0 0 0 0,-0.75 L 34.84375,4.375 a 0.53679487,0.53679487 0 0 0 -0.75,0 L 23.34375,15.09375 12.625,4.375 a 0.53679487,0.53679487 0 0 0 -0.5,-0.15625 z"
       id="path3816"
       style="opacity:0.3;fill:#1a1a1a;stroke:none"
       inkscape:connector-curvature="0" />
  </g>
  <g
     id="layer1"
     style="fill:#ffffff"
     transform="matrix(0.81482192,0,0,0.81482192,4.4327003,4.4587826)">
    <path
       d="M 4.6517857,12.366072 12.294644,4.714286 23.397322,15.816964 34.5,4.714286 43.285714,13.5 32.183036,24.602678 43.285714,35.705356 35.651639,43.365925 24.535714,32.25 13.4375,43.348214 4.6517859,34.5625 15.75,23.464286 z"
       id="path3021"
       style="fill:#ffffff;fill-opacity:1;stroke:none"
       inkscape:connector-curvature="0" />
  </g>
</svg>
