<?xml version="1.0" encoding="UTF-8" standalone="no"?>
<!-- Created with Inkscape (http://www.inkscape.org/) -->

<svg
   xmlns:dc="http://purl.org/dc/elements/1.1/"
   xmlns:cc="http://creativecommons.org/ns#"
   xmlns:rdf="http://www.w3.org/1999/02/22-rdf-syntax-ns#"
   xmlns:svg="http://www.w3.org/2000/svg"
   xmlns="http://www.w3.org/2000/svg"
   version="1.1"
   width="64"
   height="64"
   id="svg5038">
  <defs
     id="defs5040" />
  <metadata
     id="metadata5043">
    <rdf:RDF>
      <cc:Work
         rdf:about="">
        <dc:format>image/svg+xml</dc:format>
        <dc:type
           rdf:resource="http://purl.org/dc/dcmitype/StillImage" />
        <dc:title></dc:title>
      </cc:Work>
    </rdf:RDF>
  </metadata>
  <g
     id="layer5"
     style="display:inline">
    <path
       d="m 45.9375,7.78125 a 1.5831337,1.5831337 0 0 0 -1.21875,0.6875 L 43,10.875 C 39.907347,9.4625689 36.521373,8.5625 32.90625,8.5625 19.422118,8.5625 8.4375,19.547118 8.4375,33.03125 c 0,13.484132 10.987229,24.4375 24.46875,24.4375 6.268426,0 12.013944,-2.359369 16.34375,-6.25 A 1.5831337,1.5831337 0 0 0 49.40625,49 L 44.9375,43.75 a 1.5831337,1.5831337 0 0 0 -2.25,-0.15625 c -2.915831,2.549411 -5.99897,4.1875 -9.96875,4.1875 -4.490466,0 -7.997563,-1.477092 -10.4375,-4 C 19.841313,41.258342 18.4375,37.635877 18.4375,33.125 c 0,-4.534689 1.317338,-8.238929 3.65625,-10.8125 2.338912,-2.573571 5.710642,-4.09375 10.1875,-4.09375 1.521262,0 3.244324,0.42585 4.84375,1 l -1.5,2.03125 a 1.5831337,1.5831337 0 0 0 1.09375,2.5 l 17.34375,2.21875 a 1.5831337,1.5831337 0 0 0 1.5625,-2.3125 L 47.375,8.625 A 1.5831337,1.5831337 0 0 0 45.9375,7.78125 z"
       id="path3755"
       style="opacity:0.1;fill:#000000;fill-opacity:1;stroke:none" />
    <path
       d="M 45.875,8.3125 A 1.0668106,1.0668106 0 0 0 45.125,8.75 l -1.96875,2.75 c -3.120575,-1.490198 -6.565613,-2.40625 -10.25,-2.40625 -13.204834,0 -23.9375,10.732666 -23.9375,23.9375 0,13.204834 10.734425,23.90625 23.9375,23.90625 6.139203,0 11.761512,-2.316425 16,-6.125 A 1.0668106,1.0668106 0 0 0 49,49.34375 l -4.46875,-5.25 a 1.0668106,1.0668106 0 0 0 -1.5,-0.125 c -2.970923,2.59758 -6.19511,4.34375 -10.3125,4.34375 -4.606834,0 -8.269178,-1.526442 -10.8125,-4.15625 -2.543322,-2.629808 -4,-6.410662 -4,-11.03125 0,-4.636634 1.372926,-8.471918 3.8125,-11.15625 2.439574,-2.684332 5.964836,-4.28125 10.5625,-4.28125 1.804523,0 3.878655,0.526342 5.6875,1.28125 L 36.0625,21.5625 A 1.0668106,1.0668106 0 0 0 36.78125,23.25 L 54.125,25.46875 a 1.0668106,1.0668106 0 0 0 1.0625,-1.5625 L 46.9375,8.875 A 1.0668106,1.0668106 0 0 0 45.875,8.3125 z"
       id="path3757"
       style="opacity:0.15;fill:#000000;fill-opacity:1;stroke:none" />
    <path
       d="m 45.875,8.78125 a 0.60081577,0.60081577 0 0 0 -0.375,0.25 l -2.15625,3 C 40.193424,10.459123 36.664229,9.5625 32.90625,9.5625 19.953489,9.5625 9.4375,20.078489 9.4375,33.03125 c 0,12.952761 10.51698,23.4375 23.46875,23.4375 6.022577,0 11.531429,-2.265482 15.6875,-6 a 0.60081577,0.60081577 0 0 0 0.0625,-0.8125 l -4.46875,-5.25 a 0.60081577,0.60081577 0 0 0 -0.875,-0.0625 c -3.020645,2.641054 -6.343138,4.4375 -10.59375,4.4375 -4.711859,0 -8.51962,-1.586211 -11.15625,-4.3125 -2.63663,-2.726289 -4.125,-6.624145 -4.125,-11.34375 0,-4.728641 1.407077,-8.684453 3.9375,-11.46875 2.530423,-2.784297 6.199556,-4.4375 10.90625,-4.4375 2.060334,0 4.460146,0.59825 6.4375,1.53125 l -2.28125,3.09375 a 0.60081577,0.60081577 0 0 0 0.40625,0.9375 L 54.1875,25 a 0.60081577,0.60081577 0 0 0 0.59375,-0.875 l -8.25,-15.03125 A 0.60081577,0.60081577 0 0 0 45.875,8.78125 z"
       id="path3759"
       style="opacity:0.3;fill:#000000;fill-opacity:1;stroke:none" />
  </g>
  <g
     id="layer1"
     style="display:inline">
    <path
       d="M 46.033824,9.2071727 43.620215,12.610979 C 40.435117,10.927196 36.798529,9.9807651 32.94464,9.9807651 c -12.627758,0 -22.867391,10.2396339 -22.867391,22.8673919 0,12.627758 10.239633,22.867391 22.867391,22.867391 5.872209,0 11.236376,-2.209323 15.286186,-5.848358 l -4.455892,-5.260429 c -3.084753,2.697106 -6.593578,4.610611 -11.015956,4.610611 -9.694538,0 -15.874116,-6.581846 -15.874116,-16.276384 0,-9.694539 5.746366,-16.49299 15.440904,-16.49299 2.387108,0 5.201656,0.665732 7.37519,1.846031 l -2.764579,3.723834 17.359414,2.227946 z"
       id="path5046"
       style="fill:#ffffff;fill-opacity:1;stroke:none" />
  </g>
</svg>
