<?xml version="1.0" encoding="UTF-8" standalone="no"?>
<!-- Created with Inkscape (http://www.inkscape.org/) -->

<svg
   xmlns:dc="http://purl.org/dc/elements/1.1/"
   xmlns:cc="http://creativecommons.org/ns#"
   xmlns:rdf="http://www.w3.org/1999/02/22-rdf-syntax-ns#"
   xmlns:svg="http://www.w3.org/2000/svg"
   xmlns="http://www.w3.org/2000/svg"
   xmlns:sodipodi="http://sodipodi.sourceforge.net/DTD/sodipodi-0.dtd"
   xmlns:inkscape="http://www.inkscape.org/namespaces/inkscape"
   width="64px"
   height="64px"
   id="svg2993"
   version="1.1"
   inkscape:version="0.48.4 r9939"
   sodipodi:docname="settings.svg">
  <defs
     id="defs2995">
    <linearGradient
       id="linearGradient3855">
      <stop
         style="stop-color:#c8c8c8;stop-opacity:1;"
         offset="0"
         id="stop3857" />
      <stop
         style="stop-color:#f4ffff;stop-opacity:1;"
         offset="1"
         id="stop3859" />
    </linearGradient>
    <filter
       inkscape:collect="always"
       id="filter3791">
      <feGaussianBlur
         inkscape:collect="always"
         stdDeviation="1.4467061"
         id="feGaussianBlur3793" />
    </filter>
  </defs>
  <sodipodi:namedview
     id="base"
     pagecolor="#ffffff"
     bordercolor="#666666"
     borderopacity="1.0"
     inkscape:pageopacity="0.0"
     inkscape:pageshadow="2"
     inkscape:zoom="8.0474805"
     inkscape:cx="4.4664859"
     inkscape:cy="32.532926"
     inkscape:current-layer="g3755"
     showgrid="true"
     inkscape:document-units="px"
     inkscape:grid-bbox="true"
     inkscape:window-width="1237"
     inkscape:window-height="978"
     inkscape:window-x="43"
     inkscape:window-y="22"
     inkscape:window-maximized="1" />
  <metadata
     id="metadata2998">
    <rdf:RDF>
      <cc:Work
         rdf:about="">
        <dc:format>image/svg+xml</dc:format>
        <dc:type
           rdf:resource="http://purl.org/dc/dcmitype/StillImage" />
        <dc:title />
      </cc:Work>
    </rdf:RDF>
  </metadata>
  <g
     inkscape:groupmode="layer"
     inkscape:label="bg"
     id="g3755"
     style="display:inline">
    <path
       inkscape:connector-curvature="0"
       id="path3757"
       d="m 29.817187,3.6614548 -2.340524,7.3559302 -3.486902,1.098613 -5.731893,-5.3497674 c 0,0 -5.901758,3.5560374 -7.546994,5.3020014 -1.6452349,1.745964 -5.0154069,7.260399 -5.0154069,7.260399 l 5.2064699,5.77966 -1.0508469,3.39137 -7.499227,2.340524 c 0,0 0.575583,7.968474 1.146378,9.983048 0.570796,2.014574 3.248073,7.451462 3.248073,7.451462 l 7.9291199,-1.528505 2.579352,2.48382 -2.14946,7.642525 c 0,0 6.180351,3.331808 8.597841,3.869029 2.417488,0.537219 9.600922,0.66872 9.600922,0.66872 l 2.627118,-7.35593 3.009244,-0.812018 5.493065,5.349767 c 0,0 6.073435,-4.707613 7.785822,-6.352849 1.712387,-1.645235 5.158704,-6.830506 5.158704,-6.830506 l -5.445299,-5.588597 1.050847,-3.248073 7.355931,-1.910631 c 0,0 -0.451674,-6.240906 -0.955316,-9.027733 -0.503644,-2.786826 -3.486902,-8.645606 -3.486902,-8.645606 l -7.881354,1.671802 -2.388289,-2.770415 1.8151,-6.9738043 c 0,0 -5.533411,-3.1341459 -8.454543,-4.1078571 -2.921132,-0.9737112 -9.17103,-1.1463788 -9.17103,-1.1463788 z m 1.337441,16.5269602 c 6.944952,0 12.622537,5.523152 12.753464,12.466869 l 0,0.238829 c 0,7.038604 -5.71486,12.753464 -12.753464,12.753464 -7.038603,0 -12.753463,-5.71486 -12.753463,-12.753464 0,-7.038603 5.71486,-12.705698 12.753463,-12.705698 z"
       style="opacity:0.7;fill:#000000;fill-opacity:1;stroke:#000000;stroke-width:0.15285050999999999;stroke-linecap:butt;stroke-linejoin:miter;stroke-miterlimit:4;stroke-opacity:1;stroke-dasharray:none;filter:url(#filter3791)" />
  </g>
  <g
     id="layer1"
     inkscape:label="Layer 1"
     inkscape:groupmode="layer"
     style="display:inline">
    <path
       style="fill:#ffffff;fill-opacity:1;stroke:none"
       d="m 29.817187,3.6614548 -2.340524,7.3559302 -3.486902,1.098613 -5.731893,-5.3497674 c 0,0 -5.901758,3.5560374 -7.546994,5.3020014 -1.6452349,1.745964 -5.0154069,7.260399 -5.0154069,7.260399 l 5.2064699,5.77966 -1.0508469,3.39137 -7.499227,2.340524 c 0,0 0.575583,7.968474 1.146378,9.983048 0.570796,2.014574 3.248073,7.451462 3.248073,7.451462 l 7.9291199,-1.528505 2.579352,2.48382 -2.14946,7.642525 c 0,0 6.180351,3.331808 8.597841,3.869029 2.417488,0.537219 9.600922,0.66872 9.600922,0.66872 l 2.627118,-7.35593 3.009244,-0.812018 5.493065,5.349767 c 0,0 6.073435,-4.707613 7.785822,-6.352849 1.712387,-1.645235 5.158704,-6.830506 5.158704,-6.830506 l -5.445299,-5.588597 1.050847,-3.248073 7.355931,-1.910631 c 0,0 -0.451674,-6.240906 -0.955316,-9.027733 -0.503644,-2.786826 -3.486902,-8.645606 -3.486902,-8.645606 l -7.881354,1.671802 -2.388289,-2.770415 1.8151,-6.9738043 c 0,0 -5.533411,-3.1341459 -8.454543,-4.1078571 -2.921132,-0.9737112 -9.17103,-1.1463788 -9.17103,-1.1463788 z m 1.337441,16.5269602 c 6.944952,0 12.622537,5.523152 12.753464,12.466869 l 0,0.238829 c 0,7.038604 -5.71486,12.753464 -12.753464,12.753464 -7.038603,0 -12.753463,-5.71486 -12.753463,-12.753464 0,-7.038603 5.71486,-12.705698 12.753463,-12.705698 z"
       id="path3082"
       inkscape:connector-curvature="0" />
  </g>
</svg>
