<?xml version="1.0" encoding="UTF-8" standalone="no"?>
<!-- Created with Inkscape (http://www.inkscape.org/) -->

<svg
   xmlns:dc="http://purl.org/dc/elements/1.1/"
   xmlns:cc="http://creativecommons.org/ns#"
   xmlns:rdf="http://www.w3.org/1999/02/22-rdf-syntax-ns#"
   xmlns:svg="http://www.w3.org/2000/svg"
   xmlns="http://www.w3.org/2000/svg"
   xmlns:sodipodi="http://sodipodi.sourceforge.net/DTD/sodipodi-0.dtd"
   xmlns:inkscape="http://www.inkscape.org/namespaces/inkscape"
   version="1.1"
   width="64"
   height="64"
   id="svg2993"
   inkscape:version="0.48.4 r9939"
   sodipodi:docname="settings.svg">
  <sodipodi:namedview
     pagecolor="#ffffff"
     bordercolor="#666666"
     borderopacity="1"
     objecttolerance="10"
     gridtolerance="10"
     guidetolerance="10"
     inkscape:pageopacity="0"
     inkscape:pageshadow="2"
     inkscape:window-width="686"
     inkscape:window-height="480"
     id="namedview14"
     showgrid="false"
     inkscape:zoom="59"
     inkscape:cx="9.9683457"
     inkscape:cy="38.029559"
     inkscape:window-x="43"
     inkscape:window-y="0"
     inkscape:window-maximized="0"
     inkscape:current-layer="svg2993" />
  <defs
     id="defs2995">
    <linearGradient
       id="linearGradient3855">
      <stop
         id="stop3857"
         style="stop-color:#c8c8c8;stop-opacity:1"
         offset="0" />
      <stop
         id="stop3859"
         style="stop-color:#f4ffff;stop-opacity:1"
         offset="1" />
    </linearGradient>
  </defs>
  <metadata
     id="metadata2998">
    <rdf:RDF>
      <cc:Work
         rdf:about="">
        <dc:format>image/svg+xml</dc:format>
        <dc:type
           rdf:resource="http://purl.org/dc/dcmitype/StillImage" />
        <dc:title />
      </cc:Work>
    </rdf:RDF>
  </metadata>
  <g
     id="g3755"
     style="display:inline">
    <path
       d="m 29.71875,2.40625 a 1.2485726,1.2485726 0 0 0 -1.09375,0.875 l -2.15625,6.75 -2.15625,0.6875 L 19.09375,5.875 a 1.2485726,1.2485726 0 0 0 -1.5,-0.15625 c 0,0 -1.486269,0.8821143 -3.1875,2 -1.701231,1.1178857 -3.549945,2.392289 -4.59375,3.5 -0.9810544,1.041119 -2.2166744,2.847776 -3.28125,4.46875 -1.0645756,1.620974 -1.90625,3 -1.90625,3 a 1.2485726,1.2485726 0 0 0 0.125,1.5 L 9.5,25.40625 8.84375,27.5 l -6.875,2.15625 a 1.2485726,1.2485726 0 0 0 -0.875,1.28125 c 0,0 0.1556182,1.992463 0.375,4.25 0.2193818,2.257537 0.4713935,4.654549 0.84375,5.96875 0.3445021,1.21589 1.157256,3.023789 1.90625,4.65625 0.748994,1.632461 1.40625,3.03125 1.40625,3.03125 A 1.2485726,1.2485726 0 0 0 7,49.5 l 7.28125,-1.40625 1.5625,1.53125 -1.9375,6.90625 A 1.2485726,1.2485726 0 0 0 14.5,57.96875 c 0,0 1.588633,0.835734 3.46875,1.75 1.880117,0.914266 3.94641,1.911702 5.46875,2.25 1.445053,0.321123 3.8202,0.464617 5.9375,0.5625 2.1173,0.09788 3.90625,0.125 3.90625,0.125 A 1.2485726,1.2485726 0 0 0 34.5,61.8125 l 2.40625,-6.71875 1.65625,-0.4375 5,4.84375 a 1.2485726,1.2485726 0 0 0 1.625,0.09375 c 0,0 5.987489,-4.593982 7.90625,-6.4375 1.028395,-0.988066 2.28569,-2.693449 3.375,-4.21875 1.08931,-1.525301 1.9375,-2.84375 1.9375,-2.84375 a 1.2485726,1.2485726 0 0 0 -0.125,-1.5625 l -4.9375,-5.0625 0.59375,-1.84375 6.71875,-1.75 a 1.2485726,1.2485726 0 0 0 0.9375,-1.3125 c 0,0 -0.462237,-6.180621 -1,-9.15625 -0.300941,-1.665206 -1.181396,-3.816046 -2,-5.65625 -0.818604,-1.840204 -1.5625,-3.3125 -1.5625,-3.3125 a 1.2485726,1.2485726 0 0 0 -1.375,-0.65625 L 48.5,17.28125 47,15.5625 48.65625,9.21875 A 1.2485726,1.2485726 0 0 0 48.0625,7.8125 c 0,0 -5.423426,-3.1098916 -8.65625,-4.1875 -1.692435,-0.5641452 -4.029887,-0.8293266 -6,-1 -1.970113,-0.1706734 -3.5625,-0.21875 -3.5625,-0.21875 a 1.2485726,1.2485726 0 0 0 -0.125,0 z m 1.4375,19.03125 c 6.272194,0 11.365041,4.957357 11.5,11.21875 2.29e-4,0.01061 -2e-4,0.02063 0,0.03125 l 0,0.21875 c 0,6.363245 -5.136755,11.5 -11.5,11.5 -6.363244,0 -11.5,-5.136755 -11.5,-11.5 0,-6.363244 5.133061,-11.46875 11.5,-11.46875 z"
       id="path3762"
       style="opacity:0.05;fill:#000000;fill-opacity:1;stroke:#000000;stroke-width:0.15285050999999999;stroke-linecap:butt;stroke-linejoin:miter;stroke-miterlimit:4;stroke-opacity:1;stroke-dasharray:none" />
    <path
       d="m 29.75,2.84375 a 0.80325481,0.80325481 0 0 0 -0.6875,0.5625 L 26.84375,10.375 24.1875,11.21875 18.78125,6.1875 a 0.80325481,0.80325481 0 0 0 -0.9375,-0.09375 c 0,0 -1.494855,0.8877562 -3.1875,2 C 12.963605,9.2059938 11.089916,10.476008 10.125,11.5 9.2004539,12.481151 7.9663967,14.292019 6.90625,15.90625 5.8461033,17.520481 5,18.9375 5,18.9375 A 0.80325481,0.80325481 0 0 0 5.09375,19.875 L 10,25.28125 9.1875,27.84375 2.09375,30.0625 a 0.80325481,0.80325481 0 0 0 -0.5625,0.84375 c 0,0 0.1562134,1.998587 0.375,4.25 0.2187866,2.251413 0.4711585,4.670263 0.8125,5.875 0.3234219,1.141489 1.1288035,2.967386 1.875,4.59375 0.7461965,1.626364 1.4375,3 1.4375,3 a 0.80325481,0.80325481 0 0 0 0.875,0.4375 l 7.5,-1.4375 1.9375,1.84375 -2.03125,7.1875 a 0.80325481,0.80325481 0 0 0 0.40625,0.9375 c 0,0 1.566675,0.840252 3.4375,1.75 1.870825,0.909748 3.964507,1.874057 5.375,2.1875 1.360771,0.302393 3.733957,0.464964 5.84375,0.5625 2.109793,0.09754 3.9375,0.125 3.9375,0.125 a 0.80325481,0.80325481 0 0 0 0.75,-0.53125 l 2.46875,-6.9375 2.1875,-0.59375 5.15625,5 a 0.80325481,0.80325481 0 0 0 1.0625,0.0625 c 0,0 5.998594,-4.602202 7.84375,-6.375 0.966977,-0.929057 2.228289,-2.638089 3.3125,-4.15625 1.084211,-1.518161 1.9375,-2.84375 1.9375,-2.84375 a 0.80325481,0.80325481 0 0 0 -0.09375,-1 l -5.09375,-5.25 0.75,-2.375 6.9375,-1.78125 a 0.80325481,0.80325481 0 0 0 0.625,-0.84375 c 0,0 -0.474407,-6.216709 -1,-9.125 C 59.872828,23.900482 59.000978,21.766181 58.1875,19.9375 57.374022,18.108819 56.625,16.625 56.625,16.625 A 0.80325481,0.80325481 0 0 0 55.75,16.21875 L 48.3125,17.78125 46.5,15.6875 48.21875,9.09375 a 0.80325481,0.80325481 0 0 0 -0.375,-0.875 c 0,0 -5.472095,-3.1156977 -8.59375,-4.15625 -1.609736,-0.536579 -3.918576,-0.8305124 -5.875,-1 C 31.418576,2.8930124 29.84375,2.84375 29.84375,2.84375 a 0.80325481,0.80325481 0 0 0 -0.09375,0 z M 31.15625,21 c 6.518977,0 11.814667,5.141818 11.9375,11.65625 l 0,0.25 c 0,6.604119 -5.333381,11.9375 -11.9375,11.9375 -6.604118,0 -11.9375,-5.333381 -11.9375,-11.9375 C 19.21875,26.302132 24.549754,21 31.15625,21 z"
       id="path3764"
       style="opacity:0.1;fill:#000000;fill-opacity:1;stroke:#000000;stroke-width:0.15285050999999999;stroke-linecap:butt;stroke-linejoin:miter;stroke-miterlimit:4;stroke-opacity:1;stroke-dasharray:none" />
    <path
       d="m 29.6875,3.25 a 0.41728249,0.41728249 0 0 0 -0.28125,0.28125 l -2.28125,7.15625 -3.03125,0.96875 -5.5625,-5.1875 a 0.41728249,0.41728249 0 0 0 -0.5,-0.03125 c 0,0 -1.471046,0.8613963 -3.15625,1.96875 -1.685204,1.1073537 -3.572209,2.42357 -4.46875,3.375 C 9.5306817,12.710425 8.3063081,14.516614 7.25,16.125 c -1.0563081,1.608386 -1.90625,3 -1.90625,3 a 0.41728249,0.41728249 0 0 0 0.03125,0.5 L 10.4375,25.1875 9.5,28.15625 2.21875,30.4375 A 0.41728249,0.41728249 0 0 0 1.9375,30.875 c 0,0 0.1254792,2.003895 0.34375,4.25 0.2182708,2.246105 0.4980402,4.70264 0.8125,5.8125 0.305151,1.077004 1.1312281,2.910171 1.875,4.53125 0.7437719,1.621079 1.40625,3 1.40625,3 a 0.41728249,0.41728249 0 0 0 0.46875,0.21875 l 7.71875,-1.5 2.21875,2.15625 L 14.6875,56.75 a 0.41728249,0.41728249 0 0 0 0.21875,0.5 c 0,0 1.543479,0.844169 3.40625,1.75 1.862771,0.905831 3.998949,1.864349 5.3125,2.15625 1.28772,0.28616 3.677964,0.434015 5.78125,0.53125 2.103286,0.09723 3.90625,0.125 3.90625,0.125 a 0.41728249,0.41728249 0 0 0 0.40625,-0.28125 l 2.5625,-7.125 2.53125,-0.6875 5.34375,5.1875 a 0.41728249,0.41728249 0 0 0 0.53125,0.03125 c 0,0 6.031141,-4.663497 7.8125,-6.375 0.913744,-0.877912 2.201458,-2.581777 3.28125,-4.09375 1.079792,-1.511973 1.9375,-2.84375 1.9375,-2.84375 a 0.41728249,0.41728249 0 0 0 -0.03125,-0.5 l -5.28125,-5.40625 0.90625,-2.8125 7.125,-1.84375 A 0.41728249,0.41728249 0 0 0 60.75,34.625 c 0,0 -0.453705,-6.212574 -0.96875,-9.0625 -0.268238,-1.484248 -1.128465,-3.650056 -1.9375,-5.46875 -0.809035,-1.818694 -1.5625,-3.28125 -1.5625,-3.28125 A 0.41728249,0.41728249 0 0 0 55.8125,16.59375 L 48.1875,18.1875 46.09375,15.75 47.84375,9 a 0.41728249,0.41728249 0 0 0 -0.1875,-0.46875 c 0,0 -5.505948,-3.1165656 -8.53125,-4.125 C 37.586942,3.8935636 35.28831,3.6372098 33.34375,3.46875 31.39919,3.3002902 29.8125,3.25 29.8125,3.25 a 0.41728249,0.41728249 0 0 0 -0.125,0 z m 1.46875,17.34375 c 6.723662,0 12.217028,5.341792 12.34375,12.0625 l 0,0.25 C 43.5,39.719144 37.969144,45.25 31.15625,45.25 24.343357,45.25 18.8125,39.719144 18.8125,32.90625 c 0,-6.812893 5.529622,-12.3125 12.34375,-12.3125 z"
       id="path3770"
       style="opacity:0.2;fill:#000000;fill-opacity:1;stroke:#000000;stroke-width:0.15285050999999999;stroke-linecap:butt;stroke-linejoin:miter;stroke-miterlimit:4;stroke-opacity:1;stroke-dasharray:none" />
  </g>
  <g
     id="layer1"
     style="display:inline">
    <path
       d="m 29.817187,3.6614548 -2.340524,7.3559302 -3.486902,1.098613 -5.731893,-5.3497674 c 0,0 -5.901758,3.5560374 -7.546994,5.3020014 -1.6452349,1.745964 -5.0154069,7.260399 -5.0154069,7.260399 l 5.2064699,5.77966 -1.0508469,3.39137 -7.499227,2.340524 c 0,0 0.575583,7.968474 1.146378,9.983048 0.570796,2.014574 3.248073,7.451462 3.248073,7.451462 l 7.9291199,-1.528505 2.579352,2.48382 -2.14946,7.642525 c 0,0 6.180351,3.331808 8.597841,3.869029 2.417488,0.537219 9.600922,0.66872 9.600922,0.66872 l 2.627118,-7.35593 3.009244,-0.812018 5.493065,5.349767 c 0,0 6.073435,-4.707613 7.785822,-6.352849 1.712387,-1.645235 5.158704,-6.830506 5.158704,-6.830506 l -5.445299,-5.588597 1.050847,-3.248073 7.355931,-1.910631 c 0,0 -0.451674,-6.240906 -0.955316,-9.027733 -0.503644,-2.786826 -3.486902,-8.645606 -3.486902,-8.645606 l -7.881354,1.671802 -2.388289,-2.770415 1.8151,-6.9738043 c 0,0 -5.533411,-3.1341459 -8.454543,-4.1078571 -2.921132,-0.9737112 -9.17103,-1.1463788 -9.17103,-1.1463788 z m 1.337441,16.5269602 c 6.944952,0 12.622537,5.523152 12.753464,12.466869 l 0,0.238829 c 0,7.038604 -5.71486,12.753464 -12.753464,12.753464 -7.038603,0 -12.753463,-5.71486 -12.753463,-12.753464 0,-7.038603 5.71486,-12.705698 12.753463,-12.705698 z"
       id="path3082"
       style="fill:#ffffff;fill-opacity:1;stroke:none" />
  </g>
</svg>
