<?xml version="1.0" encoding="UTF-8" standalone="no"?>
<!-- Created with Inkscape (http://www.inkscape.org/) -->

<svg
   xmlns:dc="http://purl.org/dc/elements/1.1/"
   xmlns:cc="http://creativecommons.org/ns#"
   xmlns:rdf="http://www.w3.org/1999/02/22-rdf-syntax-ns#"
   xmlns:svg="http://www.w3.org/2000/svg"
   xmlns="http://www.w3.org/2000/svg"
   xmlns:sodipodi="http://sodipodi.sourceforge.net/DTD/sodipodi-0.dtd"
   xmlns:inkscape="http://www.inkscape.org/namespaces/inkscape"
   version="1.1"
   width="64"
   height="64"
   id="svg4445"
   inkscape:version="0.48.4 r9939"
   sodipodi:docname="shutdown.svg">
  <sodipodi:namedview
     pagecolor="#ffffff"
     bordercolor="#666666"
     borderopacity="1"
     objecttolerance="10"
     gridtolerance="10"
     guidetolerance="10"
     inkscape:pageopacity="0"
     inkscape:pageshadow="2"
     inkscape:window-width="1235"
     inkscape:window-height="986"
     id="namedview11"
     showgrid="false"
     inkscape:zoom="64"
     inkscape:cx="26.903398"
     inkscape:cy="59.045212"
     inkscape:window-x="43"
     inkscape:window-y="0"
     inkscape:window-maximized="1"
     inkscape:current-layer="svg4445" />
  <defs
     id="defs4447" />
  <metadata
     id="metadata4450">
    <rdf:RDF>
      <cc:Work
         rdf:about="">
        <dc:format>image/svg+xml</dc:format>
        <dc:type
           rdf:resource="http://purl.org/dc/dcmitype/StillImage" />
        <dc:title />
      </cc:Work>
    </rdf:RDF>
  </metadata>
  <g
     id="layer4"
     style="display:inline">
    <path
       sodipodi:type="inkscape:offset"
       inkscape:radius="0.26005182"
       inkscape:original="M 35.25 4.15625 L 35.25 4.1875 L 35.28125 4.1875 C 35.281302 4.1875083 35.281176 4.1562242 35.28125 4.15625 C 35.281314 4.1562867 35.24985 4.1562047 35.25 4.15625 z M 28.875 4.1875 C 28.872663 4.188517 28.877324 4.2177034 28.875 4.21875 C 28.872703 4.2198552 28.846033 4.2176158 28.84375 4.21875 C 28.841528 4.2199986 28.814706 4.2174733 28.8125 4.21875 C 28.81031 4.2200546 28.814673 4.2486678 28.8125 4.25 C 28.810379 4.251414 28.783353 4.2485592 28.78125 4.25 C 28.779223 4.2515456 28.783257 4.2796788 28.78125 4.28125 C 28.779243 4.2828212 28.751987 4.2796535 28.75 4.28125 C 28.749059 4.2821096 28.719481 4.2805734 28.71875 4.28125 C 28.718019 4.2819266 28.71968 4.3116285 28.71875 4.3125 C 28.717075 4.3141784 28.689618 4.3104115 28.6875 4.3125 C 28.696433 4.318859 28.6875 4.34375 28.6875 4.34375 C 28.68415 4.3471069 28.66079 4.3705492 28.65625 4.375 C 28.65625 4.375 28.633933 4.381359 28.625 4.375 C 28.620486 4.3794839 28.628119 4.4031685 28.625 4.40625 C 28.625 4.40625 28.601228 4.4142705 28.59375 4.40625 C 28.601228 4.4142705 28.59375 4.4375 28.59375 4.4375 C 28.589301 4.4420414 28.565861 4.4653954 28.5625 4.46875 C 28.560275 4.4710207 28.533338 4.466631 28.53125 4.46875 C 28.529162 4.470869 28.532931 4.4983227 28.53125 4.5 C 28.529104 4.5022219 28.502041 4.4979013 28.5 4.5 C 28.500351 4.5053754 28.500696 4.5243278 28.5 4.53125 C 28.498908 4.5339315 28.500319 4.5620055 28.5 4.5625 C 28.496786 4.5640468 28.471441 4.5617214 28.46875 4.5625 C 28.466059 4.5632786 28.471034 4.5933743 28.46875 4.59375 C 28.466617 4.5959784 28.439541 4.5916343 28.4375 4.59375 C 28.437483 4.5937204 28.437515 4.6250477 28.4375 4.625 C 28.430643 4.6335448 28.40625 4.625 28.40625 4.625 L 28.40625 4.65625 C 28.406168 4.6610272 28.406515 4.6829862 28.40625 4.6875 L 28.375 4.71875 L 28.375 4.75 L 28.375 4.78125 C 28.373801 4.7846363 28.376139 4.8090928 28.375 4.8125 C 28.373984 4.8159457 28.375954 4.8402867 28.375 4.84375 C 28.374233 4.8472595 28.375705 4.8714773 28.375 4.875 C 28.374422 4.8785456 28.375515 4.9026946 28.375 4.90625 C 28.374549 4.909814 28.344137 4.9026785 28.34375 4.90625 C 28.343427 4.9098279 28.344009 4.9339169 28.34375 4.9375 L 28.34375 22.90625 L 28.34375 22.9375 C 28.343761 22.942001 28.343758 22.965518 28.34375 22.96875 A 0.043866643 0.043866643 0 0 1 28.34375 23 C 28.344207 23.002865 28.343251 23.028392 28.34375 23.03125 C 28.344249 23.034108 28.37446 23.028399 28.375 23.03125 C 28.375663 23.034075 28.374296 23.059685 28.375 23.0625 C 28.375825 23.065282 28.374135 23.090981 28.375 23.09375 C 28.375984 23.096479 28.373977 23.122285 28.375 23.125 C 28.375196 23.129563 28.374957 23.15183 28.375 23.15625 L 28.375 23.1875 C 28.374971 23.187593 28.40627 23.187338 28.40625 23.1875 C 28.406495 23.192007 28.406168 23.214141 28.40625 23.21875 C 28.406265 23.218703 28.406233 23.250029 28.40625 23.25 C 28.406233 23.250049 28.40627 23.281219 28.40625 23.28125 C 28.40625 23.28125 28.43099 23.272426 28.4375 23.28125 C 28.437518 23.281201 28.437479 23.312531 28.4375 23.3125 C 28.439542 23.314618 28.466616 23.31027 28.46875 23.3125 C 28.470466 23.314226 28.466709 23.34165 28.46875 23.34375 C 28.470791 23.34585 28.497855 23.341527 28.5 23.34375 C 28.501671 23.345418 28.497914 23.372885 28.5 23.375 C 28.502086 23.377115 28.529025 23.372732 28.53125 23.375 C 28.534591 23.378336 28.55805 23.401713 28.5625 23.40625 C 28.5625 23.40625 28.568831 23.428547 28.5625 23.4375 C 28.570275 23.429766 28.593564 23.437317 28.59375 23.4375 C 28.596868 23.440581 28.589234 23.464264 28.59375 23.46875 C 28.598266 23.473236 28.621779 23.465505 28.625 23.46875 C 28.629541 23.473199 28.652896 23.49664 28.65625 23.5 L 28.65625 23.53125 C 28.661626 23.530899 28.680578 23.530554 28.6875 23.53125 C 28.690183 23.532343 28.718256 23.530931 28.71875 23.53125 C 28.720294 23.534466 28.717975 23.559809 28.71875 23.5625 C 28.719525 23.565191 28.749627 23.560217 28.75 23.5625 C 28.749969 23.562451 28.750013 23.593783 28.75 23.59375 C 28.75 23.59375 28.772618 23.586987 28.78125 23.59375 C 28.78125 23.59375 28.807515 23.583989 28.8125 23.59375 L 28.8125 23.625 L 28.84375 23.59375 C 28.844062 23.594342 28.842866 23.62216 28.84375 23.625 C 28.84375 23.625 28.867773 23.616754 28.875 23.625 C 28.876659 23.634532 28.875658 23.649859 28.875 23.65625 C 28.875 23.65625 28.901494 23.646369 28.90625 23.65625 C 28.90625 23.65625 28.930273 23.648004 28.9375 23.65625 C 28.940886 23.657449 28.965343 23.655111 28.96875 23.65625 C 28.972196 23.657266 28.996537 23.655296 29 23.65625 C 29.00351 23.657017 29.027727 23.655545 29.03125 23.65625 C 29.034796 23.656828 29.058945 23.655735 29.0625 23.65625 C 29.066064 23.656701 29.058928 23.687113 29.0625 23.6875 C 29.066078 23.687823 29.090167 23.687241 29.09375 23.6875 L 35.0625 23.6875 L 35.09375 23.6875 C 35.096978 23.687492 35.120499 23.687489 35.125 23.6875 A 0.043866643 0.043866643 0 0 1 35.15625 23.6875 C 35.159115 23.687043 35.184642 23.687999 35.1875 23.6875 C 35.190358 23.687001 35.184649 23.65679 35.1875 23.65625 C 35.190325 23.655587 35.215935 23.656954 35.21875 23.65625 C 35.221532 23.655425 35.247231 23.657115 35.25 23.65625 C 35.252729 23.655266 35.278535 23.657273 35.28125 23.65625 C 35.288463 23.64799 35.3125 23.65625 35.3125 23.65625 C 35.316957 23.646231 35.34375 23.65625 35.34375 23.65625 C 35.343843 23.656279 35.343588 23.62498 35.34375 23.625 C 35.348398 23.61507 35.375 23.625 35.375 23.625 C 35.383615 23.618216 35.40625 23.625 35.40625 23.625 C 35.414958 23.61832 35.4375 23.625 35.4375 23.625 C 35.437513 23.624969 35.437468 23.593798 35.4375 23.59375 C 35.446324 23.58724 35.46875 23.59375 35.46875 23.59375 C 35.470868 23.591708 35.46652 23.564634 35.46875 23.5625 C 35.470476 23.560784 35.4979 23.564541 35.5 23.5625 C 35.5021 23.560459 35.497777 23.533395 35.5 23.53125 C 35.503336 23.527909 35.526713 23.50445 35.53125 23.5 C 35.53125 23.5 35.553542 23.493675 35.5625 23.5 C 35.567016 23.495516 35.559379 23.471832 35.5625 23.46875 C 35.562317 23.468936 35.586016 23.460975 35.59375 23.46875 C 35.598236 23.464234 35.590505 23.440721 35.59375 23.4375 C 35.598199 23.432959 35.62164 23.409604 35.625 23.40625 C 35.625137 23.40612 35.64879 23.398214 35.65625 23.40625 C 35.658338 23.404131 35.65457 23.376677 35.65625 23.375 C 35.658398 23.372778 35.685458 23.377098 35.6875 23.375 C 35.689542 23.372902 35.685785 23.345472 35.6875 23.34375 C 35.688593 23.341067 35.687181 23.312994 35.6875 23.3125 L 35.71875 23.34375 L 35.71875 23.3125 C 35.720792 23.310402 35.717035 23.282972 35.71875 23.28125 C 35.720882 23.279022 35.747961 23.283366 35.75 23.28125 C 35.752039 23.279134 35.748254 23.251765 35.75 23.25 C 35.750082 23.245394 35.749755 23.223256 35.75 23.21875 C 35.759954 23.21415 35.78125 23.21875 35.78125 23.21875 C 35.781232 23.21872 35.781266 23.187548 35.78125 23.1875 C 35.783295 23.1853 35.779324 23.158223 35.78125 23.15625 C 35.791204 23.15165 35.8125 23.15625 35.8125 23.15625 L 35.8125 23.125 C 35.814545 23.1228 35.810574 23.095723 35.8125 23.09375 C 35.813699 23.090364 35.811361 23.065907 35.8125 23.0625 C 35.813516 23.059054 35.811546 23.034713 35.8125 23.03125 C 35.813267 23.02774 35.811795 23.003523 35.8125 23 C 35.813078 22.996454 35.811985 22.972305 35.8125 22.96875 C 35.812951 22.965186 35.843363 22.972322 35.84375 22.96875 C 35.844073 22.965172 35.843491 22.941083 35.84375 22.9375 L 35.84375 4.96875 L 35.84375 4.9375 C 35.843739 4.9330016 35.843742 4.9094791 35.84375 4.90625 C 35.843718 4.9017519 35.843747 4.8783585 35.84375 4.875 C 35.843293 4.8721349 35.844249 4.8466082 35.84375 4.84375 C 35.843251 4.8408918 35.81304 4.8466007 35.8125 4.84375 C 35.811837 4.8409253 35.813204 4.8153148 35.8125 4.8125 C 35.811675 4.8097183 35.813365 4.7840195 35.8125 4.78125 C 35.811516 4.7785206 35.813523 4.7527149 35.8125 4.75 C 35.810586 4.7480362 35.81454 4.7209444 35.8125 4.71875 L 35.8125 4.6875 C 35.8125 4.6875 35.791203 4.6920994 35.78125 4.6875 C 35.781005 4.6829954 35.781332 4.6608571 35.78125 4.65625 C 35.779422 4.6543947 35.783295 4.6271523 35.78125 4.625 L 35.78125 4.59375 C 35.78125 4.59375 35.756569 4.60253 35.75 4.59375 C 35.748251 4.5919843 35.75204 4.5646158 35.75 4.5625 C 35.74796 4.5603842 35.720883 4.564728 35.71875 4.5625 C 35.717041 4.5607796 35.720788 4.5333472 35.71875 4.53125 C 35.716712 4.5291528 35.689644 4.5334704 35.6875 4.53125 C 35.684152 4.527908 35.660701 4.5045396 35.65625 4.5 C 35.653 4.4967747 35.660734 4.4732657 35.65625 4.46875 C 35.64846 4.476469 35.625177 4.468924 35.625 4.46875 C 35.621892 4.4656781 35.629514 4.4419818 35.625 4.4375 C 35.616091 4.4438945 35.59375 4.4375 35.59375 4.4375 C 35.589208 4.4330481 35.565854 4.4096119 35.5625 4.40625 C 35.560229 4.4040241 35.564619 4.3770894 35.5625 4.375 C 35.560381 4.3729106 35.532927 4.3766809 35.53125 4.375 C 35.529029 4.3728545 35.533347 4.3457896 35.53125 4.34375 C 35.529153 4.3417104 35.501721 4.3454618 35.5 4.34375 L 35.5 4.3125 L 35.46875 4.28125 C 35.46875 4.28125 35.446315 4.2877719 35.4375 4.28125 C 35.43535 4.2792082 35.408099 4.2830692 35.40625 4.28125 C 35.401131 4.2815378 35.381426 4.2818019 35.375 4.28125 C 35.37097 4.2803506 35.34479 4.2817975 35.34375 4.28125 A 0.043866643 0.043866643 0 0 1 35.34375 4.25 C 35.34375 4.25 35.317324 4.2598418 35.3125 4.25 L 35.3125 4.21875 C 35.3125 4.21875 35.28584 4.2287088 35.28125 4.21875 C 35.279051 4.2167085 35.251972 4.2206721 35.25 4.21875 C 35.246614 4.2175505 35.222157 4.2198888 35.21875 4.21875 C 35.215304 4.2177338 35.190963 4.2197045 35.1875 4.21875 C 35.18399 4.2179826 35.159773 4.2194545 35.15625 4.21875 C 35.152704 4.2181719 35.128555 4.2192647 35.125 4.21875 C 35.121436 4.218299 35.128572 4.1878872 35.125 4.1875 C 35.121422 4.1871767 35.097333 4.1877593 35.09375 4.1875 L 29.125 4.1875 C 29.121644 4.1875029 29.098251 4.187532 29.09375 4.1875 C 29.090394 4.1875029 29.067001 4.187532 29.0625 4.1875 C 29.057999 4.1875107 29.034482 4.1875084 29.03125 4.1875 C 29.02675 4.187532 29.003361 4.1875029 29 4.1875 C 28.997192 4.1873821 28.971559 4.1875786 28.96875 4.1875 C 28.965941 4.1875786 28.940308 4.1873821 28.9375 4.1875 C 28.934692 4.1873821 28.909059 4.1875786 28.90625 4.1875 L 28.875 4.1875 z M 35.5 4.3125 L 35.53125 4.3125 L 35.5 4.28125 L 35.53125 4.28125 L 35.5 4.3125 z M 35.8125 23.15625 L 35.84375 23.1875 C 35.84372 23.187573 35.843762 23.156198 35.84375 23.15625 L 35.8125 23.15625 z M 35.78125 23.21875 L 35.8125 23.25 C 35.81247 23.250073 35.812512 23.218698 35.8125 23.21875 L 35.78125 23.21875 z M 35.71875 23.34375 L 35.75 23.375 L 35.75 23.34375 L 35.71875 23.34375 z M 28.875 23.65625 C 28.875 23.65625 28.850977 23.664496 28.84375 23.65625 L 28.84375 23.6875 C 28.843677 23.68747 28.875052 23.687512 28.875 23.6875 L 28.875 23.65625 z M 28.71875 23.5625 L 28.6875 23.5625 L 28.6875 23.59375 L 28.71875 23.5625 z M 28.375 4.71875 L 28.375 4.6875 C 28.375 4.6875 28.350383 4.696242 28.34375 4.6875 A 0.043866643 0.043866643 0 0 0 28.34375 4.71875 C 28.353611 4.7139534 28.375 4.71875 28.375 4.71875 z M 35.84375 4.71875 L 35.84375 4.75 L 35.875 4.75 C 35.875044 4.75015 35.874965 4.7186862 35.875 4.71875 L 35.84375 4.71875 z M 28.3125 4.75 C 28.312535 4.7499363 28.312456 4.7813999 28.3125 4.78125 L 28.34375 4.78125 L 28.34375 4.75 C 28.34375 4.75 28.319133 4.758742 28.3125 4.75 z M 27.0625 12.625 L 27.0625 12.65625 C 27.0625 12.65625 27.086523 12.648004 27.09375 12.65625 L 27.09375 12.625 C 27.093814 12.625035 27.06235 12.624956 27.0625 12.625 z M 26.78125 12.65625 C 15.53842 14.52079 8.15625 23.183498 8.15625 34.9375 C 8.15625 48.080439 18.857061 58.78125 32 58.78125 C 45.142939 58.78125 55.84375 48.080439 55.84375 34.9375 C 55.84375 23.331923 48.905927 14.883061 37.875 12.875 A 0.043866643 0.043866643 0 0 1 37.84375 12.875 C 37.840962 12.873551 37.81531 12.876405 37.8125 12.875 C 37.809647 12.873683 37.815373 12.845022 37.8125 12.84375 C 37.809627 12.842478 37.784143 12.844977 37.78125 12.84375 C 37.779165 12.842977 37.752093 12.8445 37.75 12.84375 C 37.747869 12.843117 37.720888 12.844359 37.71875 12.84375 C 37.716605 12.843165 37.720901 12.813062 37.71875 12.8125 C 37.715941 12.812461 37.690309 12.8125 37.6875 12.8125 A 0.043866643 0.043866643 0 0 1 37.65625 12.8125 C 37.654165 12.811727 37.627093 12.81325 37.625 12.8125 C 37.622869 12.811867 37.595888 12.813109 37.59375 12.8125 C 37.591605 12.811915 37.595901 12.781812 37.59375 12.78125 C 37.590393 12.781253 37.567001 12.781282 37.5625 12.78125 C 37.557999 12.781261 37.534482 12.781258 37.53125 12.78125 A 0.043866643 0.043866643 0 0 1 37.5 12.78125 C 37.497135 12.781707 37.471608 12.780751 37.46875 12.78125 C 37.465892 12.781749 37.471601 12.81196 37.46875 12.8125 C 37.465925 12.813163 37.440315 12.811796 37.4375 12.8125 C 37.434718 12.813325 37.409019 12.811635 37.40625 12.8125 C 37.403521 12.813484 37.377715 12.811477 37.375 12.8125 C 37.37304 12.814409 37.345942 12.810462 37.34375 12.8125 C 37.339293 12.822519 37.3125 12.8125 37.3125 12.8125 C 37.312407 12.812471 37.312662 12.84377 37.3125 12.84375 C 37.307852 12.85368 37.28125 12.84375 37.28125 12.84375 C 37.279392 12.845581 37.252154 12.841704 37.25 12.84375 C 37.241292 12.85043 37.21875 12.84375 37.21875 12.84375 C 37.218737 12.843781 37.218782 12.874952 37.21875 12.875 C 37.21698 12.876754 37.189618 12.872958 37.1875 12.875 L 37.1875 12.90625 C 37.185774 12.907966 37.15835 12.904209 37.15625 12.90625 L 37.15625 12.9375 C 37.154582 12.939171 37.127115 12.935414 37.125 12.9375 C 37.133953 12.943831 37.125 12.96875 37.125 12.96875 C 37.121664 12.972091 37.098287 12.99555 37.09375 13 C 37.09375 13 37.071453 13.006331 37.0625 13 C 37.058014 13.004516 37.065745 13.028029 37.0625 13.03125 C 37.0625 13.03125 37.037627 13.040171 37.03125 13.03125 C 37.026764 13.035766 37.034495 13.059279 37.03125 13.0625 C 37.031433 13.062314 37.007734 13.070275 37 13.0625 C 36.995514 13.067016 37.003245 13.090529 37 13.09375 C 37 13.09375 36.975127 13.102671 36.96875 13.09375 C 36.968711 13.096559 36.96875 13.122191 36.96875 13.125 A 0.043866643 0.043866643 0 0 1 36.96875 13.15625 A 0.043866643 0.043866643 0 0 1 36.9375 13.15625 L 36.90625 13.15625 L 36.90625 13.1875 C 36.904211 13.189616 36.907996 13.216985 36.90625 13.21875 L 36.875 13.21875 C 36.874813 13.218259 36.874962 13.24979 36.875 13.25 C 36.874918 13.254776 36.875265 13.276735 36.875 13.28125 C 36.874918 13.285856 36.875245 13.307994 36.875 13.3125 L 36.84375 13.34375 A 0.043866643 0.043866643 0 0 1 36.84375 13.375 C 36.84375 13.377809 36.843711 13.403441 36.84375 13.40625 C 36.843711 13.409059 36.84375 13.434691 36.84375 13.4375 A 0.043866643 0.043866643 0 0 1 36.84375 13.46875 C 36.842977 13.470835 36.8445 13.497907 36.84375 13.5 C 36.843117 13.502131 36.844359 13.529112 36.84375 13.53125 C 36.843165 13.533395 36.813062 13.529099 36.8125 13.53125 L 36.8125 19.1875 L 36.8125 19.21875 C 36.812508 19.221977 36.812511 19.245499 36.8125 19.25 A 0.043866643 0.043866643 0 0 1 36.8125 19.28125 C 36.812957 19.284115 36.812001 19.309642 36.8125 19.3125 C 36.812999 19.315358 36.84321 19.309649 36.84375 19.3125 C 36.844413 19.315325 36.843046 19.340935 36.84375 19.34375 C 36.844575 19.346532 36.842885 19.372231 36.84375 19.375 C 36.844734 19.377729 36.842727 19.403535 36.84375 19.40625 C 36.843946 19.410813 36.843707 19.43308 36.84375 19.4375 L 36.84375 19.46875 C 36.84375 19.46875 36.86507 19.464102 36.875 19.46875 C 36.875245 19.473257 36.874918 19.495391 36.875 19.5 C 36.874984 19.500048 36.875018 19.53122 36.875 19.53125 L 36.875 19.5625 C 36.875 19.5625 36.89974 19.553676 36.90625 19.5625 C 36.906268 19.562451 36.906229 19.593781 36.90625 19.59375 L 36.9375 19.59375 C 36.939216 19.595476 36.935459 19.6229 36.9375 19.625 C 36.939541 19.6271 36.966605 19.622777 36.96875 19.625 C 36.970421 19.626668 36.966664 19.654135 36.96875 19.65625 C 36.970836 19.658365 36.997775 19.653982 37 19.65625 C 37.003341 19.659586 37.0268 19.682963 37.03125 19.6875 C 37.03125 19.6875 37.037581 19.709797 37.03125 19.71875 C 37.039286 19.71129 37.06263 19.718887 37.0625 19.71875 C 37.067041 19.723199 37.090396 19.74664 37.09375 19.75 C 37.09388 19.750137 37.101786 19.77379 37.09375 19.78125 C 37.095869 19.783338 37.123323 19.77957 37.125 19.78125 L 37.125 19.8125 C 37.127098 19.814542 37.154528 19.810785 37.15625 19.8125 C 37.156148 19.812378 37.15628 19.843807 37.15625 19.84375 C 37.15625 19.84375 37.178729 19.837184 37.1875 19.84375 L 37.1875 19.875 C 37.1875 19.875 37.209988 19.868407 37.21875 19.875 C 37.21875 19.875 37.241368 19.868237 37.25 19.875 C 37.25 19.875 37.276265 19.865239 37.28125 19.875 L 37.28125 19.90625 C 37.28125 19.90625 37.307744 19.896369 37.3125 19.90625 C 37.3125 19.90625 37.336523 19.898004 37.34375 19.90625 C 37.346465 19.907273 37.372271 19.905266 37.375 19.90625 C 37.377769 19.907115 37.403468 19.905425 37.40625 19.90625 C 37.409065 19.906954 37.434675 19.905587 37.4375 19.90625 C 37.440351 19.90679 37.434642 19.937001 37.4375 19.9375 C 37.440358 19.937999 37.465885 19.937043 37.46875 19.9375 C 37.473776 19.9387 37.484065 19.939315 37.5 19.9375 C 37.515935 19.935685 37.537362 19.931387 37.5625 19.9375 C 41.227233 20.824499 43.988095 22.577055 45.875 25.0625 C 47.787466 27.581614 48.78125 30.903924 48.78125 34.9375 C 48.78125 44.239215 41.301715 51.71875 32 51.71875 C 22.698297 51.71875 15.1875 44.237645 15.1875 34.9375 C 15.1875 26.878134 19.419237 21.470544 26.90625 19.75 C 26.920948 19.746626 26.932194 19.749425 26.9375 19.75 C 26.957128 19.745499 26.958114 19.748859 26.96875 19.75 C 26.979386 19.751141 26.99947 19.750119 27 19.75 C 27.0045 19.749968 27.027889 19.749997 27.03125 19.75 C 27.035074 19.74964 27.058684 19.750433 27.0625 19.75 C 27.066307 19.749494 27.058703 19.719328 27.0625 19.71875 C 27.066285 19.718099 27.089978 19.719473 27.09375 19.71875 C 27.097492 19.717883 27.121276 19.719688 27.125 19.71875 C 27.128686 19.71767 27.152585 19.7199 27.15625 19.71875 C 27.159843 19.717392 27.183934 19.688926 27.1875 19.6875 C 27.191009 19.685938 27.215272 19.689128 27.21875 19.6875 C 27.222129 19.685675 27.246656 19.689389 27.25 19.6875 C 27.253344 19.685611 27.246693 19.658203 27.25 19.65625 C 27.253269 19.654234 27.27802 19.658328 27.28125 19.65625 C 27.284398 19.65405 27.278144 19.62726 27.28125 19.625 C 27.284356 19.62274 27.309438 19.627319 27.3125 19.625 C 27.315836 19.621659 27.339213 19.5982 27.34375 19.59375 C 27.34375 19.59375 27.366047 19.587419 27.375 19.59375 C 27.379516 19.589266 27.371879 19.565582 27.375 19.5625 C 27.378081 19.559382 27.401764 19.567016 27.40625 19.5625 C 27.410736 19.557984 27.403005 19.534471 27.40625 19.53125 C 27.40625 19.53125 27.431123 19.522329 27.4375 19.53125 C 27.442016 19.526766 27.434379 19.503082 27.4375 19.5 C 27.441949 19.495459 27.46539 19.472104 27.46875 19.46875 C 27.470975 19.466479 27.497912 19.470869 27.5 19.46875 C 27.502088 19.466631 27.49832 19.439177 27.5 19.4375 L 27.53125 19.4375 L 27.53125 19.40625 C 27.533292 19.404152 27.529535 19.376722 27.53125 19.375 C 27.533382 19.372772 27.560461 19.377116 27.5625 19.375 C 27.564539 19.372884 27.560754 19.345515 27.5625 19.34375 L 27.59375 19.34375 C 27.59373 19.343719 27.593767 19.312549 27.59375 19.3125 C 27.59579 19.310351 27.591933 19.283098 27.59375 19.28125 C 27.593789 19.278441 27.59375 19.252809 27.59375 19.25 L 27.625 19.25 L 27.625 19.21875 C 27.627045 19.21655 27.623074 19.189473 27.625 19.1875 C 27.625 19.184691 27.625039 19.159059 27.625 19.15625 C 27.626023 19.153535 27.624016 19.127729 27.625 19.125 C 27.625865 19.122231 27.624175 19.096532 27.625 19.09375 C 27.625704 19.090935 27.624337 19.065325 27.625 19.0625 C 27.62554 19.059649 27.655751 19.065358 27.65625 19.0625 C 27.656749 19.059642 27.655793 19.034115 27.65625 19.03125 L 27.65625 13.4375 L 27.65625 13.40625 C 27.656242 13.403023 27.656239 13.379501 27.65625 13.375 A 0.043866643 0.043866643 0 0 1 27.65625 13.34375 C 27.655793 13.340885 27.656749 13.315358 27.65625 13.3125 C 27.655751 13.309642 27.62554 13.315351 27.625 13.3125 C 27.624337 13.309675 27.625704 13.284065 27.625 13.28125 C 27.624175 13.278468 27.625865 13.252769 27.625 13.25 C 27.624016 13.247271 27.626023 13.221465 27.625 13.21875 L 27.625 13.1875 L 27.625 13.15625 C 27.625 13.15625 27.60368 13.160898 27.59375 13.15625 C 27.593505 13.151743 27.593832 13.129609 27.59375 13.125 C 27.593735 13.125047 27.593767 13.093721 27.59375 13.09375 L 27.59375 13.0625 C 27.593719 13.062487 27.562548 13.062532 27.5625 13.0625 C 27.562185 13.058009 27.562609 13.036331 27.5625 13.03125 L 27.53125 13.03125 C 27.529534 13.029524 27.533291 13.0021 27.53125 13 L 27.5 13 C 27.496659 12.996664 27.4732 12.973287 27.46875 12.96875 C 27.4655 12.965525 27.473234 12.942016 27.46875 12.9375 C 27.460714 12.944961 27.4375 12.9375 27.4375 12.9375 C 27.43425 12.934275 27.441984 12.910766 27.4375 12.90625 C 27.429464 12.91371 27.40612 12.906113 27.40625 12.90625 C 27.401709 12.901801 27.378354 12.87836 27.375 12.875 C 27.372729 12.872775 27.377119 12.845838 27.375 12.84375 C 27.372881 12.841662 27.345427 12.84543 27.34375 12.84375 C 27.341528 12.841602 27.345848 12.814542 27.34375 12.8125 C 27.341652 12.810458 27.314222 12.814215 27.3125 12.8125 L 27.3125 12.78125 L 27.28125 12.75 C 27.28125 12.75 27.258762 12.756593 27.25 12.75 C 27.25 12.75 27.227279 12.756877 27.21875 12.75 C 27.213627 12.750291 27.193941 12.750553 27.1875 12.75 C 27.183456 12.749094 27.157289 12.75055 27.15625 12.75 A 0.043866643 0.043866643 0 0 1 27.15625 12.71875 C 27.15625 12.71875 27.1296 12.728704 27.125 12.71875 L 27.125 12.6875 L 27.09375 12.6875 C 27.089329 12.687457 27.067062 12.687696 27.0625 12.6875 C 27.059785 12.686477 27.033979 12.688484 27.03125 12.6875 C 27.028481 12.686635 27.002782 12.688325 27 12.6875 C 26.997185 12.686796 26.971575 12.688163 26.96875 12.6875 C 26.965899 12.68696 26.971608 12.656749 26.96875 12.65625 C 26.965892 12.655751 26.940365 12.656707 26.9375 12.65625 C 26.934143 12.656253 26.910751 12.656282 26.90625 12.65625 C 26.903023 12.656258 26.879501 12.656261 26.875 12.65625 C 26.8705 12.656282 26.847111 12.656253 26.84375 12.65625 C 26.840942 12.656132 26.815309 12.656329 26.8125 12.65625 C 26.809691 12.656329 26.784058 12.656132 26.78125 12.65625 z M 27.3125 12.78125 L 27.3125 12.75 L 27.34375 12.75 L 27.3125 12.78125 z M 27.625 19.25 L 27.65625 19.28125 C 27.65622 19.281323 27.656262 19.249948 27.65625 19.25 L 27.625 19.25 z M 27.53125 19.4375 L 27.5625 19.46875 L 27.5625 19.4375 L 27.53125 19.4375 z M 36.90625 13.15625 L 36.875 13.125 L 36.875 13.15625 L 36.90625 13.15625 z M 37.34375 12.75 L 37.34375 12.78125 C 37.350963 12.77299 37.375 12.78125 37.375 12.78125 L 37.375 12.75 C 37.37515 12.749956 37.343686 12.750035 37.34375 12.75 z M 27.65625 13.1875 L 27.65625 13.21875 L 27.6875 13.21875 C 27.687544 13.2189 27.687465 13.187436 27.6875 13.1875 C 27.680878 13.19624 27.65625 13.1875 27.65625 13.1875 z M 36.78125 19.40625 C 36.781206 19.4061 36.781285 19.437564 36.78125 19.4375 L 36.8125 19.4375 L 36.8125 19.40625 L 36.78125 19.40625 z M 37.3125 19.9375 C 37.312448 19.937492 37.312574 19.968776 37.3125 19.96875 C 37.312436 19.968715 37.3439 19.968794 37.34375 19.96875 L 37.34375 19.9375 C 37.34375 19.9375 37.319727 19.945746 37.3125 19.9375 z M 35.84375 23.09375 L 35.84375 23.125 C 35.84375 23.125 35.868476 23.116176 35.875 23.125 C 35.874965 23.125064 35.875044 23.0936 35.875 23.09375 L 35.84375 23.09375 z M 28.3125 23.125 C 28.312456 23.12485 28.312535 23.156314 28.3125 23.15625 L 28.34375 23.15625 L 28.34375 23.125 L 28.3125 23.125 z M 28.90625 23.6875 L 28.90625 23.71875 C 28.906186 23.718715 28.93765 23.718794 28.9375 23.71875 L 28.9375 23.6875 C 28.9375 23.6875 28.913477 23.695746 28.90625 23.6875 z M 35.28125 23.6875 L 35.28125 23.71875 C 35.2811 23.718794 35.312564 23.718715 35.3125 23.71875 L 35.3125 23.6875 L 35.28125 23.6875 z "
       style="opacity:0.1;fill:#000000;fill-opacity:1;stroke:none;display:inline"
       id="path2987"
       d="m 35.25,3.90625 0,0.0625 c -0.01091,-0.00432 -0.01615,0.00598 -0.03125,0 -0.03397,-0.013455 -0.06244,-0.031244 -0.0625,-0.03125 -8.95e-4,-8.08e-5 -0.02192,2.553e-4 -0.03125,0 0.0018,1.296e-4 -0.03837,7.49e-5 -0.03125,0 l -5.96875,0 c -0.0038,3.3e-6 -0.03428,-2.15e-5 -0.03125,0 -0.0038,3.3e-6 -0.03428,-2.15e-5 -0.03125,0 -0.0023,5.4e-6 -0.03117,2e-7 -0.03125,0 0.003,-2.15e-5 -0.02743,3.3e-6 -0.03125,0 -0.0028,-1.179e-4 -0.08477,-0.0015 -0.03125,0 0.05352,-0.0015 -0.02844,-1.179e-4 -0.03125,0 -0.0028,-1.179e-4 -0.08477,-0.0015 -0.03125,0 l -0.03125,0 a 0.26007782,0.26007782 0 0 0 -0.0625,0 0.26007782,0.26007782 0 0 0 -0.03125,0 c -6e-6,2.4e-6 0.0028,0.029486 0,0.03125 -0.0041,0.00265 -0.02372,-0.00481 -0.03125,0 -2.3e-5,6.5e-6 0.0038,0.029634 0,0.03125 -0.0076,0.00323 -0.01981,-0.00484 -0.03125,0 -0.01144,0.00484 -0.03122,-1.6e-5 -0.03125,0 -2.3e-5,7.4e-6 0.0043,0.029153 0,0.03125 -0.0085,0.00419 -0.01851,-0.00629 -0.03125,0 -0.01274,0.00629 -0.03122,-1.8e-5 -0.03125,0 -1.2e-5,1.34e-5 0.0061,0.023171 0,0.03125 -0.009,0.00514 -0.02446,-0.00386 -0.03125,0 -0.01069,0.00397 -0.03119,-2.71e-5 -0.03125,0 -2.9e-5,1.35e-5 0.0067,0.026571 0,0.03125 -0.0067,0.00468 -0.02234,-0.00623 -0.03125,0 0,0 0.0085,0.021612 0,0.03125 -0.0085,0.00964 -0.03125,0 -0.03125,0 0,0 0,0.03125 0,0.03125 a 0.26007782,0.26007782 0 0 0 -0.03125,0.03125 0.26007782,0.26007782 0 0 0 -0.03125,0 c -6.5e-5,6.47e-5 0.0044,0.024942 0,0.03125 -0.0074,0.010514 -0.02149,0.017251 -0.03125,0.03125 0.0016,-0.00163 -0.02407,-0.00719 -0.03125,0 -2.8e-5,1.34e-5 0.0069,0.026262 0,0.03125 -0.01387,0.00998 -0.01739,0.021271 -0.03125,0.03125 -0.0069,0.00499 -0.03123,-1.64e-5 -0.03125,0 a 0.26007782,0.26007782 0 0 0 0,0.03125 0.26007782,0.26007782 0 0 0 -0.03125,0 c -2.7e-5,5.71e-5 0.004,0.020567 0,0.03125 a 0.26007782,0.26007782 0 0 0 0,0.03125 0.26007782,0.26007782 0 0 0 -0.03125,0 0.26007782,0.26007782 0 0 0 0,0.03125 c -0.0054,0.00867 -0.02717,-0.00651 -0.03125,0 a 0.26007782,0.26007782 0 0 0 0,0.03125 A 0.26007782,0.26007782 0 0 0 28.1875,4.5 a 0.26007782,0.26007782 0 0 0 -0.03125,0 0.26007782,0.26007782 0 0 0 0,0.03125 0.26007782,0.26007782 0 0 0 -0.0625,0.0625 c 0.001,-0.00312 -8.85e-4,0.034409 0,0.03125 7.4e-4,-0.0032 -5.94e-4,0.034476 0,0.03125 4.47e-4,-0.00325 -2.98e-4,0.034517 0,0.03125 0,-0.00328 1.49e-4,0.034527 0,0.03125 -2.98e-4,-0.00327 4.47e-4,0.0345 0,0.03125 -0.0035,-7.44e-4 -0.03125,-1.725e-4 -0.03125,0 -5e-6,0.00393 1e-6,0.0281 0,0.03125 l 0.03125,0 c -8.85e-4,-0.00316 0.001,0.034365 0,0.03125 -0.01196,0.030199 6e-6,0.062448 0,0.0625 -8.1e-5,8.945e-4 2.55e-4,0.021928 0,0.03125 a 0.26007782,0.26007782 0 0 0 0,0.03125 l 0,17.96875 0,0.03125 c 5e-6,0.0022 1e-6,0.03098 0,0.03125 l 0.21875,0 0,0.03125 -0.1875,0.03125 -0.03125,0 c 1.17e-4,0.0051 -6.2e-5,0.03089 0,0.03125 3e-6,1.8e-5 0.02591,0.01594 0.03125,0.03125 -3e-6,-1.8e-5 -0.0055,0.01612 0,0.03125 -0.01354,0.0021 -0.0625,-1.64e-4 -0.0625,0 1e-6,0.0032 -5e-6,0.02732 0,0.03125 l 0.0625,0 c 9e-6,1.6e-5 -0.0082,0.02013 0,0.03125 0.0037,0.0151 -3.2e-5,0.03117 0,0.03125 l 0.03125,0 c -0.0018,0.01214 0.0013,0.02141 0,0.03125 a 0.26007782,0.26007782 0 0 0 0,0.0625 0.26007782,0.26007782 0 0 0 0,0.03125 0.26007782,0.26007782 0 0 0 0.03125,0.03125 0.26007782,0.26007782 0 0 0 0.03125,0.0625 c 0.0039,0.01063 -2.6e-5,0.03119 0,0.03125 0.0045,0.0046 0.0252,-0.0062 0.03125,0 0.004,0.01068 -2.7e-5,0.03119 0,0.03125 0.0045,0.0046 0.03139,1.05e-4 0.03125,0 0.0071,0.0051 -0.0071,0.02611 0,0.03125 0.01418,0.01029 0.03121,-2.2e-5 0.03125,0 0.0069,0.005 -0.0092,0.0246 0,0.03125 a 0.26007782,0.26007782 0 0 0 0.03125,0 c 4.5e-5,9.7e-5 -0.0044,0.02493 0,0.03125 0.0029,0.0042 0.02735,-0.0056 0.03125,0 0.0098,0.01399 0.0239,0.02074 0.03125,0.03125 a 0.26007782,0.26007782 0 0 0 0,0.03125 c 6.5e-5,6.5e-5 0.02495,-0.0044 0.03125,0 0.0042,0.0029 -0.0056,0.02739 0,0.03125 0.0084,0.0058 0.02286,-0.0058 0.03125,0 a 0.26007782,0.26007782 0 0 0 0,0.03125 0.26007782,0.26007782 0 0 0 0,0.03125 0.26007782,0.26007782 0 0 0 0.03125,0 0.26007782,0.26007782 0 0 0 0.0625,0.0625 0.26007782,0.26007782 0 0 0 0.0625,0.03125 0.26007782,0.26007782 0 0 0 0.03125,0 0.26007782,0.26007782 0 0 0 0.03125,0 c 0.0104,0.0047 0.02413,-0.0022 0.03125,0 a 0.26007782,0.26007782 0 0 0 0,0.03125 0.26007782,0.26007782 0 0 0 0.03125,0 0.26007782,0.26007782 0 0 0 0.03125,0 0.26007782,0.26007782 0 0 0 0,0.03125 0.26007782,0.26007782 0 0 0 0.03125,0 c -0.004,-0.0022 0.0034,-0.02927 0,-0.03125 a 0.26007782,0.26007782 0 0 0 0.03125,0 0.26007782,0.26007782 0 0 0 -0.03125,0.03125 0.26007782,0.26007782 0 0 0 0.03125,0 c -5.15e-4,0.0034 -1.67e-4,0.03125 0,0.03125 0.0078,5e-6 0.03125,0 0.03125,0 l 0,-0.03125 c 0.01322,0.0032 0.03107,-2.5e-5 0.03125,0 -0.0031,0.01325 -3.45e-4,0.0625 0,0.0625 0.0039,5e-6 0.0281,-1e-6 0.03125,0 l 0,-0.0625 c 0.01091,0.0043 0.01615,-0.006 0.03125,0 0.03397,0.01345 0.06244,0.03124 0.0625,0.03125 0.0018,1.62e-4 0.05538,7.5e-5 0.0625,0 l 5.96875,0 0.03125,0 c 2.58e-4,-1e-6 0.02908,-5e-6 0.03125,0 l 0,-0.21875 0.03125,0 0.03125,0.1875 0,0.03125 c 0.0051,-1.17e-4 0.03089,6.2e-5 0.03125,0 1.8e-5,-3e-6 0.01594,-0.02591 0.03125,-0.03125 -1.8e-5,3e-6 0.01612,0.0055 0.03125,0 0.0021,0.01354 -1.64e-4,0.0625 0,0.0625 0.0031,-1e-6 0.02732,5e-6 0.03125,0 l 0,-0.0625 c 0.01111,6.77e-4 0.0094,0.0033 0.03125,0 0.0056,-0.0041 -0.0056,-0.02713 0,-0.03125 0.0058,-0.0043 0.02392,0.0054 0.03125,0 0.0059,-0.0044 -0.0066,-0.02631 0,-0.03125 -1.1e-5,1.1e-5 0.02917,0.003 0.03125,0 0.0031,-0.0045 -0.0057,-0.02307 0,-0.03125 0.0098,-0.01383 0.03123,-0.0312 0.03125,-0.03125 0.01852,-0.01384 0.01362,-0.01803 0.03125,-0.03125 0.01083,0.0018 0.02385,9.54e-4 0.03125,0 0.0073,-0.0055 -0.0066,-0.02623 0,-0.03125 l 0.03125,0 0,0.03125 c 0.0049,-0.0017 0.02803,3.8e-4 0.03125,0 l 0,0.03125 c -0.0067,0.0072 -0.02309,-0.0089 -0.03125,0 a 0.26007782,0.26007782 0 0 1 0,0.03125 c -0.0033,0.0051 -0.02876,-0.0038 -0.03125,0 -0.005,0.0055 0.0033,0.02764 0,0.03125 1.76e-4,-1.91e-4 -0.02019,-0.0089 -0.03125,0 -0.0046,0.0041 -0.02669,-0.0041 -0.03125,0 -0.0091,0.0081 -2.29e-4,0.03141 0,0.03125 0.0083,-0.0016 0.02059,0.0034 0.03125,0 0.0081,-0.0015 0.0208,0.0033 0.03125,0 a 0.26007782,0.26007782 0 0 0 0.03125,0 0.26007782,0.26007782 0 0 0 0,-0.03125 0.26007782,0.26007782 0 0 0 0.03125,0 0.26007782,0.26007782 0 0 0 0.03125,0 0.26007782,0.26007782 0 0 0 0,-0.03125 c 0.0067,-0.0045 0.02183,0.0063 0.03125,0 5.7e-5,-2.6e-5 0.01331,-0.01889 0.03125,-0.03125 0.009,-0.0062 -0.0067,-0.02661 0,-0.03125 l 0.03125,0 c 3.3e-5,-3.2e-5 0.01795,-0.01278 0.03125,-0.03125 0.0067,-0.0092 -0.005,-0.02431 0,-0.03125 0.005,-0.0069 0.03124,2.8e-5 0.03125,0 a 0.26007782,0.26007782 0 0 0 0,-0.03125 c 0.0029,-0.0042 0.02734,0.0056 0.03125,0 0.0059,-0.0084 -0.0059,-0.02285 0,-0.03125 0.0039,-0.0056 0.02831,0.0042 0.03125,0 5.6e-5,-2.7e-5 0.01278,-0.01797 0.03125,-0.03125 0.0092,-0.0066 0.02432,0.005 0.03125,0 A 0.26007782,0.26007782 0 0 0 35.90625,23.5625 0.26007782,0.26007782 0 0 0 35.96875,23.5 0.26007782,0.26007782 0 0 0 36,23.40625 c 0.004,-0.0059 -1.2e-5,-0.03122 0,-0.03125 0.0044,-0.0066 1e-5,-0.03127 0,-0.03125 0.0051,-0.0076 -0.0051,-0.02362 0,-0.03125 0.0085,-0.01272 0.03123,-0.0312 0.03125,-0.03125 0.0042,-0.0061 1.1e-5,-0.03128 0,-0.03125 0.0085,-0.01272 0.03123,-0.0312 0.03125,-0.03125 0.0042,-0.0061 1.1e-5,-0.03128 0,-0.03125 0.0034,5.15e-4 0.03125,1.67e-4 0.03125,0 5e-6,-0.0078 0,-0.03125 0,-0.03125 l -0.03125,0 0,-0.03125 c 0.01325,0.0031 0.0625,3.45e-4 0.0625,0 5e-6,-0.0039 -10e-7,-0.0281 0,-0.03125 l -0.0625,0 c 0.0051,-0.01237 -0.0062,-0.0164 0,-0.03125 0.01345,-0.03397 0.03124,-0.06244 0.03125,-0.0625 8.1e-5,-8.95e-4 -2.55e-4,-0.02193 0,-0.03125 a 0.26007782,0.26007782 0 0 0 0,-0.03125 l 0,-17.96875 0,-0.03125 c -5e-6,-0.00217 -10e-7,-0.030989 0,-0.03125 2.2e-5,0.00303 -3e-6,-0.027473 0,-0.03125 -5.4e-5,-0.00284 -5.7e-5,-0.031608 0,-0.03125 -1.17e-4,-0.0051 6.2e-5,-0.030893 0,-0.03125 -10e-7,-4.5e-6 -0.03075,0.00144 -0.03125,0 -4.75e-4,-0.00614 -4.1e-5,-0.031427 0,-0.03125 3e-6,1.78e-5 0.0055,-0.016116 0,-0.03125 0.01354,-0.00205 0.0625,1.643e-4 0.0625,0 -10e-7,-0.00315 5e-6,-0.027318 0,-0.03125 l -0.0625,0 c -9e-6,-1.62e-5 0.0082,-0.020125 0,-0.03125 -0.0037,-0.015104 3.2e-5,-0.031165 0,-0.03125 1.1e-5,2.51e-5 0.0042,-0.0251 0,-0.03125 -2e-5,-4.45e-5 -0.02278,-0.018513 -0.03125,-0.03125 -0.0051,-0.00764 0.0051,-0.023611 0,-0.03125 -4.2e-5,-1.591e-4 5.3e-5,-0.031135 0,-0.03125 C 36.03123,4.5312059 36.008722,4.5128852 36,4.5 c -0.0052,-0.00773 0.0052,-0.023521 0,-0.03125 A 0.26007782,0.26007782 0 0 0 36,4.4375 c -0.0027,-0.00391 -0.02769,0.00521 -0.03125,0 -0.0053,-0.00781 0.0053,-0.023445 0,-0.03125 -0.0045,-0.00457 -0.0252,0.00614 -0.03125,0 -0.0054,-0.00785 0.0054,-0.023405 0,-0.03125 l -0.03125,0 c -0.0041,-0.00589 1.5e-5,-0.031235 0,-0.03125 a 0.26007782,0.26007782 0 0 0 -0.03125,0 c 2.7e-5,2.78e-5 -0.01767,0.00996 -0.03125,0 -0.0068,-0.00498 0.0068,-0.026269 0,-0.03125 -0.0098,-0.013999 -0.02389,-0.020736 -0.03125,-0.03125 -0.0042,-0.011179 2.7e-5,-0.031194 0,-0.03125 -1.3e-5,-2.81e-5 -0.02637,0.00684 -0.03125,0 -0.0042,-0.011248 2.7e-5,-0.031194 0,-0.03125 a 0.26007782,0.26007782 0 0 0 -0.03125,0 c -0.0049,-0.00683 1.7e-5,-0.031234 0,-0.03125 -0.0066,-0.00924 0.005,-0.024316 0,-0.03125 -0.0067,-0.00468 -0.02235,0.00623 -0.03125,0 a 0.26007782,0.26007782 0 0 0 0,-0.03125 c -0.0067,-0.00464 -0.02227,0.00619 -0.03125,0 l -0.03125,0 0.03125,-0.03125 c -0.0067,-0.00464 -0.03122,1.32e-5 -0.03125,0 l 0.03125,0.03125 0,-0.03125 z m 0.40625,0.1875 c -5.7e-5,-2.64e-5 -0.02062,0.00386 -0.03125,0 A 0.26007782,0.26007782 0 0 0 35.59375,4.0625 c -0.0077,-0.00523 -0.02352,0.00523 -0.03125,0 -0.0052,-0.00349 0.0039,-0.028632 0,-0.03125 -0.0057,-0.00219 -0.02617,0.00155 -0.03125,0 0.0043,0.00289 -0.0057,0.027395 0,0.03125 a 0.26007782,0.26007782 0 0 0 -0.03125,0 0.26007782,0.26007782 0 0 0 0.03125,-0.03125 0.26007782,0.26007782 0 0 0 -0.03125,0 0.26007782,0.26007782 0 0 0 -0.03125,0 A 0.26007782,0.26007782 0 0 0 35.4375,4 c -0.01057,-0.00482 -0.02402,0.00225 -0.03125,0 0.0055,0.00371 -0.0041,0.02847 0,0.03125 -0.01101,-0.00151 -0.02763,1.559e-4 -0.03125,0 0,0 0.0074,0.049633 0,0.09375 L 35.34375,4.09375 35.3125,4.125 35.25,4.03125 l 0,0.125 -0.03125,0 c 0.01669,-0.064233 0.01845,-0.074694 0.03125,-0.125 L 35.25,4 c 0.01072,0.00444 0.03127,1.67e-5 0.03125,0 -7e-5,-5.44e-5 0.04477,0.042271 0.0625,0.0625 -1.7e-5,-2.82e-5 0.0055,-0.025085 0,-0.03125 C 35.334563,4.020975 35.324742,4.0136781 35.3125,4 c 0.01094,-6.52e-4 0.01004,-0.0031 0.03125,0 a 0.26007782,0.26007782 0 0 0 0.03125,-0.03125 0.26007782,0.26007782 0 0 0 -0.03125,0 c -1.06e-4,-3.75e-5 -0.01803,0.00319 -0.03125,0 1.06e-4,3.56e-5 -0.01882,0.00283 -0.03125,0 0.0032,-0.013177 3.44e-4,-0.0625 0,-0.0625 -0.0039,-5.1e-6 -0.02809,8e-7 -0.03125,0 z M 35.375,3.96875 C 35.375,3.9791667 35.395833,4 35.40625,4 c -0.0051,-0.00338 0.0038,-0.028712 0,-0.03125 -0.0108,-0.00504 -0.02385,0.00235 -0.03125,0 z m -6.75,0.125 c -4.7e-5,1.349e-4 0.0031,0.018186 0,0.03125 4.7e-5,-1.358e-4 0.003,0.018686 0,0.03125 0.0065,0.00711 0.02415,-0.00778 0.03125,0 0.0104,0.00243 0.01801,-0.00531 0.03125,0 0.002,0.00496 0.0293,-0.00496 0.03125,0 -0.0021,-0.015854 0.002,-0.016477 0,-0.03125 -0.004,-0.029546 0.0019,-0.04881 0,-0.0625 z m 0.09375,0.0625 c 0.01165,0.0062 0.0316,0.031479 0.03125,0.03125 -0.002,-0.014773 0.0021,-0.015396 0,-0.03125 -2.68e-4,-0.00198 -0.03098,0.00198 -0.03125,0 z m 6.5,0.03125 0.03125,0.03125 a 0.26007782,0.26007782 0 0 0 0,0.03125 l 0,0.03125 -0.0625,0.03125 c 0.0082,-0.031255 0.01504,-0.062766 0.03125,-0.125 z M 28.4375,4.25 c -4.7e-5,2.33e-5 0.02286,0.00329 0.03125,0 l 0,0.03125 0.0625,0 L 28.5,4.3125 28.625,4.375 28.59375,4.3125 l 0.0625,0.03125 0.03125,-0.03125 -0.03125,0 0.03125,0.03125 -0.03125,0 -0.03125,0.03125 0,0.03125 -0.0625,0.03125 -0.03125,0.03125 z m 0.125,0.1875 -0.09375,-0.0625 0,-0.03125 L 28.5,4.3125 z m 0.09375,-0.125 -0.03125,-0.03125 0,-0.0625 z m -0.1875,-0.03125 -0.03125,0 c 0.0042,-0.00165 -0.0042,-0.029598 0,-0.03125 z m -0.09375,0.25 0.03125,0 L 28.375,4.5625 c -0.006,-0.00795 0.0034,-0.025482 0,-0.03125 z m -1.3125,7.84375 0,0.0625 c -0.0201,-0.007 -0.05387,0.003 -0.0625,0 -0.0014,-5.01e-4 4e-6,-0.03125 0,-0.03125 -3.57e-4,-6.2e-5 -0.02615,1.17e-4 -0.03125,0 -0.0055,2.4e-5 -0.02764,-6.1e-5 -0.03125,0 -0.0038,3e-6 -0.03427,-2.1e-5 -0.03125,0 -2.55e-4,10e-7 -0.02908,5e-6 -0.03125,0 0.003,-2.2e-5 -0.02747,3e-6 -0.03125,0 -0.0028,-1.18e-4 -0.08503,-0.0015 -0.03125,0 0.05378,-0.0015 -0.02844,-1.18e-4 -0.03125,0 a 0.26007782,0.26007782 0 0 0 -0.03125,0 C 15.397042,14.289054 7.90625,23.074613 7.90625,34.9375 c 0,13.284093 10.809657,24.09375 24.09375,24.09375 13.284093,0 24.09375,-10.809657 24.09375,-24.09375 0,-11.675133 -7.011491,-20.221499 -18.09375,-22.28125 -0.0045,-0.0035 -0.02401,0.0056 -0.03125,0 -5.2e-5,-2.7e-5 -0.02165,0.0032 -0.03125,0 -0.0046,-0.0036 0.0031,-0.02882 0,-0.03125 -0.0049,-0.0049 -0.02478,0.0065 -0.03125,0 -0.0045,-0.0035 1.5e-5,-0.03124 0,-0.03125 -0.0049,-0.0049 -0.03124,6e-6 -0.03125,0 -9e-6,-7e-6 -0.01981,0.0055 -0.03125,0 -0.01293,-0.0064 -0.01994,0.0056 -0.03125,0 -0.0049,-0.0049 -0.02478,0.0065 -0.03125,0 -0.0016,-7.91e-4 3e-6,-0.03125 0,-0.03125 -0.0049,-0.0049 -0.03124,6e-6 -0.03125,0 -9e-6,-7e-6 -0.01981,0.0055 -0.03125,0 -0.01144,-0.0055 -0.01818,0.0063 -0.03125,0 -0.01307,-0.0063 -0.02634,0.0024 -0.03125,0 -0.0016,-7.91e-4 3e-6,-0.03125 0,-0.03125 a 0.26007782,0.26007782 0 0 0 -0.0625,0 c -0.0038,3e-6 -0.03427,-2.1e-5 -0.03125,0 -0.0022,5e-6 -0.03098,10e-7 -0.03125,0 l 0,0.21875 -0.03125,0 -0.03125,-0.1875 0,-0.03125 c -0.0051,1.17e-4 -0.03089,-6.2e-5 -0.03125,0 -4e-6,10e-7 0.0014,0.03075 0,0.03125 -0.0086,0.003 -0.0424,-0.007 -0.0625,0 -0.0021,-0.01354 1.64e-4,-0.0625 0,-0.0625 -0.0031,10e-7 -0.02732,-5e-6 -0.03125,0 l 0,0.0625 c -1.6e-5,9e-6 -0.02013,-0.0082 -0.03125,0 -0.0056,0.0041 0.0056,0.02713 0,0.03125 -0.01112,0.0082 -0.03124,-1.4e-5 -0.03125,0 -1.7e-5,1.7e-5 0.0044,0.02503 0,0.03125 -0.0073,0.01037 -0.02148,0.01742 -0.03125,0.03125 -0.01763,0.01314 -0.01273,0.01741 -0.03125,0.03125 -0.02881,0.02153 -0.03705,0.0121 -0.0625,0.03125 L 37.125,12.75 l -0.03125,0 -0.03125,0 0.03125,-0.03125 c 0.0033,-0.0036 -0.005,-0.02582 0,-0.03125 0.0025,-0.0038 0.0279,0.0051 0.03125,0 a 0.26007782,0.26007782 0 0 1 0,-0.03125 c 0.0033,-0.0051 0.02876,0.0038 0.03125,0 0.0037,-0.0057 1.02e-4,-0.03136 0,-0.03125 1.6e-5,-1.5e-5 0.02551,0.0038 0.03125,0 -2.93e-4,1.7e-4 0.0205,0.005 0.03125,0 0.0041,-0.0028 -0.0055,-0.02753 0,-0.03125 -0.0076,0.0051 -0.02361,-0.0051 -0.03125,0 -1.59e-4,4.2e-5 -0.03113,-5.3e-5 -0.03125,0 a 0.26007782,0.26007782 0 0 0 -0.03125,0 0.26007782,0.26007782 0 0 0 0,0.03125 0.26007782,0.26007782 0 0 0 -0.03125,0 0.26007782,0.26007782 0 0 0 -0.03125,0 c -0.0039,0.0027 0.0052,0.02769 0,0.03125 -0.0078,0.0053 -0.02345,-0.0053 -0.03125,0 -2.8e-5,1.3e-5 0.0067,0.02661 0,0.03125 -0.01347,0.0093 -0.01779,0.02197 -0.03125,0.03125 -0.0067,0.0046 -0.03123,-1.6e-5 -0.03125,0 -0.0089,0.0062 0.0067,0.02657 0,0.03125 a 0.26007782,0.26007782 0 0 0 -0.03125,0 0.26007782,0.26007782 0 0 0 0,0.03125 0.26007782,0.26007782 0 0 0 -0.03125,0 0.26007782,0.26007782 0 0 0 0,0.03125 0.26007782,0.26007782 0 0 0 -0.03125,0 c -6.5e-5,6.5e-5 0.0044,0.02495 0,0.03125 a 0.26007782,0.26007782 0 0 0 -0.03125,0 0.26007782,0.26007782 0 0 0 0,0.03125 c -0.0039,0.0056 -0.02835,-0.0042 -0.03125,0 a 0.26007782,0.26007782 0 0 0 -0.03125,0 0.26007782,0.26007782 0 0 0 0,0.03125 A 0.26007782,0.26007782 0 0 0 36.65625,13 0.26007782,0.26007782 0 0 0 36.625,13.125 l 0,0.03125 c -5e-6,4.5e-5 1.21e-4,0.0598 0,0.0625 -1.6e-5,0.004 -1e-5,0.02702 0,0.03125 -2.67e-4,0.01552 -4e-5,0.02519 0,0.03125 -2.82e-4,0.01587 -3.8e-5,0.0251 0,0.03125 -0.0097,0.0097 0.0097,0.05279 0,0.0625 -1.7e-5,2.3e-5 0.04799,-0.01698 0.0625,-0.03125 0,0 -0.03125,-0.03125 -0.03125,-0.03125 l 0.03125,0 a 0.26007782,0.26007782 0 0 0 0,0.03125 0.26007782,0.26007782 0 0 0 0.03125,0.03125 l -0.09375,0 -0.03125,0 c 0,4.02e-4 -3.77e-4,0.0041 0,0.03125 a 0.26007782,0.26007782 0 0 0 0,0.03125 c -0.0063,0.01307 0.0024,0.02634 0,0.03125 -7.91e-4,0.0016 -0.03125,-3e-6 -0.03125,0 a 0.26007782,0.26007782 0 0 0 0,0.0625 l 0,5.65625 0,0.03125 c 10e-7,2.55e-4 5e-6,0.02908 0,0.03125 l 0.21875,0 0,0.03125 -0.1875,0.03125 -0.03125,0 c 1.17e-4,0.0051 -6.2e-5,0.03089 0,0.03125 3e-6,1.8e-5 0.02591,0.01594 0.03125,0.03125 -3e-6,-1.8e-5 -0.0055,0.01612 0,0.03125 -0.01354,0.0021 -0.0625,-1.64e-4 -0.0625,0 10e-7,0.0032 -5e-6,0.02732 0,0.03125 l 0.0625,0 c 9e-6,1.6e-5 -0.0082,0.02013 0,0.03125 a 0.26007782,0.26007782 0 0 0 0,0.03125 0.26007782,0.26007782 0 0 0 0,0.03125 0.26007782,0.26007782 0 0 0 0.03125,0.03125 0.26007782,0.26007782 0 0 0 0,0.03125 0.26007782,0.26007782 0 0 0 0,0.03125 0.26007782,0.26007782 0 0 0 0.03125,0.03125 0.26007782,0.26007782 0 0 0 0,0.03125 0.26007782,0.26007782 0 0 0 0.03125,0.03125 c 0.0039,0.01063 -2.6e-5,0.03119 0,0.03125 0.0045,0.0046 0.0252,-0.0062 0.03125,0 0.0077,0.01147 0.021,0.01594 0.03125,0.03125 0.0047,0.0067 -0.0062,0.02234 0,0.03125 a 0.26007782,0.26007782 0 0 0 0.03125,0 c 0.0047,0.0067 -1.6e-5,0.03123 0,0.03125 0.0092,0.0067 0.02431,-0.005 0.03125,0 0.0069,0.005 -2.8e-5,0.03124 0,0.03125 0.01822,0.013 0.03119,0.03122 0.03125,0.03125 5.6e-5,2.7e-5 0.02007,-0.0042 0.03125,0 a 0.26007782,0.26007782 0 0 0 0,0.03125 0.26007782,0.26007782 0 0 0 0.03125,0 0.26007782,0.26007782 0 0 0 0,0.03125 c 1.7e-5,1.6e-5 0.02457,-0.0047 0.03125,0 a 0.26007782,0.26007782 0 0 0 0,0.03125 c 0.01781,0.01246 0.03119,0.03122 0.03125,0.03125 0.009,0.0062 0.02451,-0.0046 0.03125,0 a 0.26007782,0.26007782 0 0 0 0,0.03125 c 5.7e-5,2.6e-5 0.02062,-0.0039 0.03125,0 -0.0045,-0.003 0.006,-0.02723 0,-0.03125 a 0.26007782,0.26007782 0 0 0 0.03125,0 0.26007782,0.26007782 0 0 0 -0.03125,0.03125 0.26007782,0.26007782 0 0 0 0.03125,0.03125 c 0,0 0.03125,-0.03125 0.03125,-0.03125 a 0.26007782,0.26007782 0 0 0 0,0.03125 0.26007782,0.26007782 0 0 0 0,0.03125 0.26007782,0.26007782 0 0 0 0.03125,0 0.26007782,0.26007782 0 0 0 0.03125,0 c 0.008,0.0015 0.02514,-5.65e-4 0.03125,0 a 0.26007782,0.26007782 0 0 0 0,0.03125 0.26007782,0.26007782 0 0 0 0.03125,0 c -0.004,-0.0022 0.0034,-0.02927 0,-0.03125 a 0.26007782,0.26007782 0 0 0 0.03125,0 0.26007782,0.26007782 0 0 0 -0.03125,0.03125 0.26007782,0.26007782 0 0 0 0.03125,0 c 0.0063,0.0014 0.02591,-7.84e-4 0.03125,0 0.01112,0.0082 0.03123,-9e-6 0.03125,0 -0.0031,0.01325 -3.45e-4,0.0625 0,0.0625 0.0039,5e-6 0.0281,-1e-6 0.03125,0 l 0,-0.0625 c 0.0092,-4.49e-4 0.0259,7.98e-4 0.03125,0 0.01531,0.0053 0.03123,0.03125 0.03125,0.03125 0.01587,0.0038 0.01966,-0.0015 0.03125,0 0.03477,0.0046 0.0675,0.003 0.09375,0 3.602394,0.877854 6.281539,2.60303 8.125,5.03125 1.872117,2.465965 2.875,5.727888 2.875,9.71875 0,9.162309 -7.368941,16.53125 -16.53125,16.53125 -9.162268,0 -16.5625,-7.371117 -16.5625,-16.53125 0,-7.946694 4.114587,-13.224093 11.46875,-14.9375 a 0.26007782,0.26007782 0 0 0 0.03125,0 c 0.01524,7.54e-4 0.0092,0.0051 0.03125,0 0.0078,9.2e-5 0.02558,1.13e-4 0.03125,0 0.0012,-7.5e-5 0.02862,2.02e-4 0.03125,0 0.0035,5.1e-5 0.02611,-1.4e-5 0.03125,0 0.0051,1.4e-5 0.0303,1.08e-4 0.03125,0 6.3e-5,-8e-6 0.03072,-0.0184 0.0625,-0.03125 0.01387,-0.0059 0.01969,0.0049 0.03125,0 0.0094,-0.0012 0.03102,7.2e-5 0.03125,0 a 0.26007782,0.26007782 0 0 0 0.03125,0 c 5.6e-5,-2.1e-5 -0.01136,-0.02565 0,-0.03125 0.01136,-0.0056 0.03117,4.7e-5 0.03125,0 -5.6e-5,2.2e-5 0.02053,0.0055 0.03125,0 1.46e-4,-3.1e-5 0.0169,0.0054 0.03125,0 a 0.26007782,0.26007782 0 0 0 0,-0.03125 c 0.01434,-0.0054 0.03117,4.7e-5 0.03125,0 4e-5,-2.3e-5 0.01748,-0.01952 0.03125,-0.03125 0.01029,-0.0044 0.03119,3.9e-5 0.03125,0 0.0055,-0.0047 -0.0041,-0.02772 0,-0.03125 0.01333,-0.01176 0.03128,-0.03129 0.03125,-0.03125 0.0033,-0.0054 0.02795,0.0054 0.03125,0 a 0.26007782,0.26007782 0 0 0 0.03125,0 c 0.0042,-0.0029 -0.0056,-0.02735 0,-0.03125 0.0084,-0.0059 0.02286,0.0059 0.03125,0 0.0056,-0.0039 -0.0042,-0.02831 0,-0.03125 l 0.03125,0 c 0.0059,-0.0084 -0.0059,-0.02285 0,-0.03125 0.0039,-0.0056 0.02831,0.0042 0.03125,0 2.8e-5,-1.3e-5 0.02441,0.0049 0.03125,0 a 0.26007782,0.26007782 0 0 0 0.03125,-0.03125 0.26007782,0.26007782 0 0 0 0.03125,-0.03125 0.26007782,0.26007782 0 0 0 0.0625,-0.0625 0.26007782,0.26007782 0 0 0 0.03125,-0.0625 0.26007782,0.26007782 0 0 0 0,-0.03125 c 0.004,-0.0059 -1.2e-5,-0.03122 0,-0.03125 0.0044,-0.0066 10e-6,-0.03127 0,-0.03125 a 0.26007782,0.26007782 0 0 0 0.03125,0 c 0.0039,-0.0058 -1.2e-5,-0.03122 0,-0.03125 0.0043,-0.0064 1.1e-5,-0.03127 0,-0.03125 8.4e-5,-3.18e-4 -9.07e-4,-0.02198 0,-0.03125 0.0085,-0.01272 0.03123,-0.0312 0.03125,-0.03125 0.0042,-0.0061 1.1e-5,-0.03128 0,-0.03125 0.0034,5.15e-4 0.03125,1.67e-4 0.03125,0 5e-6,-0.0078 0,-0.03125 0,-0.03125 l -0.03125,0 c 0.0055,-0.0074 -0.0082,-0.02013 0,-0.03125 0.0082,-0.01112 -9e-6,-0.03123 0,-0.03125 0.0034,-0.01439 2e-5,-0.03142 0,-0.03125 0.0055,-0.01513 3e-6,-0.03127 0,-0.03125 0.0053,-0.01531 0.03125,-0.03123 0.03125,-0.03125 6.2e-5,-3.57e-4 -1.17e-4,-0.02615 0,-0.03125 -5.7e-5,3.58e-4 -5.4e-5,-0.02841 0,-0.03125 l 0,-5.59375 0,-0.03125 c -1e-6,-2.55e-4 -5e-6,-0.02908 0,-0.03125 l -0.21875,0 0,-0.03125 0.1875,-0.03125 0.03125,0 c -1.17e-4,-0.0051 6.2e-5,-0.03089 0,-0.03125 -1e-6,-4e-6 -0.03075,0.0014 -0.03125,0 -1.05e-4,-0.003 7.52e-4,-0.0235 0,-0.03125 3e-6,1.8e-5 0.0055,-0.01612 0,-0.03125 0.01354,-0.0021 0.0625,1.64e-4 0.0625,0 -1e-6,-0.0031 5e-6,-0.02732 0,-0.03125 l -0.0625,0 c -0.0034,-0.01439 -3.1e-5,-0.03134 0,-0.03125 -0.0037,-0.0151 3.2e-5,-0.03116 0,-0.03125 a 0.26007782,0.26007782 0 0 0 0,-0.03125 0.26007782,0.26007782 0 0 0 -0.03125,-0.03125 0.26007782,0.26007782 0 0 0 0,-0.03125 0.26007782,0.26007782 0 0 0 0,-0.03125 0.26007782,0.26007782 0 0 0 -0.03125,-0.03125 0.26007782,0.26007782 0 0 0 0,-0.03125 0.26007782,0.26007782 0 0 0 0,-0.03125 0.26007782,0.26007782 0 0 0 -0.03125,0 c -0.0039,-0.01063 2.6e-5,-0.03119 0,-0.03125 a 0.26007782,0.26007782 0 0 0 -0.03125,0 0.26007782,0.26007782 0 0 0 0,-0.03125 c -0.0062,-0.009 -0.02661,0.0067 -0.03125,0 -0.0046,-0.0067 1.6e-5,-0.03123 0,-0.03125 -0.0029,-0.0042 -0.0274,0.0056 -0.03125,0 -0.0058,-0.0084 0.0058,-0.02286 0,-0.03125 a 0.26007782,0.26007782 0 0 0 -0.03125,0 c -0.0058,-0.0084 0.0058,-0.02286 0,-0.03125 a 0.26007782,0.26007782 0 0 0 -0.03125,0 c -0.0042,-0.01118 2.7e-5,-0.03119 0,-0.03125 a 0.26007782,0.26007782 0 0 0 -0.03125,0 c -0.0042,-0.01124 2.7e-5,-0.03119 0,-0.03125 a 0.26007782,0.26007782 0 0 0 -0.03125,0 c -0.0049,-0.0068 1.7e-5,-0.03123 0,-0.03125 a 0.26007782,0.26007782 0 0 0 -0.03125,0 c -0.005,-0.0069 1.6e-5,-0.03123 0,-0.03125 l -0.03125,0 c -0.0067,-0.0047 2.9e-5,-0.03124 0,-0.03125 -0.01795,-0.01238 -0.03119,-0.03122 -0.03125,-0.03125 -5.7e-5,-2.6e-5 -0.02062,0.0039 -0.03125,0 a 0.26007782,0.26007782 0 0 0 -0.0625,-0.03125 0.26007782,0.26007782 0 0 0 0,-0.03125 c -0.0058,-0.0022 -0.02611,0.0016 -0.03125,0 -0.0061,-0.0025 -0.02582,0.0018 -0.03125,0 a 0.26007782,0.26007782 0 0 0 -0.03125,0 A 0.26007782,0.26007782 0 0 0 27.25,12.46875 c 0,0 -0.03125,0.03125 -0.03125,0.03125 -0.01823,0.0023 -0.03125,0 -0.03125,0 -0.0039,-0.0055 -0.02832,0.0041 -0.03125,0 -2.8e-5,-2.8e-5 0.02177,0.01762 0.03125,0.03125 -0.0011,0.0068 0.002,0.01953 0,0.03125 l -0.03125,0 -0.03125,0.03125 -0.03125,0 0,-0.03125 L 27.125,12.5 c 0.01088,0.0082 0.03127,1.5e-5 0.03125,0 l 0,-0.03125 c 0.01081,0.0016 0.04772,-0.0047 0.0625,0 a 0.26007782,0.26007782 0 0 0 -0.0625,-0.03125 c -8.5e-5,-3.2e-5 -0.01615,0.0037 -0.03125,0 -0.01112,-0.0082 -0.03123,9e-6 -0.03125,0 0.0031,-0.01325 3.45e-4,-0.0625 0,-0.0625 -0.0039,-5e-6 -0.0281,10e-7 -0.03125,0 z m 10.0625,0.3125 -0.03125,0.03125 0.0625,0 L 37.125,12.6875 z M 27.0625,12.5 l 0,0.125 -0.03125,0 c 0.01608,-0.06457 0.01892,-0.07443 0.03125,-0.125 z M 27.03125,12.65625 27.0625,12.6875 27.03125,12.75 27,12.78125 c 0.0079,-0.03142 0.01563,-0.06244 0.03125,-0.125 z m 10.65625,0.0625 0,0.09375 0.09375,0.25 c -0.01188,0.0039 -0.01929,-0.0036 -0.03125,0 -0.01219,0.0028 -0.019,-0.0025 -0.03125,0 -0.01243,0.0014 -0.01879,-0.0011 -0.03125,0 -0.01251,0 -0.01874,2.85e-4 -0.03125,0 -0.01246,-0.0011 -0.01882,0.0014 -0.03125,0 -0.01225,-0.0025 -0.01906,0.0028 -0.03125,0 -0.01196,-0.0036 -0.01937,0.0039 -0.03125,0 l 0,-0.03125 c -0.01243,0.0014 -0.01879,-0.0011 -0.03125,0 -0.01251,2.85e-4 -0.01874,0 -0.03125,0 A 0.26007782,0.26007782 0 0 0 37.46875,13 c -0.0034,0.002 0.004,0.02901 0,0.03125 A 0.26007782,0.26007782 0 0 0 37.4375,13 a 0.26007782,0.26007782 0 0 0 0.03125,0 c 0.0069,-0.004 0.03148,-1.57e-4 0.03125,0 -3.43e-4,2.36e-4 0.01755,-0.01906 0.03125,-0.03125 a 0.26007782,0.26007782 0 0 0 0.0625,-0.03125 L 37.625,12.875 a 0.26007782,0.26007782 0 0 0 0,-0.03125 l 0.03125,-0.03125 0.03125,-0.09375 z m -0.46875,0.3125 c 0,0.01042 0,0.05208 0,0.0625 0,0.01042 0,0.05208 0,0.0625 0,0.01042 0,0.05208 0,0.0625 -0.0036,0.01197 0.0039,0.01937 0,0.03125 l -0.0625,-0.03125 0.0625,0 c -0.0045,-0.0075 -0.04736,-0.03716 -0.0625,-0.0625 -0.0048,-0.0081 0.0056,-0.02193 0,-0.03125 a 0.26007782,0.26007782 0 0 0 0,-0.0625 l 0.0625,-0.03125 z m -0.21875,0.25 0.03125,0.09375 0.03125,0 0,-0.03125 a 0.26007782,0.26007782 0 0 0 0.03125,0 c 2.85e-4,0.01251 0,0.01874 0,0.03125 0.0028,0.01219 -0.0025,0.019 0,0.03125 -0.0025,0.01225 0.0028,0.01906 0,0.03125 -0.0036,0.01197 0.0039,0.01937 0,0.03125 -0.0011,0.01246 0.0014,0.01882 0,0.03125 -0.0025,0.01225 0.0028,0.01906 0,0.03125 -0.0036,0.01197 0.0039,0.01937 0,0.03125 l -0.25,-0.09375 -0.09375,-0.03125 0.09375,0 0.03125,-0.03125 -0.03125,0 0,-0.03125 0.03125,-0.03125 0,-0.03125 L 37,13.28125 z m -9.59375,0.0625 A 0.26007782,0.26007782 0 0 0 27.5,13.4375 l -0.09375,0.03125 c -0.0039,-0.01188 0.0036,-0.01928 0,-0.03125 -0.0028,-0.01219 0.0025,-0.019 0,-0.03125 -0.0014,-0.01243 0.0011,-0.01879 0,-0.03125 0,-0.01251 -2.85e-4,-0.01874 0,-0.03125 z m 9.65625,5.8125 c 0,0.01042 0,0.05208 0,0.0625 0,0.01042 0,0.05208 0,0.0625 A 0.26007782,0.26007782 0 0 0 36.96875,19.1875 l 0.09375,-0.03125 z m 0.28125,0.8125 a 0.26007782,0.26007782 0 0 0 0.03125,0 c -0.01608,0.06457 -0.01892,0.07443 -0.03125,0.125 l 0,-0.09375 0,-0.03125 z m -0.1875,0.09375 a 0.26007782,0.26007782 0 0 0 0.03125,0 l 0.03125,0 c 0.0059,0.0083 -0.0059,0.02296 0,0.03125 0,0 -0.01386,-0.0021 -0.03125,0 -0.0104,-0.0047 -0.03155,-1.67e-4 -0.03125,0 a 0.26007782,0.26007782 0 0 1 -0.03125,0 c 0,0 0.03125,-0.03125 0.03125,-0.03125 z m -8.5625,2.8125 c 0,0.01042 0,0.05208 0,0.0625 0,0.01042 0,0.05208 0,0.0625 A 0.26007782,0.26007782 0 0 0 28.5,22.90625 L 28.59375,22.875 z m 7.28125,0.1875 c 0.06457,0.01608 0.07443,0.01892 0.125,0.03125 l -0.125,0 0,-0.03125 z m -7.5625,0.375 a 0.26007782,0.26007782 0 0 0 -0.03125,0.03125 c -0.0041,-0.0061 -0.02818,0.0046 -0.03125,0 z m 6.71875,0 c 0.01042,0 0.05208,0 0.0625,0 0.01042,0 0.05208,0 0.0625,0 A 0.26007782,0.26007782 0 0 0 35.0625,23.53125 L 35.03125,23.4375 z"
       transform="translate(-0.11363636,0)" />
    <path
       sodipodi:type="inkscape:offset"
       inkscape:radius="0.22233862"
       inkscape:original="M 28.90625 4.5 C 28.906056 4.5001377 28.906441 4.531108 28.90625 4.53125 C 28.906126 4.5312595 28.87507 4.531238 28.875 4.53125 C 28.874839 4.5314251 28.875157 4.562322 28.875 4.5625 L 28.84375 4.5625 C 28.84375 4.5625 28.83885 4.582413 28.84375 4.59375 C 28.83241 4.58883 28.8125 4.59375 28.8125 4.59375 C 28.8125 4.59375 28.8076 4.613663 28.8125 4.625 C 28.80116 4.62008 28.78125 4.625 28.78125 4.625 C 28.781238 4.6250711 28.78126 4.656126 28.78125 4.65625 C 28.76991 4.65133 28.75 4.65625 28.75 4.65625 C 28.749988 4.6563211 28.75001 4.687376 28.75 4.6875 A 0.09807572 0.09807572 0 0 0 28.71875 4.6875 L 28.71875 4.75 L 28.6875 4.75 C 28.687474 4.7500959 28.687523 4.781104 28.6875 4.78125 A 0.09807572 0.09807572 0 0 0 28.65625 4.8125 L 28.65625 4.84375 L 28.65625 4.875 C 28.656255 4.87824 28.656229 4.902401 28.65625 4.90625 L 28.65625 4.9375 L 28.65625 22.9375 L 28.65625 22.96875 L 28.65625 23 C 28.656229 23.0038 28.656255 23.02801 28.65625 23.03125 C 28.656224 23.03515 28.656257 23.05918 28.65625 23.0625 L 28.65625 23.09375 C 28.65625 23.09375 28.68082 23.08845 28.6875 23.09375 C 28.6942 23.09905 28.6786 23.11796 28.6875 23.125 A 0.09807572 0.09807572 0 0 0 28.6875 23.15625 C 28.6875 23.15625 28.71818 23.155668 28.71875 23.15625 C 28.72175 23.15925 28.71485 23.18364 28.71875 23.1875 C 28.71875 23.1875 28.73866 23.1924 28.75 23.1875 C 28.75 23.1875 28.7433 23.16258 28.75 23.15625 C 28.76141 23.15145 28.76822 23.16165 28.78125 23.15625 L 28.8125 23.1875 C 28.7995 23.2005 28.763 23.1745 28.75 23.1875 C 28.75001 23.187624 28.749988 23.21868 28.75 23.21875 C 28.75 23.21875 28.76991 23.22365 28.78125 23.21875 C 28.77635 23.23009 28.78125 23.25 28.78125 23.25 C 28.78125 23.25 28.806 23.2565 28.8125 23.25 C 28.8153 23.2528 28.8086 23.27738 28.8125 23.28125 C 28.8164 23.28515 28.84075 23.27825 28.84375 23.28125 C 28.843762 23.281315 28.84375 23.3125 28.84375 23.3125 L 28.90625 23.3125 L 28.90625 23.34375 A 0.09807572 0.09807572 0 0 0 28.9375 23.34375 A 0.09807572 0.09807572 0 0 0 28.96875 23.375 L 29 23.375 L 29.03125 23.375 C 29.03445 23.374995 29.05865 23.375021 29.0625 23.375 L 29.09375 23.375 L 35.09375 23.375 L 35.125 23.375 L 35.15625 23.375 C 35.16005 23.375021 35.18426 23.374995 35.1875 23.375 C 35.1914 23.375026 35.21543 23.374993 35.21875 23.375 L 35.25 23.375 C 35.25 23.375 35.2447 23.35043 35.25 23.34375 C 35.2596 23.34075 35.28125 23.34375 35.28125 23.34375 A 0.09807572 0.09807572 0 0 0 35.3125 23.34375 C 35.3125 23.34375 35.311918 23.31307 35.3125 23.3125 C 35.312624 23.31249 35.34368 23.312512 35.34375 23.3125 C 35.34375 23.3125 35.34865 23.29259 35.34375 23.28125 C 35.35025 23.28775 35.375 23.28125 35.375 23.28125 C 35.375 23.28125 35.3799 23.26134 35.375 23.25 C 35.38634 23.2549 35.40625 23.25 35.40625 23.25 C 35.406262 23.249929 35.40624 23.21887 35.40625 23.21875 C 35.41759 23.22365 35.4375 23.21875 35.4375 23.21875 C 35.437512 23.218679 35.43749 23.18762 35.4375 23.1875 A 0.09807572 0.09807572 0 0 0 35.46875 23.1875 C 35.46875 23.1875 35.46555 23.16629 35.46875 23.15625 C 35.47195 23.14621 35.468747 23.12504 35.46875 23.125 A 0.09807572 0.09807572 0 0 0 35.5 23.125 L 35.5 23.0625 C 35.5 23.0625 35.48638 23.08016 35.46875 23.09375 L 35.4375 23.03125 L 35.5 23.0625 L 35.53125 23.0625 L 35.53125 23.03125 L 35.53125 23 C 35.531245 22.9968 35.531271 22.9726 35.53125 22.96875 C 35.53126 22.968415 35.53125 22.93784 35.53125 22.9375 L 35.53125 4.9375 L 35.53125 4.90625 C 35.53126 4.9059146 35.53125 4.875336 35.53125 4.875 C 35.531226 4.8741036 35.53125 4.84375 35.53125 4.84375 L 35.53125 4.8125 L 35.53125 4.78125 L 35.5 4.78125 C 35.497 4.77162 35.5 4.75 35.5 4.75 A 0.09807572 0.09807572 0 0 0 35.5 4.71875 C 35.4933 4.71347 35.46877 4.7187531 35.46875 4.71875 C 35.46575 4.71575 35.47265 4.691356 35.46875 4.6875 C 35.46875 4.6875 35.44884 4.68258 35.4375 4.6875 C 35.4375 4.6875 35.4442 4.712426 35.4375 4.71875 C 35.4308 4.72507 35.41515 4.71032 35.40625 4.71875 C 35.39755 4.72237 35.38369 4.683879 35.375 4.6875 C 35.40107 4.676636 35.4375 4.6875 35.4375 4.6875 C 35.43749 4.6873761 35.437512 4.656321 35.4375 4.65625 C 35.4375 4.65625 35.41759 4.65133 35.40625 4.65625 C 35.41115 4.644913 35.40625 4.625 35.40625 4.625 C 35.40625 4.625 35.3815 4.6185 35.375 4.625 C 35.3799 4.613663 35.375 4.59375 35.375 4.59375 C 35.374929 4.593738 35.34387 4.5937595 35.34375 4.59375 A 0.09807572 0.09807572 0 0 0 35.34375 4.5625 C 35.34375 4.5625 35.32253 4.56573 35.3125 4.5625 C 35.3086 4.55863 35.28425 4.56551 35.28125 4.5625 L 35.28125 4.53125 L 35.21875 4.53125 C 35.21875 4.53125 35.2364 4.54487 35.25 4.5625 L 35.1875 4.59375 L 35.21875 4.53125 L 35.21875 4.5 L 35.1875 4.5 L 35.15625 4.5 C 35.15305 4.5000051 35.12885 4.499979 35.125 4.5 L 35.09375 4.5 L 29.09375 4.5 L 29.0625 4.5 L 29.03125 4.5 L 29 4.5 L 28.96875 4.5 A 0.09807572 0.09807572 0 0 0 28.9375 4.5 A 0.09807572 0.09807572 0 0 0 28.90625 4.5 z M 26.8125 12.96875 C 15.688258 14.813623 8.46875 23.301079 8.46875 34.9375 C 8.46875 47.926162 19.011338 58.46875 32 58.46875 C 44.988662 58.46875 55.53125 47.926162 55.53125 34.9375 C 55.53125 23.421959 48.731652 15.153892 37.78125 13.1875 C 37.75856 13.1834 37.74148 13.16027 37.71875 13.15625 A 0.09807572 0.09807572 0 0 0 37.71875 13.125 C 37.69175 13.1202 37.69804 13.124098 37.6875 13.125 A 0.09807572 0.09807572 0 0 0 37.65625 13.09375 A 0.09807572 0.09807572 0 0 0 37.625 13.09375 L 37.59375 13.09375 L 37.5625 13.09375 L 37.53125 13.09375 L 37.5 13.09375 A 0.09807572 0.09807572 0 0 0 37.46875 13.09375 L 37.4375 13.09375 L 37.40625 13.09375 C 37.40625 13.09375 37.41155 13.11832 37.40625 13.125 C 37.40095 13.1317 37.38204 13.1161 37.375 13.125 C 37.368 13.1339 37.34903 13.1183 37.34375 13.125 C 37.34375 13.125 37.344332 13.15568 37.34375 13.15625 C 37.343626 13.15626 37.31257 13.156238 37.3125 13.15625 C 37.3086 13.16015 37.3153 13.18465 37.3125 13.1875 L 37.34375 13.21875 C 37.34865 13.23009 37.34375 13.25 37.34375 13.25 L 37.3125 13.21875 C 37.3077 13.20734 37.3125 13.1875 37.3125 13.1875 C 37.306 13.181 37.28125 13.1875 37.28125 13.1875 C 37.28125 13.1875 37.27635 13.20741 37.28125 13.21875 C 37.26991 13.21385 37.25 13.21875 37.25 13.21875 C 37.25 13.21875 37.2451 13.23866 37.25 13.25 C 37.23866 13.2451 37.21875 13.25 37.21875 13.25 C 37.218738 13.250071 37.21876 13.28113 37.21875 13.28125 C 37.20741 13.27635 37.1875 13.28125 37.1875 13.28125 A 0.09807572 0.09807572 0 0 0 37.1875 13.3125 A 0.09807572 0.09807572 0 0 0 37.15625 13.34375 A 0.09807572 0.09807572 0 0 0 37.15625 13.375 C 37.15625 13.375336 37.15624 13.40592 37.15625 13.40625 L 37.1875 13.375 L 37.1875 13.40625 L 37.15625 13.40625 L 37.125 13.40625 L 37.125 13.4375 C 37.125007 13.4408 37.124974 13.4649 37.125 13.46875 C 37.125005 13.47195 37.124979 13.49615 37.125 13.5 C 37.125 13.500336 37.12499 13.53092 37.125 13.53125 L 37.125 19.21875 L 37.125 19.25 C 37.125 19.250336 37.12499 19.28092 37.125 19.28125 C 37.124979 19.28505 37.125005 19.30926 37.125 19.3125 L 37.125 19.34375 L 37.125 19.375 L 37.15625 19.375 C 37.16295 19.3803 37.14735 19.39921 37.15625 19.40625 A 0.09807572 0.09807572 0 0 0 37.15625 19.4375 C 37.16295 19.4428 37.18748 19.437497 37.1875 19.4375 C 37.1905 19.4405 37.1836 19.46489 37.1875 19.46875 C 37.1875 19.46875 37.20741 19.47365 37.21875 19.46875 C 37.21876 19.468874 37.218738 19.49993 37.21875 19.5 L 37.25 19.5 C 37.2451 19.51134 37.25 19.53125 37.25 19.53125 C 37.25 19.53125 37.27475 19.53775 37.28125 19.53125 A 0.09807572 0.09807572 0 0 0 37.28125 19.5625 C 37.281321 19.562512 37.31238 19.56249 37.3125 19.5625 C 37.312512 19.562565 37.3125 19.59375 37.3125 19.59375 A 0.09807572 0.09807572 0 0 0 37.34375 19.59375 A 0.09807572 0.09807572 0 0 0 37.375 19.625 L 37.40625 19.625 C 37.40955 19.624993 37.43365 19.625026 37.4375 19.625 C 37.4407 19.624995 37.4649 19.625021 37.46875 19.625 L 37.5 19.625 C 37.5082 19.624777 37.52861 19.625294 37.53125 19.625 C 41.298564 20.516706 44.178134 22.341824 46.125 24.90625 C 48.081264 27.483055 49.09375 30.855791 49.09375 34.9375 C 49.09375 44.392613 41.455113 52.03125 32 52.03125 C 22.544897 52.03125 14.875 44.39166 14.875 34.9375 C 14.875 26.738575 19.280422 21.157043 26.9375 19.4375 L 26.96875 19.4375 L 27 19.4375 L 27.03125 19.4375 L 27.0625 19.4375 A 0.09807572 0.09807572 0 0 0 27.09375 19.4375 A 0.09807572 0.09807572 0 0 0 27.125 19.4375 C 27.125194 19.437362 27.124809 19.40639 27.125 19.40625 C 27.125178 19.406093 27.15608 19.406411 27.15625 19.40625 C 27.15625 19.40625 27.16115 19.38634 27.15625 19.375 L 27.1875 19.375 C 27.1875 19.375 27.1924 19.35509 27.1875 19.34375 C 27.19884 19.34865 27.21875 19.34375 27.21875 19.34375 C 27.21875 19.34375 27.22365 19.32384 27.21875 19.3125 C 27.23009 19.3174 27.25 19.3125 27.25 19.3125 C 27.250012 19.312429 27.24999 19.28137 27.25 19.28125 C 27.244343 19.289993 27.22307 19.28312 27.21875 19.28125 C 27.21495 19.27965 27.22305 19.25181 27.21875 19.25 C 27.21875 19.25 27.25 19.28125 27.25 19.28125 C 27.26134 19.28615 27.28125 19.28125 27.28125 19.28125 C 27.281262 19.281179 27.28124 19.25012 27.28125 19.25 C 27.28515 19.2461 27.27825 19.22175 27.28125 19.21875 A 0.09807572 0.09807572 0 0 0 27.3125 19.21875 A 0.09807572 0.09807572 0 0 0 27.3125 19.1875 A 0.09807572 0.09807572 0 0 0 27.34375 19.15625 L 27.34375 19.125 C 27.343743 19.1217 27.343776 19.0976 27.34375 19.09375 C 27.343745 19.09055 27.343771 19.06635 27.34375 19.0625 L 27.34375 19.03125 L 27.34375 13.40625 L 27.34375 13.375 L 27.34375 13.34375 C 27.343771 13.33995 27.343745 13.31574 27.34375 13.3125 L 27.34375 13.28125 L 27.34375 13.25 C 27.34375 13.25 27.31918 13.2553 27.3125 13.25 C 27.3095 13.2404 27.3125 13.21875 27.3125 13.21875 A 0.09807572 0.09807572 0 0 0 27.3125 13.1875 C 27.3058 13.1822 27.28127 13.187503 27.28125 13.1875 C 27.27825 13.1845 27.28515 13.16011 27.28125 13.15625 C 27.28125 13.15625 27.26134 13.15135 27.25 13.15625 C 27.24999 13.156126 27.250012 13.12507 27.25 13.125 C 27.25 13.125 27.23009 13.1201 27.21875 13.125 C 27.22365 13.11366 27.21875 13.09375 27.21875 13.09375 C 27.21875 13.09375 27.194 13.08725 27.1875 13.09375 C 27.1924 13.08241 27.1875 13.0625 27.1875 13.0625 C 27.1836 13.0586 27.15925 13.0655 27.15625 13.0625 A 0.09807572 0.09807572 0 0 0 27.15625 13.03125 C 27.15625 13.03125 27.13504 13.03445 27.125 13.03125 C 27.1211 13.02735 27.09675 13.03425 27.09375 13.03125 A 0.09807572 0.09807572 0 0 0 27.0625 13 A 0.09807572 0.09807572 0 0 0 27.03125 12.96875 L 27 12.96875 C 26.9967 12.968757 26.9726 12.968724 26.96875 12.96875 C 26.96555 12.968755 26.94135 12.968729 26.9375 12.96875 L 26.90625 12.96875 L 26.875 12.96875 L 26.84375 12.96875 A 0.09807572 0.09807572 0 0 0 26.8125 12.96875 z "
       style="opacity:0.15;fill:#000000;fill-opacity:1;stroke:none;display:inline"
       id="path2988"
       d="m 28.8125,4.28125 a 0.22236085,0.22236085 0 0 0 0,0.03125 0.22236085,0.22236085 0 0 0 -0.03125,0 c 0,0 0.0029,0.025763 0,0.03125 -0.0014,0.00274 -0.02925,-0.0038 -0.03125,0 a 0.22236085,0.22236085 0 0 0 0,0.03125 0.22236085,0.22236085 0 0 0 -0.03125,0 0.22236085,0.22236085 0 0 0 0,0.03125 0.22236085,0.22236085 0 0 0 -0.03125,0 c -0.0037,0.00935 0.0049,0.018824 0,0.03125 a 0.22236085,0.22236085 0 0 0 -0.03125,0 0.22236085,0.22236085 0 0 0 0,0.03125 0.22236085,0.22236085 0 0 0 -0.03125,0 0.22236085,0.22236085 0 0 0 0,0.03125 0.22236085,0.22236085 0 0 0 -0.03125,0 0.22236085,0.22236085 0 0 0 0,0.03125 0.22236085,0.22236085 0 0 0 -0.03125,0 0.22236085,0.22236085 0 0 0 0,0.03125 0.22236085,0.22236085 0 0 0 -0.03125,0 0.22236085,0.22236085 0 0 0 0,0.03125 0.22236085,0.22236085 0 0 0 -0.03125,0 0.22236085,0.22236085 0 0 0 0,0.03125 0.22236085,0.22236085 0 0 0 0,0.03125 c 3.66e-4,-4.605e-4 -0.02968,-0.00203 -0.03125,0 a 0.22236085,0.22236085 0 0 0 0,0.03125 0.22236085,0.22236085 0 0 0 0,0.0625 0.22236085,0.22236085 0 0 0 -0.03125,0 0.22236085,0.22236085 0 0 0 0,0.0625 l 0,0.03125 0,0.03125 c 1e-6,3.448e-4 -5.4e-5,0.021324 0,0.03125 l 0,0.03125 0,18 0,0.03125 0,0.03125 c -5.5e-5,0.01003 1e-6,0.03091 0,0.03125 -7.5e-5,0.01124 -1e-6,0.03167 0,0.03125 l 0,0.03125 a 0.22236085,0.22236085 0 0 0 0,0.03125 0.22236085,0.22236085 0 0 0 0.03125,0.0625 0.22236085,0.22236085 0 0 0 0,0.03125 0.22236085,0.22236085 0 0 0 0,0.03125 0.22236085,0.22236085 0 0 0 0.03125,0 0.22236085,0.22236085 0 0 0 0,0.03125 0.22236085,0.22236085 0 0 0 0.03125,0 c 0.0046,0.0068 -0.0061,0.02218 0,0.03125 0.01225,0.01814 0.03113,0.03113 0.03125,0.03125 a 0.22236085,0.22236085 0 0 0 0.03125,0 0.22236085,0.22236085 0 0 0 0,0.03125 c 4.1e-5,9.8e-5 0.02668,-0.0068 0.03125,0 a 0.22236085,0.22236085 0 0 0 0.03125,0.03125 c 0.0046,0.0068 -6.1e-5,0.03119 0,0.03125 6.1e-5,6.1e-5 0.02448,-0.0045 0.03125,0 0.0068,0.0045 -0.009,0.02521 0,0.03125 0.01803,0.01208 0.03105,0.03117 0.03125,0.03125 1.97e-4,8.2e-5 0.02099,-0.0032 0.03125,0 a 0.22236085,0.22236085 0 0 0 0,0.03125 0.22236085,0.22236085 0 0 0 0.03125,0 c -8.32e-4,-8.32e-4 0.03211,8.08e-4 0.03125,0 a 0.22236085,0.22236085 0 0 0 0,0.03125 c 0.002,0.0016 0.03172,3.53e-4 0.03125,0 a 0.22236085,0.22236085 0 0 0 0.03125,0 0.22236085,0.22236085 0 0 0 0.03125,0 0.22236085,0.22236085 0 0 0 0,0.03125 0.22236085,0.22236085 0 0 0 0.0625,0 l 0.03125,0 0.03125,0 c 2.44e-4,0 0.02132,5.4e-5 0.03125,0 l 0.03125,0 6,0 0.03125,0 0.03125,0 c 0.01003,5.5e-5 0.03091,-1e-6 0.03125,0 0.01124,7.5e-5 0.03166,1e-6 0.03125,0 l 0.03125,0 a 0.22236085,0.22236085 0 0 0 0.03125,0 0.22236085,0.22236085 0 0 0 0.0625,-0.03125 0.22236085,0.22236085 0 0 0 0.0625,0 0.22236085,0.22236085 0 0 0 0,-0.03125 0.22236085,0.22236085 0 0 0 0.03125,-0.03125 0.22236085,0.22236085 0 0 0 0.03125,0 0.22236085,0.22236085 0 0 0 0,-0.03125 0.22236085,0.22236085 0 0 0 0.03125,0 0.22236085,0.22236085 0 0 0 0,-0.03125 0.22236085,0.22236085 0 0 0 0.03125,0 0.22236085,0.22236085 0 0 0 0,-0.03125 0.22236085,0.22236085 0 0 0 0.03125,0 0.22236085,0.22236085 0 0 0 0,-0.03125 0.22236085,0.22236085 0 0 0 0.03125,0 0.22236085,0.22236085 0 0 0 0,-0.03125 0.22236085,0.22236085 0 0 0 0.03125,0 0.22236085,0.22236085 0 0 0 0,-0.03125 0.22236085,0.22236085 0 0 0 0.03125,0 0.22236085,0.22236085 0 0 0 0,-0.03125 0.22236085,0.22236085 0 0 0 0.03125,0 0.22236085,0.22236085 0 0 0 0,-0.03125 0.22236085,0.22236085 0 0 0 0,-0.03125 0.22236085,0.22236085 0 0 0 0.03125,0 0.22236085,0.22236085 0 0 0 0,-0.03125 0.22236085,0.22236085 0 0 0 0,-0.03125 0.22236085,0.22236085 0 0 0 0.03125,-0.0625 0.22236085,0.22236085 0 0 0 0,-0.03125 l 0,-0.03125 0,-0.03125 c 0,-2.44e-4 5.4e-5,-0.02132 0,-0.03125 1e-5,-3.35e-4 0,-0.03527 0,-0.03125 l 0,-18 0,-0.03125 c 1e-5,-3.354e-4 0,-0.035325 0,-0.03125 -2.4e-5,-8.964e-4 0,-0.03125 0,-0.03125 l 0,-0.03125 0,-0.03125 a 0.22236085,0.22236085 0 0 0 0,-0.03125 0.22236085,0.22236085 0 0 0 -0.03125,-0.0625 0.22236085,0.22236085 0 0 0 0,-0.03125 0.22236085,0.22236085 0 0 0 0,-0.03125 0.22236085,0.22236085 0 0 0 -0.03125,0 0.22236085,0.22236085 0 0 0 0,-0.03125 0.22236085,0.22236085 0 0 0 -0.03125,0 0.22236085,0.22236085 0 0 0 0,-0.03125 c -0.0061,-0.00907 -0.02663,0.00682 -0.03125,0 -0.0046,-0.00682 6.1e-5,-0.03119 0,-0.03125 a 0.22236085,0.22236085 0 0 0 -0.03125,0 0.22236085,0.22236085 0 0 0 0,-0.03125 c -0.0076,-0.00286 -0.02616,0.0014 -0.03125,0 a 0.22236085,0.22236085 0 0 0 0,-0.03125 0.22236085,0.22236085 0 0 0 -0.03125,0 A 0.22236085,0.22236085 0 0 0 35.5,4.4375 a 0.22236085,0.22236085 0 0 0 0,-0.03125 0.22236085,0.22236085 0 0 0 -0.03125,0 0.22236085,0.22236085 0 0 0 0,-0.03125 0.22236085,0.22236085 0 0 0 -0.03125,0 0.22236085,0.22236085 0 0 0 0,-0.03125 c -0.0068,-0.00451 -0.03115,4.07e-5 -0.03125,0 a 0.22236085,0.22236085 0 0 0 -0.03125,0 0.22236085,0.22236085 0 0 0 0,-0.03125 0.22236085,0.22236085 0 0 0 -0.0625,0 0.22236085,0.22236085 0 0 0 -0.0625,-0.03125 0.22236085,0.22236085 0 0 0 -0.03125,0 l -0.03125,0 -0.03125,0 c -2.05e-4,3e-7 -0.02131,-5.42e-5 -0.03125,0 l -0.03125,0 -6,0 -0.03125,0 -0.03125,0 -0.03125,0 c 0.0016,1.983e-4 -0.0329,-1.324e-4 -0.03125,0 0.0017,6.63e-5 -0.03291,0 -0.03125,0 0.0017,0 -0.0329,6.63e-5 -0.03125,0 0.0017,-1.324e-4 -0.03289,1.983e-4 -0.03125,0 a 0.22236085,0.22236085 0 0 0 -0.0625,0 z M 26.78125,12.75 C 15.563744,14.61034 8.25,23.209116 8.25,34.9375 c 0,13.108973 10.641027,23.75 23.75,23.75 13.108973,0 23.75,-10.641027 23.75,-23.75 C 55.75,23.368719 48.89051,15.014549 37.90625,13 c -0.01012,-0.0019 -0.02112,0.0018 -0.03125,0 -0.01231,-0.0022 -0.01893,-0.02902 -0.03125,-0.03125 8.08e-4,8.55e-4 -8.32e-4,-0.03208 0,-0.03125 a 0.22236085,0.22236085 0 0 0 -0.03125,0 c 9.21e-4,7.32e-4 -0.03219,-0.03196 -0.03125,-0.03125 a 0.22236085,0.22236085 0 0 0 -0.03125,0 0.22236085,0.22236085 0 0 0 -0.03125,-0.03125 0.22236085,0.22236085 0 0 0 -0.03125,0 c 0.0016,1.98e-4 -0.0329,-1.32e-4 -0.03125,0 0.0017,6.6e-5 -0.03291,0 -0.03125,0 0.0017,-1.32e-4 -0.0329,1.98e-4 -0.03125,0 l -0.03125,0 -0.03125,0 c 0.0016,1.98e-4 -0.0329,-1.32e-4 -0.03125,0 0.0017,0 -0.0329,6.6e-5 -0.03125,0 0.0017,-1.32e-4 -0.0329,1.98e-4 -0.03125,0 l -0.03125,0 a 0.22236085,0.22236085 0 0 0 -0.03125,0 0.22236085,0.22236085 0 0 0 -0.0625,0.03125 c -0.0099,0.0026 -0.03155,1.1e-4 -0.03125,0 a 0.22236085,0.22236085 0 0 0 0,0.03125 0.22236085,0.22236085 0 0 0 -0.03125,0 c -0.0083,0.0033 -0.03112,-7.7e-5 -0.03125,0 -1.08e-4,6.4e-5 0.0058,0.02616 0,0.03125 -0.0058,0.0051 -0.02352,-0.0068 -0.03125,0 a 0.22236085,0.22236085 0 0 0 0,0.03125 0.22236085,0.22236085 0 0 0 -0.03125,0 c -6.1e-5,6.1e-5 0.0045,0.02452 0,0.03125 a 0.22236085,0.22236085 0 0 0 -0.03125,0 c -0.006,0.009 0.0045,0.0245 0,0.03125 -0.0045,0.0067 -0.03121,-9.9e-5 -0.03125,0 a 0.22236085,0.22236085 0 0 0 0,0.03125 0.22236085,0.22236085 0 0 0 -0.03125,0 0.22236085,0.22236085 0 0 0 0,0.03125 0.22236085,0.22236085 0 0 0 -0.03125,0 0.22236085,0.22236085 0 0 0 0,0.03125 0.22236085,0.22236085 0 0 0 -0.03125,0 0.22236085,0.22236085 0 0 0 0,0.03125 0.22236085,0.22236085 0 0 0 0,0.03125 0.22236085,0.22236085 0 0 0 -0.03125,0 0.22236085,0.22236085 0 0 0 0,0.03125 0.22236085,0.22236085 0 0 0 0,0.03125 0.22236085,0.22236085 0 0 0 -0.03125,0 0.22236085,0.22236085 0 0 0 0,0.03125 0.22236085,0.22236085 0 0 0 -0.03125,0.0625 0.22236085,0.22236085 0 0 0 0,0.03125 l 0,0.03125 c -10e-7,-4.78e-4 -7.7e-5,0.01986 0,0.03125 0,2.44e-4 -5.4e-5,0.02132 0,0.03125 0,-0.0041 -1e-5,0.03092 0,0.03125 l 0,5.6875 0,0.03125 c 0,-0.0041 -1e-5,0.03092 0,0.03125 -5.5e-5,0.01003 10e-7,0.03091 0,0.03125 l 0,0.03125 0,0.03125 a 0.22236085,0.22236085 0 0 0 0,0.03125 0.22236085,0.22236085 0 0 0 0.03125,0.0625 c 7e-5,1.92e-4 -0.0031,0.02684 0,0.03125 a 0.22236085,0.22236085 0 0 0 0,0.03125 0.22236085,0.22236085 0 0 0 0.03125,0 c 0.0035,0.01177 -8.2e-5,0.03105 0,0.03125 a 0.22236085,0.22236085 0 0 0 0.03125,0 0.22236085,0.22236085 0 0 0 0,0.03125 c 0.01225,0.01814 0.03113,0.03113 0.03125,0.03125 a 0.22236085,0.22236085 0 0 0 0.03125,0 0.22236085,0.22236085 0 0 0 0,0.03125 c 0.0076,0.0029 0.02615,-0.0014 0.03125,0 a 0.22236085,0.22236085 0 0 0 0,0.03125 0.22236085,0.22236085 0 0 0 0.03125,0 0.22236085,0.22236085 0 0 0 0,0.03125 0.22236085,0.22236085 0 0 0 0.03125,0 0.22236085,0.22236085 0 0 0 0,0.03125 0.22236085,0.22236085 0 0 0 0.03125,0 c -8.08e-4,-8.55e-4 8.32e-4,0.03208 0,0.03125 -8.32e-4,-8.32e-4 0.03211,8.08e-4 0.03125,0 a 0.22236085,0.22236085 0 0 0 0,0.03125 c 0.002,0.0016 0.03172,3.53e-4 0.03125,0 a 0.22236085,0.22236085 0 0 0 0.03125,0 0.22236085,0.22236085 0 0 0 0.03125,0 0.22236085,0.22236085 0 0 0 0,0.03125 0.22236085,0.22236085 0 0 0 0.0625,0 l 0.03125,0 c -4.78e-4,1e-6 0.01986,7.7e-5 0.03125,0 2.44e-4,0 0.02132,5.4e-5 0.03125,0 0.01012,0.0024 0.02114,-0.0024 0.03125,0 3.710872,0.884451 6.528956,2.673551 8.4375,5.1875 1.922106,2.531812 2.9375,5.861309 2.9375,9.90625 0,9.335364 -7.539636,16.875 -16.875,16.875 -9.335339,0 -16.90625,-7.541091 -16.90625,-16.875 0,-8.097655 4.306747,-13.564803 11.84375,-15.28125 l 0.03125,0 0.03125,0 0.03125,0 c -0.0016,-1.98e-4 0.0329,1.32e-4 0.03125,0 -0.0016,-1.98e-4 0.0329,1.32e-4 0.03125,0 -0.0017,-6.6e-5 0.03291,0 0.03125,0 -0.0017,1.32e-4 0.03289,-1.98e-4 0.03125,0 A 0.22236085,0.22236085 0 0 0 27.21875,19.625 0.22236085,0.22236085 0 0 0 27.25,19.59375 c 0.01269,-0.0049 0.03125,-0.03125 0.03125,-0.03125 a 0.22236085,0.22236085 0 0 0 0.03125,0 0.22236085,0.22236085 0 0 0 0.03125,0 0.22236085,0.22236085 0 0 0 0,-0.03125 0.22236085,0.22236085 0 0 0 0,-0.03125 0.22236085,0.22236085 0 0 0 0.03125,0 0.22236085,0.22236085 0 0 0 0,-0.03125 0.22236085,0.22236085 0 0 0 0.03125,0 0.22236085,0.22236085 0 0 0 0,-0.03125 0.22236085,0.22236085 0 0 0 0.03125,0 0.22236085,0.22236085 0 0 0 0,-0.03125 0.22236085,0.22236085 0 0 0 0.03125,0 0.22236085,0.22236085 0 0 0 0,-0.03125 c 0.006,-0.009 -0.0045,-0.02446 0,-0.03125 A 0.22236085,0.22236085 0 0 0 27.5,19.3125 c -3.66e-4,4.6e-4 0.02968,0.002 0.03125,0 a 0.22236085,0.22236085 0 0 0 0,-0.03125 0.22236085,0.22236085 0 0 0 0,-0.03125 c -1.98e-4,0.0016 1.32e-4,-0.0329 0,-0.03125 a 0.22236085,0.22236085 0 0 0 0.03125,0 0.22236085,0.22236085 0 0 0 0,-0.0625 l 0,-0.03125 c 1e-6,4.78e-4 7.7e-5,-0.01986 0,-0.03125 0,-2.44e-4 5.4e-5,-0.02132 0,-0.03125 l 0,-0.03125 0,-5.625 0,-0.03125 0,-0.03125 c 5.5e-5,-0.01003 -1e-6,-0.03091 0,-0.03125 l 0,-0.03125 0,-0.03125 a 0.22236085,0.22236085 0 0 0 0,-0.03125 0.22236085,0.22236085 0 0 0 -0.03125,-0.0625 0.22236085,0.22236085 0 0 0 0,-0.03125 0.22236085,0.22236085 0 0 0 -0.03125,0 0.22236085,0.22236085 0 0 0 0.03125,-0.03125 0.22236085,0.22236085 0 0 0 -0.03125,0 c -0.0035,-0.01177 8.2e-5,-0.03105 0,-0.03125 a 0.22236085,0.22236085 0 0 0 -0.03125,0 0.22236085,0.22236085 0 0 0 0,-0.03125 c -0.0061,-0.0091 -0.02664,0.0068 -0.03125,0 -0.0046,-0.0068 6.1e-5,-0.03119 0,-0.03125 a 0.22236085,0.22236085 0 0 0 -0.03125,0 0.22236085,0.22236085 0 0 0 0,-0.03125 c -0.0076,-0.0029 -0.02615,0.0014 -0.03125,0 a 0.22236085,0.22236085 0 0 0 -0.03125,-0.03125 0.22236085,0.22236085 0 0 0 0,-0.03125 c -6.1e-5,-6.1e-5 -0.02448,0.0045 -0.03125,0 -0.0068,-0.0045 0.009,-0.02521 0,-0.03125 a 0.22236085,0.22236085 0 0 0 -0.03125,0 c -0.0068,-0.0045 9.8e-5,-0.03121 0,-0.03125 -0.0068,-0.0045 -0.02224,0.006 -0.03125,0 a 0.22236085,0.22236085 0 0 0 0,-0.03125 c -0.0068,-0.0045 -0.03115,4.1e-5 -0.03125,0 -1.97e-4,-8.2e-5 -0.02099,0.0032 -0.03125,0 4.6e-4,3.66e-4 -0.02922,0.0016 -0.03125,0 -0.002,-0.0016 -4.71e-4,-0.0316 0,-0.03125 a 0.22236085,0.22236085 0 0 0 -0.0625,-0.03125 0.22236085,0.22236085 0 0 0 -0.0625,0 L 27,12.75 c 4.78e-4,-10e-7 -0.01986,-7.7e-5 -0.03125,0 -2.44e-4,0 -0.02132,-5.4e-5 -0.03125,0 l -0.03125,0 -0.03125,0 -0.03125,0 c 0.0017,6.6e-5 -0.03291,0 -0.03125,0 0.0017,-1.32e-4 -0.03289,1.98e-4 -0.03125,0 z M 27.125,13 l 0,0.03125 0,-0.03125 z m 0,0.03125 0.03125,0.03125 0.03125,0.03125 0.03125,0 0.03125,0.03125 0,0.03125 0.03125,0 0.03125,0 0.03125,0.03125 0,0.03125 -0.03125,0.03125 0.0625,-0.03125 0.0625,0 0.0625,-0.03125 0.03125,0 c 1.32e-4,0.0017 -1.98e-4,-0.03289 0,-0.03125 z M 27.15625,13 l 0.03125,0.03125 0,0.03125 0,0.03125 z"
       transform="translate(-0.11363636,0)" />
    <path
       sodipodi:type="inkscape:offset"
       inkscape:radius="0.19469517"
       inkscape:original="M 29.03125 4.75 C 29.030569 4.7508001 29.03192 4.780441 29.03125 4.78125 C 29.030441 4.7819197 29.0008 4.7805695 29 4.78125 C 28.999319 4.7820501 29.00067 4.811691 29 4.8125 C 28.999191 4.8131697 28.96955 4.8118195 28.96875 4.8125 C 28.968069 4.8133001 28.96942 4.842941 28.96875 4.84375 L 28.9375 4.84375 C 28.937143 4.8445027 28.937848 4.874244 28.9375 4.875 A 0.02857203 0.02857203 0 0 1 28.9375 4.90625 C 28.93705 4.9069511 28.90669 4.9055441 28.90625 4.90625 C 28.905893 4.9070027 28.906598 4.936744 28.90625 4.9375 L 28.90625 22.9375 L 28.90625 22.96875 C 28.906598 22.969506 28.905893 22.99925 28.90625 23 C 28.906692 23.000706 28.93705 22.999299 28.9375 23 C 28.93817 23.000809 28.936819 23.03045 28.9375 23.03125 C 28.9383 23.031931 28.96794 23.03058 28.96875 23.03125 C 28.96942 23.032059 28.968069 23.0617 28.96875 23.0625 C 28.96955 23.063181 28.99919 23.06183 29 23.0625 C 29.000701 23.06295 28.999294 23.09331 29 23.09375 C 29.000753 23.094107 29.03049 23.093402 29.03125 23.09375 A 0.02857203 0.02857203 0 0 1 29.0625 23.09375 C 29.063201 23.0942 29.061794 23.12456 29.0625 23.125 C 29.063253 23.125357 29.09299 23.124652 29.09375 23.125 L 35.09375 23.125 L 35.125 23.125 C 35.125756 23.124652 35.1555 23.125357 35.15625 23.125 C 35.156956 23.124558 35.155549 23.0942 35.15625 23.09375 L 35.1875 23.09375 C 35.188181 23.09295 35.18683 23.06331 35.1875 23.0625 C 35.188309 23.06183 35.21795 23.063181 35.21875 23.0625 C 35.219431 23.0617 35.21808 23.03206 35.21875 23.03125 L 35.25 23.03125 C 35.250357 23.030497 35.249652 23.00076 35.25 23 A 0.02857203 0.02857203 0 0 1 35.25 22.96875 C 35.25045 22.968049 35.28081 22.969456 35.28125 22.96875 C 35.281607 22.967997 35.280902 22.93826 35.28125 22.9375 L 35.28125 4.9375 L 35.28125 4.90625 C 35.280902 4.9054936 35.281607 4.875753 35.28125 4.875 L 35.25 4.875 C 35.24933 4.8741908 35.250681 4.84455 35.25 4.84375 C 35.2492 4.8430695 35.21956 4.8444197 35.21875 4.84375 C 35.21808 4.8429408 35.219431 4.8133 35.21875 4.8125 L 35.1875 4.8125 C 35.186799 4.8120505 35.188206 4.781692 35.1875 4.78125 C 35.186747 4.7808935 35.15701 4.7815985 35.15625 4.78125 A 0.02857203 0.02857203 0 0 1 35.125 4.78125 C 35.124299 4.7808005 35.125706 4.750442 35.125 4.75 C 35.124247 4.7496435 35.09451 4.7503485 35.09375 4.75 L 29.09375 4.75 L 29.0625 4.75 L 29.03125 4.75 z M 26.875 13.21875 C 15.858832 15.0457 8.71875 23.408064 8.71875 34.9375 C 8.71875 47.786144 19.151356 58.21875 32 58.21875 C 44.848644 58.21875 55.28125 47.786144 55.28125 34.9375 C 55.28125 23.476209 48.517883 15.278301 37.59375 13.375 A 0.02857203 0.02857203 0 0 1 37.5625 13.375 C 37.56183 13.374191 37.563181 13.34455 37.5625 13.34375 L 37.53125 13.34375 C 37.530494 13.344098 37.50075 13.343393 37.5 13.34375 C 37.499294 13.344192 37.500701 13.37455 37.5 13.375 L 37.46875 13.375 C 37.468069 13.3758 37.46942 13.40544 37.46875 13.40625 C 37.467941 13.40692 37.4383 13.405569 37.4375 13.40625 C 37.436819 13.40705 37.43817 13.43669 37.4375 13.4375 C 37.436691 13.43817 37.40705 13.436819 37.40625 13.4375 L 37.40625 13.46875 A 0.02857203 0.02857203 0 0 1 37.40625 13.5 C 37.4058 13.500701 37.37544 13.499294 37.375 13.5 C 37.374643 13.500753 37.375348 13.53049 37.375 13.53125 L 37.375 19.21875 L 37.375 19.25 C 37.375348 19.250756 37.374643 19.2805 37.375 19.28125 C 37.375442 19.281956 37.4058 19.280549 37.40625 19.28125 C 37.40692 19.282059 37.405569 19.3117 37.40625 19.3125 C 37.40705 19.313181 37.43669 19.31183 37.4375 19.3125 C 37.43817 19.313309 37.436819 19.34295 37.4375 19.34375 C 37.4383 19.344431 37.46794 19.34308 37.46875 19.34375 C 37.469451 19.3442 37.468044 19.37456 37.46875 19.375 C 37.469503 19.375357 37.49924 19.374652 37.5 19.375 L 37.53125 19.375 C 41.376022 20.272852 44.316712 22.089883 46.3125 24.71875 C 48.308401 27.347765 49.34375 30.812368 49.34375 34.9375 C 49.34375 44.531838 41.594338 52.28125 32 52.28125 C 22.405661 52.28125 14.625 44.531458 14.625 34.9375 C 14.625 26.623957 19.146778 20.912817 26.9375 19.1875 L 26.96875 19.1875 L 27 19.1875 C 27.000681 19.1867 26.99933 19.15706 27 19.15625 C 27.000809 19.15558 27.03045 19.156931 27.03125 19.15625 C 27.031931 19.15545 27.03058 19.12581 27.03125 19.125 C 27.032059 19.12433 27.0617 19.125681 27.0625 19.125 C 27.063181 19.1242 27.06183 19.09456 27.0625 19.09375 A 0.02857203 0.02857203 0 0 1 27.0625 19.0625 C 27.06295 19.061799 27.09331 19.063206 27.09375 19.0625 C 27.094107 19.061747 27.093402 19.03201 27.09375 19.03125 L 27.09375 13.40625 L 27.09375 13.375 C 27.093402 13.374244 27.094107 13.3445 27.09375 13.34375 L 27.0625 13.34375 C 27.06183 13.342941 27.063181 13.3133 27.0625 13.3125 C 27.0617 13.311819 27.03206 13.31317 27.03125 13.3125 C 27.03058 13.311691 27.031931 13.28205 27.03125 13.28125 L 27 13.28125 C 26.999299 13.2808 27.000706 13.25044 27 13.25 C 26.999247 13.249643 26.96951 13.250348 26.96875 13.25 A 0.02857203 0.02857203 0 0 1 26.9375 13.25 C 26.936799 13.24955 26.938206 13.21919 26.9375 13.21875 C 26.936747 13.218393 26.90701 13.219098 26.90625 13.21875 L 26.875 13.21875 z "
       style="opacity:0.3;fill:#000000;fill-opacity:1;stroke:none;display:inline"
       id="path2994"
       d="m 28.96875,4.5625 a 0.19471464,0.19471464 0 0 0 0,0.03125 c 0,0 -0.0018,0.022869 0,0.03125 -9.17e-4,-0.00298 -0.03052,0.00237 -0.03125,0 0,0 -0.0018,0.022869 0,0.03125 -9.17e-4,-0.00298 -0.03052,0.00237 -0.03125,0 -0.0022,-0.00712 0,-0.03125 0,-0.03125 a 0.19471464,0.19471464 0 0 0 -0.03125,0 0.19471464,0.19471464 0 0 0 0,0.03125 0.19471464,0.19471464 0 0 0 -0.03125,0 0.19471464,0.19471464 0 0 0 0,0.03125 0.19471464,0.19471464 0 0 0 -0.03125,0 c 0,0 0,0.03125 0,0.03125 0,0 -0.03125,0 -0.03125,0 0,0 0,0.03125 0,0.03125 a 0.19471464,0.19471464 0 0 0 -0.03125,0 c 0,0 0,0.03125 0,0.03125 a 0.19471464,0.19471464 0 0 0 0,0.03125 0.19471464,0.19471464 0 0 0 -0.03125,0 c 0,0 0,0.03125 0,0.03125 0,0 0,0.03125 0,0.03125 0,0 0,0.03125 0,0.03125 1.5e-5,0.00425 -4.4e-5,0.027429 0,0.03125 l 0,18 0,0.03125 c -4.4e-5,0.0038 1.5e-5,0.027 0,0.03125 1.36e-4,0.0024 -9e-6,0.03117 0,0.03125 0,0 0,0.03125 0,0.03125 A 0.19471464,0.19471464 0 0 0 28.75,23.09375 c 0,0 0,-0.03125 0,-0.03125 0,0 0.02412,0.0021 0.03125,0 10e-5,0.003 -2.8e-5,0.03099 0,0.03125 0.0071,-0.0022 0.01953,0.0036 0.03125,0 1.11e-4,0.0032 -2.9e-5,0.031 0,0.03125 -0.0071,0.0022 -0.03125,0 -0.03125,0 0.0065,0.0078 0,0.03125 0,0.03125 a 0.19471464,0.19471464 0 0 0 0.03125,0 0.19471464,0.19471464 0 0 0 0,0.03125 0.19471464,0.19471464 0 0 0 0.03125,0 c 0,0 0,0.03125 0,0.03125 a 0.19471464,0.19471464 0 0 0 0.03125,0 c -0.0038,-0.0033 0.0038,-0.02798 0,-0.03125 0,0 0.03125,-0.03125 0.03125,-0.03125 0.0078,-0.02539 -0.0078,-0.03711 0,-0.0625 0.0127,-0.0039 0.02232,0.0028 0.03125,0 -0.0031,0.02982 -0.02813,0.03268 -0.03125,0.0625 -0.0014,0.01376 8.84e-4,0.02272 0,0.03125 0,0 -0.03125,0.03125 -0.03125,0.03125 a 0.19471464,0.19471464 0 0 0 0,0.03125 c 0,0 0.03125,0 0.03125,0 a 0.19471464,0.19471464 0 0 0 0,0.03125 0.19471464,0.19471464 0 0 0 0.03125,0 0.19471464,0.19471464 0 0 0 0.03125,0 0.19471464,0.19471464 0 0 0 0,0.03125 c 0,0 0.03125,0 0.03125,0 0,0 0.03125,0 0.03125,0 0,0 0.03125,0 0.03125,0 -7.9e-5,-9e-6 0.02915,-1.13e-4 0.03125,0 l 6,0 0.03125,0 c 0.0021,-1.14e-4 0.03133,-9e-6 0.03125,0 0,0 0.03125,0 0.03125,0 a 0.19471464,0.19471464 0 0 0 0.03125,0 0.19471464,0.19471464 0 0 0 0.03125,-0.03125 c 0,0 0.01953,-0.02145 0.03125,-0.03125 0,0 0.03125,0 0.03125,0 0,0 0,-0.03125 0,-0.03125 0,0 0.02641,0.0092 0.03125,0 0,0 0,-0.03125 0,-0.03125 a 0.19471464,0.19471464 0 0 0 0.03125,0 c 0,0 0,-0.03125 0,-0.03125 a 0.19471464,0.19471464 0 0 0 0.03125,-0.03125 0.19471464,0.19471464 0 0 0 0.03125,0 c 0,0 0,-0.03125 0,-0.03125 a 0.19471464,0.19471464 0 0 0 0,-0.03125 0.19471464,0.19471464 0 0 0 0.03125,0 c 0,0 0,-0.03125 0,-0.03125 0,0 0,-0.03125 0,-0.03125 a 0.19471464,0.19471464 0 0 0 0,-0.03125 0.19471464,0.19471464 0 0 0 0,-0.03125 l 0,-18 0,-0.03125 c -1.14e-4,-0.0021 -9e-6,-0.031328 0,-0.03125 -1.35e-4,-0.00242 9e-6,-0.031172 0,-0.03125 0,0 0,-0.03125 0,-0.03125 A 0.19471464,0.19471464 0 0 0 35.4375,4.78125 c 0,0 0,0.03125 0,0.03125 0,0 -0.02287,-0.00183 -0.03125,0 -1e-4,-0.003 2.8e-5,-0.030989 0,-0.03125 0,0 -0.02287,-0.00183 -0.03125,0 0.003,-9.179e-4 -0.0024,-0.030519 0,-0.03125 0.0071,-0.00219 0.03125,0 0.03125,0 a 0.19471464,0.19471464 0 0 0 0,-0.03125 0.19471464,0.19471464 0 0 0 -0.03125,0 0.19471464,0.19471464 0 0 0 0,-0.03125 c -0.0048,-0.00925 -0.03125,0 -0.03125,0 0,0 0,-0.03125 0,-0.03125 a 0.19471464,0.19471464 0 0 0 -0.03125,0 c 0.0038,0.00327 -0.0038,0.027976 0,0.03125 -7.31e-4,0.00237 -0.03033,-0.00298 -0.03125,0 0,0 0.03125,-0.03125 0.03125,-0.03125 a 0.19471464,0.19471464 0 0 0 0,-0.03125 0.19471464,0.19471464 0 0 0 -0.03125,0 0.19471464,0.19471464 0 0 0 0,-0.03125 0.19471464,0.19471464 0 0 0 -0.03125,0 c 0,0 -0.03125,0 -0.03125,0 a 0.19471464,0.19471464 0 0 0 0,-0.03125 c 0,0 -0.03125,0 -0.03125,0 0,0 -0.03125,0 -0.03125,0 0,0 -0.03125,0 -0.03125,0 -0.0042,1.54e-5 -0.02743,-4.42e-5 -0.03125,0 l -6,0 -0.03125,0 -0.03125,0 a 0.19471464,0.19471464 0 0 0 -0.03125,0 0.19471464,0.19471464 0 0 0 -0.03125,0 z m 6.4375,0.1875 c 0,0 0,0.03125 0,0.03125 0.0071,-0.00219 0.03125,0 0.03125,0 0,0 0,-0.03125 0,-0.03125 0,0 -0.03125,0 -0.03125,0 z m -6.625,18.375 c 0,0 0,-0.03125 0,-0.03125 -0.0071,0.0022 -0.03125,0 -0.03125,0 0,0 0,0.03125 0,0.03125 0,0 0.03125,0 0.03125,0 z m 0.125,-18.5 c 0,0 0.03125,0 0.03125,0 -0.0022,-0.00712 0,-0.03125 0,-0.03125 0,0 -0.03125,0 -0.03125,0 0,0 0,0.03125 0,0.03125 z M 35.1875,4.6875 35.15625,4.78125 35.1875,4.8125 35.21875,4.84375 35.25,4.9375 c -0.0078,0.0043 0.0079,0.027232 0,0.03125 -0.008,0.00373 -0.02307,-0.00344 -0.03125,0 -0.0085,0.00253 -0.02266,-0.00222 -0.03125,0 -0.0088,0.00128 -0.02243,-9.604e-4 -0.03125,0 -0.0089,3.207e-4 -0.02238,0 -0.03125,0 -0.0088,-9.604e-4 -0.02247,0.00128 -0.03125,0 -0.0086,-0.00222 -0.02275,0.00253 -0.03125,0 -0.0082,-0.00344 -0.0232,0.00373 -0.03125,0 -0.0079,-0.00402 0.0078,-0.026948 0,-0.03125 L 35.125,4.78125 35.1875,4.6875 z m -6.25,0.03125 c 0.01395,0.0043 0.01855,-0.00392 0.03125,0 L 28.9375,4.75 c -0.0039,-0.012699 0.0043,-0.017295 0,-0.03125 z m 0.15625,0.0625 c 0.0043,0.00776 0.02723,-0.00791 0.03125,0 0.0037,0.00805 -0.0034,0.023072 0,0.03125 0.0025,0.0085 -0.0022,0.022663 0,0.03125 0.0013,0.00878 -9.6e-4,0.022432 0,0.03125 0,0.00887 3.21e-4,0.022386 0,0.03125 -9.6e-4,0.00882 0.0013,0.022472 0,0.03125 -0.0022,0.00859 0.0025,0.022748 0,0.03125 -0.0034,0.00818 0.0037,0.023202 0,0.03125 -0.004,0.00791 -0.02695,-0.00776 -0.03125,0 L 28.9375,4.90625 28.8125,4.84375 28.9375,4.875 28.96875,4.84375 29,4.8125 29.09375,4.78125 z M 35.3125,4.8125 c 0.01398,-0.00421 0.01853,0.00383 0.03125,0 -0.01798,0.00393 -0.01548,0.027799 -0.03125,0.03125 l 0,-0.03125 z m -8.46875,8.21875 C 15.746378,14.871667 8.53125,23.327682 8.53125,34.9375 c 0,12.954034 10.514716,23.46875 23.46875,23.46875 12.954034,0 23.46875,-10.514716 23.46875,-23.46875 0,-11.503794 -6.803162,-19.769645 -17.75,-21.71875 -0.02235,-0.004 -0.04012,-0.02732 -0.0625,-0.03125 a 0.19471464,0.19471464 0 0 0 -0.0625,-0.03125 0.19471464,0.19471464 0 0 0 -0.03125,0 l -0.03125,0 c -0.0038,-4.4e-5 -0.027,1.5e-5 -0.03125,0 0,0 -0.03125,0 -0.03125,0 0,0 -0.03125,0 -0.03125,0 a 0.19471464,0.19471464 0 0 0 -0.03125,0.03125 c 0,0 0.0026,0.02907 0,0.03125 -0.0052,0.0044 -0.02343,-0.0065 -0.03125,0 -0.0078,0.0065 -0.03125,0 -0.03125,0 0,0 0,0.03125 0,0.03125 l 0.03125,0 0,0.03125 -0.03125,0 0,-0.03125 a 0.19471464,0.19471464 0 0 0 -0.03125,0 0.19471464,0.19471464 0 0 0 0,0.03125 0.19471464,0.19471464 0 0 0 -0.03125,0 0.19471464,0.19471464 0 0 0 0,0.03125 0.19471464,0.19471464 0 0 0 -0.03125,0 c 0,0 0,0.03125 0,0.03125 a 0.19471464,0.19471464 0 0 0 -0.03125,0 0.19471464,0.19471464 0 0 0 0,0.03125 0.19471464,0.19471464 0 0 0 0,0.03125 0.19471464,0.19471464 0 0 0 -0.03125,0 c 0,0 0,0.03125 0,0.03125 0,0 0,0.03125 0,0.03125 a 0.19471464,0.19471464 0 0 0 0,0.03125 c 9e-6,-7.9e-5 1.13e-4,0.02915 0,0.03125 l 0,5.6875 0,0.03125 c -4.4e-5,0.0038 1.5e-5,0.027 0,0.03125 0,0 0,0.03125 0,0.03125 a 0.19471464,0.19471464 0 0 0 0,0.03125 0.19471464,0.19471464 0 0 0 0.03125,0.03125 c 0,0 0,-0.03125 0,-0.03125 0,0 0.02412,0.0021 0.03125,0 1e-4,0.003 -2.8e-5,0.03099 0,0.03125 0.0071,-0.0022 0.01953,0.0036 0.03125,0 0.02654,-0.0058 0.05094,-0.02188 0.09375,-0.03125 l 0,0.03125 c 0.0013,-0.0042 0.03005,0.0039 0.03125,0 -0.0031,0.02982 -0.02813,0.03268 -0.03125,0.0625 0.0078,-0.02539 -0.0078,-0.03711 0,-0.0625 -0.03809,0.01175 -0.06696,-0.0083 -0.09375,0 -1.4e-5,-1.24e-4 1.8e-5,0.03132 0,0.03125 -0.0071,0.0022 -0.03125,0 -0.03125,0 0.0065,0.0078 0,0.03125 0,0.03125 a 0.19471464,0.19471464 0 0 0 0.03125,0 0.19471464,0.19471464 0 0 0 0,0.03125 c 0,0 0.03125,0 0.03125,0 0,0 0,0.03125 0,0.03125 0,0 0.03125,0 0.03125,0 -0.0038,-0.0033 0.0038,-0.02798 0,-0.03125 7.32e-4,-0.0024 0.03033,0.003 0.03125,0 -8.84e-4,0.0085 -2.1e-5,0.03125 0,0.03125 7.32e-4,-0.0024 0.03033,0.003 0.03125,0 -8.84e-4,0.0085 -2.1e-5,0.03125 0,0.03125 0,0 -0.03125,0 -0.03125,0 a 0.19471464,0.19471464 0 0 0 0,0.03125 c 0,0 0.03125,0 0.03125,0 0,0 0.03125,0 0.03125,0 7.8e-5,9e-6 0.02883,-1.35e-4 0.03125,0 0.0042,-1.5e-5 0.02743,4.4e-5 0.03125,0 l 0.03125,0 c 3.794636,0.892032 6.663979,2.698179 8.625,5.28125 1.965696,2.589229 3,6.001195 3,10.09375 0,9.4895 -7.66675,17.15625 -17.15625,17.15625 -9.489496,0 -17.1875,-7.667557 -17.1875,-17.15625 0,-8.232257 4.4258,-13.845477 12.125,-15.5625 l 0.03125,0 0.03125,0 a 0.19471464,0.19471464 0 0 0 0.03125,0 0.19471464,0.19471464 0 0 0 0.03125,0 0.19471464,0.19471464 0 0 0 0,-0.03125 c 0,0 0.0021,-0.02412 0,-0.03125 9.18e-4,0.003 0.03052,-0.0024 0.03125,0 0,0 0.0071,-0.03901 0,-0.0625 l 0.03125,0.03125 0,0.03125 a 0.19471464,0.19471464 0 0 0 0.03125,0 c 0,0 0,-0.03125 0,-0.03125 a 0.19471464,0.19471464 0 0 0 0.03125,0 c 0,0 0,-0.03125 0,-0.03125 0,0 -0.03125,-0.03125 -0.03125,-0.03125 0.0078,0.0024 0.0253,-0.03309 0.03125,-0.03125 0.0078,0.0024 0.0253,-0.03309 0.03125,-0.03125 0.0085,8.84e-4 0.03125,2.1e-5 0.03125,0 a 0.19471464,0.19471464 0 0 0 0.03125,0 c 0,0 0,-0.03125 0,-0.03125 0,0 0,-0.03125 0,-0.03125 a 0.19471464,0.19471464 0 0 0 0,-0.03125 0.19471464,0.19471464 0 0 0 0,-0.03125 l 0,-5.625 0,-0.03125 c -1.14e-4,-0.0021 -9e-6,-0.03133 0,-0.03125 a 0.19471464,0.19471464 0 0 0 0,-0.03125 c 0,0 0,-0.03125 0,-0.03125 A 0.19471464,0.19471464 0 0 0 27.25,13.25 c 0,0 0,0.03125 0,0.03125 0,0 -0.02287,-0.0018 -0.03125,0 -10e-5,-0.003 2.8e-5,-0.03099 0,-0.03125 0,0 -0.02287,-0.0018 -0.03125,0 0.003,-9.18e-4 -0.0024,-0.03052 0,-0.03125 0.0071,-0.0022 0.03125,0 0.03125,0 0,0 0,-0.03125 0,-0.03125 a 0.19471464,0.19471464 0 0 0 -0.03125,0 0.19471464,0.19471464 0 0 0 0,-0.03125 c -0.0049,-0.0093 -0.03125,0 -0.03125,0 0,0 0,-0.03125 0,-0.03125 a 0.19471464,0.19471464 0 0 0 -0.03125,0 c 0,0 0.0022,0.02413 0,0.03125 -0.0047,-0.0091 -0.03125,0 -0.03125,0 0,0 0.03125,-0.03125 0.03125,-0.03125 a 0.19471464,0.19471464 0 0 0 0,-0.03125 0.19471464,0.19471464 0 0 0 -0.03125,0 0.19471464,0.19471464 0 0 0 0,-0.03125 0.19471464,0.19471464 0 0 0 -0.03125,0 c 0,0 -0.03125,0 -0.03125,0 a 0.19471464,0.19471464 0 0 0 0,-0.03125 c 0,0 -0.03125,0 -0.03125,0 0,0 -0.03125,0 -0.03125,0 0,0 -0.03125,0 -0.03125,0 7.9e-5,9e-6 -0.02915,1.13e-4 -0.03125,0 l -0.03125,0 a 0.19471464,0.19471464 0 0 0 -0.03125,0 z m 0.375,0.1875 c 0,0 0,0.03125 0,0.03125 0.0071,-0.0022 0.03125,0 0.03125,0 0,0 0,-0.03125 0,-0.03125 a 0.19471464,0.19471464 0 0 0 -0.03125,0 z M 27.1875,19.25 a 0.19471464,0.19471464 0 0 0 0.03125,0 c 0,0 0,-0.03125 0,-0.03125 a 0.19471464,0.19471464 0 0 0 0.03125,0 c 0,0 0,-0.03125 0,-0.03125 a 0.19471464,0.19471464 0 0 1 -0.03125,0 c -0.0033,0.0038 -0.02798,-0.0038 -0.03125,0 z m -0.0625,0.0625 c 0,0 -0.03125,0 -0.03125,0 0.0022,0.0071 0,0.03125 0,0.03125 0,0 0.03125,0 0.03125,0 0,0 0,-0.03125 0,-0.03125 z m 10.25,0.21875 c 0,0 0,-0.03125 0,-0.03125 0,0 -0.02357,0.0065 -0.03125,0 a 0.19471464,0.19471464 0 0 0 0,0.03125 c 0,0 0.03125,0 0.03125,0 z m -0.125,-0.125 c 0,0 0,-0.03125 0,-0.03125 -0.0071,0.0022 -0.03125,0 -0.03125,0 0,0 0,0.03125 0,0.03125 0,0 0.03125,0 0.03125,0 z M 27,13.15625 26.96875,13.25 27,13.28125 l 0.03125,0.03125 0.03125,0.09375 c -0.0078,0.0043 0.0079,0.02723 0,0.03125 -0.008,0.0037 -0.02307,-0.0034 -0.03125,0 -0.0085,0.0025 -0.02266,-0.0022 -0.03125,0 -0.0088,0.0013 -0.02243,-9.6e-4 -0.03125,0 -0.0089,3.21e-4 -0.02238,0 -0.03125,0 -0.0088,-9.6e-4 -0.02247,0.0013 -0.03125,0 -0.0086,-0.0022 -0.02275,0.0025 -0.03125,0 -0.0082,-0.0034 -0.0232,0.0037 -0.03125,0 -0.0079,-0.004 0.0078,-0.02695 0,-0.03125 L 26.9375,13.25 27,13.15625 z m 0.125,0.125 c 0.01398,-0.0042 0.01853,0.0038 0.03125,0 -0.01798,0.0039 -0.01548,0.0278 -0.03125,0.03125 l 0,-0.03125 z m 10.28125,0.03125 c 5.62e-4,0.0026 0.03069,-0.0026 0.03125,0 l 0,0.03125 c -2.73e-4,-0.0026 -0.03098,0.0026 -0.03125,0 0.0042,0.01398 -0.0038,0.01853 0,0.03125 -0.01376,-0.0014 -0.01556,0.0016 -0.03125,0 0.0026,5.52e-4 -0.0026,0.0307 0,0.03125 -0.01606,-0.0017 -0.01295,-0.02933 -0.03125,-0.03125 0.01272,0.0038 0.01727,-0.0042 0.03125,0 -0.0026,-2.74e-4 0.0026,-0.03098 0,-0.03125 0.01395,0.0043 0.01855,-0.0039 0.03125,0 -0.0016,-0.01569 0.0014,-0.01749 0,-0.03125 z m 0.15625,0.0625 c 0,0 0.02412,0.0021 0.03125,0 l 0,0.03125 c 0.0025,0.0085 -0.0022,0.02266 0,0.03125 0.0013,0.0088 -9.6e-4,0.02243 0,0.03125 3.21e-4,0.0089 0,0.02238 0,0.03125 -9.6e-4,0.0088 0.0013,0.02247 0,0.03125 -0.0022,0.0086 0.0025,0.02275 0,0.03125 -0.0034,0.0082 0.0037,0.0232 0,0.03125 -0.004,0.0079 -0.02695,-0.0078 -0.03125,0 l -0.03125,-0.03125 -0.03125,0 c -0.0082,-0.0034 -0.0232,0.0037 -0.03125,0 -0.0079,-0.004 0.0078,-0.02695 0,-0.03125 L 37.40625,13.5 l -0.0625,-0.03125 0.0625,0 0.03125,-0.03125 0.03125,-0.03125 0.09375,-0.03125 z m 0.09375,0.15625 a 0.19471464,0.19471464 0 0 0 0.03125,0 c -0.0078,0.0043 0.0079,0.02723 0,0.03125 -0.008,0.0037 -0.02307,-0.0034 -0.03125,0 a 0.19471464,0.19471464 0 0 0 0,-0.03125 z M 26.875,18.96875 c 0.004,-0.0079 0.02695,0.0078 0.03125,0 l 0.15625,0.09375 0.0625,0.03125 c -0.0078,-0.0024 -0.02528,0.03305 -0.03125,0.03125 -0.01175,-0.0035 -0.02412,0.0021 -0.03125,0 l -0.03125,0 0,0.03125 c -0.0084,-0.0018 -0.03125,0 -0.03125,0 l -0.0625,0.03125 -0.03125,0 c -0.0043,-0.0078 -0.02723,0.0079 -0.03125,0 -0.0037,-0.008 0.0034,-0.02307 0,-0.03125 -0.0025,-0.0085 0.0022,-0.02266 0,-0.03125 -0.0013,-0.0088 9.6e-4,-0.02243 0,-0.03125 -3.21e-4,-0.0089 0,-0.02238 0,-0.03125 9.6e-4,-0.0088 -0.0013,-0.02247 0,-0.03125 0.0022,-0.0086 -0.0025,-0.02275 0,-0.03125 0.0034,-0.0082 -0.0037,-0.0232 0,-0.03125 z m 0.25,0.15625 0.0625,0 0,0.03125 c -0.0084,-0.0018 -0.01772,0.0029 -0.03125,0 -0.01578,-0.0034 -0.01326,-0.02739 -0.03125,-0.03125 z m -0.0625,0.0625 c 0.01272,0.0038 0.01727,-0.0042 0.03125,0 0.0039,0.0127 -0.0043,0.0173 0,0.03125 -5.62e-4,-0.0026 -0.03069,0.0026 -0.03125,0 l 0,0.03125 c -0.0039,-0.01798 -0.0278,-0.01548 -0.03125,-0.03125 l 0.03125,0 c -0.0042,-0.01398 0.0038,-0.01853 0,-0.03125 z m 8,3.6875 c 0.004,-0.0079 0.02695,0.0078 0.03125,0 L 35.25,22.96875 35.375,23.03125 35.25,23 l -0.03125,0.03125 0,0.03125 -0.03125,0 -0.09375,0.03125 c -0.0043,-0.0078 -0.02723,0.0079 -0.03125,0 -0.0037,-0.008 0.0034,-0.02307 0,-0.03125 -0.0025,-0.0085 0.0022,-0.02266 0,-0.03125 -0.0013,-0.0088 9.6e-4,-0.02243 0,-0.03125 0,-0.0089 -3.21e-4,-0.02239 0,-0.03125 9.6e-4,-0.0088 -0.0013,-0.02247 0,-0.03125 0.0022,-0.0086 -0.0025,-0.02275 0,-0.03125 0.0034,-0.0082 -0.0037,-0.0232 0,-0.03125 z m -6.125,0.03125 c 0.01042,0 0.05208,0 0.0625,0 0.01042,0 0.05208,0 0.0625,0 0.01042,0 0.05208,0 0.0625,0 0.05044,-0.02196 0.03487,0.03908 0.03125,0.03125 L 29.0625,23.09375 29,23.21875 29.03125,23.09375 29,23.0625 l -0.03125,0 0,-0.03125 -0.03125,-0.09375 c 0.0078,-0.0043 -0.0079,-0.02723 0,-0.03125 z"
       transform="translate(-0.11363636,0)" />
  </g>
  <g
     id="layer1"
     style="display:inline">
    <path
       d="m 29.008523,4.9090909 0,18.0000001 6,0 0,-18.0000001 z M 26.816624,13.380457 C 15.873952,15.195219 8.8210227,23.452434 8.8210227,34.909091 c 0,12.752756 10.3409943,23.09375 23.0937503,23.09375 12.752756,0 23.09375,-10.340994 23.09375,-23.09375 0,-11.392031 -6.699339,-19.509398 -17.550972,-21.400069 l 0,5.6875 c 7.754527,1.810879 11.988472,7.402277 11.988472,15.712569 0,9.690086 -7.841164,17.53125 -17.53125,17.53125 -9.690086,0 -17.5625,-7.841164 -17.5625,-17.53125 0,-8.378795 4.606802,-14.163517 12.464351,-15.903634 z"
       id="path4453"
       style="fill:#ffffff;fill-opacity:1;stroke:none" />
  </g>
</svg>
