<?xml version="1.0" encoding="UTF-8" standalone="no"?>
<!-- Created with Inkscape (http://www.inkscape.org/) -->

<svg
   xmlns:dc="http://purl.org/dc/elements/1.1/"
   xmlns:cc="http://creativecommons.org/ns#"
   xmlns:rdf="http://www.w3.org/1999/02/22-rdf-syntax-ns#"
   xmlns:svg="http://www.w3.org/2000/svg"
   xmlns="http://www.w3.org/2000/svg"
   xmlns:sodipodi="http://sodipodi.sourceforge.net/DTD/sodipodi-0.dtd"
   xmlns:inkscape="http://www.inkscape.org/namespaces/inkscape"
   version="1.1"
   width="64"
   height="64"
   id="svg2985"
   inkscape:version="0.48.4 r9939"
   sodipodi:docname="sleep.svg">
  <sodipodi:namedview
     pagecolor="#ffffff"
     bordercolor="#666666"
     borderopacity="1"
     objecttolerance="10"
     gridtolerance="10"
     guidetolerance="10"
     inkscape:pageopacity="0"
     inkscape:pageshadow="2"
     inkscape:window-width="1137"
     inkscape:window-height="732"
     id="namedview11"
     showgrid="false"
     inkscape:zoom="59"
     inkscape:cx="46.763171"
     inkscape:cy="37.178533"
     inkscape:window-x="43"
     inkscape:window-y="0"
     inkscape:window-maximized="0"
     inkscape:current-layer="svg2985" />
  <defs
     id="defs2987" />
  <metadata
     id="metadata2990">
    <rdf:RDF>
      <cc:Work
         rdf:about="">
        <dc:format>image/svg+xml</dc:format>
        <dc:type
           rdf:resource="http://purl.org/dc/dcmitype/StillImage" />
        <dc:title />
      </cc:Work>
    </rdf:RDF>
  </metadata>
  <g
     id="layer2">
    <path
       d="m 38,13.28125 a 1.1141998,1.1141998 0 0 0 -1.125,1.125 l 0,2.125 a 1.1141998,1.1141998 0 0 0 1.125,1.125 l 2.34375,0 -3.5625,6.21875 A 1.1141998,1.1141998 0 0 0 36.625,24.4375 l 0,1.875 a 1.1141998,1.1141998 0 0 0 1.125,1.125 l 6.09375,0 0,1.15625 a 1.1141998,1.1141998 0 0 0 1.125,1.125 l 6,0 a 1.1141998,1.1141998 0 0 0 1.125,-1.125 l 0,-1.75 a 1.1141998,1.1141998 0 0 0 -1.125,-1.125 l -1.9375,0 2.6875,-4.59375 A 1.1141998,1.1141998 0 0 0 51.875,20.5625 l 0,-1.625 a 1.1141998,1.1141998 0 0 0 -1.125,-1.125 l -5.375,0 0.5,-0.875 a 1.1141998,1.1141998 0 0 0 0.15625,-0.5625 l 0,-1.96875 a 1.1141998,1.1141998 0 0 0 -1.125,-1.125 l -6.90625,0 z m 6.03125,6.875 0,0.5 a 1.1141998,1.1141998 0 0 0 1.125,1.125 l 1.53125,0 -0.84375,1.5 -0.03125,0 a 1.1141998,1.1141998 0 0 0 -0.59375,-0.1875 l -2.875,0 1.6875,-2.9375 z m 7.625,10.59375 c -2.192797,0 -4.095107,1.299869 -5,3.15625 -0.964659,-0.764973 -2.10465,-1.34375 -3.5,-1.34375 l -29.90625,0 c -0.868454,0 -2.32427,-0.0523 -3.71875,0.625 -0.2551366,0.12392 -0.4224509,0.440074 -0.65625,0.625 l 0,-1.03125 a 1.1141998,1.1141998 0 0 0 -1.125,-1.125 l -5.8125,0 a 1.1141998,1.1141998 0 0 0 -1.125,1.125 l 0,12.4375 0,9.25 a 1.1141998,1.1141998 0 0 0 1.125,1.125 l 5.4375,0 a 1.1141998,1.1141998 0 0 0 1.125,-1.125 l 0,-8.125 46.9375,0 0,8.125 a 1.1141998,1.1141998 0 0 0 1.125,1.125 l 4.75,0 a 1.1141998,1.1141998 0 0 0 1.125,-1.125 l 0,-9.65625 0,-11.84375 a 1.1141998,1.1141998 0 0 0 -1.125,-1.125 l -5.21875,0 a 1.1141998,1.1141998 0 0 0 -0.8125,0.34375 C 54.305348,31.327554 53.051362,30.75 51.65625,30.75 z"
       transform="translate(0.31818182,-0.31818182)"
       id="path3755"
       style="opacity:0.05;fill:#000000;stroke:none" />
    <path
       d="m 37.84375,13.6875 a 0.72135872,0.72135872 0 0 0 -0.5625,0.71875 l 0,2.125 A 0.72135872,0.72135872 0 0 0 38,17.25 l 3.0625,0 -3.9375,6.84375 a 0.72135872,0.72135872 0 0 0 -0.09375,0.34375 l 0,1.875 A 0.72135872,0.72135872 0 0 0 37.75,27.03125 l 6.5,0 a 0.72135872,0.72135872 0 0 0 0,0.03125 l 0,1.53125 a 0.72135872,0.72135872 0 0 0 0.71875,0.71875 l 6,0 a 0.72135872,0.72135872 0 0 0 0.71875,-0.71875 l 0,-1.75 A 0.72135872,0.72135872 0 0 0 50.96875,26.125 l -2.625,0 3.03125,-5.1875 a 0.72135872,0.72135872 0 0 0 0.09375,-0.375 l 0,-1.625 A 0.72135872,0.72135872 0 0 0 50.75,18.21875 l -5.59375,0 A 0.72135872,0.72135872 0 0 0 44.4375,18.9375 l 0,1.71875 a 0.72135872,0.72135872 0 0 0 0.71875,0.71875 l 2.25,0 -1.5,2.625 a 0.72135872,0.72135872 0 0 0 -0.6875,-0.5 l -3.5625,0 3.875,-6.78125 A 0.72135872,0.72135872 0 0 0 45.625,16.375 l 0,-1.96875 A 0.72135872,0.72135872 0 0 0 44.90625,13.6875 l -6.90625,0 a 0.72135872,0.72135872 0 0 0 -0.15625,0 z m 13.8125,17.46875 c -2.176002,0 -3.989115,1.397331 -4.75,3.3125 -0.93524,-0.924332 -2.226928,-1.5 -3.75,-1.5 l -29.90625,0 c -0.875774,0 -2.283061,-0.05892 -3.5625,0.5625 -0.4813248,0.23378 -0.8427881,0.691445 -1.21875,1.15625 l 0,-1.90625 A 0.72135872,0.72135872 0 0 0 7.75,32.0625 l -5.8125,0 a 0.72135872,0.72135872 0 0 0 -0.71875,0.71875 l 0,12.4375 0,9.25 A 0.72135872,0.72135872 0 0 0 1.9375,55.1875 l 5.4375,0 a 0.72135872,0.72135872 0 0 0 0.71875,-0.71875 l 0,-8.53125 47.75,0 0,8.53125 a 0.72135872,0.72135872 0 0 0 0.71875,0.71875 l 4.75,0 a 0.72135872,0.72135872 0 0 0 0.71875,-0.71875 l 0,-9.65625 0,-11.84375 A 0.72135872,0.72135872 0 0 0 61.3125,32.25 l -5.21875,0 a 0.72135872,0.72135872 0 0 0 -0.6875,0.5625 c -0.94099,-1.00797 -2.27019,-1.65625 -3.75,-1.65625 z"
       transform="translate(0.31818182,-0.31818182)"
       id="path3757"
       style="opacity:0.1;fill:#000000;stroke:none" />
    <path
       d="m 37.9375,14.09375 a 0.30584735,0.30584735 0 0 0 -0.21875,0.1875 0.30584735,0.30584735 0 0 0 -0.03125,0.125 l 0,2.125 A 0.30584735,0.30584735 0 0 0 37.875,16.8125 0.30584735,0.30584735 0 0 0 38,16.84375 l 3.75,0 -4.25,7.4375 a 0.30584735,0.30584735 0 0 0 -0.0625,0.15625 l 0,1.875 a 0.30584735,0.30584735 0 0 0 0.1875,0.28125 0.30584735,0.30584735 0 0 0 0.125,0.03125 l 7.125,0 -0.15625,0.28125 a 0.30584735,0.30584735 0 0 0 -0.0625,0.15625 l 0,1.53125 a 0.30584735,0.30584735 0 0 0 0.1875,0.28125 0.30584735,0.30584735 0 0 0 0.125,0.03125 l 6,0 a 0.30584735,0.30584735 0 0 0 0.28125,-0.1875 0.30584735,0.30584735 0 0 0 0.03125,-0.125 l 0,-1.75 a 0.30584735,0.30584735 0 0 0 -0.1875,-0.28125 0.30584735,0.30584735 0 0 0 -0.125,-0.03125 l -3.34375,0 3.375,-5.8125 a 0.30584735,0.30584735 0 0 0 0.0625,-0.15625 l 0,-1.625 A 0.30584735,0.30584735 0 0 0 50.875,18.65625 0.30584735,0.30584735 0 0 0 50.75,18.625 l -5.59375,0 a 0.30584735,0.30584735 0 0 0 -0.28125,0.1875 0.30584735,0.30584735 0 0 0 -0.03125,0.125 l 0,1.71875 a 0.30584735,0.30584735 0 0 0 0.1875,0.28125 0.30584735,0.30584735 0 0 0 0.125,0.03125 l 2.9375,0 -2.5625,4.5 0,-1.25 a 0.30584735,0.30584735 0 0 0 -0.1875,-0.28125 0.30584735,0.30584735 0 0 0 -0.125,-0.03125 l -4.28125,0 4.21875,-7.375 a 0.30584735,0.30584735 0 0 0 0.0625,-0.15625 l 0,-1.96875 a 0.30584735,0.30584735 0 0 0 -0.1875,-0.28125 0.30584735,0.30584735 0 0 0 -0.125,-0.03125 l -6.90625,0 a 0.30584735,0.30584735 0 0 0 -0.0625,0 z M 51.65625,31.5625 c -2.25621,0 -4.141764,1.60264 -4.625,3.71875 -0.857722,-1.145203 -2.186085,-1.90625 -3.875,-1.90625 l -29.90625,0 c -0.883516,0 -2.21724,-0.03107 -3.375,0.53125 -0.7902399,0.38382 -1.4359643,1.106384 -1.8125,2.21875 l 0,-3.34375 A 0.30584735,0.30584735 0 0 0 7.875,32.5 0.30584735,0.30584735 0 0 0 7.75,32.46875 l -5.8125,0 a 0.30584735,0.30584735 0 0 0 -0.28125,0.1875 0.30584735,0.30584735 0 0 0 -0.03125,0.125 l 0,12.4375 0,9.25 a 0.30584735,0.30584735 0 0 0 0.1875,0.28125 0.30584735,0.30584735 0 0 0 0.125,0.03125 l 5.4375,0 a 0.30584735,0.30584735 0 0 0 0.28125,-0.1875 0.30584735,0.30584735 0 0 0 0.03125,-0.125 l 0,-8.9375 48.5625,0 0,8.9375 a 0.30584735,0.30584735 0 0 0 0.1875,0.28125 0.30584735,0.30584735 0 0 0 0.125,0.03125 l 4.75,0 a 0.30584735,0.30584735 0 0 0 0.28125,-0.1875 0.30584735,0.30584735 0 0 0 0.03125,-0.125 l 0,-9.65625 0,-11.84375 a 0.30584735,0.30584735 0 0 0 -0.1875,-0.28125 0.30584735,0.30584735 0 0 0 -0.125,-0.03125 l -5.21875,0 a 0.30584735,0.30584735 0 0 0 -0.28125,0.1875 0.30584735,0.30584735 0 0 0 -0.03125,0.125 l 0,1.0625 c -0.812724,-1.454491 -2.348545,-2.46875 -4.125,-2.46875 z"
       transform="translate(0.31818182,-0.31818182)"
       id="path3759"
       style="opacity:0.2;fill:#000000;stroke:none" />
  </g>
  <g
     id="layer1"
     style="display:inline">
    <path
       d="m 38.258152,14.066397 0,2.123242 4.281872,0 -4.529583,7.92677 0,1.875531 7.466734,0 0,-2.123242 -4.812682,0 4.494196,-7.820609 0,-1.981692 -6.900537,0 z m 7.148248,4.529583 0,1.733981 3.467962,0 -3.644898,6.405114 0,1.521656 6.015852,0 0,-1.733981 -3.89261,0 3.644899,-6.298951 0,-1.627819 -5.591205,0 z m 6.511276,12.951777 c -2.354203,0 -4.272997,1.859529 -4.423421,4.175709 -0.735627,-1.42024 -2.178104,-2.370954 -4.069547,-2.370954 l -29.902326,0 c -1.778431,0 -5.1238147,-0.102939 -5.2373305,4.246484 l -0.283099,0 0,-5.166555 -5.8035283,0 0,12.456353 0,9.236103 5.4496546,0 0,-9.236103 49.1884412,0 0,9.236103 4.741907,0 0,-9.660751 0,-11.819381 -5.23733,0 0,3.3618 0,1.592431 -0.318486,0 c 0.190842,-0.495306 0.318486,-1.02986 0.318486,-1.592431 0,-2.452356 -1.971065,-4.458808 -4.423421,-4.458808 z"
       id="path3763"
       style="fill:#ffffff;stroke:none" />
  </g>
</svg>
