<?xml version="1.0" encoding="UTF-8" standalone="no"?>
<!-- Created with Inkscape (http://www.inkscape.org/) -->

<svg
   xmlns:dc="http://purl.org/dc/elements/1.1/"
   xmlns:cc="http://creativecommons.org/ns#"
   xmlns:rdf="http://www.w3.org/1999/02/22-rdf-syntax-ns#"
   xmlns:svg="http://www.w3.org/2000/svg"
   xmlns="http://www.w3.org/2000/svg"
   xmlns:sodipodi="http://sodipodi.sourceforge.net/DTD/sodipodi-0.dtd"
   xmlns:inkscape="http://www.inkscape.org/namespaces/inkscape"
   width="64px"
   height="64px"
   id="svg2985"
   version="1.1"
   inkscape:version="0.48.4 r9939"
   sodipodi:docname="New document 2">
  <defs
     id="defs2987">
    <filter
       inkscape:collect="always"
       id="filter3831">
      <feGaussianBlur
         inkscape:collect="always"
         stdDeviation="1.2429813"
         id="feGaussianBlur3833" />
    </filter>
  </defs>
  <sodipodi:namedview
     id="base"
     pagecolor="#ffffff"
     bordercolor="#666666"
     borderopacity="1.0"
     inkscape:pageopacity="0.0"
     inkscape:pageshadow="2"
     inkscape:zoom="7.7781746"
     inkscape:cx="30.648463"
     inkscape:cy="24.955863"
     inkscape:current-layer="layer1"
     showgrid="true"
     inkscape:document-units="px"
     inkscape:grid-bbox="true"
     showguides="true"
     inkscape:guide-bbox="true"
     inkscape:window-width="1280"
     inkscape:window-height="977"
     inkscape:window-x="0"
     inkscape:window-y="22"
     inkscape:window-maximized="1" />
  <metadata
     id="metadata2990">
    <rdf:RDF>
      <cc:Work
         rdf:about="">
        <dc:format>image/svg+xml</dc:format>
        <dc:type
           rdf:resource="http://purl.org/dc/dcmitype/StillImage" />
        <dc:title></dc:title>
      </cc:Work>
    </rdf:RDF>
  </metadata>
  <g
     inkscape:groupmode="layer"
     id="layer2"
     inkscape:label="bg">
    <path
       style="fill:#000000;stroke:none;filter:url(#filter3831);opacity:0.5"
       d="m 37.996683,14.40083 0,2.123242 4.281872,0 -4.529583,7.92677 0,1.875531 7.466734,0 0,-2.123242 -4.812682,0 4.494196,-7.820609 0,-1.981692 -6.900537,0 z m 7.148249,4.529583 0,1.733981 3.467962,0 -3.644898,6.405114 0,1.521656 6.015851,0 0,-1.733981 -3.892609,0 3.644899,-6.298951 0,-1.627819 -5.591205,0 z m 6.511275,12.951777 c -2.354203,0 -4.272997,1.859529 -4.423421,4.175709 -0.735627,-1.42024 -2.178103,-2.370954 -4.069547,-2.370954 l -29.902326,0 c -1.77843,0 -5.1238136,-0.102939 -5.2373294,4.246484 l -0.283099,0 0,-5.166555 -5.8035283,0 0,12.456353 0,9.236103 5.4496546,0 0,-9.236103 49.1884411,0 0,9.236103 4.741907,0 0,-9.660751 0,-11.819381 -5.23733,0 0,3.3618 0,1.592431 -0.318487,0 c 0.190842,-0.495306 0.318487,-1.02986 0.318487,-1.592431 0,-2.452356 -1.971066,-4.458808 -4.423422,-4.458808 z"
       id="path3763-1"
       inkscape:connector-curvature="0" />
  </g>
  <g
     id="layer1"
     inkscape:label="Layer 1"
     inkscape:groupmode="layer"
     style="display:inline">
    <path
       style="fill:#ffffff;stroke:none"
       d="m 38.258152,14.066397 0,2.123242 4.281872,0 -4.529583,7.92677 0,1.875531 7.466734,0 0,-2.123242 -4.812682,0 4.494196,-7.820609 0,-1.981692 -6.900537,0 z m 7.148248,4.529583 0,1.733981 3.467962,0 -3.644898,6.405114 0,1.521656 6.015852,0 0,-1.733981 -3.89261,0 3.644899,-6.298951 0,-1.627819 -5.591205,0 z m 6.511276,12.951777 c -2.354203,0 -4.272997,1.859529 -4.423421,4.175709 -0.735627,-1.42024 -2.178104,-2.370954 -4.069547,-2.370954 l -29.902326,0 c -1.778431,0 -5.1238147,-0.102939 -5.2373305,4.246484 l -0.283099,0 0,-5.166555 -5.8035283,0 0,12.456353 0,9.236103 5.4496546,0 0,-9.236103 49.1884412,0 0,9.236103 4.741907,0 0,-9.660751 0,-11.819381 -5.23733,0 0,3.3618 0,1.592431 -0.318486,0 c 0.190842,-0.495306 0.318486,-1.02986 0.318486,-1.592431 0,-2.452356 -1.971065,-4.458808 -4.423421,-4.458808 z"
       id="path3763"
       inkscape:connector-curvature="0" />
  </g>
</svg>
