<?xml version="1.0" encoding="UTF-8" standalone="no"?>
<!-- Created with Inkscape (http://www.inkscape.org/) -->

<svg
   xmlns:dc="http://purl.org/dc/elements/1.1/"
   xmlns:cc="http://creativecommons.org/ns#"
   xmlns:rdf="http://www.w3.org/1999/02/22-rdf-syntax-ns#"
   xmlns:svg="http://www.w3.org/2000/svg"
   xmlns="http://www.w3.org/2000/svg"
   version="1.1"
   width="64"
   height="64"
   id="svg3947">
  <defs
     id="defs3949">
    <linearGradient
       id="linearGradient4469">
      <stop
         id="stop4471"
         style="stop-color:#c8c8c8;stop-opacity:1"
         offset="0" />
      <stop
         id="stop4473"
         style="stop-color:#ffffff;stop-opacity:1"
         offset="1" />
    </linearGradient>
  </defs>
  <metadata
     id="metadata3952">
    <rdf:RDF>
      <cc:Work
         rdf:about="">
        <dc:format>image/svg+xml</dc:format>
        <dc:type
           rdf:resource="http://purl.org/dc/dcmitype/StillImage" />
        <dc:title></dc:title>
      </cc:Work>
    </rdf:RDF>
  </metadata>
  <g
     id="g3755">
    <path
       d="m 27.875,-15.78125 c -0.03125,0.01042 -0.15625,0.05208 -0.1875,0.0625 -0.03125,0.01042 -0.15625,0.05208 -0.1875,0.0625 -0.02083,0.02083 -0.125,0.08333 -0.15625,0.09375 -0.03125,0.02083 -0.135417,0.104167 -0.15625,0.125 -0.02083,0.02083 -0.125,0.104167 -0.15625,0.125 -0.02083,0.02083 -0.104167,0.104167 -0.125,0.125 -0.01042,0.03125 -0.07292,0.135417 -0.09375,0.15625 -0.02083,0.03125 -0.08333,0.135417 -0.09375,0.15625 -0.0053,0.01057 3.45e-4,0.03051 0,0.03125 l -11.34375,23.125 -25.21875,7 c -0.00306,8.18e-4 -0.1220011,0.03023 -0.125,0.03125 -0.003,0.001 -0.090826,0.03003 -0.09375,0.03125 -0.0029,0.0012 -0.09091,0.02984 -0.09375,0.03125 -0.0028,0.0014 -0.09101,0.0609 -0.09375,0.0625 -0.0027,0.0016 -0.09113,0.06072 -0.09375,0.0625 -0.0026,0.0018 -0.09125,0.06055 -0.09375,0.0625 -0.0025,0.0019 -0.09139,0.06039 -0.09375,0.0625 -0.0024,0.0021 -0.06028,0.09149 -0.0625,0.09375 -0.0022,0.0023 -0.09169,0.06009 -0.09375,0.0625 -0.0021,0.0024 -0.06061,0.09121 -0.0625,0.09375 -0.0019,0.0025 -0.06078,0.09109 -0.0625,0.09375 -0.0017,0.0027 -0.06096,0.09098 -0.0625,0.09375 -0.0015,0.0028 -0.0299,0.09089 -0.03125,0.09375 -0.0014,0.0029 -0.06134,0.0908 -0.0625,0.09375 -0.0012,0.0029 -0.03029,0.12198 -0.03125,0.125 -9.57e-4,0.003 -0.0305,0.09067 -0.03125,0.09375 -7.54e-4,0.0031 -0.0307,0.12188 -0.03125,0.125 -5.46e-4,0.0031 3.37e-4,0.0906 0,0.09375 -3.37e-4,0.0032 -0.03112,0.121835 -0.03125,0.125 -1.26e-4,0.0032 -8.6e-5,0.09058 0,0.09375 8.6e-5,0.0032 0.03095,0.121846 0.03125,0.125 2.97e-4,0.0032 -5.07e-4,0.09062 0,0.09375 5.07e-4,0.0031 0.03054,0.121914 0.03125,0.125 7.15e-4,0.0031 0.03033,0.09072 0.03125,0.09375 9.2e-4,0.003 0.03013,0.122037 0.03125,0.125 0.0011,0.003 0.02993,0.09087 0.03125,0.09375 0.0013,0.0029 0.061,0.09096 0.0625,0.09375 0.0015,0.0028 0.06081,0.09107 0.0625,0.09375 0.0017,0.0027 0.06064,0.09119 0.0625,0.09375 0.0019,0.0026 0.06047,0.09132 0.0625,0.09375 0.002,0.0024 0.06031,0.06021 0.0625,0.0625 0.0015,0.0015 0.03956,0.04007 0.0625,0.0625 l 0.03125,0.03125 L 7.9375,36 6.78125,62.1875 a 0.75675789,0.75675789 0 0 0 0,0.03125 c -4.94e-5,0.0031 -1.479e-4,0.09069 0,0.09375 1.479e-4,0.0031 -3.447e-4,0.09071 0,0.09375 3.447e-4,0.003 0.03071,0.121989 0.03125,0.125 5.4e-4,0.003 -7.33e-4,0.09078 0,0.09375 7.33e-4,0.003 0.030327,0.09083 0.03125,0.09375 9.23e-4,0.0029 0.030141,0.122149 0.03125,0.125 0.00111,0.0029 0.061209,0.09098 0.0625,0.09375 0.00129,0.0028 0.029783,0.09107 0.03125,0.09375 0.00147,0.0027 0.060863,0.09117 0.0625,0.09375 0.00164,0.0026 0.0607,0.09128 0.0625,0.09375 0.0018,0.0025 0.060544,0.06015 0.0625,0.0625 0.00196,0.0024 0.060396,0.09153 0.0625,0.09375 0.0021,0.0022 0.091508,0.06042 0.09375,0.0625 0.00224,0.0021 0.060128,0.09182 0.0625,0.09375 0.00237,0.0019 0.091259,0.06073 0.09375,0.0625 0.00249,0.0018 0.091149,0.06089 0.09375,0.0625 0.0026,0.0016 0.091051,0.02981 0.09375,0.03125 0.0027,0.0014 0.090964,0.06124 0.09375,0.0625 0.00279,0.0013 0.090888,0.03017 0.09375,0.03125 0.00286,0.0011 0.090824,0.03036 0.09375,0.03125 0.00293,8.93e-4 0.1220229,0.03055 0.125,0.03125 0.00298,7.02e-4 0.090734,0.03074 0.09375,0.03125 0.00302,5.09e-4 0.090707,-3.13e-4 0.09375,0 0.00304,3.13e-4 0.1219434,-1.16e-4 0.125,0 0.00306,1.16e-4 0.090692,8.1e-5 0.09375,0 0.00306,-8.1e-5 0.1219539,2.78e-4 0.125,0 0.00305,-2.78e-4 0.090728,4.74e-4 0.09375,0 0.00302,-4.74e-4 0.090765,-0.03058 0.09375,-0.03125 0.00299,-6.68e-4 0.1220643,-0.03039 0.125,-0.03125 0.00294,-8.59e-4 0.090876,-0.0302 0.09375,-0.03125 0.00287,-0.001 0.090949,-0.03002 0.09375,-0.03125 0.0028,-0.0012 0.091034,-0.06109 0.09375,-0.0625 L 31.90625,51.625 56.5,60.84375 a 0.75675789,0.75675789 0 0 0 0.03125,0 c 0.0029,0.001 0.09078,0.03041 0.09375,0.03125 0.003,8.45e-4 0.121982,0.0306 0.125,0.03125 0.003,6.5e-4 0.0907,-4.52e-4 0.09375,0 0.0031,4.52e-4 0.09067,0.031 0.09375,0.03125 0.0031,2.52e-4 0.121913,-5.2e-5 0.125,0 0.0031,5.2e-5 0.09067,1.5e-4 0.09375,0 0.0031,-1.5e-4 0.121932,3.5e-4 0.125,0 0.0031,-3.5e-4 0.09071,-0.0307 0.09375,-0.03125 0.003,-5.49e-4 0.09075,-0.0305 0.09375,-0.03125 0.003,-7.46e-4 0.122059,-0.03031 0.125,-0.03125 0.0029,-9.39e-4 0.09088,-0.03012 0.09375,-0.03125 0.0029,-0.0011 0.09096,-0.02994 0.09375,-0.03125 0.0028,-0.0013 0.09105,-0.06101 0.09375,-0.0625 0.0027,-0.0015 0.09115,-0.02958 0.09375,-0.03125 0.0026,-0.0017 0.09126,-0.06067 0.09375,-0.0625 0.0025,-0.0018 0.09139,-0.09176 0.09375,-0.09375 0.0024,-0.002 0.06027,-0.06036 0.0625,-0.0625 0.0022,-0.0021 0.09167,-0.06022 0.09375,-0.0625 0.0021,-0.0023 0.06057,-0.09134 0.0625,-0.09375 0.0019,-0.0024 0.06073,-0.09122 0.0625,-0.09375 0.0018,-0.0025 0.0609,-0.09111 0.0625,-0.09375 0.0016,-0.0026 0.06107,-0.09101 0.0625,-0.09375 0.0014,-0.0027 0.03001,-0.09092 0.03125,-0.09375 0.0012,-0.0028 0.03019,-0.09085 0.03125,-0.09375 0.0011,-0.0029 0.06163,-0.09079 0.0625,-0.09375 8.67e-4,-0.003 -6.72e-4,-0.121987 0,-0.125 6.72e-4,-0.003 0.03077,-0.0907 0.03125,-0.09375 4.75e-4,-0.0031 -2.75e-4,-0.09067 0,-0.09375 2.75e-4,-0.0031 0.03118,-0.121913 0.03125,-0.125 7.4e-5,-0.0031 1.27e-4,-0.09067 0,-0.09375 -1.27e-4,-0.0031 -0.03092,-0.12193 -0.03125,-0.125 -3.27e-4,-0.0031 5.27e-4,-0.09071 0,-0.09375 L 54.28125,33.59375 70.59375,13.125 c 0.0019,-0.0024 0.06078,-0.09122 0.0625,-0.09375 0.0017,-0.0025 0.06095,-0.09111 0.0625,-0.09375 0.0015,-0.0026 0.06113,-0.09102 0.0625,-0.09375 0.0014,-0.0027 0.03006,-0.09093 0.03125,-0.09375 0.0012,-0.0028 0.03024,-0.09086 0.03125,-0.09375 0.001,-0.0029 0.03043,-0.0908 0.03125,-0.09375 8.23e-4,-0.0029 0.03062,-0.122007 0.03125,-0.125 6.31e-4,-0.003 0.03081,-0.09072 0.03125,-0.09375 4.37e-4,-0.003 -2.41e-4,-0.0907 0,-0.09375 2.41e-4,-0.003 -4.4e-5,-0.121942 0,-0.125 4.4e-5,-0.0031 1.54e-4,-0.0907 0,-0.09375 -1.54e-4,-0.0031 3.5e-4,-0.121961 0,-0.125 -3.5e-4,-0.003 -0.0307,-0.09074 -0.03125,-0.09375 -5.46e-4,-0.003 7.39e-4,-0.09078 0,-0.09375 -7.39e-4,-0.003 -0.03032,-0.122086 -0.03125,-0.125 -9.29e-4,-0.0029 -0.03014,-0.0909 -0.03125,-0.09375 -0.0011,-0.0028 -0.0612,-0.09098 -0.0625,-0.09375 -0.0013,-0.0028 -0.02978,-0.09107 -0.03125,-0.09375 -0.0015,-0.0027 -0.06086,-0.09117 -0.0625,-0.09375 -0.0016,-0.0026 -0.06069,-0.09128 -0.0625,-0.09375 -0.0018,-0.0025 -0.06054,-0.0914 -0.0625,-0.09375 -0.002,-0.0023 -0.06039,-0.06028 -0.0625,-0.0625 -0.0021,-0.0022 -0.0915,-0.09167 -0.09375,-0.09375 -0.0022,-0.0021 -0.06012,-0.06057 -0.0625,-0.0625 -0.0024,-0.0019 -0.09126,-0.06073 -0.09375,-0.0625 -0.0025,-0.0018 -0.09115,-0.0609 -0.09375,-0.0625 -0.0026,-0.0016 -0.09105,-0.02982 -0.09375,-0.03125 -0.0027,-0.0014 -0.09096,-0.06124 -0.09375,-0.0625 -0.0028,-0.0013 -0.09089,-0.03018 -0.09375,-0.03125 -0.0029,-0.0011 -0.09082,-0.03036 -0.09375,-0.03125 -0.0029,-8.87e-4 -0.122022,-0.03055 -0.125,-0.03125 -0.003,-6.96e-4 -0.09073,-0.03075 -0.09375,-0.03125 a 0.75675789,0.75675789 0 0 0 -0.03125,0 l -25.5,-3.59375 -14.4375,-21.90625 c -0.0018,-0.0027 -0.06056,-0.09115 -0.0625,-0.09375 -0.0019,-0.0026 -0.06038,-0.09129 -0.0625,-0.09375 -0.0021,-0.0025 -0.06022,-0.09144 -0.0625,-0.09375 -0.0023,-0.0023 -0.09132,-0.06035 -0.09375,-0.0625 -0.0024,-0.0021 -0.09117,-0.06053 -0.09375,-0.0625 -0.0026,-0.002 -0.09105,-0.09196 -0.09375,-0.09375 -0.0027,-0.0018 -0.09093,-0.02965 -0.09375,-0.03125 -0.0028,-0.0016 -0.09082,-0.06109 -0.09375,-0.0625 -0.0029,-0.0014 -0.09074,-0.06129 -0.09375,-0.0625 -0.003,-0.0012 -0.12191,-0.03025 -0.125,-0.03125 -0.0031,-9.96e-4 -0.0906,-0.03047 -0.09375,-0.03125 -0.0032,-7.82e-4 -0.121803,-0.03069 -0.125,-0.03125 -0.0032,-5.64e-4 -0.121772,3.44e-4 -0.125,0 -0.0032,-3.44e-4 -0.09051,1.23e-4 -0.09375,0 -0.0032,-1.23e-4 -0.121756,-10e-5 -0.125,0 -0.0032,10e-5 -0.09052,-3.21e-4 -0.09375,0 -0.0025,0 -0.06003,-1.29e-4 -0.0625,0 a 0.75675789,0.75675789 0 0 0 -0.125,0 z"
       transform="matrix(0.74799997,0,0,0.74799997,7.2482245,14.336176)"
       id="path3763"
       style="opacity:0.05;fill:#000000;fill-opacity:1;stroke:none" />
    <path
       d="m 27.96875,-15.28125 c -0.02083,0.01042 -0.104167,0.05208 -0.125,0.0625 -0.02083,0.01042 -0.104167,0.03125 -0.125,0.03125 -0.02083,0.01042 -0.104167,0.07292 -0.125,0.09375 -0.07247,0.01338 -0.210385,0.16382 -0.15625,0.125 -0.08854,0.0052 -0.166667,0.208333 -0.125,0.15625 -0.08854,0.0052 -0.166667,0.208333 -0.125,0.15625 0,0.01042 -0.02083,0.05208 -0.03125,0.0625 L 15.75,8.71875 -9.71875,15.78125 c -5.072e-4,1.56e-4 -0.062004,0.03106 -0.0625,0.03125 -4.963e-4,1.88e-4 -0.093267,-2.19e-4 -0.09375,0 -4.833e-4,2.19e-4 -0.062032,0.06225 -0.0625,0.0625 -4.683e-4,2.49e-4 -0.062048,0.03097 -0.0625,0.03125 -4.51e-4,2.79e-4 -0.06207,0.03094 -0.0625,0.03125 -4.33e-4,3.07e-4 -0.06209,0.03092 -0.0625,0.03125 -4.12e-4,3.34e-4 -0.03086,0.06214 -0.03125,0.0625 -3.9e-4,3.59e-4 -0.06213,0.06212 -0.0625,0.0625 -3.67e-4,3.84e-4 -0.06216,0.03084 -0.0625,0.03125 -3.41e-4,4.06e-4 -0.03093,0.06207 -0.03125,0.0625 -3.15e-4,4.27e-4 -0.03096,0.06205 -0.03125,0.0625 -2.87e-4,4.46e-4 -0.06224,0.06204 -0.0625,0.0625 -2.58e-4,4.64e-4 -0.03102,0.06202 -0.03125,0.0625 -2.28e-4,4.79e-4 -0.03105,0.06201 -0.03125,0.0625 -1.97e-4,4.93e-4 1.65e-4,0.09325 0,0.09375 -1.65e-4,5.04e-4 -0.03112,0.06199 -0.03125,0.0625 -1.33e-4,5.14e-4 -0.03115,0.06198 -0.03125,0.0625 -10e-5,5.21e-4 6.6e-5,0.06197 0,0.0625 -6.6e-5,5.26e-4 3.2e-5,0.09322 0,0.09375 -3.2e-5,5.3e-4 -10e-7,0.06197 0,0.0625 10e-7,5.31e-4 -3.5e-5,0.06197 0,0.0625 3.5e-5,5.29e-4 -6.9e-5,0.09322 0,0.09375 6.9e-5,5.26e-4 -1.02e-4,0.06198 0,0.0625 1.02e-4,5.21e-4 0.03111,0.06199 0.03125,0.0625 1.35e-4,5.13e-4 0.03108,0.09325 0.03125,0.09375 1.68e-4,5.03e-4 -1.99e-4,0.06201 0,0.0625 1.99e-4,4.92e-4 0.03102,0.06202 0.03125,0.0625 2.3e-4,4.78e-4 0.03099,0.06204 0.03125,0.0625 2.6e-4,4.62e-4 0.06221,0.06206 0.0625,0.0625 2.89e-4,4.45e-4 0.03093,0.06207 0.03125,0.0625 3.17e-4,4.26e-4 0.03091,0.06209 0.03125,0.0625 3.43e-4,4.05e-4 0.06213,0.03087 0.0625,0.03125 a 0.56208467,0.56208467 0 0 0 0,0.03125 l 18.6875,18.09375 -1.1875,26.375 0,0.03125 c -0.00128,0.023 8e-6,0.06212 0,0.0625 -1.2e-5,5.66e-4 -2.65e-5,0.06193 0,0.0625 2.65e-5,5.66e-4 -6.49e-5,0.09319 0,0.09375 6.49e-5,5.63e-4 0.031147,0.06194 0.03125,0.0625 1.03e-4,5.57e-4 -1.406e-4,0.0932 0,0.09375 1.406e-4,5.49e-4 0.031072,0.06196 0.03125,0.0625 1.776e-4,5.38e-4 0.031036,0.09323 0.03125,0.09375 2.137e-4,5.24e-4 0.031001,0.06199 0.03125,0.0625 2.489e-4,5.09e-4 0.030967,0.06201 0.03125,0.0625 2.829e-4,4.91e-4 0.030934,0.06203 0.03125,0.0625 3.156e-4,4.7e-4 0.062153,0.06205 0.0625,0.0625 3.468e-4,4.48e-4 0.030874,0.06208 0.03125,0.0625 3.765e-4,4.23e-4 0.062096,0.0621 0.0625,0.0625 4.044e-4,3.96e-4 0.06207,0.06213 0.0625,0.0625 4.304e-4,3.68e-4 0.062046,0.03091 0.0625,0.03125 4.544e-4,3.38e-4 0.062024,0.06219 0.0625,0.0625 4.763e-4,3.06e-4 0.062004,0.03098 0.0625,0.03125 4.96e-4,2.73e-4 0.061986,0.03101 0.0625,0.03125 5.135e-4,2.39e-4 0.093222,0.03105 0.09375,0.03125 5.285e-4,2.03e-4 0.061959,0.03108 0.0625,0.03125 5.411e-4,1.67e-4 0.061949,-1.3e-4 0.0625,0 5.512e-4,1.3e-4 0.093191,0.03116 0.09375,0.03125 5.588e-4,9.2e-5 0.061936,-5.4e-5 0.0625,0 5.637e-4,5.4e-5 0.093184,-1.5e-5 0.09375,0 5.661e-4,1.5e-5 0.061934,2.3e-5 0.0625,0 5.658e-4,-2.3e-5 0.093187,6.2e-5 0.09375,0 5.629e-4,-6.2e-5 0.061943,1e-4 0.0625,0 5.574e-4,-1e-4 0.093201,-0.03111 0.09375,-0.03125 5.493e-4,-1.37e-4 0.061961,1.75e-4 0.0625,0 5.387e-4,-1.75e-4 0.061974,-0.03104 0.0625,-0.03125 5.256e-4,-2.11e-4 0.09324,-0.031 0.09375,-0.03125 3.06e-4,-1.48e-4 0.011449,-0.02085 0.03125,-0.03125 l 0.03125,0 22.90625,-12.1875 24.75,9.25 c 3.13e-4,1.39e-4 0.01036,0.02284 0.03125,0.03125 0.01393,0.0056 0.03104,-7.8e-5 0.03125,0 5.36e-4,1.95e-4 0.06195,0.03109 0.0625,0.03125 5.48e-4,1.58e-4 0.09319,0.03113 0.09375,0.03125 5.58e-4,1.2e-4 0.06194,-8.1e-5 0.0625,0 5.64e-4,8.1e-5 0.09318,-4.2e-5 0.09375,0 5.69e-4,4.2e-5 0.06193,0.03125 0.0625,0.03125 5.7e-4,3e-6 0.09318,3.6e-5 0.09375,0 5.69e-4,-3.6e-5 0.06193,-0.03117 0.0625,-0.03125 5.65e-4,-7.5e-5 0.09319,1.13e-4 0.09375,0 5.59e-4,-1.13e-4 0.06195,-0.0311 0.0625,-0.03125 5.5e-4,-1.51e-4 0.09321,1.88e-4 0.09375,0 5.38e-4,-1.88e-4 0.06198,-0.03102 0.0625,-0.03125 5.24e-4,-2.25e-4 0.06199,-0.03099 0.0625,-0.03125 5.07e-4,-2.6e-4 0.09326,-0.06221 0.09375,-0.0625 4.88e-4,-2.94e-4 0.06203,-0.03092 0.0625,-0.03125 4.67e-4,-3.27e-4 0.06206,-0.06214 0.0625,-0.0625 4.44e-4,-3.58e-4 0.06208,-0.03086 0.0625,-0.03125 4.18e-4,-3.88e-4 0.03086,-0.06208 0.03125,-0.0625 3.91e-4,-4.16e-4 0.06214,-0.06206 0.0625,-0.0625 3.61e-4,-4.41e-4 0.06217,-0.06204 0.0625,-0.0625 3.3e-4,-4.65e-4 0.03095,-0.06201 0.03125,-0.0625 2.97e-4,-4.87e-4 0.03099,-0.06199 0.03125,-0.0625 2.63e-4,-5.06e-4 0.03102,-0.06198 0.03125,-0.0625 2.28e-4,-5.23e-4 0.03106,-0.09321 0.03125,-0.09375 1.92e-4,-5.37e-4 0.0311,-0.06195 0.03125,-0.0625 1.55e-4,-5.49e-4 0.03113,-0.09319 0.03125,-0.09375 1.17e-4,-5.58e-4 -7.8e-5,-0.06193 0,-0.0625 7.8e-5,-5.65e-4 -3.9e-5,-0.09318 0,-0.09375 3.9e-5,-5.69e-4 0,-0.06193 0,-0.0625 0,-5.7e-4 3.9e-5,-0.09318 0,-0.09375 -3.9e-5,-5.69e-4 7.8e-5,-0.06193 0,-0.0625 -5.2e-5,-3.77e-4 0.004,-0.03964 0,-0.0625 l 0,-0.03125 -4.5,-25.625 16.46875,-20.59375 0,-0.03125 c 0.01408,-0.01731 0.03105,-0.03098 0.03125,-0.03125 3.41e-4,-4.5e-4 0.06219,-0.06203 0.0625,-0.0625 3.1e-4,-4.72e-4 0.03097,-0.06201 0.03125,-0.0625 2.77e-4,-4.92e-4 0.03101,-0.09324 0.03125,-0.09375 2.43e-4,-5.1e-4 0.03104,-0.06198 0.03125,-0.0625 2.08e-4,-5.25e-4 0.03108,-0.06196 0.03125,-0.0625 1.72e-4,-5.38e-4 0.03111,-0.0932 0.03125,-0.09375 1.35e-4,-5.49e-4 -9.8e-5,-0.06194 0,-0.0625 9.8e-5,-5.56e-4 -6e-5,-0.06194 0,-0.0625 6e-5,-5.62e-4 0.03123,-0.09319 0.03125,-0.09375 2.1e-5,-5.65e-4 1.7e-5,-0.06194 0,-0.0625 -1.7e-5,-5.65e-4 -0.03119,-0.09319 -0.03125,-0.09375 -5.5e-5,-5.62e-4 9.3e-5,-0.06194 0,-0.0625 -9.3e-5,-5.57e-4 1.31e-4,-0.0932 0,-0.09375 -1.31e-4,-5.5e-4 -0.03108,-0.06196 -0.03125,-0.0625 -1.68e-4,-5.39e-4 -0.03105,-0.09322 -0.03125,-0.09375 -2.04e-4,-5.27e-4 -0.03101,-0.06199 -0.03125,-0.0625 -2.39e-4,-5.12e-4 -0.03098,-0.06201 -0.03125,-0.0625 -2.73e-4,-4.94e-4 -0.03094,-0.06203 -0.03125,-0.0625 -3.06e-4,-4.75e-4 -0.06216,-0.06205 -0.0625,-0.0625 -3.38e-4,-4.53e-4 -0.03088,-0.06207 -0.03125,-0.0625 -3.68e-4,-4.29e-4 -0.0621,-0.0621 -0.0625,-0.0625 -3.96e-4,-4.03e-4 -0.06208,-0.06212 -0.0625,-0.0625 -4.22e-4,-3.75e-4 -0.06205,-0.0309 -0.0625,-0.03125 -4.47e-4,-3.46e-4 -0.06203,-0.06218 -0.0625,-0.0625 -4.69e-4,-3.15e-4 -0.06201,-0.03097 -0.0625,-0.03125 -4.9e-4,-2.82e-4 -0.06199,-0.031 -0.0625,-0.03125 -5.08e-4,-2.48e-4 -0.06198,-0.03104 -0.0625,-0.03125 -5.23e-4,-2.13e-4 -0.09321,-0.03107 -0.09375,-0.03125 -5.36e-4,-1.77e-4 -0.06195,-0.03111 -0.0625,-0.03125 -5.47e-4,-1.4e-4 -0.06194,1.03e-4 -0.0625,0 -3.89e-4,-7.2e-5 -0.03993,-0.02786 -0.0625,-0.03125 l -0.03125,0 -25.75,-3.65625 -14.53125,-22 c -1.21e-4,-2.02e-4 0.0084,-0.01827 0,-0.03125 -0.01267,-0.01946 -0.03105,-0.03096 -0.03125,-0.03125 -3.38e-4,-4.81e-4 -0.06213,-0.09329 -0.0625,-0.09375 -3.71e-4,-4.56e-4 -0.03085,-0.03082 -0.03125,-0.03125 -4.02e-4,-4.29e-4 -0.06207,-0.0621 -0.0625,-0.0625 -4.32e-4,-3.99e-4 -0.06204,-0.06213 -0.0625,-0.0625 -4.59e-4,-3.68e-4 -0.06202,-0.06217 -0.0625,-0.0625 -4.84e-4,-3.34e-4 -0.06199,-0.03095 -0.0625,-0.03125 -5.06e-4,-2.99e-4 -0.09322,-0.03099 -0.09375,-0.03125 -5.26e-4,-2.63e-4 -0.06196,-0.03102 -0.0625,-0.03125 -5.43e-4,-2.25e-4 -0.06194,-0.03106 -0.0625,-0.03125 -5.58e-4,-1.86e-4 -0.09318,-0.0311 -0.09375,-0.03125 -5.7e-4,-1.46e-4 -0.06192,1.06e-4 -0.0625,0 -5.78e-4,-1.06e-4 -0.09317,-0.03119 -0.09375,-0.03125 -5.84e-4,-6.5e-5 -0.09316,2.3e-5 -0.09375,0 -5.88e-4,-2.3e-5 -0.06191,-1.8e-5 -0.0625,0 -3.92e-4,1.2e-5 -0.03863,-0.0016 -0.0625,0 -2.22e-4,0 -0.01607,-4.04e-4 -0.03125,0 -0.01518,4.04e-4 -0.03103,-1.2e-5 -0.03125,0 a 0.56208467,0.56208467 0 0 0 -0.09375,0 z"
       transform="matrix(0.74799997,0,0,0.74799997,7.2482245,14.336176)"
       id="path3761"
       style="opacity:0.1;fill:#000000;fill-opacity:1;stroke:none" />
    <path
       d="m 28,-14.75 a 0.37341251,0.37341251 0 0 0 -0.125,0.09375 c 0.001,-6.02e-4 -0.03226,6.35e-4 -0.03125,0 0.0012,-0.0011 -0.03236,0.03236 -0.03125,0.03125 0.0011,-0.0011 -0.03232,0.03241 -0.03125,0.03125 8.95e-4,-7.88e-4 -0.03212,8.16e-4 -0.03125,0 8.7e-4,-8.16e-4 -8.43e-4,0.03209 0,0.03125 8.43e-4,-8.43e-4 -0.03207,8.7e-4 -0.03125,0 8.16e-4,-8.7e-4 -7.88e-4,0.03214 0,0.03125 7.58e-4,-9.2e-4 -0.03198,0.03219 -0.03125,0.03125 6.98e-4,-9.67e-4 -0.03192,0.03224 -0.03125,0.03125 6.35e-4,-0.001 -6.02e-4,0.03228 0,0.03125 A 0.37341251,0.37341251 0 0 0 27.625,-14.40625 L 16.09375,9.125 l -25.625,7.125 -0.03125,0 c 0.00172,-3.98e-4 -0.032953,0.03173 -0.03125,0.03125 0.0017,-4.79e-4 -0.032928,5.59e-4 -0.03125,0 0.00168,-5.59e-4 -0.0329,6.38e-4 -0.03125,0 0.00165,-6.38e-4 -0.032868,0.03197 -0.03125,0.03125 0.00162,-7.16e-4 -0.032832,7.92e-4 -0.03125,0 0.00158,-7.92e-4 -0.032792,0.03212 -0.03125,0.03125 A 0.37341251,0.37341251 0 0 0 -9.8125,16.375 c 0.00116,-0.0011 -0.032363,0.03236 -0.03125,0.03125 0.00111,-0.0011 -0.032315,0.03241 -0.03125,0.03125 a 0.37341251,0.37341251 0 0 0 -0.03125,0.03125 c 7.016e-4,-0.001 -6.667e-4,0.0323 0,0.03125 6.667e-4,-0.0011 -0.031881,0.0011 -0.03125,0 6.311e-4,-0.0011 -5.947e-4,0.03235 0,0.03125 5.947e-4,-0.0011 -5.577e-4,0.03236 0,0.03125 5.577e-4,-0.0011 -0.03177,0.0011 -0.03125,0 6.311e-4,-0.0011 -5.947e-4,0.03235 0,0.03125 4.43e-4,-0.0012 -4.037e-4,0.03243 0,0.03125 5.577e-4,-0.0011 -0.03177,0.0011 -0.03125,0 5.2e-4,-0.0011 -4.82e-4,0.0324 0,0.03125 4.43e-4,-0.0012 -4.04e-4,0.03243 0,0.03125 a 0.37341251,0.37341251 0 0 0 -0.03125,0.09375 c 2.66e-4,-0.0022 -1.33e-4,0.03347 0,0.03125 1.33e-4,-0.0022 0,0.03348 0,0.03125 0,-0.0022 1.33e-4,0.03347 0,0.03125 -1.33e-4,-0.0022 2.66e-4,0.03346 0,0.03125 0,-0.0022 1.33e-4,0.03347 0,0.03125 -1.33e-4,-0.0022 2.66e-4,0.03346 0,0.03125 a 0.37341251,0.37341251 0 0 0 0,0.03125 c -2.42e-4,-0.0012 2.83e-4,0.03248 0,0.03125 -2.83e-4,-0.0012 0.031575,0.03247 0.03125,0.03125 -3.66e-4,-0.0012 4.06e-4,0.03244 0,0.03125 -4.06e-4,-0.0012 4.46e-4,0.03243 0,0.03125 -4.86e-4,-0.0012 0.031774,0.03239 0.03125,0.03125 -5.628e-4,-0.0011 6.006e-4,0.03236 0,0.03125 -6.006e-4,-0.0011 0.031888,0.03233 0.03125,0.03125 -6.739e-4,-0.0011 7.094e-4,0.03229 0,0.03125 -7.094e-4,-0.001 0.031994,0.001 0.03125,0 -7.441e-4,-0.001 7.78e-4,0.03224 0,0.03125 -7.78e-4,-9.89e-4 0.032061,9.62e-4 0.03125,0 -8.11e-4,-9.62e-4 8.43e-4,0.03218 0,0.03125 a 0.37341251,0.37341251 0 0 0 0.03125,0.03125 L 9,35.59375 7.8125,62.21875 c 2.663e-4,-0.0022 -1.334e-4,0.03348 0,0.03125 1.334e-4,-0.0022 0,0.03348 0,0.03125 0,-0.0022 1.334e-4,0.03348 0,0.03125 -1.334e-4,-0.0022 2.663e-4,0.03346 0,0.03125 a 0.37341251,0.37341251 0 0 0 0,0.03125 c -4.698e-4,-0.0022 0.031853,0.06468 0.03125,0.0625 -6.029e-4,-0.0022 7.337e-4,0.03339 0,0.03125 -7.337e-4,-0.0021 8.619e-4,0.03334 0,0.03125 -8.619e-4,-0.0021 0.032237,0.03328 0.03125,0.03125 -9.869e-4,-0.002 0.00111,0.03322 0,0.03125 -0.00111,-0.002 0.032476,0.03315 0.03125,0.03125 -0.00123,-0.0019 0.032588,0.03307 0.03125,0.03125 -0.00134,-0.0018 0.032696,0.03298 0.03125,0.03125 -0.00145,-0.0017 0.00155,0.03289 0,0.03125 -0.00155,-0.0016 0.032896,0.0328 0.03125,0.03125 -0.00165,-0.0015 0.032986,0.03269 0.03125,0.03125 -0.00174,-0.0014 0.033071,0.03259 0.03125,0.03125 -0.00182,-0.0013 0.033148,0.0012 0.03125,0 -0.0019,-0.0012 0.033219,0.03236 0.03125,0.03125 -0.00197,-0.0011 0.033283,0.03224 0.03125,0.03125 -0.00203,-9.86e-4 0.033339,8.61e-4 0.03125,0 a 0.37341251,0.37341251 0 0 0 0.125,0.03125 c -0.00221,-2.66e-4 0.033475,1.33e-4 0.03125,0 -0.00223,-1.33e-4 0.033479,0 0.03125,0 -0.00223,0 0.033475,-1.33e-4 0.03125,0 -0.00223,1.33e-4 0.033463,-2.66e-4 0.03125,0 -0.00168,0 0.032925,-7.5e-5 0.03125,0 -0.00168,7.5e-5 0.03292,-1.51e-4 0.03125,0 -0.00167,1.51e-4 0.032912,-2.26e-4 0.03125,0 -0.00166,2.26e-4 0.0329,-3e-4 0.03125,0 A 0.37341251,0.37341251 0 0 0 8.625,62.84375 c -0.00118,4.04e-4 0.032416,-4.43e-4 0.03125,0 -0.00115,4.82e-4 0.032383,-5.2e-4 0.03125,0 -0.00113,5.2e-4 0.00112,-0.03181 0,-0.03125 -0.00112,5.58e-4 0.032346,-5.95e-4 0.03125,0 -0.0011,5.95e-4 0.032326,-6.31e-4 0.03125,0 L 8.78125,62.78125 31.90625,50.5 56.875,59.875 a 0.37341251,0.37341251 0 0 0 0.0625,0.03125 c -0.0016,-3e-4 0.03291,2.26e-4 0.03125,0 -0.0017,-2.26e-4 0.03292,1.51e-4 0.03125,0 -0.0017,-1.51e-4 0.03292,7.5e-5 0.03125,0 -0.0017,-7.5e-5 0.03293,0 0.03125,0 -0.0017,7.5e-5 0.03292,-1.51e-4 0.03125,0 -0.0022,-1.33e-4 0.03348,0 0.03125,0 -0.0017,2.26e-4 0.0329,-3e-4 0.03125,0 -0.0022,1.33e-4 0.03346,-2.66e-4 0.03125,0 a 0.37341251,0.37341251 0 0 0 0.03125,0 c -0.0012,2.42e-4 0.03248,-2.83e-4 0.03125,0 -0.0012,2.83e-4 0.03247,-0.03157 0.03125,-0.03125 -0.0012,3.66e-4 0.03244,-4.06e-4 0.03125,0 -0.0012,4.06e-4 0.03243,-4.46e-4 0.03125,0 -0.0012,4.86e-4 0.03239,-0.03177 0.03125,-0.03125 -0.0011,5.63e-4 0.03236,-6.01e-4 0.03125,0 -0.0011,6.01e-4 0.03234,-0.03189 0.03125,-0.03125 -0.0011,6.74e-4 0.03229,-7.09e-4 0.03125,0 -0.001,7.09e-4 0.001,-0.03199 0,-0.03125 -0.001,7.44e-4 0.03224,-7.78e-4 0.03125,0 -9.89e-4,7.78e-4 9.62e-4,-0.03206 0,-0.03125 -9.62e-4,8.11e-4 0.03218,-8.43e-4 0.03125,0 -0.0012,0.0011 0.03236,-0.03236 0.03125,-0.03125 -0.0011,0.0011 0.03231,-0.03241 0.03125,-0.03125 A 0.37341251,0.37341251 0 0 0 57.625,59.65625 c -7.02e-4,0.001 6.67e-4,-0.0323 0,-0.03125 -6.67e-4,0.0011 0.03188,-0.0011 0.03125,0 -6.31e-4,0.0011 5.95e-4,-0.03235 0,-0.03125 -5.95e-4,0.0011 5.58e-4,-0.03236 0,-0.03125 -5.58e-4,0.0011 0.03177,-0.0011 0.03125,0 -5.2e-4,0.0011 4.82e-4,-0.0324 0,-0.03125 -4.43e-4,0.0012 4.04e-4,-0.03243 0,-0.03125 a 0.37341251,0.37341251 0 0 0 0.03125,-0.09375 c -2.66e-4,0.0022 1.33e-4,-0.03348 0,-0.03125 -1.33e-4,0.0022 0,-0.03348 0,-0.03125 0,0.0022 -1.33e-4,-0.03348 0,-0.03125 -1.33e-4,0.0022 0,-0.03348 0,-0.03125 0,0.0022 -1.33e-4,-0.03348 0,-0.03125 1.33e-4,0.0022 -2.66e-4,-0.03346 0,-0.03125 a 0.37341251,0.37341251 0 0 0 0,-0.03125 l -4.5,-25.875 16.59375,-20.84375 a 0.37341251,0.37341251 0 0 0 0.03125,0 c -7.02e-4,0.001 6.67e-4,-0.0323 0,-0.03125 -6.67e-4,0.0011 0.03188,-0.0011 0.03125,0 -6.31e-4,0.0011 5.95e-4,-0.03235 0,-0.03125 -5.95e-4,0.0011 5.58e-4,-0.03237 0,-0.03125 -5.58e-4,0.0011 0.03177,-0.0011 0.03125,0 -5.2e-4,0.0011 4.82e-4,-0.0324 0,-0.03125 -4.43e-4,0.0012 4.04e-4,-0.03243 0,-0.03125 a 0.37341251,0.37341251 0 0 0 0.03125,-0.09375 c -2.66e-4,0.0022 1.33e-4,-0.03347 0,-0.03125 -1.33e-4,0.0022 0,-0.03348 0,-0.03125 0,0.0022 -1.33e-4,-0.03347 0,-0.03125 -1.33e-4,0.0022 0,-0.03348 0,-0.03125 0,0.0022 -1.33e-4,-0.03347 0,-0.03125 -1.33e-4,0.0022 0,-0.03348 0,-0.03125 0,0.0022 -1.33e-4,-0.03347 0,-0.03125 1.33e-4,0.0022 -2.66e-4,-0.03346 0,-0.03125 A 0.37341251,0.37341251 0 0 0 69.90625,11.875 c 7.33e-4,0.0019 -8.34e-4,-0.03309 0,-0.03125 8.34e-4,0.0018 -0.03218,-0.03304 -0.03125,-0.03125 9.32e-4,0.0018 -0.001,-0.03299 0,-0.03125 0.001,0.0017 -0.03237,-0.03293 -0.03125,-0.03125 0.0011,0.0017 -0.03246,-0.03287 -0.03125,-0.03125 0.0012,0.0016 -0.0013,-0.0328 0,-0.03125 0.0013,0.0015 -0.03263,-0.03273 -0.03125,-0.03125 0.0011,0.0012 -0.03236,-0.03236 -0.03125,-0.03125 0.0011,0.0011 -0.03241,-0.03232 -0.03125,-0.03125 a 0.37341251,0.37341251 0 0 0 -0.0625,-0.0625 c 0.001,5.49e-4 -0.03229,-5.17e-4 -0.03125,0 0.0011,4.84e-4 -0.03232,-4.52e-4 -0.03125,0 0.0011,4.52e-4 -0.03233,-0.03167 -0.03125,-0.03125 0.0011,3.84e-4 -0.03235,-3.5e-4 -0.03125,0 0.0011,3.16e-4 -0.03237,-2.81e-4 -0.03125,0 0.0011,2.81e-4 -0.03238,-2.46e-4 -0.03125,0 0.0011,2.46e-4 -0.0011,-0.03146 0,-0.03125 0.0011,2.11e-4 -0.03239,-1.75e-4 -0.03125,0 0.0011,1.75e-4 -0.0324,-1.39e-4 -0.03125,0 l -0.0625,0 L 43.4375,7.8125 28.75,-14.5 a 0.37341251,0.37341251 0 0 0 -0.03125,-0.03125 c 0.0011,0.0012 -0.03236,-0.03236 -0.03125,-0.03125 0.0011,0.0011 -0.03241,-0.03232 -0.03125,-0.03125 A 0.37341251,0.37341251 0 0 0 28.625,-14.625 c 0.001,7.02e-4 -0.0323,-6.67e-4 -0.03125,0 0.0011,6.67e-4 -0.0011,-0.03188 0,-0.03125 0.0011,6.31e-4 -0.03235,-5.95e-4 -0.03125,0 0.0011,5.95e-4 -0.03236,-5.58e-4 -0.03125,0 0.0011,5.58e-4 -0.0011,-0.03177 0,-0.03125 0.0011,6.31e-4 -0.03235,-5.95e-4 -0.03125,0 0.0011,5.95e-4 -0.03236,-5.58e-4 -0.03125,0 0.0011,5.58e-4 -0.0011,-0.03177 0,-0.03125 0.0011,5.2e-4 -0.0324,-4.82e-4 -0.03125,0 0.0012,4.43e-4 -0.03243,-4.04e-4 -0.03125,0 A 0.37341251,0.37341251 0 0 0 28.3125,-14.75 c 0.0022,2.66e-4 -0.03347,-1.33e-4 -0.03125,0 0.0017,3e-4 -0.03291,-2.26e-4 -0.03125,0 0.0017,2.26e-4 -0.03292,-1.51e-4 -0.03125,0 0.0022,-1.33e-4 -0.03346,2.66e-4 -0.03125,0 0.0017,0 -0.03292,7.5e-5 -0.03125,0 0.0017,-7.5e-5 -0.03292,1.51e-4 -0.03125,0 0.0022,0 -0.06472,1.33e-4 -0.0625,0 a 0.37341251,0.37341251 0 0 0 -0.0625,0 z"
       transform="matrix(0.74799997,0,0,0.74799997,7.2482245,14.336176)"
       id="path2991"
       style="opacity:0.2;fill:#000000;fill-opacity:1;stroke:none" />
  </g>
  <g
     id="layer1"
     style="display:inline">
    <path
       d="M 57.09091,59.272726 31.856969,49.815713 8.4402775,62.234578 9.6367138,35.313296 -9.4104836,16.880339 16.562896,9.6990841 28.207772,-14.111974 43.063767,8.3710483 69.307894,12.087962 52.516024,33.164489 z"
       transform="matrix(0.74799997,0,0,0.74799997,7.2482245,14.336176)"
       id="path3959"
       style="fill:#ffffff;fill-opacity:1;stroke:none" />
  </g>
</svg>
