<?xml version="1.0" encoding="UTF-8" standalone="no"?>
<!-- Created with Inkscape (http://www.inkscape.org/) -->

<svg
   xmlns:dc="http://purl.org/dc/elements/1.1/"
   xmlns:cc="http://creativecommons.org/ns#"
   xmlns:rdf="http://www.w3.org/1999/02/22-rdf-syntax-ns#"
   xmlns:svg="http://www.w3.org/2000/svg"
   xmlns="http://www.w3.org/2000/svg"
   version="1.1"
   width="64"
   height="64"
   id="svg2985">
  <defs
     id="defs2987" />
  <metadata
     id="metadata2990">
    <rdf:RDF>
      <cc:Work
         rdf:about="">
        <dc:format>image/svg+xml</dc:format>
        <dc:type
           rdf:resource="http://purl.org/dc/dcmitype/StillImage" />
        <dc:title></dc:title>
      </cc:Work>
    </rdf:RDF>
  </metadata>
  <g
     id="layer2">
    <path
       d="m 8.28125,24.25 a 1.5494783,1.5494783 0 0 0 -1.5625,1.5625 l 0,11.34375 a 1.5494783,1.5494783 0 0 0 1.5625,1.5625 l 11.3125,0 a 1.5494783,1.5494783 0 0 0 1.5625,-1.5625 l 0,-11.34375 A 1.5494783,1.5494783 0 0 0 19.59375,24.25 l -11.3125,0 z m 17.84375,0 a 1.5494783,1.5494783 0 0 0 -1.5625,1.5625 l 0,11.34375 a 1.5494783,1.5494783 0 0 0 1.5625,1.5625 l 11.34375,0 a 1.5494783,1.5494783 0 0 0 1.5625,-1.5625 l 0,-11.34375 A 1.5494783,1.5494783 0 0 0 37.46875,24.25 l -11.34375,0 z m 17.78125,0 a 1.5494783,1.5494783 0 0 0 -1.5625,1.5625 l 0,11.34375 a 1.5494783,1.5494783 0 0 0 1.5625,1.5625 l 11.34375,0 a 1.5494783,1.5494783 0 0 0 1.5625,-1.5625 l 0,-11.34375 A 1.5494783,1.5494783 0 0 0 55.25,24.25 l -11.34375,0 z"
       id="path3764"
       style="opacity:0.05;fill:#000000;fill-opacity:1;stroke:none" />
    <path
       d="m 8.09375,24.8125 a 1.0139654,1.0139654 0 0 0 -0.8125,1 l 0,11.34375 a 1.0139654,1.0139654 0 0 0 1,1 l 11.3125,0 a 1.0139654,1.0139654 0 0 0 1,-1 l 0,-11.34375 a 1.0139654,1.0139654 0 0 0 -1,-1 l -11.3125,0 a 1.0139654,1.0139654 0 0 0 -0.1875,0 z m 17.84375,0 a 1.0139654,1.0139654 0 0 0 -0.8125,1 l 0,11.34375 a 1.0139654,1.0139654 0 0 0 1,1 l 11.34375,0 a 1.0139654,1.0139654 0 0 0 1,-1 l 0,-11.34375 a 1.0139654,1.0139654 0 0 0 -1,-1 l -11.34375,0 a 1.0139654,1.0139654 0 0 0 -0.1875,0 z m 17.78125,0 a 1.0139654,1.0139654 0 0 0 -0.8125,1 l 0,11.34375 a 1.0139654,1.0139654 0 0 0 1,1 l 11.34375,0 a 1.0139654,1.0139654 0 0 0 1,-1 l 0,-11.34375 a 1.0139654,1.0139654 0 0 0 -1,-1 l -11.34375,0 a 1.0139654,1.0139654 0 0 0 -0.1875,0 z"
       id="path3766"
       style="opacity:0.1;fill:#000000;fill-opacity:1;stroke:none" />
    <path
       d="m 8.28125,25.3125 a 0.48538069,0.48538069 0 0 0 -0.5,0.5 l 0,11.34375 a 0.48538069,0.48538069 0 0 0 0.5,0.5 l 11.3125,0 a 0.48538069,0.48538069 0 0 0 0.5,-0.5 l 0,-11.34375 a 0.48538069,0.48538069 0 0 0 -0.5,-0.5 l -11.3125,0 z m 17.84375,0 a 0.48538069,0.48538069 0 0 0 -0.5,0.5 l 0,11.34375 a 0.48538069,0.48538069 0 0 0 0.5,0.5 l 11.34375,0 a 0.48538069,0.48538069 0 0 0 0.5,-0.5 l 0,-11.34375 a 0.48538069,0.48538069 0 0 0 -0.5,-0.5 l -11.34375,0 z m 17.78125,0 a 0.48538069,0.48538069 0 0 0 -0.5,0.5 l 0,11.34375 a 0.48538069,0.48538069 0 0 0 0.5,0.5 l 11.34375,0 a 0.48538069,0.48538069 0 0 0 0.5,-0.5 l 0,-11.34375 a 0.48538069,0.48538069 0 0 0 -0.5,-0.5 l -11.34375,0 z"
       id="path3768"
       style="opacity:0.2;fill:#000000;fill-opacity:1;stroke:none" />
  </g>
  <g
     id="layer1"
     style="display:inline">
    <rect
       width="11.33665"
       height="11.33665"
       x="-37.2057"
       y="8.2503586"
       transform="matrix(0,-1,1,0,0,0)"
       id="rect3761"
       style="fill:#ffffff;fill-opacity:1;stroke:none" />
    <rect
       width="11.33665"
       height="11.33665"
       x="-37.2057"
       y="26.105665"
       transform="matrix(0,-1,1,0,0,0)"
       id="rect3763"
       style="fill:#ffffff;fill-opacity:1;stroke:none" />
    <rect
       width="11.33665"
       height="11.33665"
       x="-37.2057"
       y="43.887493"
       transform="matrix(0,-1,1,0,0,0)"
       id="rect3768"
       style="fill:#ffffff;fill-opacity:1;stroke:none" />
  </g>
</svg>
