<?xml version="1.0" encoding="UTF-8" standalone="no"?>
<!-- Created with Inkscape (http://www.inkscape.org/) -->

<svg
   xmlns:dc="http://purl.org/dc/elements/1.1/"
   xmlns:cc="http://creativecommons.org/ns#"
   xmlns:rdf="http://www.w3.org/1999/02/22-rdf-syntax-ns#"
   xmlns:svg="http://www.w3.org/2000/svg"
   xmlns="http://www.w3.org/2000/svg"
   xmlns:sodipodi="http://sodipodi.sourceforge.net/DTD/sodipodi-0.dtd"
   xmlns:inkscape="http://www.inkscape.org/namespaces/inkscape"
   width="64px"
   height="64px"
   id="svg3965"
   version="1.1"
   inkscape:version="0.48.4 r9939"
   sodipodi:docname="file-video.svg">
  <defs
     id="defs3967">
    <filter
       inkscape:collect="always"
       id="filter4665">
      <feGaussianBlur
         inkscape:collect="always"
         stdDeviation="1.1125"
         id="feGaussianBlur4667" />
    </filter>
  </defs>
  <sodipodi:namedview
     id="base"
     pagecolor="#ffffff"
     bordercolor="#666666"
     borderopacity="1.0"
     inkscape:pageopacity="0.0"
     inkscape:pageshadow="2"
     inkscape:zoom="11"
     inkscape:cx="46.339113"
     inkscape:cy="33.84369"
     inkscape:current-layer="layer1"
     showgrid="true"
     inkscape:document-units="px"
     inkscape:grid-bbox="true"
     inkscape:window-width="1239"
     inkscape:window-height="999"
     inkscape:window-x="41"
     inkscape:window-y="0"
     inkscape:window-maximized="1" />
  <metadata
     id="metadata3970">
    <rdf:RDF>
      <cc:Work
         rdf:about="">
        <dc:format>image/svg+xml</dc:format>
        <dc:type
           rdf:resource="http://purl.org/dc/dcmitype/StillImage" />
        <dc:title></dc:title>
      </cc:Work>
    </rdf:RDF>
  </metadata>
  <g
     inkscape:groupmode="layer"
     id="layer3"
     inkscape:label="bg"
     style="display:inline">
    <path
       style="opacity:0.7;fill:#000000;stroke:none;filter:url(#filter4665)"
       d="m 13.399895,6.4550246 26.227273,-0.04546 10,11.2727274 0,41.5 -36.136364,0 z"
       id="path4051-5"
       inkscape:connector-curvature="0"
       transform="matrix(1.1556819,0,0,1.1556819,-5.1530348,-5.3757078)" />
  </g>
  <g
     id="layer1"
     inkscape:label="Layer 1"
     inkscape:groupmode="layer"
     style="display:inline">
    <path
       style="fill:#ffffff;fill-opacity:1;stroke:none"
       d="m 10.454545,1.9541811 30.429316,-0.052738 11.602165,13.0788039 0,48.148985 -41.926007,0 z"
       id="path4051"
       inkscape:connector-curvature="0" />
    <path
       style="fill:#999999;stroke:none"
       d="m 39.881855,5.0656708 0.369161,10.4946852 8.965309,0 -6.803088,-1.951272 z"
       id="path4561"
       inkscape:connector-curvature="0" />
    <path
       style="fill:#999999;stroke:none"
       d="m 52.470849,62.239272 0,0.941593 -41.933473,0 0,-0.811074 0.09322,0.652589 41.709728,-0.05594 z"
       id="path4570"
       inkscape:connector-curvature="0" />
    <path
       style="fill:#b3b3b3;stroke:none"
       d="m 31.414998,18.659304 0,25.712974 c 0,0 -0.241368,-0.880196 -2.057038,-1.928473 -1.81567,-1.048277 -6.556808,0.06428 -6.556808,4.564053 0,4.49977 5.913984,6.685373 8.870976,3.728381 2.956992,-2.956992 2.314167,-6.042549 2.314167,-8.806694 0,-2.764144 0,-20.056119 0,-20.056119 0,0 2.442733,5.078312 4.949748,5.27116 2.507015,0.192847 3.535534,-0.128565 3.535534,-0.128565 0,0 -3.921229,-0.385695 -6.235396,-4.885465 -2.314168,-4.499771 -2.442733,-3.599817 -2.442733,-3.599817 z"
       id="path3015"
       inkscape:connector-curvature="0" />
  </g>
</svg>
