<?xml version="1.0" encoding="UTF-8" standalone="no"?>
<!-- Created with Inkscape (http://www.inkscape.org/) -->

<svg
   xmlns:dc="http://purl.org/dc/elements/1.1/"
   xmlns:cc="http://creativecommons.org/ns#"
   xmlns:rdf="http://www.w3.org/1999/02/22-rdf-syntax-ns#"
   xmlns:svg="http://www.w3.org/2000/svg"
   xmlns="http://www.w3.org/2000/svg"
   xmlns:sodipodi="http://sodipodi.sourceforge.net/DTD/sodipodi-0.dtd"
   xmlns:inkscape="http://www.inkscape.org/namespaces/inkscape"
   width="64px"
   height="64px"
   id="svg2985"
   version="1.1"
   inkscape:version="0.48.4 r9939"
   sodipodi:docname="folder-videos.svg">
  <defs
     id="defs2987">
    <linearGradient
       id="linearGradient3765">
      <stop
         style="stop-color:#c8c8c8;stop-opacity:1;"
         offset="0"
         id="stop3767" />
      <stop
         style="stop-color:#ffffff;stop-opacity:1;"
         offset="1"
         id="stop3769" />
    </linearGradient>
    <filter
       inkscape:collect="always"
       id="filter3814">
      <feGaussianBlur
         inkscape:collect="always"
         stdDeviation="1.3844829"
         id="feGaussianBlur3816" />
    </filter>
  </defs>
  <sodipodi:namedview
     id="base"
     pagecolor="#ffffff"
     bordercolor="#666666"
     borderopacity="1.0"
     inkscape:pageopacity="0.0"
     inkscape:pageshadow="2"
     inkscape:zoom="7.7781746"
     inkscape:cx="45.174201"
     inkscape:cy="12.187975"
     inkscape:current-layer="layer1"
     showgrid="true"
     inkscape:document-units="px"
     inkscape:grid-bbox="true"
     inkscape:window-width="1236"
     inkscape:window-height="977"
     inkscape:window-x="44"
     inkscape:window-y="22"
     inkscape:window-maximized="1" />
  <metadata
     id="metadata2990">
    <rdf:RDF>
      <cc:Work
         rdf:about="">
        <dc:format>image/svg+xml</dc:format>
        <dc:type
           rdf:resource="http://purl.org/dc/dcmitype/StillImage" />
        <dc:title></dc:title>
      </cc:Work>
    </rdf:RDF>
  </metadata>
  <g
     inkscape:groupmode="layer"
     inkscape:label="bg"
     id="g3755">
    <path
       style="fill:#000000;stroke:none;display:inline;filter:url(#filter3814);opacity:0.7"
       d="m 3.0517923,8.4954709 0,52.3901841 57.5327797,0 0,-43.647773 -21.341768,0 -11.89225,-9.5780827 z"
       id="path3758-0"
       inkscape:connector-curvature="0" />
  </g>
  <g
     id="layer1"
     inkscape:label="Layer 1"
     inkscape:groupmode="layer"
     style="display:inline">
    <path
       style="fill:#ffffff;stroke:none;stroke-width:1px;stroke-linecap:butt;stroke-linejoin:miter;stroke-opacity:1"
       d="m 3.1498393,8.7813886 0,52.3901844 57.5327787,0 0,-43.647773 -21.341768,0 L 27.4486,7.945717 z"
       id="path3758"
       inkscape:connector-curvature="0" />
    <path
       style="fill:#666666;stroke:none"
       d="m 3.1648577,59.207833 -0.056818,2.082857 57.6131325,-0.04821 -0.06428,-3.262333 -0.144635,2.828427 -57.2435084,0.25713 z"
       id="path3760"
       inkscape:connector-curvature="0"
       sodipodi:nodetypes="ccccccc" />
  </g>
  <g
     inkscape:groupmode="layer"
     id="layer2"
     inkscape:label="top">
    <path
       style="fill:#b3b3b3;stroke:none"
       d="m 13.8125,28.125 0.0625,22.5 35.3125,0 0,-22.5 z M 48.414773,28.78125 48.551136,49.883523 14.96875,49.65625 14.605114,28.84375 z"
       id="path3808"
       inkscape:connector-curvature="0"
       sodipodi:nodetypes="cccccccccc" />
    <path
       style="fill:#b3b3b3;stroke:none;stroke-width:1px;stroke-linecap:butt;stroke-linejoin:miter;stroke-opacity:1"
       d="m 15.138513,39.572675 0.224989,9.674506 17.806234,0.192848 5.27116,-0.09642 -8.099587,-4.692618 -2.956992,-3.18198 -3.824805,-3.503393 -6.556808,0.482118 z"
       id="path3813"
       inkscape:connector-curvature="0" />
    <path
       style="fill:#b3b3b3;stroke:none;stroke-width:1px;stroke-linecap:butt;stroke-linejoin:miter;stroke-opacity:1"
       d="m 30.341309,44.072445 7.521045,-3.406969 5.528289,-4.692617 4.499771,-1.799909 0.2732,2.490945 0.144636,12.920769 -7.971022,-0.06428 -1.221366,-0.24106 c 0,0 -8.485282,-4.837253 -8.549564,-4.869394 -0.06428,-0.03214 -0.224989,-0.337483 -0.224989,-0.337483 z"
       id="path3815"
       inkscape:connector-curvature="0" />
    <path
       style="fill:#b3b3b3;stroke:none"
       d="m 16.649151,27.905413 0,-1.542778 34.457277,0 0,21.631039 -1.801801,0 0,-0.504511 1.332995,-0.05648 -0.04545,-20.587926 -33.396617,0.128565 -0.06428,0.932095 z"
       id="path3817"
       inkscape:connector-curvature="0"
       sodipodi:nodetypes="ccccccccccc" />
  </g>
</svg>
