<?xml version="1.0" encoding="UTF-8" standalone="no"?>
<!-- Created with Inkscape (http://www.inkscape.org/) -->

<svg
   xmlns:dc="http://purl.org/dc/elements/1.1/"
   xmlns:cc="http://creativecommons.org/ns#"
   xmlns:rdf="http://www.w3.org/1999/02/22-rdf-syntax-ns#"
   xmlns:svg="http://www.w3.org/2000/svg"
   xmlns="http://www.w3.org/2000/svg"
   xmlns:sodipodi="http://sodipodi.sourceforge.net/DTD/sodipodi-0.dtd"
   xmlns:inkscape="http://www.inkscape.org/namespaces/inkscape"
   version="1.1"
   width="64"
   height="64"
   id="svg3854"
   inkscape:version="0.48.5 r"
   sodipodi:docname="logout.svg">
  <sodipodi:namedview
     pagecolor="#ffffff"
     bordercolor="#666666"
     borderopacity="1"
     objecttolerance="10"
     gridtolerance="10"
     guidetolerance="10"
     inkscape:pageopacity="0"
     inkscape:pageshadow="2"
     inkscape:window-width="1241"
     inkscape:window-height="998"
     id="namedview11"
     showgrid="false"
     inkscape:zoom="10.429825"
     inkscape:cx="20.193887"
     inkscape:cy="29.426764"
     inkscape:window-x="39"
     inkscape:window-y="0"
     inkscape:window-maximized="1"
     inkscape:current-layer="svg3854" />
  <defs
     id="defs3856" />
  <metadata
     id="metadata3859">
    <rdf:RDF>
      <cc:Work
         rdf:about="">
        <dc:format>image/svg+xml</dc:format>
        <dc:type
           rdf:resource="http://purl.org/dc/dcmitype/StillImage" />
        <dc:title />
      </cc:Work>
    </rdf:RDF>
  </metadata>
  <g
     id="layer3">
    <path
       d="M 10.09375,5.84375 C 9.6184165,5.8896247 9.2161737,6.3349649 9.21875,6.8125 l 0,3.625 0.4375,47.28125 c -3.908e-4,0.507343 0.461407,0.969141 0.96875,0.96875 l 34.09375,0 c 0.507343,3.91e-4 0.969141,-0.461407 0.96875,-0.96875 l 0,-18.375 c 3.91e-4,-0.507343 -0.461407,-0.969141 -0.96875,-0.96875 l -4.929087,0 c -0.507343,-3.91e-4 -0.867446,0.461407 -0.867055,0.96875 l -0.01695,12.339181 -22.742524,0 0,-39.306821 23.099516,0 0,17.53014 c -3.91e-4,0.507343 0.461407,0.969141 0.96875,0.96875 l 4.674849,0 c 0.507343,3.91e-4 0.969141,-0.461407 0.96875,-0.96875 l 0,-23.09375 C 45.875391,6.305157 45.413593,5.8433592 44.90625,5.84375 l -34.71875,0 c -0.03123,-0.00151 -0.06252,-0.00151 -0.09375,0 z m 37.9375,21.34375 c -0.486162,0.03108 -0.907617,0.481598 -0.90625,0.96875 l 0,3.3125 -19.3125,0 c -0.517938,-6.82e-4 -0.98587,0.482345 -0.96875,1 l 0.1875,4.65625 c 0.01566,0.496838 0.471665,0.93813 0.96875,0.9375 l 19.375,0 0,3.3125 c 0.0019,0.669312 0.852181,1.16838 1.4375,0.84375 L 60.125,35.6875 C 60.726795,35.363846 60.74565,34.345714 60.15625,34 l -11.5625,-6.6875 c -0.169164,-0.09706 -0.368151,-0.141275 -0.5625,-0.125 z"
       transform="translate(-0.08838835,0.37565048)"
       id="path3759"
       style="opacity:0.05;fill:#000000;stroke:none"
       inkscape:connector-curvature="0"
       sodipodi:nodetypes="ccccccccccccccccccccccccccccccccccccc" />
    <path
       d="M 10.0625,6.15625 C 9.7636656,6.2172637 9.5287033,6.5075112 9.53125,6.8125 l 0,3.625 0.4375,47.28125 c 0.00404,0.342491 0.313759,0.65221 0.65625,0.65625 l 34.09375,0 c 0.342491,-0.004 0.65221,-0.313759 0.65625,-0.65625 l 0,-18.375 C 45.371,39.001259 45.061241,38.69154 44.71875,38.6875 l -4.862288,0 c -0.342491,0.004 -0.584414,0.313759 -0.588454,0.65625 l 0,12.95095 -23.606015,0 0.04794,-40.284845 23.878261,0 -0.04794,17.896395 c 0.004,0.342491 0.313759,0.65221 0.65625,0.65625 l 4.709746,0 c 0.342491,-0.004 0.65221,-0.313759 0.65625,-0.65625 l 0,-23.09375 C 45.55846,6.4700087 45.248741,6.1602896 44.90625,6.15625 l -34.71875,0 c -0.04154,-0.00393 -0.08346,-0.00393 -0.125,0 z M 47.96875,27.5 c -0.298834,0.06101 -0.533797,0.351261 -0.53125,0.65625 l 0,3.625 -19.625,0 c -0.353032,0.004 -0.668697,0.334665 -0.65625,0.6875 l 0.1875,4.65625 C 27.36332,37.456879 27.667562,37.746632 28,37.75 l 19.6875,0 0,3.625 c 0.0072,0.461629 0.601741,0.796045 1,0.5625 L 60,35.40625 c 0.37885,-0.237799 0.37885,-0.887201 0,-1.125 L 48.4375,27.59375 C 48.299879,27.506401 48.129381,27.472301 47.96875,27.5 z"
       transform="translate(-0.08838835,0.37565048)"
       id="path3761"
       style="opacity:0.1;fill:#000000;stroke:none"
       inkscape:connector-curvature="0"
       sodipodi:nodetypes="ccccccccccccccccccccccccccccccccccccc" />
    <path
       d="M 10.05333,6.5 C 9.9233288,6.541761 9.8293217,6.6760571 9.83458,6.8125 l 0.016451,3.625 0.4375004,47.28125 c 0.0027,0.118878 0.0788,0.233046 0.1875,0.28125 0.03894,0.01884 0.08178,0.02955 0.125,0.03125 l 34.117719,0 c 0.163202,-0.0015 0.310972,-0.149298 0.3125,-0.3125 l 0,-18.375 c -0.0015,-0.163202 -0.149298,-0.310972 -0.3125,-0.3125 l -4.624999,0 c -0.163202,0.0015 -0.363348,0.149291 -0.363348,0.3125 l 0,13.397393 -24.524283,0 0,-41.170917 24.813478,0 0,18.336024 c 0.0015,0.163202 0.149298,0.310972 0.3125,0.3125 l 4.574152,0 c 0.163202,-0.0015 0.310972,-0.149298 0.3125,-0.3125 l 0,-23.09375 C 45.217222,6.649298 45.069452,6.5015283 44.90625,6.5 l -34.75917,0 C 10.11606,6.49534 10.08435,6.49534 10.05333,6.5 z M 48,27.84375 c -0.06371,0.0234 -0.119434,0.06798 -0.15625,0.125 -0.04004,0.05373 -0.06229,0.120492 -0.0625,0.1875 l 0,3.96875 -19.96875,0 c -0.163202,0.0015 -0.310972,0.149298 -0.3125,0.3125 l 0.1875,4.65625 c 0.0015,0.163202 0.149298,0.310972 0.3125,0.3125 l 20.03125,0 0,3.96875 c -0.0039,0.220368 0.276133,0.388375 0.46875,0.28125 L 59.8125,35.125 c 0.206385,-0.104857 0.206385,-0.457643 0,-0.5625 L 48.25,27.875 C 48.17569,27.83094 48.082872,27.81934 48,27.84375 z"
       transform="translate(-0.08838835,0.37565048)"
       id="path3763"
       style="opacity:0.2;fill:#000000;stroke:none"
       inkscape:connector-curvature="0"
       sodipodi:nodetypes="cccccccccccsccccccccccccccccccccccccccc" />
  </g>
  <g
     id="layer1"
     style="display:inline;fill:#ffffff">
    <path
       d="m 10.09375,7.1875 0,3.625 0.4375,47.28125 34.09375,0 0,-18.375 -4.658899,0 0,13.853711 -25.204947,0 0,-42.10341 25.477193,0 0,18.812199 4.574153,0 0,-23.09375 z M 48,28.53125 l 0,4.28125 -20.28125,0 0.1875,4.65625 20.34375,0 0,4.28125 11.3125,-6.53125 z"
       id="path3862"
       style="fill:#ffffff;stroke:none"
       inkscape:connector-curvature="0"
       sodipodi:nodetypes="cccccccccccccccccccccc" />
  </g>
</svg>
