<?xml version="1.0" encoding="UTF-8" standalone="no"?>
<!-- Created with Inkscape (http://www.inkscape.org/) -->

<svg
   xmlns:dc="http://purl.org/dc/elements/1.1/"
   xmlns:cc="http://creativecommons.org/ns#"
   xmlns:rdf="http://www.w3.org/1999/02/22-rdf-syntax-ns#"
   xmlns:svg="http://www.w3.org/2000/svg"
   xmlns="http://www.w3.org/2000/svg"
   xmlns:sodipodi="http://sodipodi.sourceforge.net/DTD/sodipodi-0.dtd"
   xmlns:inkscape="http://www.inkscape.org/namespaces/inkscape"
   version="1.1"
   width="48"
   height="48"
   id="svg2985"
   inkscape:version="0.48.5 r"
   sodipodi:docname="move.svg">
  <sodipodi:namedview
     pagecolor="#ffffff"
     bordercolor="#666666"
     borderopacity="1"
     objecttolerance="10"
     gridtolerance="10"
     guidetolerance="10"
     inkscape:pageopacity="0"
     inkscape:pageshadow="2"
     inkscape:window-width="1239"
     inkscape:window-height="998"
     id="namedview14"
     showgrid="false"
     inkscape:zoom="8"
     inkscape:cx="14.858831"
     inkscape:cy="27.488167"
     inkscape:window-x="41"
     inkscape:window-y="0"
     inkscape:window-maximized="1"
     inkscape:current-layer="svg2985" />
  <defs
     id="defs2987" />
  <metadata
     id="metadata2990">
    <rdf:RDF>
      <cc:Work
         rdf:about="">
        <dc:format>image/svg+xml</dc:format>
        <dc:type
           rdf:resource="http://purl.org/dc/dcmitype/StillImage" />
        <dc:title />
      </cc:Work>
    </rdf:RDF>
  </metadata>
  <g
     transform="matrix(0.81482192,0,0,0.81482192,4.6106673,4.4587826)"
     id="layer2" />
  <g
     id="layer4"
     style="fill:#000000;display:inline"
     transform="matrix(0.94210526,0,0,0.94210526,1.3894737,1.5091461)">
    <g
       transform="matrix(0.57616611,-0.57616611,0.57616611,0.57616611,-3.6880475,24.326785)"
       id="layer1-5"
       style="fill:#000000">
      <path
         sodipodi:type="inkscape:offset"
         inkscape:radius="0.96144551"
         inkscape:original="M 24.0625 1.65625 L 14.0625 12.4375 L 19.1875 12.4375 L 19.1875 20.3125 L 12.40625 20.3125 L 12.40625 14.03125 L 1.625 24 L 12.40625 34 L 12.40625 28.625 L 19.1875 28.625 L 19.1875 36.375 L 13.375 36.375 L 23.9375 47.8125 L 34.5625 36.375 L 28.75 36.375 L 28.75 28.625 L 35.5625 28.625 L 35.5625 34.0625 L 46.375 24.09375 L 35.5625 14.09375 L 35.5625 20.3125 L 28.75 20.3125 L 28.75 12.4375 L 33.96875 12.4375 L 24.0625 1.65625 z "
         style="fill:#000000;fill-opacity:1;stroke:none;opacity:0.1"
         id="path3779"
         d="M 24,0.6875 A 0.96154165,0.96154165 0 0 0 23.34375,1 l -10,10.78125 a 0.96154165,0.96154165 0 0 0 0.71875,1.625 l 4.15625,0 0,5.9375 -4.84375,0 0,-5.3125 A 0.96154165,0.96154165 0 0 0 11.75,13.3125 L 0.96875,23.28125 a 0.96154165,0.96154165 0 0 0 0,1.4375 l 10.78125,10 A 0.96154165,0.96154165 0 0 0 13.375,34 l 0,-4.40625 4.84375,0 0,5.8125 -4.84375,0 a 0.96154165,0.96154165 0 0 0 -0.71875,1.625 l 10.5625,11.4375 a 0.96154165,0.96154165 0 0 0 1.4375,0 l 10.625,-11.4375 a 0.96154165,0.96154165 0 0 0 -0.71875,-1.625 l -4.84375,0 0,-5.8125 4.875,0 0,4.46875 a 0.96154165,0.96154165 0 0 0 1.625,0.71875 l 10.8125,-9.96875 a 0.96154165,0.96154165 0 0 0 0,-1.4375 l -10.8125,-10 a 0.96154165,0.96154165 0 0 0 -1.625,0.71875 l 0,5.25 -4.875,0 0,-5.9375 4.25,0 a 0.96154165,0.96154165 0 0 0 0.71875,-1.625 L 24.78125,1 A 0.96154165,0.96154165 0 0 0 24,0.6875 z"
         transform="matrix(0.92113411,0.92113411,-0.92113411,0.92113411,24.421654,-20.580423)" />
      <path
         transform="matrix(0.92113411,0.92113411,-0.92113411,0.92113411,24.421654,-20.580423)"
         d="m 23.90625,1.03125 a 0.6372112,0.6372112 0 0 0 -0.3125,0.1875 L 13.59375,12 a 0.6372112,0.6372112 0 0 0 0.46875,1.0625 l 4.5,0 0,6.625 -5.53125,0 0,-5.65625 A 0.6372112,0.6372112 0 0 0 11.96875,13.5625 L 1.1875,23.53125 a 0.6372112,0.6372112 0 0 0 0,0.9375 l 10.78125,10 A 0.6372112,0.6372112 0 0 0 13.03125,34 l 0,-4.75 5.53125,0 0,6.5 -5.1875,0 a 0.6372112,0.6372112 0 0 0 -0.46875,1.0625 L 23.46875,48.25 a 0.6372112,0.6372112 0 0 0 0.9375,0 l 10.625,-11.4375 A 0.6372112,0.6372112 0 0 0 34.5625,35.75 l -5.1875,0 0,-6.5 5.5625,0 0,4.8125 A 0.6372112,0.6372112 0 0 0 36,34.53125 L 46.8125,24.5625 a 0.6372112,0.6372112 0 0 0 0,-0.9375 L 36,13.625 a 0.6372112,0.6372112 0 0 0 -1.0625,0.46875 l 0,5.59375 -5.5625,0 0,-6.625 4.59375,0 A 0.6372112,0.6372112 0 0 0 34.4375,12 L 24.53125,1.21875 a 0.6372112,0.6372112 0 0 0 -0.625,-0.1875 z"
         id="path3781"
         style="opacity:0.2;fill:#000000;fill-opacity:1;stroke:none"
         inkscape:original="M 24.0625 1.65625 L 14.0625 12.4375 L 19.1875 12.4375 L 19.1875 20.3125 L 12.40625 20.3125 L 12.40625 14.03125 L 1.625 24 L 12.40625 34 L 12.40625 28.625 L 19.1875 28.625 L 19.1875 36.375 L 13.375 36.375 L 23.9375 47.8125 L 34.5625 36.375 L 28.75 36.375 L 28.75 28.625 L 35.5625 28.625 L 35.5625 34.0625 L 46.375 24.09375 L 35.5625 14.09375 L 35.5625 20.3125 L 28.75 20.3125 L 28.75 12.4375 L 33.96875 12.4375 L 24.0625 1.65625 z "
         inkscape:radius="0.63714749"
         sodipodi:type="inkscape:offset" />
      <path
         sodipodi:type="inkscape:offset"
         inkscape:radius="0.30274665"
         inkscape:original="M 24.0625 1.65625 L 14.0625 12.4375 L 19.1875 12.4375 L 19.1875 20.3125 L 12.40625 20.3125 L 12.40625 14.03125 L 1.625 24 L 12.40625 34 L 12.40625 28.625 L 19.1875 28.625 L 19.1875 36.375 L 13.375 36.375 L 23.9375 47.8125 L 34.5625 36.375 L 28.75 36.375 L 28.75 28.625 L 35.5625 28.625 L 35.5625 34.0625 L 46.375 24.09375 L 35.5625 14.09375 L 35.5625 20.3125 L 28.75 20.3125 L 28.75 12.4375 L 33.96875 12.4375 L 24.0625 1.65625 z "
         style="opacity:0.3;fill:#000000;fill-opacity:1;stroke:none"
         id="path3783"
         d="M 24,1.34375 A 0.30277693,0.30277693 0 0 0 23.9375,1.375 0.30277693,0.30277693 0 0 0 23.84375,1.4375 l -10,10.78125 a 0.30277693,0.30277693 0 0 0 -0.09375,0.25 0.30277693,0.30277693 0 0 0 0.3125,0.28125 l 4.8125,0 0,7.25 -6.15625,0 0,-5.96875 A 0.30277693,0.30277693 0 0 0 12.53125,13.75 0.30277693,0.30277693 0 0 0 12.1875,13.8125 L 1.40625,23.78125 a 0.30277693,0.30277693 0 0 0 -0.0625,0.34375 0.30277693,0.30277693 0 0 0 0.0625,0.09375 l 10.78125,10 a 0.30277693,0.30277693 0 0 0 0.25,0.09375 A 0.30277693,0.30277693 0 0 0 12.71875,34 l 0,-5.0625 6.15625,0 0,7.125 -5.5,0 a 0.30277693,0.30277693 0 0 0 -0.28125,0.1875 0.30277693,0.30277693 0 0 0 0.0625,0.34375 l 10.5625,11.4375 a 0.30277693,0.30277693 0 0 0 0.34375,0.0625 0.30277693,0.30277693 0 0 0 0.09375,-0.0625 l 10.625,-11.4375 A 0.30277693,0.30277693 0 0 0 34.875,36.375 0.30277693,0.30277693 0 0 0 34.5625,36.0625 l -5.5,0 0,-7.125 6.1875,0 0,5.125 a 0.30277693,0.30277693 0 0 0 0.1875,0.28125 0.30277693,0.30277693 0 0 0 0.34375,-0.0625 l 10.8125,-9.96875 a 0.30277693,0.30277693 0 0 0 0.0625,-0.34375 0.30277693,0.30277693 0 0 0 -0.0625,-0.09375 l -10.8125,-10 a 0.30277693,0.30277693 0 0 0 -0.25,-0.09375 0.30277693,0.30277693 0 0 0 -0.28125,0.3125 l 0,5.90625 -6.1875,0 0,-7.25 4.90625,0 A 0.30277693,0.30277693 0 0 0 34.25,12.5625 0.30277693,0.30277693 0 0 0 34.1875,12.21875 L 24.28125,1.4375 A 0.30277693,0.30277693 0 0 0 24,1.34375 z"
         transform="matrix(0.92113411,0.92113411,-0.92113411,0.92113411,24.421654,-20.580423)" />
      <path
         transform="matrix(0.92113411,0.92113411,-0.92113411,0.92113411,24.421654,-20.580423)"
         d="m 24.0625,1.75 -9.84375,10.625 4.96875,0 a 0.06523868,0.06523868 0 0 1 0.03125,0 0.06523868,0.06523868 0 0 1 0.03125,0.03125 0.06523868,0.06523868 0 0 1 0,0.03125 l 0,7.875 a 0.06523868,0.06523868 0 0 1 0,0.03125 0.06523868,0.06523868 0 0 1 -0.03125,0.03125 0.06523868,0.06523868 0 0 1 -0.03125,0 l -6.78125,0 a 0.06523868,0.06523868 0 0 1 -0.03125,0 0.06523868,0.06523868 0 0 1 -0.03125,-0.03125 0.06523868,0.06523868 0 0 1 0,-0.03125 l 0,-6.125 -10.625,9.8125 10.625,9.84375 0,-5.21875 a 0.06523868,0.06523868 0 0 1 0,-0.03125 0.06523868,0.06523868 0 0 1 0.03125,-0.03125 0.06523868,0.06523868 0 0 1 0.03125,0 l 6.78125,0 a 0.06523868,0.06523868 0 0 1 0.03125,0 0.06523868,0.06523868 0 0 1 0.03125,0.03125 0.06523868,0.06523868 0 0 1 0,0.03125 l 0,7.75 a 0.06523868,0.06523868 0 0 1 0,0.03125 0.06523868,0.06523868 0 0 1 -0.03125,0.03125 0.06523868,0.06523868 0 0 1 -0.03125,0 l -5.65625,0 10.40625,11.28125 10.46875,-11.28125 -5.65625,0 a 0.06523868,0.06523868 0 0 1 -0.03125,0 0.06523868,0.06523868 0 0 1 -0.03125,-0.03125 0.06523868,0.06523868 0 0 1 0,-0.03125 l 0,-7.75 a 0.06523868,0.06523868 0 0 1 0,-0.03125 0.06523868,0.06523868 0 0 1 0.03125,-0.03125 0.06523868,0.06523868 0 0 1 0.03125,0 l 6.8125,0 a 0.06523868,0.06523868 0 0 1 0.03125,0 0.06523868,0.06523868 0 0 1 0.03125,0.03125 0.06523868,0.06523868 0 0 1 0,0.03125 l 0,5.28125 10.65625,-9.8125 L 35.625,14.25 l 0,6.0625 a 0.06523868,0.06523868 0 0 1 0,0.03125 0.06523868,0.06523868 0 0 1 -0.03125,0.03125 0.06523868,0.06523868 0 0 1 -0.03125,0 l -6.8125,0 a 0.06523868,0.06523868 0 0 1 -0.03125,0 0.06523868,0.06523868 0 0 1 -0.03125,-0.03125 0.06523868,0.06523868 0 0 1 0,-0.03125 l 0,-7.875 a 0.06523868,0.06523868 0 0 1 0,-0.03125 0.06523868,0.06523868 0 0 1 0.03125,-0.03125 0.06523868,0.06523868 0 0 1 0.03125,0 l 5.0625,0 -9.75,-10.625 z"
         id="path3785"
         style="opacity:1;fill:#ffffff;fill-opacity:1;stroke:none"
         inkscape:original="M 24.0625 1.65625 L 14.0625 12.4375 L 19.1875 12.4375 L 19.1875 20.3125 L 12.40625 20.3125 L 12.40625 14.03125 L 1.625 24 L 12.40625 34 L 12.40625 28.625 L 19.1875 28.625 L 19.1875 36.375 L 13.375 36.375 L 23.9375 47.8125 L 34.5625 36.375 L 28.75 36.375 L 28.75 28.625 L 35.5625 28.625 L 35.5625 34.0625 L 46.375 24.09375 L 35.5625 14.09375 L 35.5625 20.3125 L 28.75 20.3125 L 28.75 12.4375 L 33.96875 12.4375 L 24.0625 1.65625 z "
         inkscape:radius="-0.065232158"
         sodipodi:type="inkscape:offset" />
    </g>
  </g>
</svg>
