<?xml version="1.0" encoding="UTF-8" standalone="no"?>
<!-- Created with Inkscape (http://www.inkscape.org/) -->

<svg
   xmlns:dc="http://purl.org/dc/elements/1.1/"
   xmlns:cc="http://creativecommons.org/ns#"
   xmlns:rdf="http://www.w3.org/1999/02/22-rdf-syntax-ns#"
   xmlns:svg="http://www.w3.org/2000/svg"
   xmlns="http://www.w3.org/2000/svg"
   xmlns:sodipodi="http://sodipodi.sourceforge.net/DTD/sodipodi-0.dtd"
   xmlns:inkscape="http://www.inkscape.org/namespaces/inkscape"
   version="1.1"
   width="64"
   height="64"
   id="svg2985"
   inkscape:version="0.48.5 r"
   sodipodi:docname="open.svg">
  <sodipodi:namedview
     pagecolor="#ffffff"
     bordercolor="#666666"
     borderopacity="1"
     objecttolerance="10"
     gridtolerance="10"
     guidetolerance="10"
     inkscape:pageopacity="0"
     inkscape:pageshadow="2"
     inkscape:window-width="1233"
     inkscape:window-height="998"
     id="namedview11"
     showgrid="false"
     inkscape:zoom="10.429825"
     inkscape:cx="32.970311"
     inkscape:cy="33.370676"
     inkscape:window-x="47"
     inkscape:window-y="0"
     inkscape:window-maximized="1"
     inkscape:current-layer="svg2985" />
  <defs
     id="defs2987" />
  <metadata
     id="metadata2990">
    <rdf:RDF>
      <cc:Work
         rdf:about="">
        <dc:format>image/svg+xml</dc:format>
        <dc:type
           rdf:resource="http://purl.org/dc/dcmitype/StillImage" />
        <dc:title />
      </cc:Work>
    </rdf:RDF>
  </metadata>
  <path
     sodipodi:type="inkscape:offset"
     inkscape:radius="-0.36839586"
     inkscape:original="M 31.625 3.96875 C 16.16309 3.96875 3.65625 16.506839 3.65625 31.96875 C 3.65625 47.430661 16.16309 59.96875 31.625 59.96875 C 47.086911 59.96875 59.625 47.430661 59.625 31.96875 C 59.625 16.506839 47.086911 3.96875 31.625 3.96875 z M 31.625 10.21875 C 43.639665 10.21875 53.40625 19.954085 53.40625 31.96875 C 53.40625 43.983415 43.639665 53.71875 31.625 53.71875 C 19.610336 53.71875 9.875 43.983415 9.875 31.96875 C 9.875 19.954085 19.610336 10.21875 31.625 10.21875 z M 31.625 10.65625 C 19.863809 10.65625 10.34375 20.207559 10.34375 31.96875 C 10.34375 43.729941 19.863809 53.28125 31.625 53.28125 C 43.386191 53.28125 52.9375 43.729941 52.9375 31.96875 C 52.9375 20.207559 43.386191 10.65625 31.625 10.65625 z M 31.625 13.34375 C 41.916042 13.34375 50.25 21.677708 50.25 31.96875 C 50.25 42.259792 41.916042 50.59375 31.625 50.59375 C 21.333958 50.59375 13.03125 42.259792 13.03125 31.96875 C 13.03125 21.677708 21.333958 13.34375 31.625 13.34375 z M 31.625 14.90625 C 22.195769 14.90625 14.5625 22.539519 14.5625 31.96875 C 14.5625 41.397981 22.195769 49.0625 31.625 49.0625 C 41.054231 49.0625 48.71875 41.397981 48.71875 31.96875 C 48.71875 22.539519 41.054231 14.90625 31.625 14.90625 z "
     style="opacity:0.1;fill:#000000;fill-opacity:1;stroke:none"
     id="path3772"
     d="m 31.625,4.34375 c -15.262755,0 -27.59375,12.361748 -27.59375,27.625 0,15.263252 12.330995,27.625 27.59375,27.625 15.262756,0 27.625,-12.362244 27.625,-27.625 0,-15.262756 -12.362244,-27.625 -27.625,-27.625 z m 0,5.5 c 12.213669,0 22.15625,9.910692 22.15625,22.125 0,12.214308 -9.942581,22.125 -22.15625,22.125 -12.213668,0 -22.125,-9.911331 -22.125,-22.125 0,-12.213669 9.911332,-22.125 22.125,-22.125 z m 0,1.1875 c -11.561741,0 -20.90625,9.375107 -20.90625,20.9375 0,11.562393 9.344509,20.9375 20.90625,20.9375 11.561741,0 20.9375,-9.375759 20.9375,-20.9375 0,-11.561741 -9.375759,-20.9375 -20.9375,-20.9375 z m 0,1.9375 c 10.489933,0 19,8.510067 19,19 0,10.489933 -8.510067,19 -19,19 -10.489933,0 -18.96875,-8.510813 -18.96875,-19 0,-10.489187 8.478817,-19 18.96875,-19 z m 0,2.3125 c -9.230412,0 -16.6875,7.457088 -16.6875,16.6875 0,9.230412 7.457902,16.71875 16.6875,16.71875 9.229598,0 16.71875,-7.489152 16.71875,-16.71875 0,-9.229598 -7.488338,-16.6875 -16.71875,-16.6875 z"
     transform="matrix(0.87505376,0,0,0.87505376,3.9533771,3.9943751)" />
  <path
     d="m 31.625,4.65625 c -15.087661,0 -27.28125,12.223905 -27.28125,27.3125 0,15.088595 12.193589,27.3125 27.28125,27.3125 15.087662,0 27.3125,-12.224838 27.3125,-27.3125 0,-15.087662 -12.224838,-27.3125 -27.3125,-27.3125 z m 0,4.875 c 12.388631,0 22.46875,10.047669 22.46875,22.4375 0,12.389831 -10.080119,22.4375 -22.46875,22.4375 -12.38863,0 -22.4375,-10.048869 -22.4375,-22.4375 0,-12.388631 10.04887,-22.4375 22.4375,-22.4375 z m 0,1.8125 c -11.386387,0 -20.59375,9.237387 -20.59375,20.625 0,11.387613 9.207363,20.625 20.59375,20.625 11.386387,0 20.625,-9.238613 20.625,-20.625 0,-11.386387 -9.238613,-20.625 -20.625,-20.625 z m 0,1.3125 c 10.664795,0 19.3125,8.647705 19.3125,19.3125 0,10.664795 -8.647705,19.3125 -19.3125,19.3125 -10.664795,0 -19.28125,-8.649107 -19.28125,-19.3125 0,-10.663393 8.616455,-19.3125 19.28125,-19.3125 z m 0,2.9375 c -9.055614,0 -16.375,7.319386 -16.375,16.375 0,9.055614 7.320916,16.40625 16.375,16.40625 9.054084,0 16.40625,-7.352166 16.40625,-16.40625 0,-9.054084 -7.350636,-16.375 -16.40625,-16.375 z"
     id="path3778"
     style="opacity:0.2;fill:#000000;fill-opacity:1;stroke:none"
     inkscape:original="M 31.625 3.96875 C 16.16309 3.96875 3.65625 16.506839 3.65625 31.96875 C 3.65625 47.430661 16.16309 59.96875 31.625 59.96875 C 47.086911 59.96875 59.625 47.430661 59.625 31.96875 C 59.625 16.506839 47.086911 3.96875 31.625 3.96875 z M 31.625 10.21875 C 43.639665 10.21875 53.40625 19.954085 53.40625 31.96875 C 53.40625 43.983415 43.639665 53.71875 31.625 53.71875 C 19.610336 53.71875 9.875 43.983415 9.875 31.96875 C 9.875 19.954085 19.610336 10.21875 31.625 10.21875 z M 31.625 10.65625 C 19.863809 10.65625 10.34375 20.207559 10.34375 31.96875 C 10.34375 43.729941 19.863809 53.28125 31.625 53.28125 C 43.386191 53.28125 52.9375 43.729941 52.9375 31.96875 C 52.9375 20.207559 43.386191 10.65625 31.625 10.65625 z M 31.625 13.34375 C 41.916042 13.34375 50.25 21.677708 50.25 31.96875 C 50.25 42.259792 41.916042 50.59375 31.625 50.59375 C 21.333958 50.59375 13.03125 42.259792 13.03125 31.96875 C 13.03125 21.677708 21.333958 13.34375 31.625 13.34375 z M 31.625 14.90625 C 22.195769 14.90625 14.5625 22.539519 14.5625 31.96875 C 14.5625 41.397981 22.195769 49.0625 31.625 49.0625 C 41.054231 49.0625 48.71875 41.397981 48.71875 31.96875 C 48.71875 22.539519 41.054231 14.90625 31.625 14.90625 z "
     inkscape:radius="-0.69228297"
     sodipodi:type="inkscape:offset"
     transform="matrix(0.87505376,0,0,0.87505376,3.9533771,3.9943751)" />
  <path
     sodipodi:type="inkscape:offset"
     inkscape:radius="-0.65042412"
     inkscape:original="M 31.625 4.15625 C 16.26364 4.15625 3.84375 16.607139 3.84375 31.96875 C 3.84375 47.330361 16.26364 59.78125 31.625 59.78125 C 46.986361 59.78125 59.4375 47.330111 59.4375 31.96875 C 59.4375 16.607389 46.986361 4.15625 31.625 4.15625 z M 31.625 10.03125 C 43.740139 10.03125 53.59375 19.853288 53.59375 31.96875 C 53.59375 44.084212 43.740139 53.90625 31.625 53.90625 C 19.509862 53.90625 9.6875 44.083889 9.6875 31.96875 C 9.6875 19.853611 19.509862 10.03125 31.625 10.03125 z M 31.625 10.84375 C 19.964508 10.84375 10.53125 20.307929 10.53125 31.96875 C 10.53125 43.629571 19.964508 53.09375 31.625 53.09375 C 43.285492 53.09375 52.75 43.629242 52.75 31.96875 C 52.75 20.308258 43.285492 10.84375 31.625 10.84375 z M 31.625 13.15625 C 42.016459 13.15625 50.4375 21.577291 50.4375 31.96875 C 50.4375 42.360209 42.016459 50.78125 31.625 50.78125 C 21.233541 50.78125 12.84375 42.359832 12.84375 31.96875 C 12.84375 21.577668 21.233541 13.15625 31.625 13.15625 z M 31.625 15.09375 C 22.29615 15.09375 14.75 22.6399 14.75 31.96875 C 14.75 41.2976 22.296561 48.875 31.625 48.875 C 40.953439 48.875 48.53125 41.297189 48.53125 31.96875 C 48.53125 22.640311 40.95385 15.09375 31.625 15.09375 z "
     style="opacity:0.3;fill:#000000;fill-opacity:1;stroke:none"
     id="path3782"
     d="M 31.625,4.8125 C 16.6151,4.8125 4.5,16.957718 4.5,31.96875 4.5,46.979782 16.6151,59.125 31.625,59.125 46.634894,59.125 58.78125,46.978644 58.78125,31.96875 58.78125,16.958856 46.634894,4.8125 31.625,4.8125 z m 0,4.5625 C 44.091682,9.375 54.25,19.500624 54.25,31.96875 54.25,44.436876 44.091682,54.5625 31.625,54.5625 19.158307,54.5625 9.03125,44.435444 9.03125,31.96875 9.03125,19.502056 19.158307,9.375 31.625,9.375 z m 0,2.125 c -11.30855,0 -20.4375,9.158712 -20.4375,20.46875 0,11.310038 9.12895,20.46875 20.4375,20.46875 11.308537,0 20.46875,-9.160213 20.46875,-20.46875 C 52.09375,20.660213 42.933537,11.5 31.625,11.5 z m 0,1 c 10.742853,0 19.46875,8.725897 19.46875,19.46875 0,10.742853 -8.725897,19.46875 -19.46875,19.46875 -10.742869,0 -19.4375,-8.727565 -19.4375,-19.46875 C 12.1875,21.227565 20.882131,12.5 31.625,12.5 z m 0,3.25 c -8.978096,0 -16.21875,7.240654 -16.21875,16.21875 0,8.978077 7.242533,16.25 16.21875,16.25 8.976198,0 16.25,-7.273802 16.25,-16.25 C 47.875,22.992533 40.603077,15.75 31.625,15.75 z"
     transform="matrix(0.87505376,0,0,0.87505376,3.9533771,3.9943751)" />
  <path
     d="m 31.625,4.9375 c -14.942109,0 -27,12.087839 -27,27.03125 C 4.625,46.912161 16.682891,59 31.625,59 46.567102,59 58.65625,46.910852 58.65625,31.96875 58.65625,17.026648 46.567102,4.9375 31.625,4.9375 z m 0,4.3125 c 12.534489,0 22.75,10.182601 22.75,22.71875 0,12.536149 -10.215511,22.71875 -22.75,22.71875 C 19.090498,54.6875 8.90625,44.503253 8.90625,31.96875 8.90625,19.434247 19.090498,9.25 31.625,9.25 z m 0,2.375 c -11.240666,0 -20.3125,9.101372 -20.3125,20.34375 0,11.242378 9.071834,20.34375 20.3125,20.34375 11.240651,0 20.34375,-9.103099 20.34375,-20.34375 C 51.96875,20.728099 42.865651,11.625 31.625,11.625 z m 0,0.75 c 10.810631,0 19.59375,8.783119 19.59375,19.59375 0,10.810631 -8.783119,19.59375 -19.59375,19.59375 -10.81065,0 -19.5625,-8.785036 -19.5625,-19.59375 0,-10.808714 8.75185,-19.59375 19.5625,-19.59375 z m 0,3.5 c -8.910441,0 -16.09375,7.183309 -16.09375,16.09375 0,8.910418 7.185471,16.125 16.09375,16.125 8.908256,0 16.125,-7.216744 16.125,-16.125 C 47.75,23.060471 40.535418,15.875 31.625,15.875 z"
     id="path3784"
     style="fill:#ffffff;fill-opacity:1;stroke:none"
     inkscape:original="M 31.625 4.15625 C 16.26364 4.15625 3.84375 16.607139 3.84375 31.96875 C 3.84375 47.330361 16.26364 59.78125 31.625 59.78125 C 46.986361 59.78125 59.4375 47.330111 59.4375 31.96875 C 59.4375 16.607389 46.986361 4.15625 31.625 4.15625 z M 31.625 10.03125 C 43.740139 10.03125 53.59375 19.853288 53.59375 31.96875 C 53.59375 44.084212 43.740139 53.90625 31.625 53.90625 C 19.509862 53.90625 9.6875 44.083889 9.6875 31.96875 C 9.6875 19.853611 19.509862 10.03125 31.625 10.03125 z M 31.625 10.84375 C 19.964508 10.84375 10.53125 20.307929 10.53125 31.96875 C 10.53125 43.629571 19.964508 53.09375 31.625 53.09375 C 43.285492 53.09375 52.75 43.629242 52.75 31.96875 C 52.75 20.308258 43.285492 10.84375 31.625 10.84375 z M 31.625 13.15625 C 42.016459 13.15625 50.4375 21.577291 50.4375 31.96875 C 50.4375 42.360209 42.016459 50.78125 31.625 50.78125 C 21.233541 50.78125 12.84375 42.359832 12.84375 31.96875 C 12.84375 21.577668 21.233541 13.15625 31.625 13.15625 z M 31.625 15.09375 C 22.29615 15.09375 14.75 22.6399 14.75 31.96875 C 14.75 41.2976 22.296561 48.875 31.625 48.875 C 40.953439 48.875 48.53125 41.297189 48.53125 31.96875 C 48.53125 22.640311 40.95385 15.09375 31.625 15.09375 z "
     inkscape:radius="-0.7758804"
     sodipodi:type="inkscape:offset"
     transform="matrix(0.87505376,0,0,0.87505376,3.9533771,3.9943751)" />
</svg>
