<?xml version="1.0" encoding="UTF-8" standalone="no"?>
<!-- Created with Inkscape (http://www.inkscape.org/) -->

<svg
   xmlns:dc="http://purl.org/dc/elements/1.1/"
   xmlns:cc="http://creativecommons.org/ns#"
   xmlns:rdf="http://www.w3.org/1999/02/22-rdf-syntax-ns#"
   xmlns:svg="http://www.w3.org/2000/svg"
   xmlns="http://www.w3.org/2000/svg"
   xmlns:sodipodi="http://sodipodi.sourceforge.net/DTD/sodipodi-0.dtd"
   xmlns:inkscape="http://www.inkscape.org/namespaces/inkscape"
   version="1.1"
   width="64"
   height="64"
   id="svg5038"
   inkscape:version="0.48.5 r"
   sodipodi:docname="restart.svg">
  <sodipodi:namedview
     pagecolor="#ffffff"
     bordercolor="#666666"
     borderopacity="1"
     objecttolerance="10"
     gridtolerance="10"
     guidetolerance="10"
     inkscape:pageopacity="0"
     inkscape:pageshadow="2"
     inkscape:window-width="1241"
     inkscape:window-height="998"
     id="namedview11"
     showgrid="false"
     inkscape:zoom="10.429825"
     inkscape:cx="31.933026"
     inkscape:cy="33.99321"
     inkscape:window-x="39"
     inkscape:window-y="0"
     inkscape:window-maximized="1"
     inkscape:current-layer="svg5038" />
  <defs
     id="defs5040" />
  <metadata
     id="metadata5043">
    <rdf:RDF>
      <cc:Work
         rdf:about="">
        <dc:format>image/svg+xml</dc:format>
        <dc:type
           rdf:resource="http://purl.org/dc/dcmitype/StillImage" />
        <dc:title />
      </cc:Work>
    </rdf:RDF>
  </metadata>
  <g
     id="layer5"
     style="display:inline"
     transform="matrix(0.9990414,0,0,0.9990414,0.03079641,1.8365213)">
    <path
       d="m 45.84375,8.53125 c -0.04328,0.01002 -0.01986,0.018771 -0.0625,0.03125 -0.04264,0.012479 0.0106,-0.014897 -0.03125,0 -0.04185,0.014897 -0.02157,0.013984 -0.0625,0.03125 -0.04093,0.017266 0.0086,0.011671 -0.03125,0.03125 -0.03988,0.019579 0.0074,-0.021828 -0.03125,0 C 45.58631,8.646828 45.59988,8.63225 45.5625,8.65625 45.52512,8.680255 45.5672,8.6614 45.53125,8.6875 45.4953,8.713603 45.53435,8.69063 45.5,8.71875 45.4656,8.746866 45.5015,8.71996 45.46875,8.75 45.43602,8.780038 45.468462,8.7493896 45.4375,8.78125 45.40654,8.81311 45.4353,8.77892 45.40625,8.8125 45.37716,8.846079 45.40215,8.80856 45.375,8.84375 45.34788,8.878937 45.3688,8.83832 45.34375,8.875 c -0.01011,0.010722 -0.02053,0.021145 -0.03125,0.03125 l -1.71875,2.40625 c -0.19702,0.275872 -0.595654,0.38584 -0.90625,0.25 -3.014413,-1.376699 -6.289971,-2.25 -9.78125,-2.25 -13.078919,0 -23.71875,10.639831 -23.71875,23.71875 0,13.078822 10.641368,23.6875 23.71875,23.6875 6.081203,0 11.646483,-2.290964 15.84375,-6.0625 0.02837,-0.02497 0.0041,-0.0049 0.03125,-0.03125 0.02713,-0.02632 0.0054,-0.0036 0.03125,-0.03125 0.02581,-0.02761 0.0068,-0.0024 0.03125,-0.03125 0.02444,-0.02883 0.0082,-0.0013 0.03125,-0.03125 0.02301,-0.02999 0.0097,-1.8e-4 0.03125,-0.03125 0.02152,-0.03107 -0.01998,8.31e-4 0,-0.03125 0.01998,-0.03208 0.01285,0.0018 0.03125,-0.03125 0.0184,-0.03301 0.01448,0.0026 0.03125,-0.03125 0.01677,-0.03387 -0.0151,0.0034 0,-0.03125 0.0151,-0.03465 0.01785,-0.02716 0.03125,-0.0625 0.0134,-0.03534 -0.01166,0.0047 0,-0.03125 0.01166,-0.03595 -0.0099,0.0052 0,-0.03125 0.0099,-0.03648 0.02314,0.0057 0.03125,-0.03125 0.0081,-0.03692 -0.0063,-0.02523 0,-0.0625 0.0063,-0.03727 -0.0045,0.0063 0,-0.03125 0.0045,-0.03753 -0.0027,0.0065 0,-0.03125 0.0027,-0.0377 -8.17e-4,0.0065 0,-0.03125 8.17e-4,-0.03779 10e-4,-0.02472 0,-0.0625 -10e-4,-0.03778 0.0029,0.0064 0,-0.03125 -0.0029,-0.03769 0.0047,0.0063 0,-0.03125 -0.0047,-0.0375 0.0065,-0.02527 0,-0.0625 -0.0065,-0.03723 0.0083,0.0056 0,-0.03125 C 49.02295,49.80688 49.0101,49.84895 49,49.8125 c -0.0101,-0.03642 0.01186,0.0046 0,-0.03125 -0.01186,-0.03589 0.01359,-0.02723 0,-0.0625 -0.01359,-0.03527 -0.01596,0.0033 -0.03125,-0.03125 -0.01529,-0.03457 -0.0143,0.0025 -0.03125,-0.03125 -0.01695,-0.03378 0.01858,0.0017 0,-0.03125 -0.01858,-0.03292 -0.01109,7.22e-4 -0.03125,-0.03125 -0.02016,-0.03197 -0.0096,-2.97e-4 -0.03125,-0.03125 -0.02169,-0.03095 0.02317,-0.0014 0,-0.03125 -0.02317,-0.02986 -0.0067,-0.0026 -0.03125,-0.03125 -2.18e-4,-0.01042 -2.18e-4,-0.02083 0,-0.03125 l -3.916917,-4.474976 0,-0.03125 c -5.04e-4,-5.59e-4 -0.01802,0.01397 -0.03125,0 -0.02645,-0.02793 -0.0034,-0.0047 -0.03125,-0.03125 -0.02781,-0.02659 -0.0022,-0.0061 -0.03125,-0.03125 -0.02909,-0.02518 -9.51e-4,-0.0075 -0.03125,-0.03125 -0.0303,-0.02371 1.87e-4,-0.0091 -0.03125,-0.03125 -0.03144,-0.02218 0.0012,-0.01066 -0.03125,-0.03125 -0.0325,-0.02059 0.0022,0.01896 -0.03125,0 -0.03348,-0.01896 0.0031,-0.01397 -0.03125,-0.03125 -0.03437,-0.01728 -0.02731,-0.0157 -0.0625,-0.03125 -0.03519,-0.01555 0.0047,0.01379 -0.03125,0 -0.03592,-0.01379 0.0053,0.012 -0.03125,0 -0.03655,-0.012 0.0059,-0.02108 -0.03125,-0.03125 -0.0371,-0.01017 -0.02494,0.0083 -0.0625,0 -0.03756,-0.0083 0.0067,0.0064 -0.03125,0 -0.03793,-0.0064 0.007,-0.02669 -0.03125,-0.03125 -0.0382,-0.0046 -0.02412,0.0027 -0.0625,0 -0.03838,-0.0027 0.0072,7.61e-4 -0.03125,0 -0.03847,-7.61e-4 0.0072,-0.0011 -0.03125,0 -0.03845,0.0011 -0.02415,-0.003 -0.0625,0 -0.03835,0.003 0.0069,-0.0049 -0.03125,0 -0.03815,0.0049 0.0066,0.02442 -0.03125,0.03125 -0.03786,0.0068 -0.02502,-0.0087 -0.0625,0 -0.03748,0.0087 0.0057,-0.01054 -0.03125,0 -0.037,0.01054 0.0052,0.01889 -0.03125,0.03125 -0.03643,0.01236 0.0045,-0.01415 -0.03125,0 -0.03578,0.01415 -0.02747,0.01535 -0.0625,0.03125 -0.03503,0.0159 0.0029,-0.01762 -0.03125,0 -0.0342,0.01762 0.002,0.01196 -0.03125,0.03125 -0.03329,0.01929 10e-4,-0.02092 -0.03125,0 -0.03229,0.02092 -3.7e-5,0.0088 -0.03125,0.03125 -0.03121,0.02249 -0.0012,0.0072 -0.03125,0.03125 -0.03006,0.02401 -0.0024,0.0058 -0.03125,0.03125 -2.992809,2.616715 -6.749577,4.50696 -10.924612,4.50696 -4.654087,0 -8.945431,-2.071465 -11.532579,-4.74659 -2.588631,-2.676658 -4.614333,-6.881713 -4.614333,-11.54739 0,-4.67919 2.054745,-9.514127 4.539539,-12.248216 2.480595,-2.729469 6.212205,-4.559685 10.857968,-4.559685 1.660505,0 4.632001,0.55439 6.281389,1.146475 0.421689,0.161782 0.602997,0.755153 0.34375,1.125 L 36.21875,21.6875 c -0.02956,0.04084 -0.0044,-0.01142 -0.03125,0.03125 -0.02684,0.04267 -0.0072,0.01818 -0.03125,0.0625 -0.02402,0.04432 0.02109,-0.01454 0,0.03125 -0.02109,0.04579 -0.01317,0.01544 -0.03125,0.0625 -0.01808,0.04706 -0.01626,0.01437 -0.03125,0.0625 -0.01499,0.04813 0.01183,-0.01776 0,0.03125 -0.01183,0.04901 0.0086,0.01283 0,0.0625 -0.0086,0.04967 -0.02587,0.01238 -0.03125,0.0625 -0.0054,0.05012 0.0021,0.01213 0,0.0625 -0.0021,0.05037 -0.0012,-0.01915 0,0.03125 0.0012,0.0504 -0.0044,0.01228 0,0.0625 0.0044,0.05022 0.02358,0.01267 0.03125,0.0625 0.0077,0.04983 -0.01088,-0.01797 0,0.03125 0.01088,0.04922 -0.01405,0.01409 0,0.0625 0.01405,0.04841 0.01408,0.0151 0.03125,0.0625 0.01717,0.0474 0.01104,-0.01494 0.03125,0.03125 0.02021,0.04619 -0.02316,0.01772 0,0.0625 0.02316,0.04478 0.0052,0.01932 0.03125,0.0625 0.02602,0.04318 0.0025,-0.01015 0.03125,0.03125 0.02876,0.0414 -1.39e-4,-0.0082 0.03125,0.03125 0.03139,0.03945 -0.0026,0.02517 0.03125,0.0625 0.03388,0.03733 -0.005,-0.0038 0.03125,0.03125 0.03623,0.03505 0.02407,-0.0014 0.0625,0.03125 0.03843,0.03263 -0.0092,0.0012 0.03125,0.03125 0.04047,0.03006 -0.01108,0.0039 0.03125,0.03125 0.04233,0.02737 0.01848,0.0067 0.0625,0.03125 0.04402,0.02457 0.01698,0.0096 0.0625,0.03125 0.04552,0.02166 -0.01558,0.01259 0.03125,0.03125 0.04683,0.01866 0.01456,-0.01559 0.0625,0 0.04794,0.01559 -0.0176,0.01881 0.03125,0.03125 0.04885,0.01244 0.01294,-0.0092 0.0625,0 0.04956,0.0092 0.01245,-0.006 0.0625,0 l 17.3125,2.21875 c 0.02604,0.0027 0.03023,-7e-5 0.03125,0 10e-4,7e-5 0.0051,-9.13e-4 0.03125,0 0.05232,0.0018 0.01017,0.0017 0.0625,0 0.05233,-0.0017 0.01041,0.0052 0.0625,0 0.05209,-0.0052 0.01088,0.0087 0.0625,0 0.05162,-0.0087 -0.01967,0.01218 0.03125,0 0.05092,-0.01218 0.01252,-0.01566 0.0625,-0.03125 0.04998,-0.01559 0.01368,0.01892 0.0625,0 0.04882,-0.01892 0.01507,-0.0091 0.0625,-0.03125 0.04743,-0.02216 -0.01458,-0.0059 0.03125,-0.03125 0.04583,-0.02531 0.01848,-0.0029 0.0625,-0.03125 0.04402,-0.02834 -0.01076,-8e-6 0.03125,-0.03125 0.04201,-0.03124 0.02269,0.0028 0.0625,-0.03125 0.03981,-0.034 -0.0062,0.0054 0.03125,-0.03125 0.03743,-0.03661 -0.0036,-0.02345 0.03125,-0.0625 0.03488,-0.03905 -9.18e-4,0.01006 0.03125,-0.03125 0.03217,-0.04131 0.0019,0.01213 0.03125,-0.03125 0.02931,-0.04338 0.0049,-0.01724 0.03125,-0.0625 0.02632,-0.04526 0.008,-0.01557 0.03125,-0.0625 C 54.99196,24.70307 54.98,24.76714 55,24.71875 c 0.02,-0.04839 0.01456,-0.01288 0.03125,-0.0625 0.01669,-0.04962 -0.01331,-0.01187 0,-0.0625 0.01331,-0.05063 -0.0099,0.02017 0,-0.03125 0.0099,-0.05142 0.02487,-0.01054 0.03125,-0.0625 0.0064,-0.05196 -0.0029,-0.01022 0,-0.0625 0.0029,-0.05228 6.64e-4,-0.01015 0,-0.0625 -6.64e-4,-0.05235 0.0042,-0.01031 0,-0.0625 -0.0042,-0.05219 0.0077,0.02054 0,-0.03125 -0.0077,-0.05179 -0.02008,-0.01135 -0.03125,-0.0625 -0.01117,-0.05115 0.01459,-0.01222 0,-0.0625 C 55.01666,24.10597 55.01794,24.14293 55,24.09375 54.98206,24.04457 55.02122,24.11036 55,24.0625 54.97878,24.01464 54.9931,24.04632 54.96875,24 l -8.25,-15.03125 C 46.69364,8.921165 46.71585,8.983232 46.6875,8.9375 46.65915,8.891768 46.687698,8.918659 46.65625,8.875 46.6248,8.831341 46.65935,8.885127 46.625,8.84375 46.5906,8.802373 46.6309,8.820146 46.59375,8.78125 46.55657,8.742354 46.57103,8.78623 46.53125,8.75 46.49147,8.713772 46.54219,8.75214 46.5,8.71875 46.45781,8.685364 46.48191,8.7178844 46.4375,8.6875 46.39309,8.657116 46.45265,8.68349 46.40625,8.65625 46.35985,8.629013 46.39193,8.64896 46.34375,8.625 46.29557,8.601042 46.33097,8.614315 46.28125,8.59375 46.23153,8.573185 46.30103,8.579572 46.25,8.5625 c -0.05103,-0.017072 -0.01042,0.013498 -0.0625,0 -0.05208,-0.013498 -0.0096,-0.021391 -0.0625,-0.03125 -0.05289,-0.00986 -0.009,0.00617 -0.0625,0 -0.05345,-0.00617 -0.0087,0.00246 -0.0625,0 -0.05375,-0.00246 0.02254,-0.00127 -0.03125,0 -0.04436,0.00248 0.01289,-0.00501 -0.03125,0 -0.04414,0.00501 -0.01872,-0.00753 -0.0625,0 -0.04378,0.00753 0.01203,-0.01002 -0.03125,0 z"
       id="path2991"
       style="opacity:0.05;fill:#000000;fill-opacity:1;stroke:none"
       inkscape:connector-curvature="0"
       sodipodi:nodetypes="sssscccccccccccccssscccccccccsssccscccsccscccsccccccccccscccccccscscsccscssscscccsccccccssssscccccssssscssscsssssccccccccccssssccccsssssscccccccccccsssscssssssssccscccccsccsssccccsss" />
    <path
       d="m 45.84375,8.84375 c -0.02693,0.00734 -0.0047,0.022509 -0.03125,0.03125 -0.02602,0.010117 -0.0058,-0.011466 -0.03125,0 -0.02545,0.011466 -0.0064,0.018467 -0.03125,0.03125 -0.02481,0.012783 -0.0071,-0.014064 -0.03125,0 -0.02411,0.014064 -0.0079,0.015942 -0.03125,0.03125 -0.02251,0.016509 -0.0096,0.013585 -0.03125,0.03125 -0.02161,0.017665 -0.01059,-0.018772 -0.03125,0 -0.02066,0.018772 0.01965,0.011422 0,0.03125 -0.01965,0.019828 -0.01267,0.01042 -0.03125,0.03125 -0.01858,0.02083 -0.01379,-0.021774 -0.03125,0 -0.01746,0.021774 0.0163,0.00859 0,0.03125 l -1.96875,2.75 C 43.446377,12.006459 43.156466,12.075485 42.9375,11.96875 39.877767,10.507607 36.502525,9.625 32.90625,9.625 19.989457,9.625 9.5,20.114457 9.5,33.03125 c 0,12.916746 10.490415,23.375 23.40625,23.375 5.989917,0 11.484408,-2.261965 15.625,-5.96875 0.01862,-0.0172 0.01347,-0.01318 0.03125,-0.03125 0.01778,-0.01807 0.01435,-0.01236 0.03125,-0.03125 0.01598,-0.01967 0.01622,-0.01084 0.03125,-0.03125 0.01503,-0.02041 -0.01404,-0.01015 0,-0.03125 0.01404,-0.0211 0.01823,0.02175 0.03125,0 0.01302,-0.02175 -0.01197,-0.0089 0,-0.03125 0.01197,-0.02234 -0.0109,-0.0084 0,-0.03125 0.0109,-0.02289 0.02146,0.02338 0.03125,0 0.0098,-0.02338 -0.0087,-0.0074 0,-0.03125 0.0087,-0.02382 -0.0075,-0.007 0,-0.03125 0.0075,-0.0242 -0.0064,-0.0067 0,-0.03125 0.0064,-0.02453 0.02605,-0.0064 0.03125,-0.03125 0.004,-0.02503 -0.0028,-0.0061 0,-0.03125 0.0028,-0.02519 -0.0016,-0.006 0,-0.03125 0.0016,-0.0253 -4.1e-4,-0.0059 0,-0.03125 4.1e-4,-0.02534 7.96e-4,-0.0059 0,-0.03125 -0.002,-0.02527 0.0032,-0.0061 0,-0.03125 -0.0032,-0.02515 0.0044,-0.0063 0,-0.03125 -0.0044,-0.02496 0.0056,-0.0065 0,-0.03125 -0.0056,-0.02473 -0.02451,-0.0068 -0.03125,-0.03125 -0.0079,-0.02409 0.009,-0.0076 0,-0.03125 -0.009,-0.02368 0.01015,-0.008 0,-0.03125 -0.01015,-0.02323 -0.02001,-0.0085 -0.03125,-0.03125 -0.01231,-0.02216 -0.0179,-0.0097 -0.03125,-0.03125 -0.01335,-0.02155 0.01436,-0.01036 0,-0.03125 -0.01436,-0.02089 -0.01591,0.02018 -0.03125,0 -0.01534,-0.02018 0.01628,-0.01182 0,-0.03125 l -3.857995,-4.537453 c -0.01689,-0.01987 -0.01341,-0.01223 -0.03125,-0.03125 -0.01875,-0.01812 -0.01163,-0.01407 -0.03125,-0.03125 -0.02043,-0.0162 -0.01005,-0.01607 -0.03125,-0.03125 -0.0212,-0.01518 -0.0093,0.01413 -0.03125,0 -0.02192,-0.01413 0.02258,-0.01821 0,-0.03125 -0.02258,-0.01304 -0.0081,0.01192 -0.03125,0 -0.02319,-0.01192 -0.0075,0.01077 -0.03125,0 -0.02375,-0.01077 -0.007,-0.02166 -0.03125,-0.03125 -0.02469,-0.0084 -0.0062,0.0072 -0.03125,0 -0.02507,-0.0072 -0.0059,-0.02531 -0.03125,-0.03125 -0.02539,-0.0059 -0.0056,0.0047 -0.03125,0 -0.02565,-0.0047 -0.0054,0.0034 -0.03125,0 -0.02585,-0.0034 -0.0053,0.0022 -0.03125,0 -0.02606,-8.92e-4 -0.0052,-3.84e-4 -0.03125,0 -0.02607,3.84e-4 -0.0052,-0.0017 -0.03125,0 -0.02602,0.0017 -0.0053,-0.0029 -0.03125,0 -0.02591,0.0029 -0.0055,-0.0042 -0.03125,0 -0.02574,0.0042 -0.0057,-0.0054 -0.03125,0 -0.0255,0.0054 0.0252,0.02456 0,0.03125 -0.0252,0.0067 -0.0064,-0.0079 -0.03125,0 -0.02485,0.0079 -0.0068,-0.0091 -0.03125,0 -0.02443,0.0091 -0.0073,-0.01031 -0.03125,0 -0.02395,0.01031 -0.0078,0.01978 -0.03125,0.03125 -0.02283,0.0126 -0.0091,0.01755 -0.03125,0.03125 -0.02219,0.0137 -0.0098,-0.01477 -0.03125,0 -0.02074,0.0158 -0.01131,0.01445 -0.03125,0.03125 -3.025525,2.64532 -6.931458,4.553578 -11.199143,4.553578 -4.724258,0 -8.996423,-1.929545 -11.645567,-4.668774 -2.649809,-2.739916 -4.800935,-7.064143 -4.800935,-11.796455 0,-4.74157 1.683604,-9.194624 4.225912,-11.991997 2.540426,-2.795302 6.827427,-5.33817 11.545574,-5.181297 3.061539,0.101792 4.876466,0.705442 6.737555,1.482154 0.298711,0.124455 0.414599,0.554894 0.21875,0.8125 L 36.5,21.875 c -0.02035,0.0278 -0.01274,0.0022 -0.03125,0.03125 -0.01851,0.02906 0.0166,0.0011 0,0.03125 -0.0166,0.03019 -0.01664,4.9e-5 -0.03125,0.03125 -0.01461,0.0312 0.01256,-8.29e-4 0,0.03125 -0.01256,0.03208 -0.02078,-0.0016 -0.03125,0.03125 -0.01047,0.03282 0.0083,-0.0022 0,0.03125 -0.0083,0.03343 0.0061,-0.0026 0,0.03125 -0.0061,0.0339 0.0039,-0.003 0,0.03125 -0.0039,0.03423 -0.02953,-0.0032 -0.03125,0.03125 -0.0017,0.03441 -5.06e-4,-0.0032 0,0.03125 5.06e-4,0.03445 -0.0027,0.02816 0,0.0625 0.0027,0.03434 0.02631,-0.0028 0.03125,0.03125 0.0049,0.0341 -0.0071,-0.0025 0,0.03125 0.0071,0.03371 -0.0093,-0.0019 0,0.03125 0.0093,0.03317 -0.01142,-0.0013 0,0.03125 0.01142,0.0325 0.01775,-4.47e-4 0.03125,0.03125 0.0135,0.0317 -0.01552,4.92e-4 0,0.03125 0.01552,0.03076 0.01377,0.0016 0.03125,0.03125 0.01748,0.02969 -0.01936,0.0027 0,0.03125 0.01936,0.0285 0.01009,0.0041 0.03125,0.03125 0.02116,0.02719 0.0084,0.0055 0.03125,0.03125 0.02449,0.02423 0.0052,0.0086 0.03125,0.03125 0.026,0.0226 0.0038,0.01038 0.03125,0.03125 0.02741,0.02087 0.0025,-0.01906 0.03125,0 0.0287,0.01906 0.0014,0.01409 0.03125,0.03125 0.02987,0.01716 3.31e-4,0.01605 0.03125,0.03125 0.03092,0.0152 -5.86e-4,-0.01317 0.03125,0 0.03184,0.01317 -0.0014,-0.01108 0.03125,0 0.03262,0.01108 -0.002,0.0223 0.03125,0.03125 0.03327,0.009 -0.0025,-0.0068 0.03125,0 0.03378,0.0068 -0.0029,-0.0046 0.03125,0 L 54.1875,24.9375 c 0.03599,0.0041 -0.0049,-0.0017 0.03125,0 0.03618,0.0017 -0.005,7.9e-4 0.03125,0 0.03621,-7.9e-4 -0.0048,0.0032 0.03125,0 0.03608,-0.0032 0.02673,0.0057 0.0625,0 0.03577,-0.0057 -0.0041,0.0081 0.03125,0 0.0353,-0.0081 -0.0034,-0.02076 0.03125,-0.03125 0.03467,-0.01049 -0.0026,0.01282 0.03125,0 0.03388,-0.01282 -0.0017,0.01509 0.03125,0 0.03293,-0.01509 -5.78e-4,-0.01396 0.03125,-0.03125 0.03183,-0.01729 6.7e-4,0.01942 0.03125,0 0.03058,-0.01942 0.0021,-0.0098 0.03125,-0.03125 0.02919,-0.02145 0.0036,-0.0079 0.03125,-0.03125 0.02767,-0.02338 0.0052,-0.006 0.03125,-0.03125 0.02601,-0.02521 0.007,0.02692 0.03125,0 0.02424,-0.02692 -0.02236,-0.0027 0,-0.03125 0.02236,-0.0285 0.01088,-0.0013 0.03125,-0.03125 0.02037,-0.02995 0.01296,1.8e-5 0.03125,-0.03125 0.01829,-0.03127 -0.01612,0.0012 0,-0.03125 0.01612,-0.03244 0.01737,0.0022 0.03125,-0.03125 0.01388,-0.03346 -0.01157,0.0031 0,-0.03125 0.01157,-0.03432 -0.0092,-0.02747 0,-0.0625 0.0092,-0.03503 0.02443,0.0043 0.03125,-0.03125 0.0068,-0.03558 -0.0044,0.0047 0,-0.03125 0.0044,-0.03596 -0.0019,0.0049 0,-0.03125 0.0019,-0.03617 5.32e-4,0.005 0,-0.03125 -5.32e-4,-0.03622 0.003,0.0048 0,-0.03125 -0.003,-0.0361 0.0054,0.0046 0,-0.03125 -0.0054,-0.03581 0.0079,-0.02714 0,-0.0625 -0.0079,-0.03536 -0.02101,0.0035 -0.03125,-0.03125 -0.01024,-0.03475 0.01258,0.0027 0,-0.03125 -0.01258,-0.03397 0.01486,0.0018 0,-0.03125 -0.01486,-0.03304 -0.01418,7e-4 -0.03125,-0.03125 L 46.46875,9.125 c -0.0093,-0.01763 0.01,-0.01398 0,-0.03125 -0.01,-0.01727 -0.02066,0.016886 -0.03125,0 -0.01059,-0.016886 0.01121,-0.014772 0,-0.03125 C 46.42568,9.046453 46.41866,9.046844 46.40625,9.03125 46.393261,9.0161314 46.388546,9.0146222 46.375,9 46.36092,8.985895 46.35835,8.982319 46.34375,8.96875 c -0.0151,-0.013013 -0.01568,0.012439 -0.03125,0 -0.01557,-0.012439 0.01603,-0.019402 0,-0.03125 -0.01603,-0.011848 -0.01479,0.01124 -0.03125,0 -0.01646,-0.01124 0.01687,-0.020633 0,-0.03125 -0.01687,-0.010617 -0.014,0.00998 -0.03125,0 C 46.23238,8.89692 46.2367,8.883661 46.21875,8.875 c -0.01826,-0.00798 -0.0127,0.00729 -0.03125,0 -0.01855,-0.00729 -0.01244,0.0066 -0.03125,0 -0.01904,-0.00589 -0.012,-0.026079 -0.03125,-0.03125 -0.01943,-0.00445 -0.01167,0.00372 -0.03125,0 -0.01958,-0.00372 -0.01154,0.00298 -0.03125,0 -0.01981,-0.00224 -0.01137,0.0015 -0.03125,0 -0.01988,-0.0015 -0.01133,7.567e-4 -0.03125,0 -0.01993,-1.12e-5 -0.01133,-7.343e-4 -0.03125,0 -0.01988,0.00148 -0.01144,-0.00222 -0.03125,0 -0.02775,0.00304 -0.0037,-0.00448 -0.03125,0 -0.02755,0.00448 -0.004,-0.00592 -0.03125,0 -0.02728,0.00592 -0.0043,-0.00734 -0.03125,0 z"
       id="path2989"
       style="opacity:0.1;fill:#000000;fill-opacity:1;stroke:none"
       inkscape:connector-curvature="0"
       sodipodi:nodetypes="ccsccccsssscccssscscssscccccccccscsccccccsssccccscscscccsscccccccscsccccsssssccccccscccccssccccccccccccccccccccccccscccccscccccsccccsccccccssccccssccccssssccsccscscccscc" />
    <path
       d="M 45.9375,9.03125 C 45.8563,9.048008 45.765448,9.118995 45.71875,9.1875 l -2.15625,3 c -0.0095,0.01126 -0.01999,0.02173 -0.03125,0.03125 -0.05147,0.04369 -0.120112,0.06657 -0.1875,0.0625 -0.04088,0.0099 -0.08412,0.0099 -0.125,0 C 40.103164,10.726459 36.622069,9.8125 32.90625,9.8125 20.096948,9.8125 9.6875,20.221948 9.6875,33.03125 c 0,12.809288 10.410024,23.1875 23.21875,23.1875 5.956108,0 11.390902,-2.24519 15.5,-5.9375 0.108055,-0.100415 0.122676,-0.35299 0.03125,-0.46875 l 0.03125,0 -3.84103,-4.486556 c -0.0104,6.14e-4 -0.02084,6.14e-4 -0.03125,0 -0.100047,-0.123436 -0.352174,-0.139213 -0.46875,-0.03125 -3.048312,2.665245 -7.18547,4.618758 -11.510762,4.618758 -4.771344,0 -8.46846,-1.786453 -11.34375,-4.375 -2.825467,-2.543693 -5.205425,-7.621157 -5.205425,-12.396487 0,-4.781221 2.012218,-9.68091 4.593789,-12.521486 2.581071,-2.840026 6.835783,-5.022333 11.602713,-4.890204 3.67246,0.101792 5.330251,0.785177 7.342909,1.734835 0.02413,0.01715 0.04535,0.03837 0.0625,0.0625 0.05179,0.05883 0.07539,0.141438 0.0625,0.21875 2.2e-5,0.04338 -0.01082,0.08673 -0.03125,0.125 L 36.65625,22 c -0.05375,0.07729 -0.05014,0.196799 0,0.3125 0.05014,0.115701 0.125613,0.205115 0.21875,0.21875 L 54.21875,24.75 c 0.09803,0.01 0.205667,-0.07611 0.28125,-0.1875 0.07558,-0.111386 0.07672,-0.225081 0.03125,-0.3125 l 0.03125,0 -8.25,-15.03125 c -0.0104,6.144e-4 -0.02085,6.144e-4 -0.03125,0 -0.06051,-0.1171552 -0.214659,-0.2143691 -0.34375,-0.1875 z"
       id="path2987"
       style="opacity:0.2;fill:#000000;fill-opacity:1;stroke:none"
       inkscape:connector-curvature="0"
       sodipodi:nodetypes="ccccccsssccccccssssscccccsccsccccc" />
  </g>
  <g
     id="layer1"
     style="display:inline"
     transform="matrix(0.9990414,0,0,0.9990414,0.03079641,1.8365213)">
    <path
       d="M 46.033824,9.2071727 43.620215,12.610979 C 40.435117,10.927196 36.798529,9.9807651 32.94464,9.9807651 c -12.627758,0 -22.867391,10.2396339 -22.867391,22.8673919 0,12.627758 10.239633,22.867391 22.867391,22.867391 5.872209,0 11.236376,-2.209323 15.286186,-5.848358 l -3.816675,-4.405277 c -3.084753,2.697106 -7.453345,4.773384 -11.875723,4.773384 -9.694538,0 -16.757231,-7.599771 -16.757231,-17.294309 0,-9.694539 6.610104,-17.500684 16.304642,-17.500684 3.634729,0 5.921437,0.905659 8.094971,2.085958 l -3.244433,4.491601 17.359414,2.227946 z"
       id="path5046"
       style="fill:#ffffff;fill-opacity:1;stroke:none"
       inkscape:connector-curvature="0"
       sodipodi:nodetypes="ccsssccssscccc" />
  </g>
</svg>
