<?xml version="1.0" encoding="UTF-8" standalone="no"?>
<!-- Created with Inkscape (http://www.inkscape.org/) -->

<svg
   xmlns:dc="http://purl.org/dc/elements/1.1/"
   xmlns:cc="http://creativecommons.org/ns#"
   xmlns:rdf="http://www.w3.org/1999/02/22-rdf-syntax-ns#"
   xmlns:svg="http://www.w3.org/2000/svg"
   xmlns="http://www.w3.org/2000/svg"
   version="1.1"
   width="64"
   height="64"
   id="svg2985">
  <defs
     id="defs2987" />
  <metadata
     id="metadata2990">
    <rdf:RDF>
      <cc:Work
         rdf:about="">
        <dc:format>image/svg+xml</dc:format>
        <dc:type
           rdf:resource="http://purl.org/dc/dcmitype/StillImage" />
        <dc:title></dc:title>
      </cc:Work>
    </rdf:RDF>
  </metadata>
  <g
     id="layer2"
     style="display:inline">
    <path
       d="M 25.40625,0.25 A 1.1566034,1.1566034 0 0 0 24.375,1.15625 L 22.90625,8.0625 c -2.121759,0.859037 -4.086011,1.984166 -5.875,3.34375 L 10.96875,9.1875 a 1.1566034,1.1566034 0 0 0 -1.40625,0.5 L 1.71875,22.53125 A 1.1566034,1.1566034 0 0 0 2,24.03125 L 7.125,28.25 c -0.1639266,1.168953 -0.3125,2.350527 -0.3125,3.5625 0,1.145819 0.1313858,2.220591 0.28125,3.28125 L 2.125,39.25 a 1.1566034,1.1566034 0 0 0 -0.25,1.4375 L 9.0625,53.875 a 1.1566034,1.1566034 0 0 0 1.40625,0.53125 l 6.34375,-2.375 c 1.806662,1.396839 3.798461,2.529104 5.9375,3.40625 l 1.0625,6.375 a 1.1566034,1.1566034 0 0 0 1.125,0.96875 L 40,63.1875 a 1.1566034,1.1566034 0 0 0 1.1875,-0.96875 l 1.125,-6.84375 c 2.126031,-0.895329 4.091578,-2.073261 5.875,-3.46875 l 6.625,2.3125 a 1.1566034,1.1566034 0 0 0 1.375,-0.5 L 63.53125,41.375 A 1.1566034,1.1566034 0 0 0 63.3125,39.90625 L 57.84375,35 c 0.13799,-1.033453 0.25,-2.087464 0.25,-3.1875 0,-1.200634 -0.119672,-2.359936 -0.28125,-3.5 L 63,23.8125 A 1.1566034,1.1566034 0 0 0 63.25,22.375 L 56.28125,9.84375 A 1.1566034,1.1566034 0 0 0 54.90625,9.3125 L 48.125,11.53125 C 46.335078,10.14975 44.354721,9.0267142 42.25,8.15625 L 40.9375,1.375 A 1.1566034,1.1566034 0 0 0 39.8125,0.4375 L 25.5,0.25 a 1.1566034,1.1566034 0 0 0 -0.09375,0 z m 7.28125,20.1875 c 6.276069,0 11.375,5.043416 11.375,11.3125 0,6.269084 -5.105916,11.375 -11.375,11.375 -6.269083,0 -11.3125,-5.098931 -11.3125,-11.375 0,-6.276069 5.036432,-11.3125 11.3125,-11.3125 z"
       id="path3847"
       style="opacity:0.1;fill:#000000;fill-opacity:1;stroke:none" />
    <path
       d="M 25.375,0.6875 A 0.73176393,0.73176393 0 0 0 24.78125,1.25 L 23.25,8.375 c -2.23064,0.881319 -4.293461,2.089944 -6.15625,3.53125 L 10.8125,9.59375 a 0.73176393,0.73176393 0 0 0 -0.875,0.3125 L 2.09375,22.75 A 0.73176393,0.73176393 0 0 0 2.25,23.6875 l 5.3125,4.34375 C 7.3763587,29.264417 7.25,30.528978 7.25,31.8125 c 0,1.202027 0.1470341,2.345142 0.3125,3.46875 L 2.40625,39.5625 a 0.73176393,0.73176393 0 0 0 -0.1875,0.90625 l 7.1875,13.1875 A 0.73176393,0.73176393 0 0 0 10.3125,54 l 6.5625,-2.46875 c 1.89359,1.493318 4.008794,2.720498 6.28125,3.625 L 24.25,61.75 a 0.73176393,0.73176393 0 0 0 0.6875,0.59375 L 40,62.75 a 0.73176393,0.73176393 0 0 0 0.75,-0.59375 l 1.15625,-7.0625 c 2.252045,-0.919029 4.350083,-2.169398 6.21875,-3.65625 l 6.8125,2.375 A 0.73176393,0.73176393 0 0 0 55.8125,53.5 L 63.15625,41.15625 A 0.73176393,0.73176393 0 0 0 63.03125,40.25 L 57.375,35.1875 c 0.153869,-1.094423 0.28125,-2.216484 0.28125,-3.375 0,-1.248731 -0.13574,-2.46796 -0.3125,-3.65625 L 62.71875,23.5 A 0.73176393,0.73176393 0 0 0 62.875,22.59375 L 55.90625,10.0625 A 0.73176393,0.73176393 0 0 0 55.0625,9.71875 L 48.0625,12 C 46.209008,10.5415 44.114962,9.3635714 41.90625,8.46875 l -1.375,-7 A 0.73176393,0.73176393 0 0 0 39.8125,0.875 L 25.5,0.6875 a 0.73176393,0.73176393 0 0 0 -0.125,0 z M 32.6875,20 C 39.192233,20 44.5,25.249686 44.5,31.75 c 0,6.500314 -5.312186,11.8125 -11.8125,11.8125 -6.500313,0 -11.75,-5.307767 -11.75,-11.8125 0,-6.504733 5.245268,-11.75 11.75,-11.75 z"
       id="path3845"
       style="opacity:0.2;fill:#000000;fill-opacity:1;stroke:none" />
    <path
       d="m 25.40625,1.0625 a 0.34604377,0.34604377 0 0 0 -0.25,0.28125 l -1.5625,7.3125 c -2.360859,0.9064527 -4.519163,2.147913 -6.46875,3.6875 l -6.4375,-2.375 a 0.34604377,0.34604377 0 0 0 -0.40625,0.125 L 2.4375,22.9375 A 0.34604377,0.34604377 0 0 0 2.5,23.40625 L 7.9375,27.875 c -0.2037093,1.278175 -0.3125,2.602869 -0.3125,3.9375 0,1.247706 0.1331637,2.444985 0.3125,3.625 L 2.65625,39.84375 A 0.34604377,0.34604377 0 0 0 2.5625,40.28125 L 9.75,53.46875 a 0.34604377,0.34604377 0 0 0 0.4375,0.15625 l 6.71875,-2.53125 C 18.880947,52.6859 21.096991,53.943645 23.5,54.875 l 1.125,6.8125 a 0.34604377,0.34604377 0 0 0 0.34375,0.28125 L 40.03125,62.375 A 0.34604377,0.34604377 0 0 0 40.375,62.09375 l 1.1875,-7.28125 c 2.372092,-0.941025 4.552836,-2.234745 6.5,-3.8125 l 7,2.4375 A 0.34604377,0.34604377 0 0 0 55.5,53.3125 L 62.84375,40.96875 A 0.34604377,0.34604377 0 0 0 62.75,40.53125 L 56.96875,35.375 c 0.170794,-1.158696 0.3125,-2.343939 0.3125,-3.5625 0,-1.307842 -0.117125,-2.596905 -0.3125,-3.84375 l 5.5,-4.78125 A 0.34604377,0.34604377 0 0 0 62.5625,22.78125 L 55.59375,10.25 A 0.34604377,0.34604377 0 0 0 55.1875,10.0625 L 48,12.40625 C 46.075734,10.862101 43.888441,9.6693641 41.5625,8.75 L 40.15625,1.53125 A 0.34604377,0.34604377 0 0 0 39.8125,1.25 L 25.5,1.0625 a 0.34604377,0.34604377 0 0 0 -0.09375,0 z M 32.6875,19.625 c 6.712341,0 12.1875,5.414749 12.1875,12.125 0,6.710251 -5.477249,12.1875 -12.1875,12.1875 -6.71025,0 -12.125,-5.475159 -12.125,-12.1875 0,-6.712341 5.41266,-12.125 12.125,-12.125 z"
       id="path3843"
       style="opacity:0.3;fill:#000000;fill-opacity:1;stroke:none" />
    <path
       d="M 25.489551,1.4210313 23.912876,8.8782757 C 21.452991,9.7975673 19.194396,11.100178 17.18005,12.71343 l -6.604988,-2.428931 -7.8407596,12.82646 5.5822801,4.602185 c -0.2231289,1.325887 -0.3409026,2.701281 -0.3409026,4.090832 0,1.297209 0.1465486,2.549876 0.3409026,3.792541 l -5.4544416,4.51696 7.2015671,13.209975 6.903278,-2.599382 c 2.033737,1.665361 4.358373,2.974149 6.860665,3.92038 l 1.150546,6.988503 15.042327,0.383516 1.235772,-7.414632 c 2.468654,-0.953807 4.723807,-2.312074 6.732826,-3.962993 l 7.201568,2.471544 7.329406,-12.315106 -5.88057,-5.283991 c 0.18367,-1.206248 0.29829,-2.448696 0.29829,-3.707315 0,-1.34966 -0.130839,-2.672703 -0.340903,-3.962993 L 62.264419,22.940508 55.275916,10.412337 47.94651,12.798656 C 45.961855,11.176942 43.687739,9.9029307 41.256296,8.9635013 L 39.80746,1.5914826 25.489551,1.4210313 z m 7.201567,17.8547737 c 6.898594,0 12.528171,5.586964 12.528171,12.485558 0,6.898594 -5.629577,12.52817 -12.528171,12.52817 -6.898593,0 -12.485558,-5.629576 -12.485558,-12.52817 0,-6.898594 5.586965,-12.485558 12.485558,-12.485558 z"
       id="path3773"
       style="fill:#ffffff;fill-opacity:1;stroke:none" />
  </g>
</svg>
