<?xml version="1.0" encoding="UTF-8" standalone="no"?>
<!-- Created with Inkscape (http://www.inkscape.org/) -->

<svg
   xmlns:dc="http://purl.org/dc/elements/1.1/"
   xmlns:cc="http://creativecommons.org/ns#"
   xmlns:rdf="http://www.w3.org/1999/02/22-rdf-syntax-ns#"
   xmlns:svg="http://www.w3.org/2000/svg"
   xmlns="http://www.w3.org/2000/svg"
   xmlns:sodipodi="http://sodipodi.sourceforge.net/DTD/sodipodi-0.dtd"
   xmlns:inkscape="http://www.inkscape.org/namespaces/inkscape"
   version="1.1"
   width="64"
   height="64"
   id="svg2985"
   inkscape:version="0.48.5 r"
   sodipodi:docname="settings.svg">
  <sodipodi:namedview
     pagecolor="#ffffff"
     bordercolor="#666666"
     borderopacity="1"
     objecttolerance="10"
     gridtolerance="10"
     guidetolerance="10"
     inkscape:pageopacity="0"
     inkscape:pageshadow="2"
     inkscape:window-width="1237"
     inkscape:window-height="994"
     id="namedview10"
     showgrid="true"
     inkscape:zoom="7.375"
     inkscape:cx="19.521125"
     inkscape:cy="23.731834"
     inkscape:window-x="41"
     inkscape:window-y="0"
     inkscape:window-maximized="1"
     inkscape:current-layer="svg2985">
    <inkscape:grid
       type="xygrid"
       id="grid2987" />
  </sodipodi:namedview>
  <defs
     id="defs2987" />
  <metadata
     id="metadata2990">
    <rdf:RDF>
      <cc:Work
         rdf:about="">
        <dc:format>image/svg+xml</dc:format>
        <dc:type
           rdf:resource="http://purl.org/dc/dcmitype/StillImage" />
        <dc:title />
      </cc:Work>
    </rdf:RDF>
  </metadata>
  <g
     id="layer2"
     style="fill:#ffffff;display:inline"
     transform="matrix(0.90301408,0,0,0.89143926,2.543473,3.7017871)">
    <path
       d="M 25.489551,1.4210313 23.912876,8.8782757 C 21.452991,9.7975673 19.194396,11.100178 17.18005,12.71343 l -6.604988,-2.428931 -7.8407596,12.82646 5.5822801,4.602185 c -0.2231289,1.325887 -0.3409026,2.701281 -0.3409026,4.090832 0,1.297209 0.1465486,2.549876 0.3409026,3.792541 l -5.4544416,4.51696 7.2015671,13.209975 6.903278,-2.599382 c 2.033737,1.665361 4.358373,2.974149 6.860665,3.92038 l 1.150546,6.988503 15.042327,0.383516 1.235772,-7.414632 c 2.468654,-0.953807 4.723807,-2.312074 6.732826,-3.962993 l 7.201568,2.471544 7.329406,-12.315106 -5.88057,-5.283991 c 0.18367,-1.206248 0.29829,-2.448696 0.29829,-3.707315 0,-1.34966 -0.130839,-2.672703 -0.340903,-3.962993 L 62.264419,22.940508 55.275916,10.412337 47.94651,12.798656 C 45.961855,11.176942 43.687739,9.9029307 41.256296,8.9635013 L 39.80746,1.5914826 25.489551,1.4210313 z m 7.201567,17.8547737 c 6.898594,0 12.528171,5.586964 12.528171,12.485558 0,6.898594 -5.629577,12.52817 -12.528171,12.52817 -6.898593,0 -12.485558,-5.629576 -12.485558,-12.52817 0,-6.898594 5.586965,-12.485558 12.485558,-12.485558 z"
       id="path3773"
       style="fill:#ffffff;fill-opacity:1;stroke:none"
       inkscape:connector-curvature="0" />
  </g>
</svg>
