<?xml version="1.0" encoding="UTF-8" standalone="no"?>
<!-- Created with Inkscape (http://www.inkscape.org/) -->

<svg
   xmlns:dc="http://purl.org/dc/elements/1.1/"
   xmlns:cc="http://creativecommons.org/ns#"
   xmlns:rdf="http://www.w3.org/1999/02/22-rdf-syntax-ns#"
   xmlns:svg="http://www.w3.org/2000/svg"
   xmlns="http://www.w3.org/2000/svg"
   xmlns:sodipodi="http://sodipodi.sourceforge.net/DTD/sodipodi-0.dtd"
   xmlns:inkscape="http://www.inkscape.org/namespaces/inkscape"
   version="1.1"
   width="24"
   height="24"
   viewBox="0 0 24 24"
   id="svg2"
   inkscape:version="0.48.5 r"
   sodipodi:docname="settings_palette_24px.svg">
  <sodipodi:namedview
     pagecolor="#ffffff"
     bordercolor="#666666"
     borderopacity="1"
     objecttolerance="10"
     gridtolerance="10"
     guidetolerance="10"
     inkscape:pageopacity="0"
     inkscape:pageshadow="2"
     inkscape:window-width="640"
     inkscape:window-height="480"
     id="namedview7"
     showgrid="false"
     inkscape:zoom="9.8333333"
     inkscape:cx="12"
     inkscape:cy="12"
     inkscape:window-x="47"
     inkscape:window-y="2"
     inkscape:window-maximized="0"
     inkscape:current-layer="svg2" />
  <metadata
     id="metadata12">
    <rdf:RDF>
      <cc:Work
         rdf:about="">
        <dc:format>image/svg+xml</dc:format>
        <dc:type
           rdf:resource="http://purl.org/dc/dcmitype/StillImage" />
        <dc:title />
      </cc:Work>
    </rdf:RDF>
  </metadata>
  <defs
     id="defs10" />
  <path
     d="m 12,3 c -4.97,0 -9,4.03 -9,9 0,4.97 4.03,9 9,9 0.83,0 1.5,-0.67 1.5,-1.5 0,-0.39 -0.15,-0.74 -0.39,-1.01 -0.23,-0.26 -0.38,-0.61 -0.38,-0.99 0,-0.83 0.67,-1.5 1.5,-1.5 H 16 c 2.76,0 5,-2.24 5,-5 C 21,6.58 16.97,3 12,3 z M 6.5,12 C 5.67,12 5,11.33 5,10.5 5,9.67 5.67,9 6.5,9 7.33,9 8,9.67 8,10.5 8,11.33 7.33,12 6.5,12 z m 3,-4 C 8.67,8 8,7.33 8,6.5 8,5.67 8.67,5 9.5,5 10.33,5 11,5.67 11,6.5 11,7.33 10.33,8 9.5,8 z m 5,0 C 13.67,8 13,7.33 13,6.5 13,5.67 13.67,5 14.5,5 15.33,5 16,5.67 16,6.5 16,7.33 15.33,8 14.5,8 z m 3,4 C 16.67,12 16,11.33 16,10.5 16,9.67 16.67,9 17.5,9 18.33,9 19,9.67 19,10.5 19,11.33 18.33,12 17.5,12 z"
     id="path4"
     style="fill:#ffffff" />
  <path
     d="M 0,0 H 24 V 24 H 0 z"
     id="path6"
     style="fill:none" />
</svg>
