<?xml version="1.0" encoding="UTF-8" standalone="no"?>
<!-- Created with Inkscape (http://www.inkscape.org/) -->

<svg
   xmlns:dc="http://purl.org/dc/elements/1.1/"
   xmlns:cc="http://creativecommons.org/ns#"
   xmlns:rdf="http://www.w3.org/1999/02/22-rdf-syntax-ns#"
   xmlns:svg="http://www.w3.org/2000/svg"
   xmlns="http://www.w3.org/2000/svg"
   xmlns:sodipodi="http://sodipodi.sourceforge.net/DTD/sodipodi-0.dtd"
   xmlns:inkscape="http://www.inkscape.org/namespaces/inkscape"
   version="1.1"
   width="24"
   height="24"
   viewBox="0 0 24 24"
   id="svg2"
   inkscape:version="0.48.5 r"
   sodipodi:docname="settings_format_list_bulleted_24px.svg">
  <sodipodi:namedview
     pagecolor="#ffffff"
     bordercolor="#666666"
     borderopacity="1"
     objecttolerance="10"
     gridtolerance="10"
     guidetolerance="10"
     inkscape:pageopacity="0"
     inkscape:pageshadow="2"
     inkscape:window-width="1233"
     inkscape:window-height="991"
     id="namedview7"
     showgrid="false"
     inkscape:zoom="19.666667"
     inkscape:cx="14.048252"
     inkscape:cy="8.3222905"
     inkscape:window-x="47"
     inkscape:window-y="0"
     inkscape:window-maximized="1"
     inkscape:current-layer="g2984" />
  <metadata
     id="metadata12">
    <rdf:RDF>
      <cc:Work
         rdf:about="">
        <dc:format>image/svg+xml</dc:format>
        <dc:type
           rdf:resource="http://purl.org/dc/dcmitype/StillImage" />
        <dc:title />
      </cc:Work>
    </rdf:RDF>
  </metadata>
  <defs
     id="defs10" />
  <g
     id="g2984">
    <path
       style="fill:#ffffff"
       d="m 7.3633474,1.84375 c -1.1373478,0 -2.0625,0.9251524 -2.0625,2.0625 0,1.1373477 0.9251522,2.0625 2.0625,2.0625 1.1373476,0 2.0625,-0.9251523 2.0625,-2.0625 0,-1.1373476 -0.9251524,-2.0625 -2.0625,-2.0625 z m 3.2187496,1.5 0,1.25 7.84375,0 0,-1.25 -7.84375,0 z M 7.3633474,10.0625 c -1.1373478,0 -2.0625,0.925152 -2.0625,2.0625 0,1.137347 0.9251522,2.0625 2.0625,2.0625 1.1373476,0 2.0625,-0.925153 2.0625,-2.0625 0,-1.137348 -0.9251524,-2.0625 -2.0625,-2.0625 z m 3.2187496,1.5 0,1.25 7.84375,0 0,-1.25 -7.84375,0 z M 7.3633474,17.5 c -1.1373478,0 -2.0625,0.925152 -2.0625,2.0625 0,1.137347 0.9251522,2.0625 2.0625,2.0625 1.1373476,0 2.0625,-0.925153 2.0625,-2.0625 0,-1.137348 -0.9251524,-2.0625 -2.0625,-2.0625 z m 3.2187496,1.46875 0,1.28125 7.84375,0 0,-1.28125 -7.84375,0 z"
       id="path4"
       inkscape:connector-curvature="0" />
  </g>
  <path
     d="M 0,0 H 24 V 24 H 0 z"
     id="path6"
     style="fill:none" />
</svg>
