<?xml version="1.0" encoding="UTF-8" standalone="no"?>
<!-- Created with Inkscape (http://www.inkscape.org/) -->

<svg
   xmlns:dc="http://purl.org/dc/elements/1.1/"
   xmlns:cc="http://creativecommons.org/ns#"
   xmlns:rdf="http://www.w3.org/1999/02/22-rdf-syntax-ns#"
   xmlns:svg="http://www.w3.org/2000/svg"
   xmlns="http://www.w3.org/2000/svg"
   xmlns:sodipodi="http://sodipodi.sourceforge.net/DTD/sodipodi-0.dtd"
   xmlns:inkscape="http://www.inkscape.org/namespaces/inkscape"
   version="1.1"
   width="64"
   height="64"
   id="svg4445"
   inkscape:version="0.48.5 r"
   sodipodi:docname="shutdown.svg">
  <sodipodi:namedview
     pagecolor="#ffffff"
     bordercolor="#666666"
     borderopacity="1"
     objecttolerance="10"
     gridtolerance="10"
     guidetolerance="10"
     inkscape:pageopacity="0"
     inkscape:pageshadow="2"
     inkscape:window-width="640"
     inkscape:window-height="480"
     id="namedview11"
     showgrid="false"
     inkscape:zoom="14.75"
     inkscape:cx="35.198239"
     inkscape:cy="23.556612"
     inkscape:window-x="39"
     inkscape:window-y="0"
     inkscape:window-maximized="0"
     inkscape:current-layer="svg4445" />
  <defs
     id="defs4447" />
  <metadata
     id="metadata4450">
    <rdf:RDF>
      <cc:Work
         rdf:about="">
        <dc:format>image/svg+xml</dc:format>
        <dc:type
           rdf:resource="http://purl.org/dc/dcmitype/StillImage" />
        <dc:title />
      </cc:Work>
    </rdf:RDF>
  </metadata>
  <g
     id="layer4"
     style="display:inline">
    <path
       d="m 35.25,3.90625 0,0.0625 c -0.01091,-0.00432 -0.01615,0.00598 -0.03125,0 -0.03397,-0.013455 -0.06244,-0.031244 -0.0625,-0.03125 -8.95e-4,-8.08e-5 -0.02192,2.553e-4 -0.03125,0 0.0018,1.296e-4 -0.03837,7.49e-5 -0.03125,0 l -5.96875,0 c -0.0038,3.3e-6 -0.03428,-2.15e-5 -0.03125,0 -0.0038,3.3e-6 -0.03428,-2.15e-5 -0.03125,0 -0.0023,5.4e-6 -0.03117,2e-7 -0.03125,0 0.003,-2.15e-5 -0.02743,3.3e-6 -0.03125,0 -0.0028,-1.179e-4 -0.08477,-0.0015 -0.03125,0 0.05352,-0.0015 -0.02844,-1.179e-4 -0.03125,0 -0.0028,-1.179e-4 -0.08477,-0.0015 -0.03125,0 l -0.03125,0 a 0.26007782,0.26007782 0 0 0 -0.0625,0 0.26007782,0.26007782 0 0 0 -0.03125,0 c -6e-6,2.4e-6 0.0028,0.029486 0,0.03125 -0.0041,0.00265 -0.02372,-0.00481 -0.03125,0 -2.3e-5,6.5e-6 0.0038,0.029634 0,0.03125 -0.0076,0.00323 -0.01981,-0.00484 -0.03125,0 -0.01144,0.00484 -0.03122,-1.6e-5 -0.03125,0 -2.3e-5,7.4e-6 0.0043,0.029153 0,0.03125 -0.0085,0.00419 -0.01851,-0.00629 -0.03125,0 -0.01274,0.00629 -0.03122,-1.8e-5 -0.03125,0 -1.2e-5,1.34e-5 0.0061,0.023171 0,0.03125 -0.009,0.00514 -0.02446,-0.00386 -0.03125,0 -0.01069,0.00397 -0.03119,-2.71e-5 -0.03125,0 -2.9e-5,1.35e-5 0.0067,0.026571 0,0.03125 -0.0067,0.00468 -0.02234,-0.00623 -0.03125,0 0,0 0.0085,0.021612 0,0.03125 -0.0085,0.00964 -0.03125,0 -0.03125,0 0,0 0,0.03125 0,0.03125 a 0.26007782,0.26007782 0 0 0 -0.03125,0.03125 0.26007782,0.26007782 0 0 0 -0.03125,0 c -6.5e-5,6.47e-5 0.0044,0.024942 0,0.03125 -0.0074,0.010514 -0.02149,0.017251 -0.03125,0.03125 0.0016,-0.00163 -0.02407,-0.00719 -0.03125,0 -2.8e-5,1.34e-5 0.0069,0.026262 0,0.03125 -0.01387,0.00998 -0.01739,0.021271 -0.03125,0.03125 -0.0069,0.00499 -0.03123,-1.64e-5 -0.03125,0 a 0.26007782,0.26007782 0 0 0 0,0.03125 0.26007782,0.26007782 0 0 0 -0.03125,0 c -2.7e-5,5.71e-5 0.004,0.020567 0,0.03125 a 0.26007782,0.26007782 0 0 0 0,0.03125 0.26007782,0.26007782 0 0 0 -0.03125,0 0.26007782,0.26007782 0 0 0 0,0.03125 c -0.0054,0.00867 -0.02717,-0.00651 -0.03125,0 a 0.26007782,0.26007782 0 0 0 0,0.03125 A 0.26007782,0.26007782 0 0 0 28.1875,4.5 a 0.26007782,0.26007782 0 0 0 -0.03125,0 0.26007782,0.26007782 0 0 0 0,0.03125 0.26007782,0.26007782 0 0 0 -0.0625,0.0625 c 0.001,-0.00312 -8.85e-4,0.034409 0,0.03125 7.4e-4,-0.0032 -5.94e-4,0.034476 0,0.03125 4.47e-4,-0.00325 -2.98e-4,0.034517 0,0.03125 0,-0.00328 1.49e-4,0.034527 0,0.03125 -2.98e-4,-0.00327 4.47e-4,0.0345 0,0.03125 -0.0035,-7.44e-4 -0.03125,-1.725e-4 -0.03125,0 -5e-6,0.00393 1e-6,0.0281 0,0.03125 l 0.03125,0 c -8.85e-4,-0.00316 0.001,0.034365 0,0.03125 -0.01196,0.030199 6e-6,0.062448 0,0.0625 -8.1e-5,8.945e-4 2.55e-4,0.021928 0,0.03125 a 0.26007782,0.26007782 0 0 0 0,0.03125 l 0,17.96875 0,0.03125 c 5e-6,0.0022 1e-6,0.03098 0,0.03125 l 0.21875,0 0,0.03125 -0.1875,0.03125 -0.03125,0 c 1.17e-4,0.0051 -6.2e-5,0.03089 0,0.03125 3e-6,1.8e-5 0.02591,0.01594 0.03125,0.03125 -3e-6,-1.8e-5 -0.0055,0.01612 0,0.03125 -0.01354,0.0021 -0.0625,-1.64e-4 -0.0625,0 1e-6,0.0032 -5e-6,0.02732 0,0.03125 l 0.0625,0 c 9e-6,1.6e-5 -0.0082,0.02013 0,0.03125 0.0037,0.0151 -3.2e-5,0.03117 0,0.03125 l 0.03125,0 c -0.0018,0.01214 0.0013,0.02141 0,0.03125 a 0.26007782,0.26007782 0 0 0 0,0.0625 0.26007782,0.26007782 0 0 0 0,0.03125 0.26007782,0.26007782 0 0 0 0.03125,0.03125 0.26007782,0.26007782 0 0 0 0.03125,0.0625 c 0.0039,0.01063 -2.6e-5,0.03119 0,0.03125 0.0045,0.0046 0.0252,-0.0062 0.03125,0 0.004,0.01068 -2.7e-5,0.03119 0,0.03125 0.0045,0.0046 0.03139,1.05e-4 0.03125,0 0.0071,0.0051 -0.0071,0.02611 0,0.03125 0.01418,0.01029 0.03121,-2.2e-5 0.03125,0 0.0069,0.005 -0.0092,0.0246 0,0.03125 a 0.26007782,0.26007782 0 0 0 0.03125,0 c 4.5e-5,9.7e-5 -0.0044,0.02493 0,0.03125 0.0029,0.0042 0.02735,-0.0056 0.03125,0 0.0098,0.01399 0.0239,0.02074 0.03125,0.03125 a 0.26007782,0.26007782 0 0 0 0,0.03125 c 6.5e-5,6.5e-5 0.02495,-0.0044 0.03125,0 0.0042,0.0029 -0.0056,0.02739 0,0.03125 0.0084,0.0058 0.02286,-0.0058 0.03125,0 a 0.26007782,0.26007782 0 0 0 0,0.03125 0.26007782,0.26007782 0 0 0 0,0.03125 0.26007782,0.26007782 0 0 0 0.03125,0 0.26007782,0.26007782 0 0 0 0.0625,0.0625 0.26007782,0.26007782 0 0 0 0.0625,0.03125 0.26007782,0.26007782 0 0 0 0.03125,0 0.26007782,0.26007782 0 0 0 0.03125,0 c 0.0104,0.0047 0.02413,-0.0022 0.03125,0 a 0.26007782,0.26007782 0 0 0 0,0.03125 0.26007782,0.26007782 0 0 0 0.03125,0 0.26007782,0.26007782 0 0 0 0.03125,0 0.26007782,0.26007782 0 0 0 0,0.03125 0.26007782,0.26007782 0 0 0 0.03125,0 c -0.004,-0.0022 0.0034,-0.02927 0,-0.03125 a 0.26007782,0.26007782 0 0 0 0.03125,0 0.26007782,0.26007782 0 0 0 -0.03125,0.03125 0.26007782,0.26007782 0 0 0 0.03125,0 c -5.15e-4,0.0034 -1.67e-4,0.03125 0,0.03125 0.0078,5e-6 0.03125,0 0.03125,0 l 0,-0.03125 c 0.01322,0.0032 0.03107,-2.5e-5 0.03125,0 -0.0031,0.01325 -3.45e-4,0.0625 0,0.0625 0.0039,5e-6 0.0281,-1e-6 0.03125,0 l 0,-0.0625 c 0.01091,0.0043 0.01615,-0.006 0.03125,0 0.03397,0.01345 0.06244,0.03124 0.0625,0.03125 0.0018,1.62e-4 0.05538,7.5e-5 0.0625,0 l 5.96875,0 0.03125,0 c 2.58e-4,-1e-6 0.02908,-5e-6 0.03125,0 l 0,-0.21875 0.03125,0 0.03125,0.1875 0,0.03125 c 0.0051,-1.17e-4 0.03089,6.2e-5 0.03125,0 1.8e-5,-3e-6 0.01594,-0.02591 0.03125,-0.03125 -1.8e-5,3e-6 0.01612,0.0055 0.03125,0 0.0021,0.01354 -1.64e-4,0.0625 0,0.0625 0.0031,-1e-6 0.02732,5e-6 0.03125,0 l 0,-0.0625 c 0.01111,6.77e-4 0.0094,0.0033 0.03125,0 0.0056,-0.0041 -0.0056,-0.02713 0,-0.03125 0.0058,-0.0043 0.02392,0.0054 0.03125,0 0.0059,-0.0044 -0.0066,-0.02631 0,-0.03125 -1.1e-5,1.1e-5 0.02917,0.003 0.03125,0 0.0031,-0.0045 -0.0057,-0.02307 0,-0.03125 0.0098,-0.01383 0.03123,-0.0312 0.03125,-0.03125 0.01852,-0.01384 0.01362,-0.01803 0.03125,-0.03125 0.01083,0.0018 0.02385,9.54e-4 0.03125,0 0.0073,-0.0055 -0.0066,-0.02623 0,-0.03125 l 0.03125,0 0,0.03125 c 0.0049,-0.0017 0.02803,3.8e-4 0.03125,0 l 0,0.03125 c -0.0067,0.0072 -0.02309,-0.0089 -0.03125,0 a 0.26007782,0.26007782 0 0 1 0,0.03125 c -0.0033,0.0051 -0.02876,-0.0038 -0.03125,0 -0.005,0.0055 0.0033,0.02764 0,0.03125 1.76e-4,-1.91e-4 -0.02019,-0.0089 -0.03125,0 -0.0046,0.0041 -0.02669,-0.0041 -0.03125,0 -0.0091,0.0081 -2.29e-4,0.03141 0,0.03125 0.0083,-0.0016 0.02059,0.0034 0.03125,0 0.0081,-0.0015 0.0208,0.0033 0.03125,0 a 0.26007782,0.26007782 0 0 0 0.03125,0 0.26007782,0.26007782 0 0 0 0,-0.03125 0.26007782,0.26007782 0 0 0 0.03125,0 0.26007782,0.26007782 0 0 0 0.03125,0 0.26007782,0.26007782 0 0 0 0,-0.03125 c 0.0067,-0.0045 0.02183,0.0063 0.03125,0 5.7e-5,-2.6e-5 0.01331,-0.01889 0.03125,-0.03125 0.009,-0.0062 -0.0067,-0.02661 0,-0.03125 l 0.03125,0 c 3.3e-5,-3.2e-5 0.01795,-0.01278 0.03125,-0.03125 0.0067,-0.0092 -0.005,-0.02431 0,-0.03125 0.005,-0.0069 0.03124,2.8e-5 0.03125,0 a 0.26007782,0.26007782 0 0 0 0,-0.03125 c 0.0029,-0.0042 0.02734,0.0056 0.03125,0 0.0059,-0.0084 -0.0059,-0.02285 0,-0.03125 0.0039,-0.0056 0.02831,0.0042 0.03125,0 5.6e-5,-2.7e-5 0.01278,-0.01797 0.03125,-0.03125 0.0092,-0.0066 0.02432,0.005 0.03125,0 A 0.26007782,0.26007782 0 0 0 35.90625,23.5625 0.26007782,0.26007782 0 0 0 35.96875,23.5 0.26007782,0.26007782 0 0 0 36,23.40625 c 0.004,-0.0059 -1.2e-5,-0.03122 0,-0.03125 0.0044,-0.0066 1e-5,-0.03127 0,-0.03125 0.0051,-0.0076 -0.0051,-0.02362 0,-0.03125 0.0085,-0.01272 0.03123,-0.0312 0.03125,-0.03125 0.0042,-0.0061 1.1e-5,-0.03128 0,-0.03125 0.0085,-0.01272 0.03123,-0.0312 0.03125,-0.03125 0.0042,-0.0061 1.1e-5,-0.03128 0,-0.03125 0.0034,5.15e-4 0.03125,1.67e-4 0.03125,0 5e-6,-0.0078 0,-0.03125 0,-0.03125 l -0.03125,0 0,-0.03125 c 0.01325,0.0031 0.0625,3.45e-4 0.0625,0 5e-6,-0.0039 -10e-7,-0.0281 0,-0.03125 l -0.0625,0 c 0.0051,-0.01237 -0.0062,-0.0164 0,-0.03125 0.01345,-0.03397 0.03124,-0.06244 0.03125,-0.0625 8.1e-5,-8.95e-4 -2.55e-4,-0.02193 0,-0.03125 a 0.26007782,0.26007782 0 0 0 0,-0.03125 l 0,-17.96875 0,-0.03125 c -5e-6,-0.00217 -10e-7,-0.030989 0,-0.03125 2.2e-5,0.00303 -3e-6,-0.027473 0,-0.03125 -5.4e-5,-0.00284 -5.7e-5,-0.031608 0,-0.03125 -1.17e-4,-0.0051 6.2e-5,-0.030893 0,-0.03125 -10e-7,-4.5e-6 -0.03075,0.00144 -0.03125,0 -4.75e-4,-0.00614 -4.1e-5,-0.031427 0,-0.03125 3e-6,1.78e-5 0.0055,-0.016116 0,-0.03125 0.01354,-0.00205 0.0625,1.643e-4 0.0625,0 -10e-7,-0.00315 5e-6,-0.027318 0,-0.03125 l -0.0625,0 c -9e-6,-1.62e-5 0.0082,-0.020125 0,-0.03125 -0.0037,-0.015104 3.2e-5,-0.031165 0,-0.03125 1.1e-5,2.51e-5 0.0042,-0.0251 0,-0.03125 -2e-5,-4.45e-5 -0.02278,-0.018513 -0.03125,-0.03125 -0.0051,-0.00764 0.0051,-0.023611 0,-0.03125 -4.2e-5,-1.591e-4 5.3e-5,-0.031135 0,-0.03125 C 36.03123,4.5312059 36.008722,4.5128852 36,4.5 c -0.0052,-0.00773 0.0052,-0.023521 0,-0.03125 A 0.26007782,0.26007782 0 0 0 36,4.4375 c -0.0027,-0.00391 -0.02769,0.00521 -0.03125,0 -0.0053,-0.00781 0.0053,-0.023445 0,-0.03125 -0.0045,-0.00457 -0.0252,0.00614 -0.03125,0 -0.0054,-0.00785 0.0054,-0.023405 0,-0.03125 l -0.03125,0 c -0.0041,-0.00589 1.5e-5,-0.031235 0,-0.03125 a 0.26007782,0.26007782 0 0 0 -0.03125,0 c 2.7e-5,2.78e-5 -0.01767,0.00996 -0.03125,0 -0.0068,-0.00498 0.0068,-0.026269 0,-0.03125 -0.0098,-0.013999 -0.02389,-0.020736 -0.03125,-0.03125 -0.0042,-0.011179 2.7e-5,-0.031194 0,-0.03125 -1.3e-5,-2.81e-5 -0.02637,0.00684 -0.03125,0 -0.0042,-0.011248 2.7e-5,-0.031194 0,-0.03125 a 0.26007782,0.26007782 0 0 0 -0.03125,0 c -0.0049,-0.00683 1.7e-5,-0.031234 0,-0.03125 -0.0066,-0.00924 0.005,-0.024316 0,-0.03125 -0.0067,-0.00468 -0.02235,0.00623 -0.03125,0 a 0.26007782,0.26007782 0 0 0 0,-0.03125 c -0.0067,-0.00464 -0.02227,0.00619 -0.03125,0 l -0.03125,0 0.03125,-0.03125 c -0.0067,-0.00464 -0.03122,1.32e-5 -0.03125,0 l 0.03125,0.03125 0,-0.03125 z m 0.40625,0.1875 c -5.7e-5,-2.64e-5 -0.02062,0.00386 -0.03125,0 A 0.26007782,0.26007782 0 0 0 35.59375,4.0625 c -0.0077,-0.00523 -0.02352,0.00523 -0.03125,0 -0.0052,-0.00349 0.0039,-0.028632 0,-0.03125 -0.0057,-0.00219 -0.02617,0.00155 -0.03125,0 0.0043,0.00289 -0.0057,0.027395 0,0.03125 a 0.26007782,0.26007782 0 0 0 -0.03125,0 0.26007782,0.26007782 0 0 0 0.03125,-0.03125 0.26007782,0.26007782 0 0 0 -0.03125,0 0.26007782,0.26007782 0 0 0 -0.03125,0 A 0.26007782,0.26007782 0 0 0 35.4375,4 c -0.01057,-0.00482 -0.02402,0.00225 -0.03125,0 0.0055,0.00371 -0.0041,0.02847 0,0.03125 -0.01101,-0.00151 -0.02763,1.559e-4 -0.03125,0 0,0 0.0074,0.049633 0,0.09375 L 35.34375,4.09375 35.3125,4.125 35.25,4.03125 l 0,0.125 -0.03125,0 c 0.01669,-0.064233 0.01845,-0.074694 0.03125,-0.125 L 35.25,4 c 0.01072,0.00444 0.03127,1.67e-5 0.03125,0 -7e-5,-5.44e-5 0.04477,0.042271 0.0625,0.0625 -1.7e-5,-2.82e-5 0.0055,-0.025085 0,-0.03125 C 35.334563,4.020975 35.324742,4.0136781 35.3125,4 c 0.01094,-6.52e-4 0.01004,-0.0031 0.03125,0 a 0.26007782,0.26007782 0 0 0 0.03125,-0.03125 0.26007782,0.26007782 0 0 0 -0.03125,0 c -1.06e-4,-3.75e-5 -0.01803,0.00319 -0.03125,0 1.06e-4,3.56e-5 -0.01882,0.00283 -0.03125,0 0.0032,-0.013177 3.44e-4,-0.0625 0,-0.0625 -0.0039,-5.1e-6 -0.02809,8e-7 -0.03125,0 z M 35.375,3.96875 C 35.375,3.9791667 35.395833,4 35.40625,4 c -0.0051,-0.00338 0.0038,-0.028712 0,-0.03125 -0.0108,-0.00504 -0.02385,0.00235 -0.03125,0 z m -6.75,0.125 c -4.7e-5,1.349e-4 0.0031,0.018186 0,0.03125 4.7e-5,-1.358e-4 0.003,0.018686 0,0.03125 0.0065,0.00711 0.02415,-0.00778 0.03125,0 0.0104,0.00243 0.01801,-0.00531 0.03125,0 0.002,0.00496 0.0293,-0.00496 0.03125,0 -0.0021,-0.015854 0.002,-0.016477 0,-0.03125 -0.004,-0.029546 0.0019,-0.04881 0,-0.0625 z m 0.09375,0.0625 c 0.01165,0.0062 0.0316,0.031479 0.03125,0.03125 -0.002,-0.014773 0.0021,-0.015396 0,-0.03125 -2.68e-4,-0.00198 -0.03098,0.00198 -0.03125,0 z m 6.5,0.03125 0.03125,0.03125 a 0.26007782,0.26007782 0 0 0 0,0.03125 l 0,0.03125 -0.0625,0.03125 c 0.0082,-0.031255 0.01504,-0.062766 0.03125,-0.125 z M 28.4375,4.25 c -4.7e-5,2.33e-5 0.02286,0.00329 0.03125,0 l 0,0.03125 0.0625,0 L 28.5,4.3125 28.625,4.375 28.59375,4.3125 l 0.0625,0.03125 0.03125,-0.03125 -0.03125,0 0.03125,0.03125 -0.03125,0 -0.03125,0.03125 0,0.03125 -0.0625,0.03125 -0.03125,0.03125 z m 0.125,0.1875 -0.09375,-0.0625 0,-0.03125 L 28.5,4.3125 z m 0.09375,-0.125 -0.03125,-0.03125 0,-0.0625 z m -0.1875,-0.03125 -0.03125,0 c 0.0042,-0.00165 -0.0042,-0.029598 0,-0.03125 z m -0.09375,0.25 0.03125,0 L 28.375,4.5625 c -0.006,-0.00795 0.0034,-0.025482 0,-0.03125 z m -1.3125,7.84375 0,0.0625 c -0.0201,-0.007 -0.05387,0.003 -0.0625,0 -0.0014,-5.01e-4 4e-6,-0.03125 0,-0.03125 -3.57e-4,-6.2e-5 -0.02615,1.17e-4 -0.03125,0 -0.0055,2.4e-5 -0.02764,-6.1e-5 -0.03125,0 -0.0038,3e-6 -0.03427,-2.1e-5 -0.03125,0 -2.55e-4,10e-7 -0.02908,5e-6 -0.03125,0 0.003,-2.2e-5 -0.02747,3e-6 -0.03125,0 -0.0028,-1.18e-4 -0.08503,-0.0015 -0.03125,0 0.05378,-0.0015 -0.02844,-1.18e-4 -0.03125,0 a 0.26007782,0.26007782 0 0 0 -0.03125,0 C 15.397042,14.289054 7.90625,23.074613 7.90625,34.9375 c 0,13.284093 10.809657,24.09375 24.09375,24.09375 13.284093,0 24.09375,-10.809657 24.09375,-24.09375 0,-11.675133 -7.011491,-20.221499 -18.09375,-22.28125 -0.0045,-0.0035 -0.02401,0.0056 -0.03125,0 -5.2e-5,-2.7e-5 -0.02165,0.0032 -0.03125,0 -0.0046,-0.0036 0.0031,-0.02882 0,-0.03125 -0.0049,-0.0049 -0.02478,0.0065 -0.03125,0 -0.0045,-0.0035 1.5e-5,-0.03124 0,-0.03125 -0.0049,-0.0049 -0.03124,6e-6 -0.03125,0 -9e-6,-7e-6 -0.01981,0.0055 -0.03125,0 -0.01293,-0.0064 -0.01994,0.0056 -0.03125,0 -0.0049,-0.0049 -0.02478,0.0065 -0.03125,0 -0.0016,-7.91e-4 3e-6,-0.03125 0,-0.03125 -0.0049,-0.0049 -0.03124,6e-6 -0.03125,0 -9e-6,-7e-6 -0.01981,0.0055 -0.03125,0 -0.01144,-0.0055 -0.01818,0.0063 -0.03125,0 -0.01307,-0.0063 -0.02634,0.0024 -0.03125,0 -0.0016,-7.91e-4 3e-6,-0.03125 0,-0.03125 a 0.26007782,0.26007782 0 0 0 -0.0625,0 c -0.0038,3e-6 -0.03427,-2.1e-5 -0.03125,0 -0.0022,5e-6 -0.03098,10e-7 -0.03125,0 l 0,0.21875 -0.03125,0 -0.03125,-0.1875 0,-0.03125 c -0.0051,1.17e-4 -0.03089,-6.2e-5 -0.03125,0 -4e-6,10e-7 0.0014,0.03075 0,0.03125 -0.0086,0.003 -0.0424,-0.007 -0.0625,0 -0.0021,-0.01354 1.64e-4,-0.0625 0,-0.0625 -0.0031,10e-7 -0.02732,-5e-6 -0.03125,0 l 0,0.0625 c -1.6e-5,9e-6 -0.02013,-0.0082 -0.03125,0 -0.0056,0.0041 0.0056,0.02713 0,0.03125 -0.01112,0.0082 -0.03124,-1.4e-5 -0.03125,0 -1.7e-5,1.7e-5 0.0044,0.02503 0,0.03125 -0.0073,0.01037 -0.02148,0.01742 -0.03125,0.03125 -0.01763,0.01314 -0.01273,0.01741 -0.03125,0.03125 -0.02881,0.02153 -0.03705,0.0121 -0.0625,0.03125 L 37.125,12.75 l -0.03125,0 -0.03125,0 0.03125,-0.03125 c 0.0033,-0.0036 -0.005,-0.02582 0,-0.03125 0.0025,-0.0038 0.0279,0.0051 0.03125,0 a 0.26007782,0.26007782 0 0 1 0,-0.03125 c 0.0033,-0.0051 0.02876,0.0038 0.03125,0 0.0037,-0.0057 1.02e-4,-0.03136 0,-0.03125 1.6e-5,-1.5e-5 0.02551,0.0038 0.03125,0 -2.93e-4,1.7e-4 0.0205,0.005 0.03125,0 0.0041,-0.0028 -0.0055,-0.02753 0,-0.03125 -0.0076,0.0051 -0.02361,-0.0051 -0.03125,0 -1.59e-4,4.2e-5 -0.03113,-5.3e-5 -0.03125,0 a 0.26007782,0.26007782 0 0 0 -0.03125,0 0.26007782,0.26007782 0 0 0 0,0.03125 0.26007782,0.26007782 0 0 0 -0.03125,0 0.26007782,0.26007782 0 0 0 -0.03125,0 c -0.0039,0.0027 0.0052,0.02769 0,0.03125 -0.0078,0.0053 -0.02345,-0.0053 -0.03125,0 -2.8e-5,1.3e-5 0.0067,0.02661 0,0.03125 -0.01347,0.0093 -0.01779,0.02197 -0.03125,0.03125 -0.0067,0.0046 -0.03123,-1.6e-5 -0.03125,0 -0.0089,0.0062 0.0067,0.02657 0,0.03125 a 0.26007782,0.26007782 0 0 0 -0.03125,0 0.26007782,0.26007782 0 0 0 0,0.03125 0.26007782,0.26007782 0 0 0 -0.03125,0 0.26007782,0.26007782 0 0 0 0,0.03125 0.26007782,0.26007782 0 0 0 -0.03125,0 c -6.5e-5,6.5e-5 0.0044,0.02495 0,0.03125 a 0.26007782,0.26007782 0 0 0 -0.03125,0 0.26007782,0.26007782 0 0 0 0,0.03125 c -0.0039,0.0056 -0.02835,-0.0042 -0.03125,0 a 0.26007782,0.26007782 0 0 0 -0.03125,0 0.26007782,0.26007782 0 0 0 0,0.03125 A 0.26007782,0.26007782 0 0 0 36.65625,13 0.26007782,0.26007782 0 0 0 36.625,13.125 l 0,0.03125 c -5e-6,4.5e-5 1.21e-4,0.0598 0,0.0625 -1.6e-5,0.004 -1e-5,0.02702 0,0.03125 -2.67e-4,0.01552 -4e-5,0.02519 0,0.03125 -2.82e-4,0.01587 -3.8e-5,0.0251 0,0.03125 -0.0097,0.0097 0.0097,0.05279 0,0.0625 -1.7e-5,2.3e-5 0.04799,-0.01698 0.0625,-0.03125 0,0 -0.03125,-0.03125 -0.03125,-0.03125 l 0.03125,0 a 0.26007782,0.26007782 0 0 0 0,0.03125 0.26007782,0.26007782 0 0 0 0.03125,0.03125 l -0.09375,0 -0.03125,0 c 0,4.02e-4 -3.77e-4,0.0041 0,0.03125 a 0.26007782,0.26007782 0 0 0 0,0.03125 c -0.0063,0.01307 0.0024,0.02634 0,0.03125 -7.91e-4,0.0016 -0.03125,-3e-6 -0.03125,0 a 0.26007782,0.26007782 0 0 0 0,0.0625 l 0,5.65625 0,0.03125 c 10e-7,2.55e-4 5e-6,0.02908 0,0.03125 l 0.21875,0 0,0.03125 -0.1875,0.03125 -0.03125,0 c 1.17e-4,0.0051 -6.2e-5,0.03089 0,0.03125 3e-6,1.8e-5 0.02591,0.01594 0.03125,0.03125 -3e-6,-1.8e-5 -0.0055,0.01612 0,0.03125 -0.01354,0.0021 -0.0625,-1.64e-4 -0.0625,0 10e-7,0.0032 -5e-6,0.02732 0,0.03125 l 0.0625,0 c 9e-6,1.6e-5 -0.0082,0.02013 0,0.03125 a 0.26007782,0.26007782 0 0 0 0,0.03125 0.26007782,0.26007782 0 0 0 0,0.03125 0.26007782,0.26007782 0 0 0 0.03125,0.03125 0.26007782,0.26007782 0 0 0 0,0.03125 0.26007782,0.26007782 0 0 0 0,0.03125 0.26007782,0.26007782 0 0 0 0.03125,0.03125 0.26007782,0.26007782 0 0 0 0,0.03125 0.26007782,0.26007782 0 0 0 0.03125,0.03125 c 0.0039,0.01063 -2.6e-5,0.03119 0,0.03125 0.0045,0.0046 0.0252,-0.0062 0.03125,0 0.0077,0.01147 0.021,0.01594 0.03125,0.03125 0.0047,0.0067 -0.0062,0.02234 0,0.03125 a 0.26007782,0.26007782 0 0 0 0.03125,0 c 0.0047,0.0067 -1.6e-5,0.03123 0,0.03125 0.0092,0.0067 0.02431,-0.005 0.03125,0 0.0069,0.005 -2.8e-5,0.03124 0,0.03125 0.01822,0.013 0.03119,0.03122 0.03125,0.03125 5.6e-5,2.7e-5 0.02007,-0.0042 0.03125,0 a 0.26007782,0.26007782 0 0 0 0,0.03125 0.26007782,0.26007782 0 0 0 0.03125,0 0.26007782,0.26007782 0 0 0 0,0.03125 c 1.7e-5,1.6e-5 0.02457,-0.0047 0.03125,0 a 0.26007782,0.26007782 0 0 0 0,0.03125 c 0.01781,0.01246 0.03119,0.03122 0.03125,0.03125 0.009,0.0062 0.02451,-0.0046 0.03125,0 a 0.26007782,0.26007782 0 0 0 0,0.03125 c 5.7e-5,2.6e-5 0.02062,-0.0039 0.03125,0 -0.0045,-0.003 0.006,-0.02723 0,-0.03125 a 0.26007782,0.26007782 0 0 0 0.03125,0 0.26007782,0.26007782 0 0 0 -0.03125,0.03125 0.26007782,0.26007782 0 0 0 0.03125,0.03125 c 0,0 0.03125,-0.03125 0.03125,-0.03125 a 0.26007782,0.26007782 0 0 0 0,0.03125 0.26007782,0.26007782 0 0 0 0,0.03125 0.26007782,0.26007782 0 0 0 0.03125,0 0.26007782,0.26007782 0 0 0 0.03125,0 c 0.008,0.0015 0.02514,-5.65e-4 0.03125,0 a 0.26007782,0.26007782 0 0 0 0,0.03125 0.26007782,0.26007782 0 0 0 0.03125,0 c -0.004,-0.0022 0.0034,-0.02927 0,-0.03125 a 0.26007782,0.26007782 0 0 0 0.03125,0 0.26007782,0.26007782 0 0 0 -0.03125,0.03125 0.26007782,0.26007782 0 0 0 0.03125,0 c 0.0063,0.0014 0.02591,-7.84e-4 0.03125,0 0.01112,0.0082 0.03123,-9e-6 0.03125,0 -0.0031,0.01325 -3.45e-4,0.0625 0,0.0625 0.0039,5e-6 0.0281,-1e-6 0.03125,0 l 0,-0.0625 c 0.0092,-4.49e-4 0.0259,7.98e-4 0.03125,0 0.01531,0.0053 0.03123,0.03125 0.03125,0.03125 0.01587,0.0038 0.01966,-0.0015 0.03125,0 0.03477,0.0046 0.0675,0.003 0.09375,0 3.602394,0.877854 6.281539,2.60303 8.125,5.03125 1.872117,2.465965 2.875,5.727888 2.875,9.71875 0,9.162309 -7.368941,16.53125 -16.53125,16.53125 -9.162268,0 -16.5625,-7.371117 -16.5625,-16.53125 0,-7.946694 4.114587,-13.224093 11.46875,-14.9375 a 0.26007782,0.26007782 0 0 0 0.03125,0 c 0.01524,7.54e-4 0.0092,0.0051 0.03125,0 0.0078,9.2e-5 0.02558,1.13e-4 0.03125,0 0.0012,-7.5e-5 0.02862,2.02e-4 0.03125,0 0.0035,5.1e-5 0.02611,-1.4e-5 0.03125,0 0.0051,1.4e-5 0.0303,1.08e-4 0.03125,0 6.3e-5,-8e-6 0.03072,-0.0184 0.0625,-0.03125 0.01387,-0.0059 0.01969,0.0049 0.03125,0 0.0094,-0.0012 0.03102,7.2e-5 0.03125,0 a 0.26007782,0.26007782 0 0 0 0.03125,0 c 5.6e-5,-2.1e-5 -0.01136,-0.02565 0,-0.03125 0.01136,-0.0056 0.03117,4.7e-5 0.03125,0 -5.6e-5,2.2e-5 0.02053,0.0055 0.03125,0 1.46e-4,-3.1e-5 0.0169,0.0054 0.03125,0 a 0.26007782,0.26007782 0 0 0 0,-0.03125 c 0.01434,-0.0054 0.03117,4.7e-5 0.03125,0 4e-5,-2.3e-5 0.01748,-0.01952 0.03125,-0.03125 0.01029,-0.0044 0.03119,3.9e-5 0.03125,0 0.0055,-0.0047 -0.0041,-0.02772 0,-0.03125 0.01333,-0.01176 0.03128,-0.03129 0.03125,-0.03125 0.0033,-0.0054 0.02795,0.0054 0.03125,0 a 0.26007782,0.26007782 0 0 0 0.03125,0 c 0.0042,-0.0029 -0.0056,-0.02735 0,-0.03125 0.0084,-0.0059 0.02286,0.0059 0.03125,0 0.0056,-0.0039 -0.0042,-0.02831 0,-0.03125 l 0.03125,0 c 0.0059,-0.0084 -0.0059,-0.02285 0,-0.03125 0.0039,-0.0056 0.02831,0.0042 0.03125,0 2.8e-5,-1.3e-5 0.02441,0.0049 0.03125,0 a 0.26007782,0.26007782 0 0 0 0.03125,-0.03125 0.26007782,0.26007782 0 0 0 0.03125,-0.03125 0.26007782,0.26007782 0 0 0 0.0625,-0.0625 0.26007782,0.26007782 0 0 0 0.03125,-0.0625 0.26007782,0.26007782 0 0 0 0,-0.03125 c 0.004,-0.0059 -1.2e-5,-0.03122 0,-0.03125 0.0044,-0.0066 10e-6,-0.03127 0,-0.03125 a 0.26007782,0.26007782 0 0 0 0.03125,0 c 0.0039,-0.0058 -1.2e-5,-0.03122 0,-0.03125 0.0043,-0.0064 1.1e-5,-0.03127 0,-0.03125 8.4e-5,-3.18e-4 -9.07e-4,-0.02198 0,-0.03125 0.0085,-0.01272 0.03123,-0.0312 0.03125,-0.03125 0.0042,-0.0061 1.1e-5,-0.03128 0,-0.03125 0.0034,5.15e-4 0.03125,1.67e-4 0.03125,0 5e-6,-0.0078 0,-0.03125 0,-0.03125 l -0.03125,0 c 0.0055,-0.0074 -0.0082,-0.02013 0,-0.03125 0.0082,-0.01112 -9e-6,-0.03123 0,-0.03125 0.0034,-0.01439 2e-5,-0.03142 0,-0.03125 0.0055,-0.01513 3e-6,-0.03127 0,-0.03125 0.0053,-0.01531 0.03125,-0.03123 0.03125,-0.03125 6.2e-5,-3.57e-4 -1.17e-4,-0.02615 0,-0.03125 -5.7e-5,3.58e-4 -5.4e-5,-0.02841 0,-0.03125 l 0,-5.59375 0,-0.03125 c -1e-6,-2.55e-4 -5e-6,-0.02908 0,-0.03125 l -0.21875,0 0,-0.03125 0.1875,-0.03125 0.03125,0 c -1.17e-4,-0.0051 6.2e-5,-0.03089 0,-0.03125 -1e-6,-4e-6 -0.03075,0.0014 -0.03125,0 -1.05e-4,-0.003 7.52e-4,-0.0235 0,-0.03125 3e-6,1.8e-5 0.0055,-0.01612 0,-0.03125 0.01354,-0.0021 0.0625,1.64e-4 0.0625,0 -1e-6,-0.0031 5e-6,-0.02732 0,-0.03125 l -0.0625,0 c -0.0034,-0.01439 -3.1e-5,-0.03134 0,-0.03125 -0.0037,-0.0151 3.2e-5,-0.03116 0,-0.03125 a 0.26007782,0.26007782 0 0 0 0,-0.03125 0.26007782,0.26007782 0 0 0 -0.03125,-0.03125 0.26007782,0.26007782 0 0 0 0,-0.03125 0.26007782,0.26007782 0 0 0 0,-0.03125 0.26007782,0.26007782 0 0 0 -0.03125,-0.03125 0.26007782,0.26007782 0 0 0 0,-0.03125 0.26007782,0.26007782 0 0 0 0,-0.03125 0.26007782,0.26007782 0 0 0 -0.03125,0 c -0.0039,-0.01063 2.6e-5,-0.03119 0,-0.03125 a 0.26007782,0.26007782 0 0 0 -0.03125,0 0.26007782,0.26007782 0 0 0 0,-0.03125 c -0.0062,-0.009 -0.02661,0.0067 -0.03125,0 -0.0046,-0.0067 1.6e-5,-0.03123 0,-0.03125 -0.0029,-0.0042 -0.0274,0.0056 -0.03125,0 -0.0058,-0.0084 0.0058,-0.02286 0,-0.03125 a 0.26007782,0.26007782 0 0 0 -0.03125,0 c -0.0058,-0.0084 0.0058,-0.02286 0,-0.03125 a 0.26007782,0.26007782 0 0 0 -0.03125,0 c -0.0042,-0.01118 2.7e-5,-0.03119 0,-0.03125 a 0.26007782,0.26007782 0 0 0 -0.03125,0 c -0.0042,-0.01124 2.7e-5,-0.03119 0,-0.03125 a 0.26007782,0.26007782 0 0 0 -0.03125,0 c -0.0049,-0.0068 1.7e-5,-0.03123 0,-0.03125 a 0.26007782,0.26007782 0 0 0 -0.03125,0 c -0.005,-0.0069 1.6e-5,-0.03123 0,-0.03125 l -0.03125,0 c -0.0067,-0.0047 2.9e-5,-0.03124 0,-0.03125 -0.01795,-0.01238 -0.03119,-0.03122 -0.03125,-0.03125 -5.7e-5,-2.6e-5 -0.02062,0.0039 -0.03125,0 a 0.26007782,0.26007782 0 0 0 -0.0625,-0.03125 0.26007782,0.26007782 0 0 0 0,-0.03125 c -0.0058,-0.0022 -0.02611,0.0016 -0.03125,0 -0.0061,-0.0025 -0.02582,0.0018 -0.03125,0 a 0.26007782,0.26007782 0 0 0 -0.03125,0 A 0.26007782,0.26007782 0 0 0 27.25,12.46875 c 0,0 -0.03125,0.03125 -0.03125,0.03125 -0.01823,0.0023 -0.03125,0 -0.03125,0 -0.0039,-0.0055 -0.02832,0.0041 -0.03125,0 -2.8e-5,-2.8e-5 0.02177,0.01762 0.03125,0.03125 -0.0011,0.0068 0.002,0.01953 0,0.03125 l -0.03125,0 -0.03125,0.03125 -0.03125,0 0,-0.03125 L 27.125,12.5 c 0.01088,0.0082 0.03127,1.5e-5 0.03125,0 l 0,-0.03125 c 0.01081,0.0016 0.04772,-0.0047 0.0625,0 a 0.26007782,0.26007782 0 0 0 -0.0625,-0.03125 c -8.5e-5,-3.2e-5 -0.01615,0.0037 -0.03125,0 -0.01112,-0.0082 -0.03123,9e-6 -0.03125,0 0.0031,-0.01325 3.45e-4,-0.0625 0,-0.0625 -0.0039,-5e-6 -0.0281,10e-7 -0.03125,0 z m 10.0625,0.3125 -0.03125,0.03125 0.0625,0 L 37.125,12.6875 z M 27.0625,12.5 l 0,0.125 -0.03125,0 c 0.01608,-0.06457 0.01892,-0.07443 0.03125,-0.125 z M 27.03125,12.65625 27.0625,12.6875 27.03125,12.75 27,12.78125 c 0.0079,-0.03142 0.01563,-0.06244 0.03125,-0.125 z m 10.65625,0.0625 0,0.09375 0.09375,0.25 c -0.01188,0.0039 -0.01929,-0.0036 -0.03125,0 -0.01219,0.0028 -0.019,-0.0025 -0.03125,0 -0.01243,0.0014 -0.01879,-0.0011 -0.03125,0 -0.01251,0 -0.01874,2.85e-4 -0.03125,0 -0.01246,-0.0011 -0.01882,0.0014 -0.03125,0 -0.01225,-0.0025 -0.01906,0.0028 -0.03125,0 -0.01196,-0.0036 -0.01937,0.0039 -0.03125,0 l 0,-0.03125 c -0.01243,0.0014 -0.01879,-0.0011 -0.03125,0 -0.01251,2.85e-4 -0.01874,0 -0.03125,0 A 0.26007782,0.26007782 0 0 0 37.46875,13 c -0.0034,0.002 0.004,0.02901 0,0.03125 A 0.26007782,0.26007782 0 0 0 37.4375,13 a 0.26007782,0.26007782 0 0 0 0.03125,0 c 0.0069,-0.004 0.03148,-1.57e-4 0.03125,0 -3.43e-4,2.36e-4 0.01755,-0.01906 0.03125,-0.03125 a 0.26007782,0.26007782 0 0 0 0.0625,-0.03125 L 37.625,12.875 a 0.26007782,0.26007782 0 0 0 0,-0.03125 l 0.03125,-0.03125 0.03125,-0.09375 z m -0.46875,0.3125 c 0,0.01042 0,0.05208 0,0.0625 0,0.01042 0,0.05208 0,0.0625 0,0.01042 0,0.05208 0,0.0625 -0.0036,0.01197 0.0039,0.01937 0,0.03125 l -0.0625,-0.03125 0.0625,0 c -0.0045,-0.0075 -0.04736,-0.03716 -0.0625,-0.0625 -0.0048,-0.0081 0.0056,-0.02193 0,-0.03125 a 0.26007782,0.26007782 0 0 0 0,-0.0625 l 0.0625,-0.03125 z m -0.21875,0.25 0.03125,0.09375 0.03125,0 0,-0.03125 a 0.26007782,0.26007782 0 0 0 0.03125,0 c 2.85e-4,0.01251 0,0.01874 0,0.03125 0.0028,0.01219 -0.0025,0.019 0,0.03125 -0.0025,0.01225 0.0028,0.01906 0,0.03125 -0.0036,0.01197 0.0039,0.01937 0,0.03125 -0.0011,0.01246 0.0014,0.01882 0,0.03125 -0.0025,0.01225 0.0028,0.01906 0,0.03125 -0.0036,0.01197 0.0039,0.01937 0,0.03125 l -0.25,-0.09375 -0.09375,-0.03125 0.09375,0 0.03125,-0.03125 -0.03125,0 0,-0.03125 0.03125,-0.03125 0,-0.03125 L 37,13.28125 z m -9.59375,0.0625 A 0.26007782,0.26007782 0 0 0 27.5,13.4375 l -0.09375,0.03125 c -0.0039,-0.01188 0.0036,-0.01928 0,-0.03125 -0.0028,-0.01219 0.0025,-0.019 0,-0.03125 -0.0014,-0.01243 0.0011,-0.01879 0,-0.03125 0,-0.01251 -2.85e-4,-0.01874 0,-0.03125 z m 9.65625,5.8125 c 0,0.01042 0,0.05208 0,0.0625 0,0.01042 0,0.05208 0,0.0625 A 0.26007782,0.26007782 0 0 0 36.96875,19.1875 l 0.09375,-0.03125 z m 0.28125,0.8125 a 0.26007782,0.26007782 0 0 0 0.03125,0 c -0.01608,0.06457 -0.01892,0.07443 -0.03125,0.125 l 0,-0.09375 0,-0.03125 z m -0.1875,0.09375 a 0.26007782,0.26007782 0 0 0 0.03125,0 l 0.03125,0 c 0.0059,0.0083 -0.0059,0.02296 0,0.03125 0,0 -0.01386,-0.0021 -0.03125,0 -0.0104,-0.0047 -0.03155,-1.67e-4 -0.03125,0 a 0.26007782,0.26007782 0 0 1 -0.03125,0 c 0,0 0.03125,-0.03125 0.03125,-0.03125 z m -8.5625,2.8125 c 0,0.01042 0,0.05208 0,0.0625 0,0.01042 0,0.05208 0,0.0625 A 0.26007782,0.26007782 0 0 0 28.5,22.90625 L 28.59375,22.875 z m 7.28125,0.1875 c 0.06457,0.01608 0.07443,0.01892 0.125,0.03125 l -0.125,0 0,-0.03125 z m -7.5625,0.375 a 0.26007782,0.26007782 0 0 0 -0.03125,0.03125 c -0.0041,-0.0061 -0.02818,0.0046 -0.03125,0 z m 6.71875,0 c 0.01042,0 0.05208,0 0.0625,0 0.01042,0 0.05208,0 0.0625,0 A 0.26007782,0.26007782 0 0 0 35.0625,23.53125 L 35.03125,23.4375 z"
       transform="translate(-0.11363636,0)"
       id="path2987"
       style="opacity:0.05;fill:#000000;fill-opacity:1;stroke:none;display:inline" />
    <path
       d="m 28.8125,4.28125 a 0.22236085,0.22236085 0 0 0 0,0.03125 0.22236085,0.22236085 0 0 0 -0.03125,0 c 0,0 0.0029,0.025763 0,0.03125 -0.0014,0.00274 -0.02925,-0.0038 -0.03125,0 a 0.22236085,0.22236085 0 0 0 0,0.03125 0.22236085,0.22236085 0 0 0 -0.03125,0 0.22236085,0.22236085 0 0 0 0,0.03125 0.22236085,0.22236085 0 0 0 -0.03125,0 c -0.0037,0.00935 0.0049,0.018824 0,0.03125 a 0.22236085,0.22236085 0 0 0 -0.03125,0 0.22236085,0.22236085 0 0 0 0,0.03125 0.22236085,0.22236085 0 0 0 -0.03125,0 0.22236085,0.22236085 0 0 0 0,0.03125 0.22236085,0.22236085 0 0 0 -0.03125,0 0.22236085,0.22236085 0 0 0 0,0.03125 0.22236085,0.22236085 0 0 0 -0.03125,0 0.22236085,0.22236085 0 0 0 0,0.03125 0.22236085,0.22236085 0 0 0 -0.03125,0 0.22236085,0.22236085 0 0 0 0,0.03125 0.22236085,0.22236085 0 0 0 -0.03125,0 0.22236085,0.22236085 0 0 0 0,0.03125 0.22236085,0.22236085 0 0 0 0,0.03125 c 3.66e-4,-4.605e-4 -0.02968,-0.00203 -0.03125,0 a 0.22236085,0.22236085 0 0 0 0,0.03125 0.22236085,0.22236085 0 0 0 0,0.0625 0.22236085,0.22236085 0 0 0 -0.03125,0 0.22236085,0.22236085 0 0 0 0,0.0625 l 0,0.03125 0,0.03125 c 1e-6,3.448e-4 -5.4e-5,0.021324 0,0.03125 l 0,0.03125 0,18 0,0.03125 0,0.03125 c -5.5e-5,0.01003 1e-6,0.03091 0,0.03125 -7.5e-5,0.01124 -1e-6,0.03167 0,0.03125 l 0,0.03125 a 0.22236085,0.22236085 0 0 0 0,0.03125 0.22236085,0.22236085 0 0 0 0.03125,0.0625 0.22236085,0.22236085 0 0 0 0,0.03125 0.22236085,0.22236085 0 0 0 0,0.03125 0.22236085,0.22236085 0 0 0 0.03125,0 0.22236085,0.22236085 0 0 0 0,0.03125 0.22236085,0.22236085 0 0 0 0.03125,0 c 0.0046,0.0068 -0.0061,0.02218 0,0.03125 0.01225,0.01814 0.03113,0.03113 0.03125,0.03125 a 0.22236085,0.22236085 0 0 0 0.03125,0 0.22236085,0.22236085 0 0 0 0,0.03125 c 4.1e-5,9.8e-5 0.02668,-0.0068 0.03125,0 a 0.22236085,0.22236085 0 0 0 0.03125,0.03125 c 0.0046,0.0068 -6.1e-5,0.03119 0,0.03125 6.1e-5,6.1e-5 0.02448,-0.0045 0.03125,0 0.0068,0.0045 -0.009,0.02521 0,0.03125 0.01803,0.01208 0.03105,0.03117 0.03125,0.03125 1.97e-4,8.2e-5 0.02099,-0.0032 0.03125,0 a 0.22236085,0.22236085 0 0 0 0,0.03125 0.22236085,0.22236085 0 0 0 0.03125,0 c -8.32e-4,-8.32e-4 0.03211,8.08e-4 0.03125,0 a 0.22236085,0.22236085 0 0 0 0,0.03125 c 0.002,0.0016 0.03172,3.53e-4 0.03125,0 a 0.22236085,0.22236085 0 0 0 0.03125,0 0.22236085,0.22236085 0 0 0 0.03125,0 0.22236085,0.22236085 0 0 0 0,0.03125 0.22236085,0.22236085 0 0 0 0.0625,0 l 0.03125,0 0.03125,0 c 2.44e-4,0 0.02132,5.4e-5 0.03125,0 l 0.03125,0 6,0 0.03125,0 0.03125,0 c 0.01003,5.5e-5 0.03091,-1e-6 0.03125,0 0.01124,7.5e-5 0.03166,1e-6 0.03125,0 l 0.03125,0 a 0.22236085,0.22236085 0 0 0 0.03125,0 0.22236085,0.22236085 0 0 0 0.0625,-0.03125 0.22236085,0.22236085 0 0 0 0.0625,0 0.22236085,0.22236085 0 0 0 0,-0.03125 0.22236085,0.22236085 0 0 0 0.03125,-0.03125 0.22236085,0.22236085 0 0 0 0.03125,0 0.22236085,0.22236085 0 0 0 0,-0.03125 0.22236085,0.22236085 0 0 0 0.03125,0 0.22236085,0.22236085 0 0 0 0,-0.03125 0.22236085,0.22236085 0 0 0 0.03125,0 0.22236085,0.22236085 0 0 0 0,-0.03125 0.22236085,0.22236085 0 0 0 0.03125,0 0.22236085,0.22236085 0 0 0 0,-0.03125 0.22236085,0.22236085 0 0 0 0.03125,0 0.22236085,0.22236085 0 0 0 0,-0.03125 0.22236085,0.22236085 0 0 0 0.03125,0 0.22236085,0.22236085 0 0 0 0,-0.03125 0.22236085,0.22236085 0 0 0 0.03125,0 0.22236085,0.22236085 0 0 0 0,-0.03125 0.22236085,0.22236085 0 0 0 0.03125,0 0.22236085,0.22236085 0 0 0 0,-0.03125 0.22236085,0.22236085 0 0 0 0,-0.03125 0.22236085,0.22236085 0 0 0 0.03125,0 0.22236085,0.22236085 0 0 0 0,-0.03125 0.22236085,0.22236085 0 0 0 0,-0.03125 0.22236085,0.22236085 0 0 0 0.03125,-0.0625 0.22236085,0.22236085 0 0 0 0,-0.03125 l 0,-0.03125 0,-0.03125 c 0,-2.44e-4 5.4e-5,-0.02132 0,-0.03125 1e-5,-3.35e-4 0,-0.03527 0,-0.03125 l 0,-18 0,-0.03125 c 1e-5,-3.354e-4 0,-0.035325 0,-0.03125 -2.4e-5,-8.964e-4 0,-0.03125 0,-0.03125 l 0,-0.03125 0,-0.03125 a 0.22236085,0.22236085 0 0 0 0,-0.03125 0.22236085,0.22236085 0 0 0 -0.03125,-0.0625 0.22236085,0.22236085 0 0 0 0,-0.03125 0.22236085,0.22236085 0 0 0 0,-0.03125 0.22236085,0.22236085 0 0 0 -0.03125,0 0.22236085,0.22236085 0 0 0 0,-0.03125 0.22236085,0.22236085 0 0 0 -0.03125,0 0.22236085,0.22236085 0 0 0 0,-0.03125 c -0.0061,-0.00907 -0.02663,0.00682 -0.03125,0 -0.0046,-0.00682 6.1e-5,-0.03119 0,-0.03125 a 0.22236085,0.22236085 0 0 0 -0.03125,0 0.22236085,0.22236085 0 0 0 0,-0.03125 c -0.0076,-0.00286 -0.02616,0.0014 -0.03125,0 a 0.22236085,0.22236085 0 0 0 0,-0.03125 0.22236085,0.22236085 0 0 0 -0.03125,0 A 0.22236085,0.22236085 0 0 0 35.5,4.4375 a 0.22236085,0.22236085 0 0 0 0,-0.03125 0.22236085,0.22236085 0 0 0 -0.03125,0 0.22236085,0.22236085 0 0 0 0,-0.03125 0.22236085,0.22236085 0 0 0 -0.03125,0 0.22236085,0.22236085 0 0 0 0,-0.03125 c -0.0068,-0.00451 -0.03115,4.07e-5 -0.03125,0 a 0.22236085,0.22236085 0 0 0 -0.03125,0 0.22236085,0.22236085 0 0 0 0,-0.03125 0.22236085,0.22236085 0 0 0 -0.0625,0 0.22236085,0.22236085 0 0 0 -0.0625,-0.03125 0.22236085,0.22236085 0 0 0 -0.03125,0 l -0.03125,0 -0.03125,0 c -2.05e-4,3e-7 -0.02131,-5.42e-5 -0.03125,0 l -0.03125,0 -6,0 -0.03125,0 -0.03125,0 -0.03125,0 c 0.0016,1.983e-4 -0.0329,-1.324e-4 -0.03125,0 0.0017,6.63e-5 -0.03291,0 -0.03125,0 0.0017,0 -0.0329,6.63e-5 -0.03125,0 0.0017,-1.324e-4 -0.03289,1.983e-4 -0.03125,0 a 0.22236085,0.22236085 0 0 0 -0.0625,0 z M 26.78125,12.75 C 15.563744,14.61034 8.25,23.209116 8.25,34.9375 c 0,13.108973 10.641027,23.75 23.75,23.75 13.108973,0 23.75,-10.641027 23.75,-23.75 C 55.75,23.368719 48.89051,15.014549 37.90625,13 c -0.01012,-0.0019 -0.02112,0.0018 -0.03125,0 -0.01231,-0.0022 -0.01893,-0.02902 -0.03125,-0.03125 8.08e-4,8.55e-4 -8.32e-4,-0.03208 0,-0.03125 a 0.22236085,0.22236085 0 0 0 -0.03125,0 c 9.21e-4,7.32e-4 -0.03219,-0.03196 -0.03125,-0.03125 a 0.22236085,0.22236085 0 0 0 -0.03125,0 0.22236085,0.22236085 0 0 0 -0.03125,-0.03125 0.22236085,0.22236085 0 0 0 -0.03125,0 c 0.0016,1.98e-4 -0.0329,-1.32e-4 -0.03125,0 0.0017,6.6e-5 -0.03291,0 -0.03125,0 0.0017,-1.32e-4 -0.0329,1.98e-4 -0.03125,0 l -0.03125,0 -0.03125,0 c 0.0016,1.98e-4 -0.0329,-1.32e-4 -0.03125,0 0.0017,0 -0.0329,6.6e-5 -0.03125,0 0.0017,-1.32e-4 -0.0329,1.98e-4 -0.03125,0 l -0.03125,0 a 0.22236085,0.22236085 0 0 0 -0.03125,0 0.22236085,0.22236085 0 0 0 -0.0625,0.03125 c -0.0099,0.0026 -0.03155,1.1e-4 -0.03125,0 a 0.22236085,0.22236085 0 0 0 0,0.03125 0.22236085,0.22236085 0 0 0 -0.03125,0 c -0.0083,0.0033 -0.03112,-7.7e-5 -0.03125,0 -1.08e-4,6.4e-5 0.0058,0.02616 0,0.03125 -0.0058,0.0051 -0.02352,-0.0068 -0.03125,0 a 0.22236085,0.22236085 0 0 0 0,0.03125 0.22236085,0.22236085 0 0 0 -0.03125,0 c -6.1e-5,6.1e-5 0.0045,0.02452 0,0.03125 a 0.22236085,0.22236085 0 0 0 -0.03125,0 c -0.006,0.009 0.0045,0.0245 0,0.03125 -0.0045,0.0067 -0.03121,-9.9e-5 -0.03125,0 a 0.22236085,0.22236085 0 0 0 0,0.03125 0.22236085,0.22236085 0 0 0 -0.03125,0 0.22236085,0.22236085 0 0 0 0,0.03125 0.22236085,0.22236085 0 0 0 -0.03125,0 0.22236085,0.22236085 0 0 0 0,0.03125 0.22236085,0.22236085 0 0 0 -0.03125,0 0.22236085,0.22236085 0 0 0 0,0.03125 0.22236085,0.22236085 0 0 0 0,0.03125 0.22236085,0.22236085 0 0 0 -0.03125,0 0.22236085,0.22236085 0 0 0 0,0.03125 0.22236085,0.22236085 0 0 0 0,0.03125 0.22236085,0.22236085 0 0 0 -0.03125,0 0.22236085,0.22236085 0 0 0 0,0.03125 0.22236085,0.22236085 0 0 0 -0.03125,0.0625 0.22236085,0.22236085 0 0 0 0,0.03125 l 0,0.03125 c -10e-7,-4.78e-4 -7.7e-5,0.01986 0,0.03125 0,2.44e-4 -5.4e-5,0.02132 0,0.03125 0,-0.0041 -1e-5,0.03092 0,0.03125 l 0,5.6875 0,0.03125 c 0,-0.0041 -1e-5,0.03092 0,0.03125 -5.5e-5,0.01003 10e-7,0.03091 0,0.03125 l 0,0.03125 0,0.03125 a 0.22236085,0.22236085 0 0 0 0,0.03125 0.22236085,0.22236085 0 0 0 0.03125,0.0625 c 7e-5,1.92e-4 -0.0031,0.02684 0,0.03125 a 0.22236085,0.22236085 0 0 0 0,0.03125 0.22236085,0.22236085 0 0 0 0.03125,0 c 0.0035,0.01177 -8.2e-5,0.03105 0,0.03125 a 0.22236085,0.22236085 0 0 0 0.03125,0 0.22236085,0.22236085 0 0 0 0,0.03125 c 0.01225,0.01814 0.03113,0.03113 0.03125,0.03125 a 0.22236085,0.22236085 0 0 0 0.03125,0 0.22236085,0.22236085 0 0 0 0,0.03125 c 0.0076,0.0029 0.02615,-0.0014 0.03125,0 a 0.22236085,0.22236085 0 0 0 0,0.03125 0.22236085,0.22236085 0 0 0 0.03125,0 0.22236085,0.22236085 0 0 0 0,0.03125 0.22236085,0.22236085 0 0 0 0.03125,0 0.22236085,0.22236085 0 0 0 0,0.03125 0.22236085,0.22236085 0 0 0 0.03125,0 c -8.08e-4,-8.55e-4 8.32e-4,0.03208 0,0.03125 -8.32e-4,-8.32e-4 0.03211,8.08e-4 0.03125,0 a 0.22236085,0.22236085 0 0 0 0,0.03125 c 0.002,0.0016 0.03172,3.53e-4 0.03125,0 a 0.22236085,0.22236085 0 0 0 0.03125,0 0.22236085,0.22236085 0 0 0 0.03125,0 0.22236085,0.22236085 0 0 0 0,0.03125 0.22236085,0.22236085 0 0 0 0.0625,0 l 0.03125,0 c -4.78e-4,1e-6 0.01986,7.7e-5 0.03125,0 2.44e-4,0 0.02132,5.4e-5 0.03125,0 0.01012,0.0024 0.02114,-0.0024 0.03125,0 3.710872,0.884451 6.528956,2.673551 8.4375,5.1875 1.922106,2.531812 2.9375,5.861309 2.9375,9.90625 0,9.335364 -7.539636,16.875 -16.875,16.875 -9.335339,0 -16.90625,-7.541091 -16.90625,-16.875 0,-8.097655 4.306747,-13.564803 11.84375,-15.28125 l 0.03125,0 0.03125,0 0.03125,0 c -0.0016,-1.98e-4 0.0329,1.32e-4 0.03125,0 -0.0016,-1.98e-4 0.0329,1.32e-4 0.03125,0 -0.0017,-6.6e-5 0.03291,0 0.03125,0 -0.0017,1.32e-4 0.03289,-1.98e-4 0.03125,0 A 0.22236085,0.22236085 0 0 0 27.21875,19.625 0.22236085,0.22236085 0 0 0 27.25,19.59375 c 0.01269,-0.0049 0.03125,-0.03125 0.03125,-0.03125 a 0.22236085,0.22236085 0 0 0 0.03125,0 0.22236085,0.22236085 0 0 0 0.03125,0 0.22236085,0.22236085 0 0 0 0,-0.03125 0.22236085,0.22236085 0 0 0 0,-0.03125 0.22236085,0.22236085 0 0 0 0.03125,0 0.22236085,0.22236085 0 0 0 0,-0.03125 0.22236085,0.22236085 0 0 0 0.03125,0 0.22236085,0.22236085 0 0 0 0,-0.03125 0.22236085,0.22236085 0 0 0 0.03125,0 0.22236085,0.22236085 0 0 0 0,-0.03125 0.22236085,0.22236085 0 0 0 0.03125,0 0.22236085,0.22236085 0 0 0 0,-0.03125 c 0.006,-0.009 -0.0045,-0.02446 0,-0.03125 A 0.22236085,0.22236085 0 0 0 27.5,19.3125 c -3.66e-4,4.6e-4 0.02968,0.002 0.03125,0 a 0.22236085,0.22236085 0 0 0 0,-0.03125 0.22236085,0.22236085 0 0 0 0,-0.03125 c -1.98e-4,0.0016 1.32e-4,-0.0329 0,-0.03125 a 0.22236085,0.22236085 0 0 0 0.03125,0 0.22236085,0.22236085 0 0 0 0,-0.0625 l 0,-0.03125 c 1e-6,4.78e-4 7.7e-5,-0.01986 0,-0.03125 0,-2.44e-4 5.4e-5,-0.02132 0,-0.03125 l 0,-0.03125 0,-5.625 0,-0.03125 0,-0.03125 c 5.5e-5,-0.01003 -1e-6,-0.03091 0,-0.03125 l 0,-0.03125 0,-0.03125 a 0.22236085,0.22236085 0 0 0 0,-0.03125 0.22236085,0.22236085 0 0 0 -0.03125,-0.0625 0.22236085,0.22236085 0 0 0 0,-0.03125 0.22236085,0.22236085 0 0 0 -0.03125,0 0.22236085,0.22236085 0 0 0 0.03125,-0.03125 0.22236085,0.22236085 0 0 0 -0.03125,0 c -0.0035,-0.01177 8.2e-5,-0.03105 0,-0.03125 a 0.22236085,0.22236085 0 0 0 -0.03125,0 0.22236085,0.22236085 0 0 0 0,-0.03125 c -0.0061,-0.0091 -0.02664,0.0068 -0.03125,0 -0.0046,-0.0068 6.1e-5,-0.03119 0,-0.03125 a 0.22236085,0.22236085 0 0 0 -0.03125,0 0.22236085,0.22236085 0 0 0 0,-0.03125 c -0.0076,-0.0029 -0.02615,0.0014 -0.03125,0 a 0.22236085,0.22236085 0 0 0 -0.03125,-0.03125 0.22236085,0.22236085 0 0 0 0,-0.03125 c -6.1e-5,-6.1e-5 -0.02448,0.0045 -0.03125,0 -0.0068,-0.0045 0.009,-0.02521 0,-0.03125 a 0.22236085,0.22236085 0 0 0 -0.03125,0 c -0.0068,-0.0045 9.8e-5,-0.03121 0,-0.03125 -0.0068,-0.0045 -0.02224,0.006 -0.03125,0 a 0.22236085,0.22236085 0 0 0 0,-0.03125 c -0.0068,-0.0045 -0.03115,4.1e-5 -0.03125,0 -1.97e-4,-8.2e-5 -0.02099,0.0032 -0.03125,0 4.6e-4,3.66e-4 -0.02922,0.0016 -0.03125,0 -0.002,-0.0016 -4.71e-4,-0.0316 0,-0.03125 a 0.22236085,0.22236085 0 0 0 -0.0625,-0.03125 0.22236085,0.22236085 0 0 0 -0.0625,0 L 27,12.75 c 4.78e-4,-10e-7 -0.01986,-7.7e-5 -0.03125,0 -2.44e-4,0 -0.02132,-5.4e-5 -0.03125,0 l -0.03125,0 -0.03125,0 -0.03125,0 c 0.0017,6.6e-5 -0.03291,0 -0.03125,0 0.0017,-1.32e-4 -0.03289,1.98e-4 -0.03125,0 z M 27.125,13 l 0,0.03125 0,-0.03125 z m 0,0.03125 0.03125,0.03125 0.03125,0.03125 0.03125,0 0.03125,0.03125 0,0.03125 0.03125,0 0.03125,0 0.03125,0.03125 0,0.03125 -0.03125,0.03125 0.0625,-0.03125 0.0625,0 0.0625,-0.03125 0.03125,0 c 1.32e-4,0.0017 -1.98e-4,-0.03289 0,-0.03125 z M 27.15625,13 l 0.03125,0.03125 0,0.03125 0,0.03125 z"
       transform="translate(-0.11363636,0)"
       id="path2988"
       style="opacity:0.1;fill:#000000;fill-opacity:1;stroke:none;display:inline" />
    <path
       d="m 28.96875,4.5625 a 0.19471464,0.19471464 0 0 0 0,0.03125 c 0,0 -0.0018,0.022869 0,0.03125 -9.17e-4,-0.00298 -0.03052,0.00237 -0.03125,0 0,0 -0.0018,0.022869 0,0.03125 -9.17e-4,-0.00298 -0.03052,0.00237 -0.03125,0 -0.0022,-0.00712 0,-0.03125 0,-0.03125 a 0.19471464,0.19471464 0 0 0 -0.03125,0 0.19471464,0.19471464 0 0 0 0,0.03125 0.19471464,0.19471464 0 0 0 -0.03125,0 0.19471464,0.19471464 0 0 0 0,0.03125 0.19471464,0.19471464 0 0 0 -0.03125,0 c 0,0 0,0.03125 0,0.03125 0,0 -0.03125,0 -0.03125,0 0,0 0,0.03125 0,0.03125 a 0.19471464,0.19471464 0 0 0 -0.03125,0 c 0,0 0,0.03125 0,0.03125 a 0.19471464,0.19471464 0 0 0 0,0.03125 0.19471464,0.19471464 0 0 0 -0.03125,0 c 0,0 0,0.03125 0,0.03125 0,0 0,0.03125 0,0.03125 0,0 0,0.03125 0,0.03125 1.5e-5,0.00425 -4.4e-5,0.027429 0,0.03125 l 0,18 0,0.03125 c -4.4e-5,0.0038 1.5e-5,0.027 0,0.03125 1.36e-4,0.0024 -9e-6,0.03117 0,0.03125 0,0 0,0.03125 0,0.03125 A 0.19471464,0.19471464 0 0 0 28.75,23.09375 c 0,0 0,-0.03125 0,-0.03125 0,0 0.02412,0.0021 0.03125,0 10e-5,0.003 -2.8e-5,0.03099 0,0.03125 0.0071,-0.0022 0.01953,0.0036 0.03125,0 1.11e-4,0.0032 -2.9e-5,0.031 0,0.03125 -0.0071,0.0022 -0.03125,0 -0.03125,0 0.0065,0.0078 0,0.03125 0,0.03125 a 0.19471464,0.19471464 0 0 0 0.03125,0 0.19471464,0.19471464 0 0 0 0,0.03125 0.19471464,0.19471464 0 0 0 0.03125,0 c 0,0 0,0.03125 0,0.03125 a 0.19471464,0.19471464 0 0 0 0.03125,0 c -0.0038,-0.0033 0.0038,-0.02798 0,-0.03125 0,0 0.03125,-0.03125 0.03125,-0.03125 0.0078,-0.02539 -0.0078,-0.03711 0,-0.0625 0.0127,-0.0039 0.02232,0.0028 0.03125,0 -0.0031,0.02982 -0.02813,0.03268 -0.03125,0.0625 -0.0014,0.01376 8.84e-4,0.02272 0,0.03125 0,0 -0.03125,0.03125 -0.03125,0.03125 a 0.19471464,0.19471464 0 0 0 0,0.03125 c 0,0 0.03125,0 0.03125,0 a 0.19471464,0.19471464 0 0 0 0,0.03125 0.19471464,0.19471464 0 0 0 0.03125,0 0.19471464,0.19471464 0 0 0 0.03125,0 0.19471464,0.19471464 0 0 0 0,0.03125 c 0,0 0.03125,0 0.03125,0 0,0 0.03125,0 0.03125,0 0,0 0.03125,0 0.03125,0 -7.9e-5,-9e-6 0.02915,-1.13e-4 0.03125,0 l 6,0 0.03125,0 c 0.0021,-1.14e-4 0.03133,-9e-6 0.03125,0 0,0 0.03125,0 0.03125,0 a 0.19471464,0.19471464 0 0 0 0.03125,0 0.19471464,0.19471464 0 0 0 0.03125,-0.03125 c 0,0 0.01953,-0.02145 0.03125,-0.03125 0,0 0.03125,0 0.03125,0 0,0 0,-0.03125 0,-0.03125 0,0 0.02641,0.0092 0.03125,0 0,0 0,-0.03125 0,-0.03125 a 0.19471464,0.19471464 0 0 0 0.03125,0 c 0,0 0,-0.03125 0,-0.03125 a 0.19471464,0.19471464 0 0 0 0.03125,-0.03125 0.19471464,0.19471464 0 0 0 0.03125,0 c 0,0 0,-0.03125 0,-0.03125 a 0.19471464,0.19471464 0 0 0 0,-0.03125 0.19471464,0.19471464 0 0 0 0.03125,0 c 0,0 0,-0.03125 0,-0.03125 0,0 0,-0.03125 0,-0.03125 a 0.19471464,0.19471464 0 0 0 0,-0.03125 0.19471464,0.19471464 0 0 0 0,-0.03125 l 0,-18 0,-0.03125 c -1.14e-4,-0.0021 -9e-6,-0.031328 0,-0.03125 -1.35e-4,-0.00242 9e-6,-0.031172 0,-0.03125 0,0 0,-0.03125 0,-0.03125 A 0.19471464,0.19471464 0 0 0 35.4375,4.78125 c 0,0 0,0.03125 0,0.03125 0,0 -0.02287,-0.00183 -0.03125,0 -1e-4,-0.003 2.8e-5,-0.030989 0,-0.03125 0,0 -0.02287,-0.00183 -0.03125,0 0.003,-9.179e-4 -0.0024,-0.030519 0,-0.03125 0.0071,-0.00219 0.03125,0 0.03125,0 a 0.19471464,0.19471464 0 0 0 0,-0.03125 0.19471464,0.19471464 0 0 0 -0.03125,0 0.19471464,0.19471464 0 0 0 0,-0.03125 c -0.0048,-0.00925 -0.03125,0 -0.03125,0 0,0 0,-0.03125 0,-0.03125 a 0.19471464,0.19471464 0 0 0 -0.03125,0 c 0.0038,0.00327 -0.0038,0.027976 0,0.03125 -7.31e-4,0.00237 -0.03033,-0.00298 -0.03125,0 0,0 0.03125,-0.03125 0.03125,-0.03125 a 0.19471464,0.19471464 0 0 0 0,-0.03125 0.19471464,0.19471464 0 0 0 -0.03125,0 0.19471464,0.19471464 0 0 0 0,-0.03125 0.19471464,0.19471464 0 0 0 -0.03125,0 c 0,0 -0.03125,0 -0.03125,0 a 0.19471464,0.19471464 0 0 0 0,-0.03125 c 0,0 -0.03125,0 -0.03125,0 0,0 -0.03125,0 -0.03125,0 0,0 -0.03125,0 -0.03125,0 -0.0042,1.54e-5 -0.02743,-4.42e-5 -0.03125,0 l -6,0 -0.03125,0 -0.03125,0 a 0.19471464,0.19471464 0 0 0 -0.03125,0 0.19471464,0.19471464 0 0 0 -0.03125,0 z m 6.4375,0.1875 c 0,0 0,0.03125 0,0.03125 0.0071,-0.00219 0.03125,0 0.03125,0 0,0 0,-0.03125 0,-0.03125 0,0 -0.03125,0 -0.03125,0 z m -6.625,18.375 c 0,0 0,-0.03125 0,-0.03125 -0.0071,0.0022 -0.03125,0 -0.03125,0 0,0 0,0.03125 0,0.03125 0,0 0.03125,0 0.03125,0 z m 0.125,-18.5 c 0,0 0.03125,0 0.03125,0 -0.0022,-0.00712 0,-0.03125 0,-0.03125 0,0 -0.03125,0 -0.03125,0 0,0 0,0.03125 0,0.03125 z M 35.1875,4.6875 35.15625,4.78125 35.1875,4.8125 35.21875,4.84375 35.25,4.9375 c -0.0078,0.0043 0.0079,0.027232 0,0.03125 -0.008,0.00373 -0.02307,-0.00344 -0.03125,0 -0.0085,0.00253 -0.02266,-0.00222 -0.03125,0 -0.0088,0.00128 -0.02243,-9.604e-4 -0.03125,0 -0.0089,3.207e-4 -0.02238,0 -0.03125,0 -0.0088,-9.604e-4 -0.02247,0.00128 -0.03125,0 -0.0086,-0.00222 -0.02275,0.00253 -0.03125,0 -0.0082,-0.00344 -0.0232,0.00373 -0.03125,0 -0.0079,-0.00402 0.0078,-0.026948 0,-0.03125 L 35.125,4.78125 35.1875,4.6875 z m -6.25,0.03125 c 0.01395,0.0043 0.01855,-0.00392 0.03125,0 L 28.9375,4.75 c -0.0039,-0.012699 0.0043,-0.017295 0,-0.03125 z m 0.15625,0.0625 c 0.0043,0.00776 0.02723,-0.00791 0.03125,0 0.0037,0.00805 -0.0034,0.023072 0,0.03125 0.0025,0.0085 -0.0022,0.022663 0,0.03125 0.0013,0.00878 -9.6e-4,0.022432 0,0.03125 0,0.00887 3.21e-4,0.022386 0,0.03125 -9.6e-4,0.00882 0.0013,0.022472 0,0.03125 -0.0022,0.00859 0.0025,0.022748 0,0.03125 -0.0034,0.00818 0.0037,0.023202 0,0.03125 -0.004,0.00791 -0.02695,-0.00776 -0.03125,0 L 28.9375,4.90625 28.8125,4.84375 28.9375,4.875 28.96875,4.84375 29,4.8125 29.09375,4.78125 z M 35.3125,4.8125 c 0.01398,-0.00421 0.01853,0.00383 0.03125,0 -0.01798,0.00393 -0.01548,0.027799 -0.03125,0.03125 l 0,-0.03125 z m -8.46875,8.21875 C 15.746378,14.871667 8.53125,23.327682 8.53125,34.9375 c 0,12.954034 10.514716,23.46875 23.46875,23.46875 12.954034,0 23.46875,-10.514716 23.46875,-23.46875 0,-11.503794 -6.803162,-19.769645 -17.75,-21.71875 -0.02235,-0.004 -0.04012,-0.02732 -0.0625,-0.03125 a 0.19471464,0.19471464 0 0 0 -0.0625,-0.03125 0.19471464,0.19471464 0 0 0 -0.03125,0 l -0.03125,0 c -0.0038,-4.4e-5 -0.027,1.5e-5 -0.03125,0 0,0 -0.03125,0 -0.03125,0 0,0 -0.03125,0 -0.03125,0 a 0.19471464,0.19471464 0 0 0 -0.03125,0.03125 c 0,0 0.0026,0.02907 0,0.03125 -0.0052,0.0044 -0.02343,-0.0065 -0.03125,0 -0.0078,0.0065 -0.03125,0 -0.03125,0 0,0 0,0.03125 0,0.03125 l 0.03125,0 0,0.03125 -0.03125,0 0,-0.03125 a 0.19471464,0.19471464 0 0 0 -0.03125,0 0.19471464,0.19471464 0 0 0 0,0.03125 0.19471464,0.19471464 0 0 0 -0.03125,0 0.19471464,0.19471464 0 0 0 0,0.03125 0.19471464,0.19471464 0 0 0 -0.03125,0 c 0,0 0,0.03125 0,0.03125 a 0.19471464,0.19471464 0 0 0 -0.03125,0 0.19471464,0.19471464 0 0 0 0,0.03125 0.19471464,0.19471464 0 0 0 0,0.03125 0.19471464,0.19471464 0 0 0 -0.03125,0 c 0,0 0,0.03125 0,0.03125 0,0 0,0.03125 0,0.03125 a 0.19471464,0.19471464 0 0 0 0,0.03125 c 9e-6,-7.9e-5 1.13e-4,0.02915 0,0.03125 l 0,5.6875 0,0.03125 c -4.4e-5,0.0038 1.5e-5,0.027 0,0.03125 0,0 0,0.03125 0,0.03125 a 0.19471464,0.19471464 0 0 0 0,0.03125 0.19471464,0.19471464 0 0 0 0.03125,0.03125 c 0,0 0,-0.03125 0,-0.03125 0,0 0.02412,0.0021 0.03125,0 1e-4,0.003 -2.8e-5,0.03099 0,0.03125 0.0071,-0.0022 0.01953,0.0036 0.03125,0 0.02654,-0.0058 0.05094,-0.02188 0.09375,-0.03125 l 0,0.03125 c 0.0013,-0.0042 0.03005,0.0039 0.03125,0 -0.0031,0.02982 -0.02813,0.03268 -0.03125,0.0625 0.0078,-0.02539 -0.0078,-0.03711 0,-0.0625 -0.03809,0.01175 -0.06696,-0.0083 -0.09375,0 -1.4e-5,-1.24e-4 1.8e-5,0.03132 0,0.03125 -0.0071,0.0022 -0.03125,0 -0.03125,0 0.0065,0.0078 0,0.03125 0,0.03125 a 0.19471464,0.19471464 0 0 0 0.03125,0 0.19471464,0.19471464 0 0 0 0,0.03125 c 0,0 0.03125,0 0.03125,0 0,0 0,0.03125 0,0.03125 0,0 0.03125,0 0.03125,0 -0.0038,-0.0033 0.0038,-0.02798 0,-0.03125 7.32e-4,-0.0024 0.03033,0.003 0.03125,0 -8.84e-4,0.0085 -2.1e-5,0.03125 0,0.03125 7.32e-4,-0.0024 0.03033,0.003 0.03125,0 -8.84e-4,0.0085 -2.1e-5,0.03125 0,0.03125 0,0 -0.03125,0 -0.03125,0 a 0.19471464,0.19471464 0 0 0 0,0.03125 c 0,0 0.03125,0 0.03125,0 0,0 0.03125,0 0.03125,0 7.8e-5,9e-6 0.02883,-1.35e-4 0.03125,0 0.0042,-1.5e-5 0.02743,4.4e-5 0.03125,0 l 0.03125,0 c 3.794636,0.892032 6.663979,2.698179 8.625,5.28125 1.965696,2.589229 3,6.001195 3,10.09375 0,9.4895 -7.66675,17.15625 -17.15625,17.15625 -9.489496,0 -17.1875,-7.667557 -17.1875,-17.15625 0,-8.232257 4.4258,-13.845477 12.125,-15.5625 l 0.03125,0 0.03125,0 a 0.19471464,0.19471464 0 0 0 0.03125,0 0.19471464,0.19471464 0 0 0 0.03125,0 0.19471464,0.19471464 0 0 0 0,-0.03125 c 0,0 0.0021,-0.02412 0,-0.03125 9.18e-4,0.003 0.03052,-0.0024 0.03125,0 0,0 0.0071,-0.03901 0,-0.0625 l 0.03125,0.03125 0,0.03125 a 0.19471464,0.19471464 0 0 0 0.03125,0 c 0,0 0,-0.03125 0,-0.03125 a 0.19471464,0.19471464 0 0 0 0.03125,0 c 0,0 0,-0.03125 0,-0.03125 0,0 -0.03125,-0.03125 -0.03125,-0.03125 0.0078,0.0024 0.0253,-0.03309 0.03125,-0.03125 0.0078,0.0024 0.0253,-0.03309 0.03125,-0.03125 0.0085,8.84e-4 0.03125,2.1e-5 0.03125,0 a 0.19471464,0.19471464 0 0 0 0.03125,0 c 0,0 0,-0.03125 0,-0.03125 0,0 0,-0.03125 0,-0.03125 a 0.19471464,0.19471464 0 0 0 0,-0.03125 0.19471464,0.19471464 0 0 0 0,-0.03125 l 0,-5.625 0,-0.03125 c -1.14e-4,-0.0021 -9e-6,-0.03133 0,-0.03125 a 0.19471464,0.19471464 0 0 0 0,-0.03125 c 0,0 0,-0.03125 0,-0.03125 A 0.19471464,0.19471464 0 0 0 27.25,13.25 c 0,0 0,0.03125 0,0.03125 0,0 -0.02287,-0.0018 -0.03125,0 -10e-5,-0.003 2.8e-5,-0.03099 0,-0.03125 0,0 -0.02287,-0.0018 -0.03125,0 0.003,-9.18e-4 -0.0024,-0.03052 0,-0.03125 0.0071,-0.0022 0.03125,0 0.03125,0 0,0 0,-0.03125 0,-0.03125 a 0.19471464,0.19471464 0 0 0 -0.03125,0 0.19471464,0.19471464 0 0 0 0,-0.03125 c -0.0049,-0.0093 -0.03125,0 -0.03125,0 0,0 0,-0.03125 0,-0.03125 a 0.19471464,0.19471464 0 0 0 -0.03125,0 c 0,0 0.0022,0.02413 0,0.03125 -0.0047,-0.0091 -0.03125,0 -0.03125,0 0,0 0.03125,-0.03125 0.03125,-0.03125 a 0.19471464,0.19471464 0 0 0 0,-0.03125 0.19471464,0.19471464 0 0 0 -0.03125,0 0.19471464,0.19471464 0 0 0 0,-0.03125 0.19471464,0.19471464 0 0 0 -0.03125,0 c 0,0 -0.03125,0 -0.03125,0 a 0.19471464,0.19471464 0 0 0 0,-0.03125 c 0,0 -0.03125,0 -0.03125,0 0,0 -0.03125,0 -0.03125,0 0,0 -0.03125,0 -0.03125,0 7.9e-5,9e-6 -0.02915,1.13e-4 -0.03125,0 l -0.03125,0 a 0.19471464,0.19471464 0 0 0 -0.03125,0 z m 0.375,0.1875 c 0,0 0,0.03125 0,0.03125 0.0071,-0.0022 0.03125,0 0.03125,0 0,0 0,-0.03125 0,-0.03125 a 0.19471464,0.19471464 0 0 0 -0.03125,0 z M 27.1875,19.25 a 0.19471464,0.19471464 0 0 0 0.03125,0 c 0,0 0,-0.03125 0,-0.03125 a 0.19471464,0.19471464 0 0 0 0.03125,0 c 0,0 0,-0.03125 0,-0.03125 a 0.19471464,0.19471464 0 0 1 -0.03125,0 c -0.0033,0.0038 -0.02798,-0.0038 -0.03125,0 z m -0.0625,0.0625 c 0,0 -0.03125,0 -0.03125,0 0.0022,0.0071 0,0.03125 0,0.03125 0,0 0.03125,0 0.03125,0 0,0 0,-0.03125 0,-0.03125 z m 10.25,0.21875 c 0,0 0,-0.03125 0,-0.03125 0,0 -0.02357,0.0065 -0.03125,0 a 0.19471464,0.19471464 0 0 0 0,0.03125 c 0,0 0.03125,0 0.03125,0 z m -0.125,-0.125 c 0,0 0,-0.03125 0,-0.03125 -0.0071,0.0022 -0.03125,0 -0.03125,0 0,0 0,0.03125 0,0.03125 0,0 0.03125,0 0.03125,0 z M 27,13.15625 26.96875,13.25 27,13.28125 l 0.03125,0.03125 0.03125,0.09375 c -0.0078,0.0043 0.0079,0.02723 0,0.03125 -0.008,0.0037 -0.02307,-0.0034 -0.03125,0 -0.0085,0.0025 -0.02266,-0.0022 -0.03125,0 -0.0088,0.0013 -0.02243,-9.6e-4 -0.03125,0 -0.0089,3.21e-4 -0.02238,0 -0.03125,0 -0.0088,-9.6e-4 -0.02247,0.0013 -0.03125,0 -0.0086,-0.0022 -0.02275,0.0025 -0.03125,0 -0.0082,-0.0034 -0.0232,0.0037 -0.03125,0 -0.0079,-0.004 0.0078,-0.02695 0,-0.03125 L 26.9375,13.25 27,13.15625 z m 0.125,0.125 c 0.01398,-0.0042 0.01853,0.0038 0.03125,0 -0.01798,0.0039 -0.01548,0.0278 -0.03125,0.03125 l 0,-0.03125 z m 10.28125,0.03125 c 5.62e-4,0.0026 0.03069,-0.0026 0.03125,0 l 0,0.03125 c -2.73e-4,-0.0026 -0.03098,0.0026 -0.03125,0 0.0042,0.01398 -0.0038,0.01853 0,0.03125 -0.01376,-0.0014 -0.01556,0.0016 -0.03125,0 0.0026,5.52e-4 -0.0026,0.0307 0,0.03125 -0.01606,-0.0017 -0.01295,-0.02933 -0.03125,-0.03125 0.01272,0.0038 0.01727,-0.0042 0.03125,0 -0.0026,-2.74e-4 0.0026,-0.03098 0,-0.03125 0.01395,0.0043 0.01855,-0.0039 0.03125,0 -0.0016,-0.01569 0.0014,-0.01749 0,-0.03125 z m 0.15625,0.0625 c 0,0 0.02412,0.0021 0.03125,0 l 0,0.03125 c 0.0025,0.0085 -0.0022,0.02266 0,0.03125 0.0013,0.0088 -9.6e-4,0.02243 0,0.03125 3.21e-4,0.0089 0,0.02238 0,0.03125 -9.6e-4,0.0088 0.0013,0.02247 0,0.03125 -0.0022,0.0086 0.0025,0.02275 0,0.03125 -0.0034,0.0082 0.0037,0.0232 0,0.03125 -0.004,0.0079 -0.02695,-0.0078 -0.03125,0 l -0.03125,-0.03125 -0.03125,0 c -0.0082,-0.0034 -0.0232,0.0037 -0.03125,0 -0.0079,-0.004 0.0078,-0.02695 0,-0.03125 L 37.40625,13.5 l -0.0625,-0.03125 0.0625,0 0.03125,-0.03125 0.03125,-0.03125 0.09375,-0.03125 z m 0.09375,0.15625 a 0.19471464,0.19471464 0 0 0 0.03125,0 c -0.0078,0.0043 0.0079,0.02723 0,0.03125 -0.008,0.0037 -0.02307,-0.0034 -0.03125,0 a 0.19471464,0.19471464 0 0 0 0,-0.03125 z M 26.875,18.96875 c 0.004,-0.0079 0.02695,0.0078 0.03125,0 l 0.15625,0.09375 0.0625,0.03125 c -0.0078,-0.0024 -0.02528,0.03305 -0.03125,0.03125 -0.01175,-0.0035 -0.02412,0.0021 -0.03125,0 l -0.03125,0 0,0.03125 c -0.0084,-0.0018 -0.03125,0 -0.03125,0 l -0.0625,0.03125 -0.03125,0 c -0.0043,-0.0078 -0.02723,0.0079 -0.03125,0 -0.0037,-0.008 0.0034,-0.02307 0,-0.03125 -0.0025,-0.0085 0.0022,-0.02266 0,-0.03125 -0.0013,-0.0088 9.6e-4,-0.02243 0,-0.03125 -3.21e-4,-0.0089 0,-0.02238 0,-0.03125 9.6e-4,-0.0088 -0.0013,-0.02247 0,-0.03125 0.0022,-0.0086 -0.0025,-0.02275 0,-0.03125 0.0034,-0.0082 -0.0037,-0.0232 0,-0.03125 z m 0.25,0.15625 0.0625,0 0,0.03125 c -0.0084,-0.0018 -0.01772,0.0029 -0.03125,0 -0.01578,-0.0034 -0.01326,-0.02739 -0.03125,-0.03125 z m -0.0625,0.0625 c 0.01272,0.0038 0.01727,-0.0042 0.03125,0 0.0039,0.0127 -0.0043,0.0173 0,0.03125 -5.62e-4,-0.0026 -0.03069,0.0026 -0.03125,0 l 0,0.03125 c -0.0039,-0.01798 -0.0278,-0.01548 -0.03125,-0.03125 l 0.03125,0 c -0.0042,-0.01398 0.0038,-0.01853 0,-0.03125 z m 8,3.6875 c 0.004,-0.0079 0.02695,0.0078 0.03125,0 L 35.25,22.96875 35.375,23.03125 35.25,23 l -0.03125,0.03125 0,0.03125 -0.03125,0 -0.09375,0.03125 c -0.0043,-0.0078 -0.02723,0.0079 -0.03125,0 -0.0037,-0.008 0.0034,-0.02307 0,-0.03125 -0.0025,-0.0085 0.0022,-0.02266 0,-0.03125 -0.0013,-0.0088 9.6e-4,-0.02243 0,-0.03125 0,-0.0089 -3.21e-4,-0.02239 0,-0.03125 9.6e-4,-0.0088 -0.0013,-0.02247 0,-0.03125 0.0022,-0.0086 -0.0025,-0.02275 0,-0.03125 0.0034,-0.0082 -0.0037,-0.0232 0,-0.03125 z m -6.125,0.03125 c 0.01042,0 0.05208,0 0.0625,0 0.01042,0 0.05208,0 0.0625,0 0.01042,0 0.05208,0 0.0625,0 0.05044,-0.02196 0.03487,0.03908 0.03125,0.03125 L 29.0625,23.09375 29,23.21875 29.03125,23.09375 29,23.0625 l -0.03125,0 0,-0.03125 -0.03125,-0.09375 c 0.0078,-0.0043 -0.0079,-0.02723 0,-0.03125 z"
       transform="translate(-0.11363636,0)"
       id="path2994"
       style="opacity:0.2;fill:#000000;fill-opacity:1;stroke:none;display:inline" />
  </g>
  <g
     id="layer1"
     style="display:inline;fill:#ffffff">
    <path
       d="m 29.008523,4.9090909 0,18.0000001 6,0 0,-18.0000001 z M 26.816624,13.380457 C 15.873952,15.195219 8.8210227,23.452434 8.8210227,34.909091 c 0,12.752756 10.3409943,23.09375 23.0937503,23.09375 12.752756,0 23.09375,-10.340994 23.09375,-23.09375 0,-11.392031 -6.699339,-19.509398 -17.550972,-21.400069 l 0,5.6875 c 7.754527,1.810879 11.988472,7.402277 11.988472,15.712569 0,9.690086 -7.841164,17.53125 -17.53125,17.53125 -9.690086,0 -17.5625,-7.841164 -17.5625,-17.53125 0,-8.378795 4.606802,-14.163517 12.464351,-15.903634 z"
       id="path4453"
       style="fill:#ffffff;fill-opacity:1;stroke:none" />
  </g>
</svg>
