<?xml version="1.0" encoding="UTF-8" standalone="no"?>
<!-- Created with Inkscape (http://www.inkscape.org/) -->

<svg
   xmlns:dc="http://purl.org/dc/elements/1.1/"
   xmlns:cc="http://creativecommons.org/ns#"
   xmlns:rdf="http://www.w3.org/1999/02/22-rdf-syntax-ns#"
   xmlns:svg="http://www.w3.org/2000/svg"
   xmlns="http://www.w3.org/2000/svg"
   version="1.1"
   width="64"
   height="64"
   id="svg2985">
  <defs
     id="defs2987" />
  <metadata
     id="metadata2990">
    <rdf:RDF>
      <cc:Work
         rdf:about="">
        <dc:format>image/svg+xml</dc:format>
        <dc:type
           rdf:resource="http://purl.org/dc/dcmitype/StillImage" />
        <dc:title></dc:title>
      </cc:Work>
    </rdf:RDF>
  </metadata>
  <path
     d="m 18.78125,22.59375 c -1.264639,0.09979 -2.3516,0.913657 -2.9375,2 -0.601218,1.114744 -0.518117,2.670069 0.5625,3.8125 1.041216,1.100777 4.717571,4.935755 8.15625,8.5 1.71934,1.782123 3.398233,3.479785 4.625,4.75 1.208328,1.251124 1.958173,2.050422 2,2.09375 0.0016,0.0015 -0.0012,0.03009 0,0.03125 2.26e-4,2.34e-4 0.03111,-1.49e-4 0.03125,0 0.007,0.0069 0.023,0.02272 0.03125,0.03125 l 0,0.03125 c 0.0076,0.0038 0.02294,0.02695 0.03125,0.03125 -3.18e-4,-1.19e-4 0.03019,-5.04e-4 0.03125,0 9.24e-4,0.002 1.05e-4,0.03158 0,0.03125 0.01154,0.0022 0.03127,7e-6 0.03125,0 0.0022,0.0042 -0.0021,0.02706 0,0.03125 0.0019,0.0042 -9.4e-5,0.03091 0,0.03125 2.4e-5,8.5e-5 -6e-6,0.0312 0,0.03125 0,0 -0.02261,-9.18e-4 -0.03125,0 0,0 -0.02266,0.0013 -0.03125,0 -0.0086,-0.0013 -0.01739,0.0021 -0.03125,0 -0.01853,0.002 -0.015,0.02952 -0.03125,0.03125 0.02963,0.0066 0.03287,0.02464 0.0625,0.03125 0.01367,0.0031 0.02277,-0.0019 0.03125,0 0.0085,0.0019 0.03125,0 0.03125,0 0.0096,-0.04966 0.03125,-0.09375 0.03125,-0.09375 0,0 0.03125,0 0.03125,0 3.09e-4,1.3e-4 0.02943,-8.75e-4 0.03125,0 0,0 0,0.03125 0,0.03125 0.004,0.002 0.02706,-0.0021 0.03125,0 0.0084,0.0042 0.02555,-0.0029 0.03125,0 0,0 0.0028,0.02585 0,0.03125 0,0 0,0.03125 0,0.03125 0,0 0.03125,0 0.03125,0 0.0048,0.0016 0.02633,-0.0017 0.03125,0 0,0 0.0016,0.02272 0,0.03125 -0.0033,0.01706 0.006,0.03113 0,0.0625 0.0091,-0.01736 0.02314,-0.01572 0.03125,-0.03125 -0.003,-0.009 0,-0.03125 0,-0.03125 5.3e-5,6.8e-5 0.02549,-0.0095 0.03125,0 0.0039,0.0019 0.02704,-0.0021 0.03125,0 0.0084,0.0042 0.02457,-0.0033 0.03125,0 0.0017,8.8e-4 -2.9e-4,0.03108 0,0.03125 0,0 0.03125,0 0.03125,0 0,0 0.0034,0.02735 0,0.03125 3.8e-5,-1.1e-5 0.03118,1e-5 0.03125,0 0.0039,-0.0053 0.02883,0.0033 0.03125,0 0.003,-0.0042 -5e-6,-0.03125 0,-0.03125 0.0084,0.0041 0.02392,-0.0036 0.03125,0 0.0026,0.0014 -2.85e-4,0.03106 0,0.03125 8.2e-5,-8e-6 0.0294,1.05e-4 0.03125,0 1.9e-5,1.6e-5 0.02154,-0.01046 0.03125,0 0.0015,8.11e-4 0.0268,-0.0027 0.03125,0 0,0 -0.03125,0.03125 -0.03125,0.03125 0.0027,0.0097 0.02638,0.01399 0.03125,0.03125 0.0033,-0.01936 0.03122,-0.0625 0.03125,-0.0625 0.0069,-4e-6 0.02278,-4.3e-5 0.03125,0 0,0 -0.0012,0.05737 0,0.09375 0.0013,0.03739 0.02953,0.04367 0.03125,0.09375 0.0088,-0.09668 -6.9e-5,-0.187497 0,-0.1875 0.0065,-1.1e-5 0.02278,-1.4e-5 0.03125,0 0.0085,1.4e-5 0.02518,-1.8e-5 0.03125,0 0.0061,-1.8e-5 0.02278,1.4e-5 0.03125,0 0.0085,-1.4e-5 0.02477,-1.1e-5 0.03125,0 1.4e-4,5e-6 0.03125,0 0.03125,0 0.0085,-4.3e-5 0.02437,-4e-6 0.03125,0 7e-5,5e-6 0.02145,-0.0017 0.03125,0 0.0044,-0.0027 0.02975,8.09e-4 0.03125,0 0.0096,-0.01006 0.03127,-1.5e-5 0.03125,0 0.0042,-0.002 0.02753,0.0018 0.03125,0 0.0037,-0.0018 -0.0024,-0.03008 0,-0.03125 0,0 0.03125,0.03125 0.03125,0.03125 0.0031,9.2e-5 0.03097,-3.8e-5 0.03125,0 7.1e-5,1e-5 0.03121,-1.1e-5 0.03125,0 -0.0033,-0.004 0,-0.03125 0,-0.03125 4e-5,-2.6e-5 0.03118,4.1e-5 0.03125,0 2.91e-4,-1.65e-4 -0.0016,-0.03042 0,-0.03125 0.0066,-0.0033 0.02286,0.0042 0.03125,0 0.0042,-0.0021 0.0274,0.0019 0.03125,0 0.0013,0.0027 0.02941,-0.0038 0.03125,0 -0.0023,-0.0072 2.5e-4,-0.03133 0,-0.03125 0.0053,-0.0079 0.0313,-6.6e-5 0.03125,0 0.0049,-0.0017 0.0265,0.0016 0.03125,0 0.0071,-0.0024 0.02547,-0.02932 0.03125,-0.03125 -0.0027,-0.0055 2.51e-4,-0.03137 0,-0.03125 0.0056,-0.0028 0.02289,0.0042 0.03125,0 0.0068,-0.0068 0.02293,-0.02308 0.03125,-0.03125 0.0018,-8.46e-4 0.03094,1.32e-4 0.03125,0 0,0 0.03125,0 0.03125,0 0,0 0.02076,0.04427 0.03125,0.09375 0,0 0.02278,0.0019 0.03125,0 0.0085,-0.0019 0.01758,0.0031 0.03125,0 0.02961,-0.0067 0.03289,-0.02457 0.0625,-0.03125 4.22e-4,-0.0091 -6.75e-4,-0.01666 0,-0.03125 -0.01577,0.0025 -0.01742,-0.0022 -0.03125,0 -0.01383,0.0022 -0.02267,-0.0014 -0.03125,0 -0.0086,0.0014 -0.03125,0 -0.03125,0 -0.0016,-0.01589 0.0014,-0.01731 0,-0.03125 -0.0073,-0.002 -0.03125,1.3e-5 -0.03125,0 9.4e-5,-3.42e-4 -0.0019,-0.02706 0,-0.03125 0.0021,-0.0042 0.02906,0.0042 0.03125,0 0,0 -0.03125,-0.03125 -0.03125,-0.03125 0.0022,-0.0042 0.02907,0.0041 0.03125,0 0.0041,-0.0021 -0.0037,-0.0294 0,-0.03125 0.001,-4.77e-4 0.03157,-1.21e-4 0.03125,0 0.0042,-0.0022 0.02715,0.0021 0.03125,0 0.0041,-0.0021 -0.0038,-0.02932 0,-0.03125 4.09e-4,-4.11e-4 -8.01e-4,-0.03045 0,-0.03125 0.006,-0.006 0.02301,0.0083 0.03125,0 0.0082,-0.0083 -0.0062,-0.0251 0,-0.03125 0,0 0.03122,2.7e-5 0.03125,0 0.02418,-0.02621 11.888787,-12.919507 14.03125,-15.3125 1.421268,-1.587465 1.155346,-3.684876 -0.03125,-4.84375 -0.582853,-0.569236 -1.400404,-1.014664 -2.28125,-1.03125 -0.879143,-0.01655 -1.755199,0.3856 -2.4375,1.15625 -1.703689,1.924293 -8.709923,9.367911 -10.03125,10.78125 a 0.19714527,0.19714527 0 0 1 -0.03125,0.03125 0.19714527,0.19714527 0 0 1 -0.09375,0.03125 0.19714527,0.19714527 0 0 1 -0.0625,0 0.19714527,0.19714527 0 0 1 -0.03125,0 0.19714527,0.19714527 0 0 1 -0.09375,-0.0625 C 30.457551,33.073483 22.862311,25.248262 21.28125,23.5625 c -0.69592,-0.742007 -1.647713,-1.036 -2.5,-0.96875 z m 13.75,21.5 c 0.0037,0.0076 -0.0051,0.02075 0,0.03125 -0.0024,-0.0079 0.0331,-0.02522 0.03125,-0.03125 -9.26e-4,-0.003 -0.0305,0.0024 -0.03125,0 z m -1.25,-0.21875 c 4.8e-5,1.3e-5 -0.0625,0 -0.0625,0 0,0 -9.81e-4,0.03331 0,0.0625 0.0141,-0.0044 0.01842,0.004 0.03125,0 0.0045,-0.01737 0.02873,-0.02152 0.03125,-0.03125 0.0019,-0.0073 -7e-6,-0.03125 0,-0.03125 z m -0.0625,0 c -0.02706,0.02798 -0.04188,0.04118 -0.0625,0.0625 0.009,-0.0028 0.01842,0.004 0.03125,0 0.0111,-0.03266 0.02557,-0.04585 0.03125,-0.0625 z m -0.0625,0.0625 c 0.0013,0.01592 -0.0012,0.01729 0,0.03125 0.0072,-0.0023 0.01941,0.0037 0.03125,0 -0.0079,0.0025 -0.02523,-0.03315 -0.03125,-0.03125 z m 0,0.09375 c 0,0 -0.03717,0.02822 -0.0625,0.0625 l -0.03125,0.0625 c 0.01122,0.0046 0.03125,0 0.03125,0 0,0 0.02146,0.0021 0.03125,0 0.0047,-0.02999 0.0265,-0.03251 0.03125,-0.0625 0.0044,-0.02768 0,-0.0625 0,-0.0625 z m -0.03125,0.125 c -0.01127,0.0057 -0.03125,0.03125 -0.03125,0.03125 0,0 0,0.03125 0,0.03125 0.004,0.0053 0.02592,-0.0071 0.03125,0 0,0 -0.0044,-0.03482 0,-0.0625 z m 1.84375,-0.125 c 0,0 -0.0042,0.0348 0,0.0625 0.0046,0.03001 0.02666,0.03249 0.03125,0.0625 0.0096,0.0021 0.03125,0 0.03125,0 0,0 0.01989,0.0045 0.03125,0 -0.01364,-0.0186 -0.01164,-0.03576 -0.03125,-0.0625 -0.02521,-0.03438 -0.0625,-0.0625 -0.0625,-0.0625 z M 33,44.15625 c 0.0042,0.0277 0,0.0625 0,0.0625 0.01037,-0.01367 0.03125,-0.03125 0.03125,-0.03125 0,0 -0.02002,-0.02549 -0.03125,-0.03125 z m 0,0.0625 c 0,0 -0.03125,0 -0.03125,0 0,0 -0.02095,0.0037 -0.03125,0 -0.03348,-0.01188 -0.09375,-0.03125 -0.09375,-0.03125 0.0468,0.0349 0.09375,0.09375 0.09375,0.09375 0,0 0,-0.03125 0,-0.03125 0,0 0.03125,0 0.03125,0 0,0 0.02088,-0.01758 0.03125,-0.03125 z M 32.84375,44.1875 c 0,0 -0.0625,-0.09375 -0.0625,-0.09375 0.0058,0.02741 0,0.0625 0,0.0625 0,0 0.03823,0.01315 0.0625,0.03125 z m -1.5,-0.09375 c 0,0 -0.0625,0.09375 -0.0625,0.09375 0.02461,-0.01763 0.0625,-0.03125 0.0625,-0.03125 0,0 -0.0053,-0.03499 0,-0.0625 z m -0.0625,0.09375 c 0,0 -0.125,0.03125 -0.125,0.03125 0.004,0.0053 0,0.03125 0,0.03125 0,0 0.03125,0 0.03125,0 0,0 0,0.03125 0,0.03125 0,0 0.0463,-0.05974 0.09375,-0.09375 z m 0.25,0 c -0.0053,0.02752 0,0.0625 0,0.0625 0,0 0.01761,-0.03668 0.03125,-0.0625 -0.01389,0.0018 -0.01541,-0.0021 -0.03125,0 z m 0.125,0 c -0.03553,0.04129 -0.0625,0.09375 -0.0625,0.09375 0,0 0,0.1875 0,0.1875 0,0 0.03125,0 0.03125,0 0,0 0.01314,1.77e-4 0.03125,0 0.0028,-0.003 0.02677,0.0048 0.03125,0 0,0 0.0017,-0.02273 0,-0.03125 -0.0087,-0.04403 -0.03125,-0.15625 -0.03125,-0.15625 0,0 0.02254,-0.01925 0.03125,-0.03125 -0.01781,-0.02448 -0.03125,-0.0625 -0.03125,-0.0625 z m 0.8125,0 c 0,0 -0.0134,0.03805 -0.03125,0.0625 0.01112,0.0098 0.03125,0.03125 0.03125,0.03125 0,0 -0.03125,0.1875 -0.03125,0.1875 0,0 0.0625,0 0.0625,0 0,0 0.03125,0 0.03125,0 0,0 0,-0.1875 0,-0.1875 0,0 -0.02793,-0.05166 -0.0625,-0.09375 z m 0.125,0.0625 0.03125,0.09375 c -0.003,-0.0049 0.03426,-0.02632 0.03125,-0.03125 -0.02409,-0.03945 -0.0625,-0.0625 -0.0625,-0.0625 z M 32.125,44.34375 c -0.0046,0.0973 6.8e-5,0.187496 0,0.1875 -1.38e-4,7e-6 0.03125,0 0.03125,0 0,0 0.0049,-0.06777 0,-0.125 -0.0025,-0.02981 -0.02839,-0.02885 -0.03125,-0.0625 z m 0.09375,0.125 c -0.0015,0.01765 2.3e-5,0.0625 0,0.0625 0,0 0.03125,0 0.03125,0 0,0 0.0018,-0.02394 0,-0.03125 -0.01251,-0.01212 -0.01457,-0.01508 -0.03125,-0.03125 z"
     transform="matrix(-1,0,0,-1,63.405025,60.064832)"
     id="path2990"
     style="opacity:0.2;fill:#000000;stroke:none" />
  <path
     d="m 18.84375,23.125 c -1.072413,0.08462 -2.055847,0.779343 -2.5625,1.71875 -0.505868,0.937953 -0.440965,2.192708 0.5,3.1875 2.071962,2.190485 14.8125,15.40625 14.8125,15.40625 5.34e-4,5.57e-4 0.03048,0.03049 0.03125,0.03125 0.01039,0.01039 -0.0019,0.02958 0,0.03125 4.75e-4,4.25e-4 -0.0062,0.02522 0,0.03125 0.0062,0.006 0.0277,-0.0036 0.03125,0 0.0035,0.0036 0.02924,-0.002 0.03125,0 -1.28e-4,-9.2e-5 -0.0028,0.02869 0,0.03125 0.0059,0.0029 0.02315,-0.0041 0.03125,0 0.01544,0.0055 0.03121,-1.7e-5 0.03125,0 l 0,0.03125 c 0.0069,0.0035 0.02134,-0.005 0.03125,0 0.0036,1.97e-4 0.03107,0.03123 0.03125,0.03125 0.0012,6e-5 0.02842,-2.09e-4 0.03125,0 0.01068,0.0061 0.0312,-3.4e-5 0.03125,0 4.5e-5,1.4e-5 0.0103,0.02124 0.03125,0.03125 0.01397,0.0067 0.0312,-3.2e-5 0.03125,0 6e-5,4e-5 0.02549,-0.0042 0.03125,0 -0.0034,2.3e-5 0.02594,-3.97e-4 0.03125,0 1.82e-4,6.9e-5 0.02815,-0.0014 0.03125,0 0.0026,0.0013 0.02925,-9.96e-4 0.03125,0 0.002,-9.94e-4 0.02861,0.0013 0.03125,0 0.0099,1.15e-4 0.02999,6.5e-5 0.03125,0 0.0053,-3.97e-4 0.03462,2.3e-5 0.03125,0 0.0058,-0.0042 0.03119,4e-5 0.03125,0 0.0116,-0.005 0.0211,0.0044 0.03125,0 0.0099,-0.0014 -9.1e-5,-0.03124 0,-0.03125 0.01395,-0.0067 0.03122,1e-5 0.03125,0 4.7e-5,-3.4e-5 0.02068,0.0061 0.03125,0 0.0121,-0.0062 0.03128,-1.1e-5 0.03125,0 0.0035,-0.002 -1.4e-5,-0.03124 0,-0.03125 0.0037,-3.08e-4 0.02945,9.8e-5 0.03125,0 0.0086,-0.0044 0.025,0.0032 0.03125,0 0.0031,-0.0016 -6.55e-4,-0.03092 0,-0.03125 3.4e-5,-1.7e-5 0.01541,0.0058 0.03125,0 0.0081,-0.0063 0.03132,-4.4e-5 0.03125,0 l 0,-0.03125 c 0.0037,-0.0037 0.03076,3.92e-4 0.03125,0 0.0062,-6e-4 0.02823,1.42e-4 0.03125,0 L 32.5,43.5 c 0.0019,-0.0017 -0.0362,0.0042 0,-0.03125 5.6e-5,-5.6e-5 0.06234,-0.03115 0.0625,-0.03125 0.0061,-0.0035 0.02857,-0.02985 0.03125,-0.03125 0.07664,-0.08306 11.911938,-12.882865 14.03125,-15.25 1.254701,-1.401421 0.942286,-3.206189 -0.0625,-4.1875 -0.502361,-0.490624 -1.175144,-0.829984 -1.90625,-0.84375 -0.733142,-0.0138 -1.502153,0.2693 -2.09375,0.9375 -1.77572,2.00565 -9.286433,10.092386 -10.28125,11.15625 a 0.29821889,0.29821889 0 0 1 -0.4375,0 C 30.797487,34.142471 22.555801,25.696288 20.90625,23.9375 20.316758,23.30897 19.554632,23.068908 18.84375,23.125 z"
     transform="matrix(-1,0,0,-1,63.405025,60.064832)"
     id="path2988"
     style="opacity:0.2;fill:#000000;stroke:none" />
  <path
     d="m 18.875,23.46875 c -0.930808,0.07345 -1.835377,0.704538 -2.28125,1.53125 -0.437884,0.8119 -0.403294,1.89236 0.4375,2.78125 2.06224,2.180206 14.8125,15.40625 14.8125,15.40625 0.0047,0.0051 -0.0049,0.02623 0,0.03125 0.005,0.0049 0.02614,-0.0048 0.03125,0 0.0055,0.0044 -0.0056,0.02704 0,0.03125 0.0056,0.0042 0.02557,-0.0041 0.03125,0 0.0061,0.0035 0.02509,-0.0033 0.03125,0 0.0062,0.0031 -0.0063,0.02828 0,0.03125 0.0065,0.0026 0.02472,-0.0025 0.03125,0 0.0067,0.002 0.0245,-0.0018 0.03125,0 0.0069,0.0013 0.02435,-0.0011 0.03125,0 0.007,5.42e-4 0.02428,-3.61e-4 0.03125,0 0.007,-3.61e-4 0.02429,5.42e-4 0.03125,0 0.0069,-0.0011 0.02438,0.0013 0.03125,0 0.0068,-0.0018 0.02455,0.002 0.03125,0 0.0065,-0.0025 0.02479,0.0026 0.03125,0 0.0063,-0.003 -0.0062,-0.02811 0,-0.03125 0.0062,-0.0033 0.02518,0.0035 0.03125,0 0.0057,-0.0041 0.02568,0.0042 0.03125,0 0.0056,-0.0042 -0.0055,-0.0269 0,-0.03125 0.0051,-0.0048 0.02627,0.0049 0.03125,0 0.0049,-0.005 -0.0047,-0.0261 0,-0.03125 0,0 11.949823,-12.952776 14.0625,-15.3125 1.136945,-1.269895 0.842804,-2.802616 -0.03125,-3.65625 -0.442565,-0.432226 -1.033714,-0.738278 -1.65625,-0.75 -0.622395,-0.01172 -1.282577,0.24521 -1.8125,0.84375 C 40.998712,26.396444 32.874281,35.113696 32.25,35.78125 a 0.25799574,0.25799574 0 0 1 -0.09375,0.0625 0.25799574,0.25799574 0 0 1 -0.125,0 0.25799574,0.25799574 0 0 1 -0.15625,-0.0625 C 31.220292,35.107246 22.364958,26.009363 20.65625,24.1875 20.146782,23.644293 19.482482,23.420817 18.875,23.46875 z"
     transform="matrix(-1,0,0,-1,63.405025,60.064832)"
     id="path2986"
     style="opacity:0.3;fill:#000000;stroke:none" />
  <path
     d="m 31.345703,17.077544 c 0,0 -11.949154,12.948715 -14.050848,15.296172 -2.101694,2.347458 1.127119,5.339371 3.059322,3.156974 1.932204,-2.182397 10.991526,-11.872638 10.991526,-11.872638 0,0 9.852779,10.127724 11.637119,12.030227 1.78434,1.902503 5.231845,-1.04548 3.177486,-3.217355 -2.054359,-2.171875 -14.814605,-15.39338 -14.814605,-15.39338 z"
     id="path2998"
     style="fill:#ffffff;stroke:none" />
</svg>
