<?xml version="1.0" encoding="UTF-8" standalone="no"?>
<!-- Created with Inkscape (http://www.inkscape.org/) -->

<svg
   xmlns:dc="http://purl.org/dc/elements/1.1/"
   xmlns:cc="http://creativecommons.org/ns#"
   xmlns:rdf="http://www.w3.org/1999/02/22-rdf-syntax-ns#"
   xmlns:svg="http://www.w3.org/2000/svg"
   xmlns="http://www.w3.org/2000/svg"
   xmlns:sodipodi="http://sodipodi.sourceforge.net/DTD/sodipodi-0.dtd"
   xmlns:inkscape="http://www.inkscape.org/namespaces/inkscape"
   version="1.1"
   width="64"
   height="64"
   id="svg2985"
   inkscape:version="0.48.5 r"
   sodipodi:docname="back.svg">
  <sodipodi:namedview
     pagecolor="#ffffff"
     bordercolor="#666666"
     borderopacity="1"
     objecttolerance="10"
     gridtolerance="10"
     guidetolerance="10"
     inkscape:pageopacity="0"
     inkscape:pageshadow="2"
     inkscape:window-width="640"
     inkscape:window-height="480"
     id="namedview13"
     showgrid="false"
     inkscape:zoom="2.6074563"
     inkscape:cx="20.78182"
     inkscape:cy="33.660826"
     inkscape:window-x="47"
     inkscape:window-y="0"
     inkscape:window-maximized="0"
     inkscape:current-layer="svg2985" />
  <defs
     id="defs2987">
    <filter
       color-interpolation-filters="sRGB"
       id="filter3791">
      <feGaussianBlur
         id="feGaussianBlur3793"
         stdDeviation="1.5511719" />
    </filter>
  </defs>
  <metadata
     id="metadata2990">
    <rdf:RDF>
      <cc:Work
         rdf:about="">
        <dc:format>image/svg+xml</dc:format>
        <dc:type
           rdf:resource="http://purl.org/dc/dcmitype/StillImage" />
        <dc:title />
      </cc:Work>
    </rdf:RDF>
  </metadata>
  <g
     id="g3793"
     style="display:inline">
    <path
       sodipodi:type="inkscape:offset"
       inkscape:radius="-0.46020505"
       inkscape:original="M 25.53125 10.3125 A 1.0108613 1.0108613 0 0 0 24.9375 10.59375 L 4.25 31.28125 A 1.0108613 1.0108613 0 0 0 4.25 32.71875 L 24.9375 53.4375 A 1.0108613 1.0108613 0 0 0 26.65625 52.71875 L 26.65625 46.4375 A 1.0108613 1.0108613 0 0 0 26.375 45.71875 L 15.65625 34.96875 L 59 34.96875 A 1.0108613 1.0108613 0 0 0 60 33.96875 L 60 30 A 1.0108613 1.0108613 0 0 0 59 29 L 15.46875 29 L 26.375 18.0625 A 1.0108613 1.0108613 0 0 0 26.65625 17.34375 L 26.65625 11.3125 A 1.0108613 1.0108613 0 0 0 25.53125 10.3125 z "
       style="opacity:0.1;fill:#000000;stroke:none;display:inline"
       id="path2994"
       d="m 25.46875,10.78125 c -0.01927,0.0063 -0.01226,0.02411 -0.03125,0.03125 -0.01868,0.0079 -0.01292,-0.0087 -0.03125,0 -0.01833,0.0087 -0.01329,0.02182 -0.03125,0.03125 -0.01755,0.01017 -0.01413,-0.01089 -0.03125,0 -0.01712,0.01089 0.01665,0.01966 0,0.03125 -0.01665,0.01159 -0.01509,-0.01226 -0.03125,0 -0.01616,0.01226 -0.01561,0.01833 -0.03125,0.03125 -0.0075,0.0068 -0.03079,-4.27e-4 -0.03125,0 -4.56e-4,4.27e-4 0.0073,0.02416 0,0.03125 L 4.5625,31.59375 c -0.017236,0.01704 0.016372,0.01337 0,0.03125 -0.016372,0.01788 -0.015781,0.01259 -0.03125,0.03125 -0.014528,0.0194 -0.017699,0.01115 -0.03125,0.03125 -0.013551,0.0201 0.012542,0.01051 0,0.03125 -0.012542,0.02074 -0.019749,0.0099 -0.03125,0.03125 -0.010433,0.02188 -0.021911,0.0089 -0.03125,0.03125 -0.00934,0.02237 0.00822,0.0084 0,0.03125 -0.00822,0.0228 0.00709,0.0081 0,0.03125 -0.00709,0.02318 0.00593,0.0077 0,0.03125 -0.00593,0.0235 -0.026488,0.0075 -0.03125,0.03125 -0.00358,0.02398 0.00239,0.0071 0,0.03125 -0.00239,0.02412 0.0012,0.007 0,0.03125 -0.0012,0.02421 0,0.007 0,0.03125 0,0.02424 -0.0012,0.007 0,0.03125 0.0012,0.02421 -0.00239,0.0071 0,0.03125 0.00239,0.02412 -0.00358,0.0073 0,0.03125 0.00476,0.02377 0.025319,0.0077 0.03125,0.03125 0.00593,0.0235 -0.00709,0.0081 0,0.03125 0.00709,0.02318 -0.00822,0.0084 0,0.03125 0.00822,0.0228 -0.00934,0.0089 0,0.03125 0.00934,0.02237 0.020817,0.0094 0.03125,0.03125 0.011501,0.02134 0.018708,0.01051 0.03125,0.03125 0.012542,0.02074 -0.013551,0.01115 0,0.03125 0.013551,0.0201 0.016722,0.01185 0.03125,0.03125 0.015469,0.01866 0.014878,0.01337 0.03125,0.03125 0.016372,0.01788 -0.017236,0.0142 0,0.03125 L 25.25,53.125 c 4.01e-4,3.8e-4 0.02462,-0.006 0.03125,0 0.01371,0.0116 0.01713,0.02016 0.03125,0.03125 0.01452,0.01057 0.01636,0.02122 0.03125,0.03125 0.01525,0.0095 0.01566,-0.0089 0.03125,0 0.01559,0.0089 -0.01591,0.02291 0,0.03125 0.01591,0.0083 0.01505,-0.0077 0.03125,0 0.0162,0.0077 0.01478,-0.0072 0.03125,0 0.01672,0.0065 0.0143,0.02532 0.03125,0.03125 0.01716,0.0053 0.01391,-0.0047 0.03125,0 0.01734,0.0047 0.01375,-0.004 0.03125,0 0.01763,0.0034 0.0135,-0.0027 0.03125,0 0.01775,0.0027 0.01341,-0.0021 0.03125,0 0.0179,0.0014 0.01331,0.03047 0.03125,0.03125 0.01794,7.79e-4 0.01329,-1.21e-4 0.03125,0 0.01795,-5.36e-4 0.01333,-0.03006 0.03125,-0.03125 0.01786,-0.0018 0.01347,0.0025 0.03125,0 0.01778,-0.0025 0.01357,0.0031 0.03125,0 0.01755,-0.0038 0.01385,0.0044 0.03125,0 0.0174,-0.0044 0.01402,0.0051 0.03125,0 0.01703,-0.0057 0.01444,-0.02493 0.03125,-0.03125 0.01657,-0.0069 0.01495,0.0075 0.03125,0 0.0163,-0.0075 0.01523,0.0081 0.03125,0 0.01602,-0.0081 -0.01571,-0.02255 0,-0.03125 0.01571,-0.0087 0.01587,0.0093 0.03125,0 0.01503,-0.0098 0.01659,-0.02088 0.03125,-0.03125 0.01427,-0.0109 0.01739,0.01142 0.03125,0 0.01386,-0.01142 -0.01343,-0.01933 0,-0.03125 0.01343,-0.01192 0.01826,0.0124 0.03125,0 0.01299,-0.0124 -0.01253,-0.01838 0,-0.03125 0.01253,-0.01287 0.0192,0.01332 0.03125,0 0.01205,-0.01332 -0.01155,-0.0175 0,-0.03125 0.01155,-0.01375 0.02021,0.01416 0.03125,0 0.01104,-0.01416 -0.01051,-0.01669 0,-0.03125 0.01,-0.01493 0.02183,-0.01596 0.03125,-0.03125 0.0089,-0.01562 -0.0083,-0.01531 0,-0.03125 0.0083,-0.01594 0.02356,-0.01502 0.03125,-0.03125 0.0071,-0.0165 -0.0065,-0.0145 0,-0.03125 0.0059,-0.01697 0.02602,-0.01407 0.03125,-0.03125 0.0052,-0.01718 -0.0046,-0.01389 0,-0.03125 0.004,-0.01752 -0.0033,-0.0136 0,-0.03125 0.0027,-0.01776 -0.002,-0.01341 0,-0.03125 0.002,-0.01784 -0.0014,-0.01335 0,-0.03125 7.08e-4,-0.01794 -5.1e-5,-0.01329 0,-0.03125 l 0,-6.28125 c 4.49e-4,-0.02401 7.26e-4,-0.0073 0,-0.03125 -7.26e-4,-0.024 0.0019,-0.0073 0,-0.03125 -0.0019,-0.02393 0.0031,-0.0074 0,-0.03125 -0.0031,-0.02381 0.0042,-0.0076 0,-0.03125 -0.0042,-0.02363 0.0054,-0.0079 0,-0.03125 -0.0065,-0.02311 -0.02361,-0.0085 -0.03125,-0.03125 -0.0076,-0.02276 0.0087,-0.0089 0,-0.03125 -0.0087,-0.02236 0.0098,-0.0093 0,-0.03125 -0.0098,-0.0219 -0.02036,-0.0099 -0.03125,-0.03125 -0.01193,-0.02084 0.01293,-0.01102 0,-0.03125 -0.01293,-0.02023 -0.01734,-0.01168 -0.03125,-0.03125 -0.01391,-0.01957 0.01485,-0.01238 0,-0.03125 -0.01485,-0.01887 -0.0155,0.01812 -0.03125,0 -0.0079,-0.0091 4.99e-4,-0.0307 0,-0.03125 l -10.71875,-10.75 A 0.46025107,0.46025107 0 0 1 15.65625,34.5 L 59,34.5 c 0.02374,-2.54e-4 0.0075,0.0014 0.03125,0 0.0237,-0.0014 0.0076,0.0025 0.03125,0 0.02345,-0.0037 0.008,0.0048 0.03125,0 0.02325,-0.0048 0.0083,0.0059 0.03125,0 0.02299,-0.0059 0.0086,-0.02421 0.03125,-0.03125 0.02267,-0.007 0.0089,0.0081 0.03125,0 0.02189,-0.0092 0.0098,0.01025 0.03125,0 0.02141,-0.01025 0.01036,-0.01997 0.03125,-0.03125 0.02089,-0.01128 0.01093,0.01227 0.03125,0 0.02032,-0.01227 -0.01971,-0.01801 0,-0.03125 0.01971,-0.01324 0.01221,0.01418 0.03125,0 0.01904,-0.01418 0.01292,-0.01616 0.03125,-0.03125 0.01758,-0.01596 0.01446,-0.01446 0.03125,-0.03125 0.01679,-0.01679 0.01529,-0.01367 0.03125,-0.03125 0.01509,-0.01833 0.01707,-0.01221 0.03125,-0.03125 0.01418,-0.01904 -0.01324,-0.01154 0,-0.03125 0.01324,-0.01971 0.01898,0.02032 0.03125,0 0.01227,-0.02032 -0.01128,-0.01036 0,-0.03125 0.01128,-0.02089 0.021,-0.0098 0.03125,-0.03125 0.01025,-0.02141 -0.0092,-0.0094 0,-0.03125 0.0081,-0.02231 -0.007,-0.0086 0,-0.03125 0.007,-0.02267 0.02531,-0.0083 0.03125,-0.03125 0.0059,-0.02299 -0.0048,-0.008 0,-0.03125 0.0048,-0.02325 -0.0037,-0.0078 0,-0.03125 0.0025,-0.02361 -0.0014,-0.0075 0,-0.03125 0.0014,-0.0237 -2.54e-4,-0.0075 0,-0.03125 l 0,-3.96875 c -2.54e-4,-0.02374 0.0014,-0.0075 0,-0.03125 -0.0014,-0.0237 0.0025,-0.0076 0,-0.03125 -0.0037,-0.02345 0.0048,-0.008 0,-0.03125 -0.0048,-0.02325 0.0059,-0.0083 0,-0.03125 -0.0059,-0.02299 -0.02421,-0.0086 -0.03125,-0.03125 -0.007,-0.02267 0.0081,-0.0089 0,-0.03125 -0.0092,-0.02189 0.01025,-0.0098 0,-0.03125 -0.01025,-0.02142 -0.01997,-0.01036 -0.03125,-0.03125 -0.01128,-0.02089 0.01227,-0.01093 0,-0.03125 -0.01227,-0.02032 -0.01801,0.01971 -0.03125,0 -0.01324,-0.01971 0.01418,-0.01221 0,-0.03125 -0.01418,-0.01904 -0.01616,-0.01292 -0.03125,-0.03125 -0.01596,-0.01758 -0.01446,-0.01446 -0.03125,-0.03125 -0.01679,-0.01679 -0.01367,-0.01529 -0.03125,-0.03125 -0.01833,-0.01509 -0.01221,-0.01707 -0.03125,-0.03125 -0.01904,-0.01418 -0.01154,0.01324 -0.03125,0 -0.01971,-0.01324 0.02032,-0.01898 0,-0.03125 -0.02032,-0.01227 -0.01036,0.01128 -0.03125,0 -0.02089,-0.01128 -0.0098,-0.021 -0.03125,-0.03125 -0.02141,-0.01025 -0.0094,0.0092 -0.03125,0 -0.02231,-0.0081 -0.0086,0.007 -0.03125,0 -0.02267,-0.007 -0.0083,-0.02531 -0.03125,-0.03125 -0.02299,-0.0059 -0.008,0.0048 -0.03125,0 -0.02325,-0.0048 -0.0078,0.0037 -0.03125,0 -0.02361,-0.0025 -0.0075,0.0014 -0.03125,0 -0.0237,-0.0014 -0.0075,2.54e-4 -0.03125,0 l -43.53125,0 A 0.46025107,0.46025107 0 0 1 15.15625,28.6875 L 26.03125,17.75 c 0.0083,-0.0087 0.03075,5.46e-4 0.03125,0 4.99e-4,-5.46e-4 -0.0079,-0.02219 0,-0.03125 0.01575,-0.01812 0.0164,0.01887 0.03125,0 0.01485,-0.01887 -0.01391,-0.01168 0,-0.03125 0.01391,-0.01957 0.01832,-0.01102 0.03125,-0.03125 0.01293,-0.02023 -0.01193,-0.01041 0,-0.03125 0.01089,-0.0214 0.02142,-0.0093 0.03125,-0.03125 0.0098,-0.0219 -0.0087,-0.0089 0,-0.03125 0.0087,-0.02236 -0.0076,-0.0085 0,-0.03125 0.0076,-0.02276 0.02473,-0.0081 0.03125,-0.03125 0.0054,-0.0234 -0.0042,-0.0076 0,-0.03125 0.0042,-0.02363 -0.0031,-0.0074 0,-0.03125 0.0031,-0.02381 -0.0019,-0.0073 0,-0.03125 0.0019,-0.02393 -7.26e-4,-0.0073 0,-0.03125 7.26e-4,-0.024 4.49e-4,-0.0072 0,-0.03125 l 0,-6.03125 c -1.12e-4,-0.02574 0.0015,-0.0056 0,-0.03125 -0.0015,-0.0257 0.0028,-0.0057 0,-0.03125 -0.0028,-0.02558 0.0041,-0.0058 0,-0.03125 -0.0041,-0.0254 0.0055,-0.0061 0,-0.03125 -0.0055,-0.02515 0.0068,-0.0064 0,-0.03125 -0.0068,-0.02483 -0.02317,0.02444 -0.03125,0 -0.0081,-0.02444 0.0093,-0.0073 0,-0.03125 -0.0093,-0.02398 0.01059,-0.0078 0,-0.03125 -0.01059,-0.02346 -0.01944,-0.0084 -0.03125,-0.03125 -0.01181,-0.02287 0.01299,-0.009 0,-0.03125 -0.01299,-0.02222 -0.01711,-0.0097 -0.03125,-0.03125 -0.01525,-0.02073 -0.01493,-0.01135 -0.03125,-0.03125 -0.01632,-0.0199 0.01734,-0.01223 0,-0.03125 -0.01734,-0.01902 -0.01294,0.01808 -0.03125,0 -0.01831,-0.01808 -0.01201,-0.01415 -0.03125,-0.03125 -0.01924,-0.0171 0.02011,-0.01518 0,-0.03125 -0.02011,-0.01607 -0.01033,0.01499 -0.03125,0 -0.02092,-0.01499 -0.0096,-0.01738 -0.03125,-0.03125 -0.02168,-0.01387 -0.0089,0.01272 -0.03125,0 -0.02238,-0.01272 0.02301,-0.01973 0,-0.03125 -0.02301,-0.01152 -0.0077,0.0103 -0.03125,0 -0.02359,-0.0103 -0.0072,0.009 -0.03125,0 -0.02409,-0.009 -0.0067,-0.02348 -0.03125,-0.03125 -0.02454,-0.0078 -0.0063,0.0065 -0.03125,0 -0.02491,-0.0065 -0.006,0.0052 -0.03125,0 -0.02522,-0.0052 -0.0058,0.0038 -0.03125,0 -0.02545,-0.0038 -0.0056,0.0025 -0.03125,0 -0.02562,-0.0025 -0.0055,0.0011 -0.03125,0 -0.02574,2.11e-4 -0.0056,-0.0016 -0.03125,0 -0.02569,0.0016 -0.0057,-0.0029 -0.03125,0 -0.02016,0.0023 -0.0112,-0.0031 -0.03125,0 -0.02005,0.0031 -0.01134,-0.0039 -0.03125,0 -0.01991,0.0039 -0.01152,-0.0047 -0.03125,0 -0.01951,0.0055 -0.01198,-0.0063 -0.03125,0 z" />
    <path
       sodipodi:type="inkscape:offset"
       inkscape:radius="-0.34322035"
       inkscape:original="M 25.65625 10.59375 A 0.69258916 0.69258916 0 0 0 25.5 10.625 A 0.69258916 0.69258916 0 0 0 25.15625 10.8125 L 4.46875 31.5 A 0.69258916 0.69258916 0 0 0 4.46875 32.5 L 25.15625 53.21875 A 0.69258916 0.69258916 0 0 0 26.34375 52.71875 L 26.34375 46.4375 A 0.69258916 0.69258916 0 0 0 26.15625 45.9375 L 14.90625 34.65625 L 59 34.65625 A 0.69258916 0.69258916 0 0 0 59.6875 33.96875 L 59.6875 30 A 0.69258916 0.69258916 0 0 0 59 29.3125 L 14.71875 29.3125 L 26.15625 17.84375 A 0.69258916 0.69258916 0 0 0 26.34375 17.34375 L 26.34375 11.3125 A 0.69258916 0.69258916 0 0 0 25.65625 10.59375 z "
       style="opacity:0.2;fill:#000000;stroke:none;display:inline"
       id="path2992"
       d="m 25.59375,10.9375 a 0.34325468,0.34325468 0 0 1 -0.03125,0.03125 c -0.01187,0.0035 -0.01951,-0.0039 -0.03125,0 -0.01159,0.0043 -0.01982,-0.0047 -0.03125,0 -0.01125,0.0051 0.01106,0.02572 0,0.03125 -0.01106,0.0055 -0.02039,-0.0059 -0.03125,0 -0.01041,0.0067 -0.02109,-0.0071 -0.03125,0 -0.01016,0.0071 0.0099,0.02384 0,0.03125 -0.0096,0.0078 -0.02191,-0.0081 -0.03125,0 -0.009,0.0084 0.0087,0.0225 0,0.03125 L 4.71875,31.75 c -0.012566,0.01204 -0.019307,-0.01266 -0.03125,0 -0.011943,0.01266 0.01129,0.018 0,0.03125 -0.01129,0.01325 -0.020642,-0.0138 -0.03125,0 -0.010608,0.0138 0.0099,0.01693 0,0.03125 -0.00916,0.0148 0.00841,0.01601 0,0.03125 -0.00841,0.01524 -0.023621,-0.01564 -0.03125,0 -0.00763,0.01564 0.00683,0.01524 0,0.03125 -0.00602,0.01633 0.00518,0.01463 0,0.03125 -0.00434,0.01686 -0.027764,0.0142 -0.03125,0.03125 -0.00262,0.01721 0.00175,0.01393 0,0.03125 -8.771e-4,0.01738 0,0.01384 0,0.03125 0,0.01741 -8.771e-4,0.01387 0,0.03125 0.00175,0.01732 -0.00262,0.01404 0,0.03125 0.00349,0.01705 0.026909,0.01439 0.03125,0.03125 0.00518,0.01662 -0.00602,0.01492 0,0.03125 0.00683,0.01601 -0.00763,0.01561 0,0.03125 0.00763,0.01564 0.022843,-0.01524 0.03125,0 0.00841,0.01524 -0.00916,0.01645 0,0.03125 0.0099,0.01432 -0.010608,0.01745 0,0.03125 0.010608,0.0138 0.01996,-0.01325 0.03125,0 0.01129,0.01325 -0.011943,0.01859 0,0.03125 0.011943,0.01266 0.018684,-0.01204 0.03125,0 l 20.6875,20.71875 c 0.009,0.0092 -0.0094,0.02238 0,0.03125 0.0097,0.0085 0.02126,-0.0082 0.03125,0 0.01029,0.0078 -0.01057,0.02387 0,0.03125 0.01057,0.0074 0.02041,-0.007 0.03125,0 0.01109,0.0066 0.01992,-0.0062 0.03125,0 0.01133,0.0062 -0.01155,0.02552 0,0.03125 0.01176,0.0053 0.0193,-0.0048 0.03125,0 0.01227,0.0039 0.01884,-0.0035 0.03125,0 0.01253,0.003 0.01861,-0.0025 0.03125,0 0.01264,0.0025 -0.01272,0.02918 0,0.03125 0.01279,0.0016 0.01841,-0.0011 0.03125,0 0.01288,6.39e-4 0.01836,-1.58e-4 0.03125,0 0.01289,-3.24e-4 0.01838,8.05e-4 0.03125,0 0.01277,-0.0018 0.01855,0.0022 0.03125,0 0.0127,-0.0022 -0.01261,-0.02854 0,-0.03125 0.01261,-0.0027 0.01875,0.0032 0.03125,0 0.01222,-0.0041 0.01919,0.0046 0.03125,0 0.01188,-0.005 0.01956,0.0054 0.03125,0 0.01169,-0.0054 -0.01148,-0.02537 0,-0.03125 0.01125,-0.0063 0.02024,0.0067 0.03125,0 0.01047,-0.0075 0.02106,-0.02335 0.03125,-0.03125 0.0096,-0.0086 0.02201,0.009 0.03125,0 0.0092,-0.009 -0.0089,-0.02192 0,-0.03125 0.0082,-0.01 0.02345,-0.02098 0.03125,-0.03125 0.007,-0.01082 -0.0066,-0.02018 0,-0.03125 0.0066,-0.01107 0.02507,0.01131 0.03125,0 0.0062,-0.01131 -0.0058,-0.01971 0,-0.03125 0.0049,-0.01193 -0.0044,-0.01914 0,-0.03125 0.004,-0.01226 0.02774,0.0124 0.03125,0 0.0035,-0.0124 -0.003,-0.01872 0,-0.03125 0.0026,-0.01263 -0.0021,-0.01853 0,-0.03125 0.0016,-0.01279 -0.0012,-0.01841 0,-0.03125 1.9e-4,-0.01289 2.92e-4,-0.01836 0,-0.03125 l 0,-6.28125 c 6.32e-4,-0.01707 2.13e-4,-0.01417 0,-0.03125 -2.13e-4,-0.01708 0.0011,-0.0142 0,-0.03125 -0.0019,-0.01698 0.0027,-0.01439 0,-0.03125 -0.0036,-0.0167 0.0044,-0.01474 0,-0.03125 -0.0052,-0.01627 -0.02525,-0.01526 -0.03125,-0.03125 -0.0068,-0.01568 0.0075,-0.01593 0,-0.03125 -0.0083,-0.01493 -0.02223,-0.01675 -0.03125,-0.03125 -0.0097,-0.01404 0.01041,-0.01771 0,-0.03125 l -0.03125,0 -11.25,-11.28125 a 0.34325468,0.34325468 0 0 1 0.25,-0.59375 l 44.09375,0 c 0.01676,-9.39e-4 0.01455,0.0018 0.03125,0 0.0167,-0.0018 0.01466,0.0026 0.03125,0 0.01645,-0.0034 0.01498,0.0042 0.03125,0 0.01604,-0.0049 0.01546,-0.02553 0.03125,-0.03125 0.01549,-0.0065 0.01609,0.0072 0.03125,0 0.01479,-0.008 0.01687,-0.02258 0.03125,-0.03125 0.01394,-0.0094 0.01778,0.01002 0.03125,0 0.01347,-0.01002 -0.01297,-0.02059 0,-0.03125 0.01244,-0.01128 0.01938,0.01187 0.03125,0 0.01187,-0.01187 -0.01128,-0.01881 0,-0.03125 0.01066,-0.01297 0.02123,0.01347 0.03125,0 0.01002,-0.01347 -0.0094,-0.01731 0,-0.03125 0.0087,-0.01438 0.02329,-0.01646 0.03125,-0.03125 0.0072,-0.01516 -0.0065,-0.01576 0,-0.03125 0.0057,-0.01579 0.0263,-0.01521 0.03125,-0.03125 0.0042,-0.01627 -0.0034,-0.0148 0,-0.03125 0.0026,-0.01659 -0.0018,-0.01455 0,-0.03125 0.0018,-0.0167 -9.39e-4,-0.01449 0,-0.03125 l 0,-3.96875 c -9.39e-4,-0.01676 0.0018,-0.01455 0,-0.03125 -0.0018,-0.0167 0.0026,-0.01466 0,-0.03125 -0.0034,-0.01645 0.0042,-0.01498 0,-0.03125 -0.0049,-0.01604 -0.02553,-0.01546 -0.03125,-0.03125 -0.0065,-0.01549 0.0072,-0.01609 0,-0.03125 -0.008,-0.01479 -0.02258,-0.01687 -0.03125,-0.03125 -0.0094,-0.01394 0.01002,-0.01778 0,-0.03125 -0.01002,-0.01347 -0.02059,0.01297 -0.03125,0 -0.01128,-0.01244 0.01187,-0.01938 0,-0.03125 -0.01187,-0.01187 -0.01881,0.01128 -0.03125,0 -0.01297,-0.01066 0.01347,-0.02123 0,-0.03125 -0.01347,-0.01002 -0.01731,0.0094 -0.03125,0 -0.01438,-0.0087 -0.01646,-0.02329 -0.03125,-0.03125 -0.01516,-0.0072 -0.01576,0.0065 -0.03125,0 -0.01579,-0.0057 -0.01521,-0.0263 -0.03125,-0.03125 -0.01627,-0.0042 -0.0148,0.0034 -0.03125,0 -0.01659,-0.0026 -0.01455,0.0018 -0.03125,0 -0.0167,-0.0018 -0.01449,9.39e-4 -0.03125,0 l -44.28125,0 A 0.34325468,0.34325468 0 0 1 14.4375,29.125 0.34325468,0.34325468 0 0 1 14.46875,29.0625 l 11.4375,-11.46875 c 0.01107,-0.01301 0.02084,0.01354 0.03125,0 0.01041,-0.01354 -0.0097,-0.01721 0,-0.03125 0.009,-0.0145 0.02295,-0.01632 0.03125,-0.03125 0.0075,-0.01532 -0.0068,-0.01557 0,-0.03125 0.006,-0.01599 0.02605,-0.01498 0.03125,-0.03125 0.0044,-0.01651 -0.0036,-0.01455 0,-0.03125 0.0027,-0.01686 -0.0019,-0.01428 0,-0.03125 0.0011,-0.01705 -2.13e-4,-0.01417 0,-0.03125 2.13e-4,-0.01708 6.32e-4,-0.01418 0,-0.03125 l 0,-6.03125 c 6.53e-4,-0.01727 2.12e-4,-0.01397 0,-0.03125 -2.12e-4,-0.01728 0.0011,-0.014 0,-0.03125 -0.0019,-0.01718 0.0028,-0.01419 0,-0.03125 -0.0036,-0.0169 0.0045,-0.01456 0,-0.03125 -0.0045,-0.01669 -0.02593,0.01645 -0.03125,0 -0.0053,-0.01645 0.0061,-0.01509 0,-0.03125 -0.0069,-0.01583 0.0077,-0.01578 0,-0.03125 -0.0085,-0.01506 -0.02203,-0.01663 -0.03125,-0.03125 -0.0099,-0.01414 0.01064,-0.01763 0,-0.03125 -0.01064,-0.01362 -0.01994,0.01307 -0.03125,0 -0.01131,-0.01307 0.01195,-0.01876 0,-0.03125 -0.01256,-0.01188 -0.01811,0.01123 -0.03125,0 -0.01314,-0.01123 0.01368,-0.02069 0,-0.03125 -0.01368,-0.01056 -0.01706,0.0099 -0.03125,0 -0.01467,-0.0091 -0.01614,-0.02285 -0.03125,-0.03125 -0.01551,-0.0076 -0.01538,0.0068 -0.03125,0 -0.01619,-0.006 -0.01477,0.0052 -0.03125,0 -0.01648,-0.0052 0.01672,-0.02686 0,-0.03125 -0.01672,-0.0044 -0.01433,0.0036 -0.03125,0 -0.01707,-0.0027 -0.01406,0.0018 -0.03125,0 -0.01984,0.0016 -0.01154,-0.0028 -0.03125,0 -0.01952,0.0039 -0.01199,-0.005 -0.03125,0 -0.01926,0.005 -0.01231,-0.0061 -0.03125,0 z" />
    <path
       sodipodi:type="inkscape:offset"
       inkscape:radius="-0.28245288"
       inkscape:original="M 25.59375 10.84375 A 0.45310221 0.45310221 0 0 0 25.5 10.875 A 0.45310221 0.45310221 0 0 0 25.34375 11 L 4.65625 31.6875 A 0.45310221 0.45310221 0 0 0 4.65625 32.3125 L 25.34375 53.03125 A 0.45310221 0.45310221 0 0 0 26.09375 52.71875 L 26.09375 46.4375 A 0.45310221 0.45310221 0 0 0 25.96875 46.125 L 14.28125 34.40625 L 59 34.40625 A 0.45310221 0.45310221 0 0 0 59.4375 33.96875 L 59.4375 30 A 0.45310221 0.45310221 0 0 0 59 29.5625 L 14.09375 29.5625 L 25.96875 17.65625 A 0.45310221 0.45310221 0 0 0 26.09375 17.34375 L 26.09375 11.3125 A 0.45310221 0.45310221 0 0 0 25.59375 10.84375 z "
       style="opacity:0.3;fill:#000000;stroke:none;display:inline"
       id="path2990"
       d="m 25.59375,11.125 c -0.0058,0.0036 0.0057,0.02745 0,0.03125 -0.005,0.0047 -0.02643,-0.0048 -0.03125,0 -0.0045,0.0051 0.0044,0.02604 0,0.03125 a 0.28248113,0.28248113 0 0 1 -0.03125,0 L 4.875,31.875 l -0.03125,0 c -0.00763,0.0088 0.0072,0.02208 0,0.03125 -0.00534,0.01037 0.00484,0.02064 0,0.03125 -0.00484,0.01061 -0.026918,-0.01083 -0.03125,0 -0.00328,0.01119 0.00275,0.01992 0,0.03125 -0.00111,0.01161 5.545e-4,0.0196 0,0.03125 5.545e-4,0.01165 -0.00111,0.01964 0,0.03125 0.00275,0.01133 -0.00328,0.02006 0,0.03125 0.00433,0.01083 0.026408,-0.01061 0.03125,0 0.00484,0.01061 -0.00534,0.02088 0,0.03125 0.0072,0.0092 -0.00763,0.02243 0,0.03125 0.00763,0.0088 0.023206,-0.0084 0.03125,0 l 20.65625,20.71875 c 0.007,0.0049 0.02411,-0.0047 0.03125,0 0.0078,0.0034 0.02331,-0.0031 0.03125,0 0.0084,0.0017 0.02284,-0.0014 0.03125,0 0.0085,0.0011 -0.0085,0.03047 0,0.03125 0.0085,1.89e-4 0.02273,1.07e-4 0.03125,0 0.0085,-6.98e-4 -0.0085,-0.03026 0,-0.03125 0.0084,-0.0013 0.02288,0.0016 0.03125,0 0.008,-0.003 0.02339,0.0033 0.03125,0 0.0072,-0.0046 0.02423,0.0048 0.03125,0 0.007,-0.0048 -0.0068,-0.02618 0,-0.03125 0.0059,-0.0062 0.0256,0.0064 0.03125,0 0.0054,-0.0066 -0.0052,-0.02449 0,-0.03125 0.0039,-0.0076 -0.0037,-0.02356 0,-0.03125 0.0037,-0.0077 0.02784,0.0078 0.03125,0 0.0023,-0.0082 -0.002,-0.02297 0,-0.03125 l 0,-0.03125 0,-6.25 c -5.54e-4,-0.01165 0.0011,-0.01964 0,-0.03125 -0.0027,-0.01133 0.0033,-0.02006 0,-0.03125 -0.0043,-0.01083 -0.02641,0.01061 -0.03125,0 -0.0048,-0.01061 0.0053,-0.02088 0,-0.03125 -0.0072,-0.0092 0.0076,-0.02243 0,-0.03125 L 14.09375,34.59375 a 0.28248113,0.28248113 0 0 1 -0.0625,-0.3125 0.28248113,0.28248113 0 0 1 0.0625,-0.09375 0.28248113,0.28248113 0 0 1 0.1875,-0.0625 L 59,34.125 c 0.01134,-0.002 0.02002,0.0025 0.03125,0 0.01077,-0.0041 0.02069,0.0046 0.03125,0 0.01056,-0.0046 -0.01034,-0.02617 0,-0.03125 0.0098,-0.006 0.02173,0.0065 0.03125,0 0.0085,-0.0078 -0.0081,-0.02311 0,-0.03125 0.0081,-0.0081 0.0235,0.0085 0.03125,0 0.0065,-0.0095 -0.006,-0.02143 0,-0.03125 0.0051,-0.01034 0.02666,0.01056 0.03125,0 0.0046,-0.01056 -0.0041,-0.02048 0,-0.03125 0.0025,-0.01123 -0.002,-0.01991 0,-0.03125 l 0,-3.96875 c -0.002,-0.01134 0.0025,-0.02002 0,-0.03125 -0.0041,-0.01077 0.0046,-0.02069 0,-0.03125 -0.0046,-0.01056 -0.02617,0.01034 -0.03125,0 -0.006,-0.0098 0.0065,-0.02173 0,-0.03125 -0.0078,-0.0085 -0.02311,0.0081 -0.03125,0 -0.0081,-0.0081 0.0085,-0.0235 0,-0.03125 -0.0095,-0.0065 -0.02143,0.006 -0.03125,0 -0.01034,-0.0051 0.01056,-0.02666 0,-0.03125 -0.01056,-0.0046 -0.02048,0.0041 -0.03125,0 -0.01123,-0.0025 -0.01991,0.002 -0.03125,0 l -44.90625,0 a 0.28248113,0.28248113 0 0 1 -0.125,-0.03125 0.28248113,0.28248113 0 0 1 -0.15625,-0.1875 0.28248113,0.28248113 0 0 1 0.09375,-0.25 L 25.75,17.46875 c 0.008,-0.0084 0.02362,0.0088 0.03125,0 0.0076,-0.0088 -0.0072,-0.02208 0,-0.03125 0.0053,-0.01037 -0.0048,-0.02064 0,-0.03125 0.0048,-0.01061 0.02692,0.01083 0.03125,0 0.0033,-0.01119 -0.0027,-0.01992 0,-0.03125 0.0011,-0.01161 -5.54e-4,-0.0196 0,-0.03125 l 0,-6.03125 c 2.63e-4,-0.0066 -8.7e-5,-0.02468 0,-0.03125 -9.66e-4,-0.0065 0.0011,-0.02478 0,-0.03125 -0.0022,-0.0062 0.0023,-0.0251 0,-0.03125 -0.0027,-0.006 -0.02844,0.0059 -0.03125,0 -0.0034,-0.0056 0.0036,-0.02574 0,-0.03125 -0.0044,-0.0049 -0.0267,0.0047 -0.03125,0 -0.0047,-0.0046 0.0048,-0.02676 0,-0.03125 -0.0055,-0.0037 -0.0257,0.0035 -0.03125,0 -0.0059,-0.0029 0.006,-0.0285 0,-0.03125 -0.0061,-0.0024 -0.02508,0.0023 -0.03125,0 -0.0065,-0.0012 -0.02477,0.0011 -0.03125,0 -0.0065,0.0018 -0.02484,-0.0019 -0.03125,0 -0.0059,0.0035 -0.02548,-0.0036 -0.03125,0 z" />
  </g>
  <g
     id="layer1"
     style="display:inline">
    <path
       d="M 25.66299,11.302624 4.9608754,32.004739 25.66299,52.706854 l 0,-6.284441 -12.444057,-12.444057 45.778189,0 0,-3.977048 -45.980566,0 12.646434,-12.646434 z"
       id="path3007"
       style="fill:#ffffff;stroke:#000000;stroke-width:0.2;stroke-linecap:butt;stroke-linejoin:miter;stroke-miterlimit:4;stroke-opacity:0.5;stroke-dasharray:none" />
  </g>
</svg>
