<?xml version="1.0" encoding="UTF-8" standalone="no"?>
<!-- Created with Inkscape (http://www.inkscape.org/) -->

<svg
   xmlns:dc="http://purl.org/dc/elements/1.1/"
   xmlns:cc="http://creativecommons.org/ns#"
   xmlns:rdf="http://www.w3.org/1999/02/22-rdf-syntax-ns#"
   xmlns:svg="http://www.w3.org/2000/svg"
   xmlns="http://www.w3.org/2000/svg"
   xmlns:sodipodi="http://sodipodi.sourceforge.net/DTD/sodipodi-0.dtd"
   xmlns:inkscape="http://www.inkscape.org/namespaces/inkscape"
   width="64px"
   height="64px"
   id="svg2985"
   version="1.1"
   inkscape:version="0.48.5 r"
   sodipodi:docname="duck-settings.svg">
  <defs
     id="defs2987">
    <linearGradient
       id="linearGradient3855">
      <stop
         id="stop3857"
         offset="0"
         style="stop-color:#c8c8c8;stop-opacity:1;" />
      <stop
         id="stop3859"
         offset="1"
         style="stop-color:#f4ffff;stop-opacity:1;" />
    </linearGradient>
  </defs>
  <sodipodi:namedview
     id="base"
     pagecolor="#ffffff"
     bordercolor="#666666"
     borderopacity="1.0"
     inkscape:pageopacity="0.0"
     inkscape:pageshadow="2"
     inkscape:zoom="8"
     inkscape:cx="23.849286"
     inkscape:cy="43.51577"
     inkscape:current-layer="layer1"
     showgrid="true"
     inkscape:document-units="px"
     inkscape:grid-bbox="true"
     inkscape:window-width="1235"
     inkscape:window-height="998"
     inkscape:window-x="45"
     inkscape:window-y="0"
     inkscape:window-maximized="1" />
  <metadata
     id="metadata2990">
    <rdf:RDF>
      <cc:Work
         rdf:about="">
        <dc:format>image/svg+xml</dc:format>
        <dc:type
           rdf:resource="http://purl.org/dc/dcmitype/StillImage" />
        <dc:title />
      </cc:Work>
    </rdf:RDF>
  </metadata>
  <g
     inkscape:groupmode="layer"
     id="layer5"
     inkscape:label="bg" />
  <g
     id="layer1"
     inkscape:label="Layer 1"
     inkscape:groupmode="layer"
     style="display:inline">
    <rect
       style="fill:#808080;fill-opacity:1"
       id="rect2993"
       width="53.229378"
       height="53.229385"
       x="5.4319992"
       y="5.6369476"
       rx="5.7141051"
       ry="5.7141051" />
  </g>
  <g
     inkscape:groupmode="layer"
     id="layer2"
     inkscape:label="shadow"
     style="display:inline">
    <path
       style="opacity:0.2600001;fill:#000000;stroke:none;display:inline"
       d="m 58.599046,28.108075 -16.351653,-11.643327 -8.571159,-1.859961 -2.377681,5.484007 -6.845421,-4.947111 -3.969194,9.069704 -3.739096,-1.399764 5.023811,7.267268 -4.366199,10.432886 5.694641,5.179409 -0.590511,0.06674 13.851733,13.090431 c 0,0 13.124541,0 16.439992,0 4.06584,0 5.851969,-2.458574 5.851969,-5.536737 0,-3.078163 0.01142,-25.131039 0.01142,-25.131039 z"
       id="path3785"
       inkscape:connector-curvature="0"
       sodipodi:nodetypes="ccccccccccccsscc" />
  </g>
  <g
     inkscape:groupmode="layer"
     id="layer4"
     inkscape:label="top">
    <g
       style="display:inline"
       inkscape:label="Layer 1"
       id="layer1-5"
       transform="matrix(0.61132312,0,0,0.61132312,1.0686069,-1.2523786)">
      <path
         sodipodi:type="inkscape:offset"
         inkscape:radius="0.15335588"
         inkscape:original="M 49.6875 23.6875 L 47.4375 31.09375 L 43.9375 32.1875 L 38.21875 26.84375 C 38.21875 26.84375 32.301486 30.410286 30.65625 32.15625 C 29.011015 33.902214 25.65625 39.40625 25.65625 39.40625 L 30.84375 45.1875 L 29.8125 48.5625 L 22.3125 50.90625 C 22.3125 50.90625 22.897955 58.891676 23.46875 60.90625 C 24.039546 62.920824 26.6875 68.34375 26.6875 68.34375 L 34.625 66.8125 L 37.21875 69.3125 L 35.0625 76.9375 C 35.0625 76.9375 41.23876 80.275279 43.65625 80.8125 C 46.073738 81.349719 53.25 81.5 53.25 81.5 L 55.875 74.125 L 58.90625 73.3125 L 64.375 78.65625 C 64.375 78.65625 70.475113 73.957736 72.1875 72.3125 C 73.899887 70.667265 77.34375 65.46875 77.34375 65.46875 L 71.875 59.90625 L 72.9375 56.65625 L 80.28125 54.75 C 80.28125 54.75 79.847392 48.505577 79.34375 45.71875 C 78.840106 42.931924 75.84375 37.0625 75.84375 37.0625 L 67.96875 38.71875 L 65.59375 35.96875 L 67.40625 29 C 67.40625 29 61.858632 25.848712 58.9375 24.875 C 56.016368 23.901289 49.6875 23.6875 49.6875 23.6875 z M 51.125 40.25 C 58.069952 40.25 63.744073 45.775033 63.875 52.71875 L 63.875 52.96875 C 63.875 60.007354 58.163604 65.71875 51.125 65.71875 C 44.086397 65.71875 38.34375 60.007354 38.34375 52.96875 C 38.34375 45.930147 44.086397 40.25 51.125 40.25 z "
         style="fill:#ffffff;fill-opacity:1;stroke:none"
         id="path3792"
         d="m 49.625,23.53125 a 0.15337122,0.15337122 0 0 0 -0.03125,0.03125 0.15337122,0.15337122 0 0 0 -0.03125,0.03125 0.15337122,0.15337122 0 0 0 -0.03125,0.0625 L 47.3125,30.96875 43.96875,32 38.3125,26.71875 A 0.15337122,0.15337122 0 0 0 38.25,26.6875 a 0.15337122,0.15337122 0 0 0 -0.03125,0 0.15337122,0.15337122 0 0 0 -0.03125,0 0.15337122,0.15337122 0 0 0 -0.0625,0.03125 c 0,0 -1.468354,0.888194 -3.15625,2 -1.687896,1.111806 -3.587693,2.441914 -4.4375,3.34375 -0.842099,0.893656 -2.079113,2.684642 -3.125,4.28125 -1.045887,1.596608 -1.875,2.96875 -1.875,2.96875 A 0.15337122,0.15337122 0 0 0 25.5,39.375 a 0.15337122,0.15337122 0 0 0 0,0.03125 0.15337122,0.15337122 0 0 0 0,0.03125 0.15337122,0.15337122 0 0 0 0.03125,0.0625 l 5.125,5.71875 -0.96875,3.21875 -7.40625,2.3125 a 0.15337122,0.15337122 0 0 0 -0.0625,0.03125 0.15337122,0.15337122 0 0 0 -0.03125,0.03125 0.15337122,0.15337122 0 0 0 -0.03125,0.0625 0.15337122,0.15337122 0 0 0 0,0.03125 c 0,0 0.157083,1.999716 0.375,4.25 0.217917,2.250284 0.485114,4.736062 0.78125,5.78125 0.292515,1.032405 1.109461,2.890362 1.84375,4.5 0.734289,1.609638 1.40625,2.96875 1.40625,2.96875 a 0.15337122,0.15337122 0 0 0 0,0.03125 0.15337122,0.15337122 0 0 0 0.03125,0.03125 0.15337122,0.15337122 0 0 0 0.03125,0 0.15337122,0.15337122 0 0 0 0.03125,0.03125 0.15337122,0.15337122 0 0 0 0.03125,0 0.15337122,0.15337122 0 0 0 0.03125,0 l 7.875,-1.53125 2.4375,2.375 -2.125,7.5625 a 0.15337122,0.15337122 0 0 0 0,0.03125 0.15337122,0.15337122 0 0 0 0,0.03125 A 0.15337122,0.15337122 0 0 0 34.9375,77 a 0.15337122,0.15337122 0 0 0 0,0.03125 0.15337122,0.15337122 0 0 0 0.03125,0.03125 0.15337122,0.15337122 0 0 0 0.03125,0 c 0,0 1.525518,0.846825 3.375,1.75 1.849482,0.903175 4.002597,1.879049 5.25,2.15625 1.237157,0.274923 3.619969,0.426401 5.71875,0.53125 2.098781,0.104849 3.90625,0.15625 3.90625,0.15625 a 0.15337122,0.15337122 0 0 0 0.03125,0 0.15337122,0.15337122 0 0 0 0.0625,-0.03125 0.15337122,0.15337122 0 0 0 0.03125,-0.03125 0.15337122,0.15337122 0 0 0 0.03125,-0.03125 L 56,74.25 l 2.875,-0.75 5.40625,5.28125 a 0.15337122,0.15337122 0 0 0 0.0625,0.03125 0.15337122,0.15337122 0 0 0 0.03125,0 0.15337122,0.15337122 0 0 0 0.03125,0 0.15337122,0.15337122 0 0 0 0.03125,-0.03125 0.15337122,0.15337122 0 0 0 0.03125,0 c 0,0 6.07409,-4.673512 7.8125,-6.34375 0.877346,-0.842941 2.17323,-2.554758 3.25,-4.0625 1.07677,-1.507742 1.9375,-2.8125 1.9375,-2.8125 A 0.15337122,0.15337122 0 0 0 77.5,65.5 a 0.15337122,0.15337122 0 0 0 0,-0.03125 0.15337122,0.15337122 0 0 0 0,-0.03125 0.15337122,0.15337122 0 0 0 -0.03125,-0.03125 0.15337122,0.15337122 0 0 0 0,-0.03125 0.15337122,0.15337122 0 0 0 -0.03125,0 l -5.375,-5.46875 1,-3.125 7.25,-1.875 a 0.15337122,0.15337122 0 0 0 0.0625,-0.03125 0.15337122,0.15337122 0 0 0 0.03125,-0.03125 0.15337122,0.15337122 0 0 0 0,-0.03125 0.15337122,0.15337122 0 0 0 0.03125,-0.03125 0.15337122,0.15337122 0 0 0 0,-0.03125 c 0,0 -0.429469,-6.251389 -0.9375,-9.0625 C 79.242063,44.260253 78.345073,42.100936 77.53125,40.28125 76.717427,38.461564 75.96875,37 75.96875,37 a 0.15337122,0.15337122 0 0 0 0,-0.03125 0.15337122,0.15337122 0 0 0 -0.03125,-0.03125 0.15337122,0.15337122 0 0 0 -0.0625,-0.03125 0.15337122,0.15337122 0 0 0 -0.03125,0 0.15337122,0.15337122 0 0 0 -0.03125,0 l -7.78125,1.625 -2.25,-2.59375 1.78125,-6.90625 a 0.15337122,0.15337122 0 0 0 0,-0.03125 0.15337122,0.15337122 0 0 0 0,-0.03125 0.15337122,0.15337122 0 0 0 -0.03125,-0.0625 A 0.15337122,0.15337122 0 0 0 67.5,28.875 a 0.15337122,0.15337122 0 0 0 -0.03125,0 c 0,0 -5.508708,-3.169568 -8.46875,-4.15625 C 57.511108,24.222452 55.170718,23.925576 53.21875,23.75 51.266782,23.574424 49.6875,23.53125 49.6875,23.53125 a 0.15337122,0.15337122 0 0 0 -0.03125,0 0.15337122,0.15337122 0 0 0 -0.03125,0 z m 1.5,16.875 c 6.863617,0 12.464369,5.45075 12.59375,12.3125 l 0,0.25 c 0,6.955645 -5.638105,12.59375 -12.59375,12.59375 -6.955644,0 -12.625,-5.638559 -12.625,-12.59375 0,-6.95519 5.668902,-12.5625 12.625,-12.5625 z" />
    </g>
  </g>
  <g
     inkscape:groupmode="layer"
     id="layer3"
     inkscape:label="Layer">
    <path
       style="fill:#666666;fill-opacity:1;display:inline"
       d="m 11.429917,3.625 c -4.4281975,0 -8.0937495,3.6176728 -8.0937495,8.0625 l 0,40.96875 c 0,4.444827 3.6655518,8.0625 8.0937495,8.0625 l 40.96875,0 c 4.428198,0 8.0625,-3.634302 8.0625,-8.0625 l 0,-40.96875 c 0,-4.4281982 -3.634302,-8.0625 -8.0625,-8.0625 l -40.96875,0 z m 0,2.65625 40.96875,0 c 3.002249,0 5.40625,2.4040001 5.40625,5.40625 l 0,40.96875 c 0,3.002249 -2.404001,5.40625 -5.40625,5.40625 l -40.96875,0 c -3.0022494,0 -5.4374995,-2.405259 -5.4374995,-5.40625 l 0,-40.96875 c 0,-3.0009919 2.4352501,-5.40625 5.4374995,-5.40625 z"
       id="path3780"
       inkscape:connector-curvature="0" />
    <path
       id="path3786"
       d="m 11.297335,3.4040291 c -4.428198,0 -8.09375,3.6176728 -8.09375,8.0624999 l 0,40.96875 c 0,4.444827 3.6655518,8.0625 8.09375,8.0625 l 40.96875,0 c 4.428198,0 8.0625,-3.634302 8.0625,-8.0625 l 0,-40.96875 c 0,-4.4281981 -3.634302,-8.0624999 -8.0625,-8.0624999 l -40.96875,0 z m 0,2.65625 40.96875,0 c 3.002249,0 5.40625,2.4040001 5.40625,5.4062499 l 0,40.96875 c 0,3.002249 -2.404001,5.40625 -5.40625,5.40625 l -40.96875,0 c -3.0022499,0 -5.4375,-2.405259 -5.4375,-5.40625 l 0,-40.96875 c 0,-3.0009918 2.4352501,-5.4062499 5.4375,-5.4062499 z"
       style="fill:#ffffff;fill-opacity:1;display:inline"
       inkscape:connector-curvature="0" />
  </g>
</svg>
