<?xml version="1.0" encoding="UTF-8" standalone="no"?>
<!-- Created with Inkscape (http://www.inkscape.org/) -->

<svg
   xmlns:dc="http://purl.org/dc/elements/1.1/"
   xmlns:cc="http://creativecommons.org/ns#"
   xmlns:rdf="http://www.w3.org/1999/02/22-rdf-syntax-ns#"
   xmlns:svg="http://www.w3.org/2000/svg"
   xmlns="http://www.w3.org/2000/svg"
   xmlns:sodipodi="http://sodipodi.sourceforge.net/DTD/sodipodi-0.dtd"
   xmlns:inkscape="http://www.inkscape.org/namespaces/inkscape"
   version="1.1"
   width="64"
   height="64"
   id="svg3965"
   inkscape:version="0.48.4 r9939"
   sodipodi:docname="file.svg">
  <sodipodi:namedview
     pagecolor="#ffffff"
     bordercolor="#666666"
     borderopacity="1"
     objecttolerance="10"
     gridtolerance="10"
     guidetolerance="10"
     inkscape:pageopacity="0"
     inkscape:pageshadow="2"
     inkscape:window-width="1160"
     inkscape:window-height="690"
     id="namedview15"
     showgrid="false"
     inkscape:zoom="59"
     inkscape:cx="9.608115"
     inkscape:cy="39.231039"
     inkscape:window-x="43"
     inkscape:window-y="0"
     inkscape:window-maximized="0"
     inkscape:current-layer="svg3965" />
  <defs
     id="defs3967" />
  <metadata
     id="metadata3970">
    <rdf:RDF>
      <cc:Work
         rdf:about="">
        <dc:format>image/svg+xml</dc:format>
        <dc:type
           rdf:resource="http://purl.org/dc/dcmitype/StillImage" />
        <dc:title />
      </cc:Work>
    </rdf:RDF>
  </metadata>
  <g
     id="layer3"
     style="display:inline">
    <path
       d="M 39.625,5.1875 13.40625,5.25 c -0.0054,-2.47e-5 -0.05715,-2.395e-4 -0.0625,0 -0.0053,2.395e-4 -0.05717,-5.031e-4 -0.0625,0 -0.0053,5.031e-4 -0.0572,-7.655e-4 -0.0625,0 -0.0053,7.655e-4 -0.05725,-0.00103 -0.0625,0 -0.0053,0.00103 -0.0573,0.029966 -0.0625,0.03125 -0.0052,0.00128 -0.02612,-0.00154 -0.03125,0 -0.0051,0.00154 -0.05746,0.02946 -0.0625,0.03125 -0.005,0.00179 -0.05755,-0.00204 -0.0625,0 -0.0049,0.00204 -0.05766,0.028971 -0.0625,0.03125 -0.0048,0.00228 -0.05777,0.028735 -0.0625,0.03125 -0.0047,0.00251 -0.02665,0.028505 -0.03125,0.03125 -0.0046,0.00274 -0.05805,0.028282 -0.0625,0.03125 -0.0045,0.00297 -0.0582,0.028065 -0.0625,0.03125 -0.0043,0.00318 -0.02711,0.027857 -0.03125,0.03125 -0.0041,0.00339 -0.05853,0.058907 -0.0625,0.0625 -0.004,0.00359 -0.02746,0.027465 -0.03125,0.03125 -0.0038,0.00378 -0.02766,0.027283 -0.03125,0.03125 -0.0036,0.00397 -0.05911,0.058361 -0.0625,0.0625 -0.0034,0.00414 -0.02806,0.026948 -0.03125,0.03125 -0.0032,0.0043 -0.02828,0.058046 -0.03125,0.0625 -0.003,0.00445 -0.0285,0.057905 -0.03125,0.0625 -0.0027,0.00459 -0.02873,0.026525 -0.03125,0.03125 -0.0025,0.00472 -0.02897,0.057657 -0.03125,0.0625 -0.0023,0.00484 -0.02921,0.05755 -0.03125,0.0625 -0.002,0.00495 0.0018,0.057456 0,0.0625 -0.0018,0.00504 -0.02971,0.057374 -0.03125,0.0625 -0.0015,0.00513 0.0013,0.026054 0,0.03125 -0.0013,0.0052 -0.03022,0.057247 -0.03125,0.0625 -0.001,0.00525 7.66e-4,0.057203 0,0.0625 -7.66e-4,0.0053 5.03e-4,0.057171 0,0.0625 -5.03e-4,0.00533 2.4e-4,0.057153 0,0.0625 -2.4e-4,0.00535 -2.5e-5,0.057148 0,0.0625 l 0.09375,52.71875 c -2.5e-5,0.0054 -2.4e-4,0.05715 0,0.0625 2.4e-4,0.0053 -5.03e-4,0.05717 0,0.0625 5.03e-4,0.0053 -7.66e-4,0.0572 0,0.0625 7.66e-4,0.0053 -0.001,0.05725 0,0.0625 0.001,0.0053 0.02997,0.0573 0.03125,0.0625 0.0013,0.0052 -0.0015,0.02612 0,0.03125 0.0015,0.0051 0.02946,0.05746 0.03125,0.0625 0.0018,0.005 -0.002,0.05755 0,0.0625 0.002,0.005 0.02897,0.05766 0.03125,0.0625 0.0023,0.0048 0.02873,0.05777 0.03125,0.0625 0.0025,0.0047 0.0285,0.02665 0.03125,0.03125 0.0027,0.0046 0.02828,0.05805 0.03125,0.0625 0.003,0.0045 0.02806,0.0582 0.03125,0.0625 0.0032,0.0043 0.02786,0.02711 0.03125,0.03125 0.0034,0.0041 0.05891,0.05853 0.0625,0.0625 0.0036,0.004 0.02746,0.02746 0.03125,0.03125 0.0038,0.0038 0.02728,0.02766 0.03125,0.03125 0.004,0.0036 0.05836,0.05911 0.0625,0.0625 0.0041,0.0034 0.02695,0.02806 0.03125,0.03125 0.0043,0.0032 0.05805,0.02828 0.0625,0.03125 0.0045,0.003 0.0579,0.02851 0.0625,0.03125 0.0046,0.0027 0.02652,0.02873 0.03125,0.03125 0.0047,0.0025 0.05766,0.02897 0.0625,0.03125 0.0048,0.0023 0.05755,0.02921 0.0625,0.03125 0.0049,0.002 0.05746,-0.0018 0.0625,0 0.005,0.0018 0.05737,0.02971 0.0625,0.03125 0.0051,0.0015 0.02605,-0.0013 0.03125,0 0.0052,0.0013 0.05725,0.03022 0.0625,0.03125 0.0053,0.001 0.0572,-7.66e-4 0.0625,0 0.0053,7.66e-4 0.05717,-5.03e-4 0.0625,0 0.0053,5.03e-4 0.05715,-2.4e-4 0.0625,0 0.0053,2.4e-4 0.05715,2.5e-5 0.0625,0 l 36.125,0 c 0.0054,2.5e-5 0.05715,2.4e-4 0.0625,0 0.0053,-2.4e-4 0.05717,5.03e-4 0.0625,0 0.0053,-5.03e-4 0.0572,7.66e-4 0.0625,0 0.0053,-7.66e-4 0.05725,0.001 0.0625,0 0.0053,-0.001 0.0573,-0.02997 0.0625,-0.03125 0.0052,-0.0013 0.02612,0.0015 0.03125,0 0.0051,-0.0015 0.05746,-0.02946 0.0625,-0.03125 0.005,-0.0018 0.05755,0.002 0.0625,0 0.005,-0.002 0.05766,-0.02897 0.0625,-0.03125 0.0048,-0.0023 0.05777,-0.02873 0.0625,-0.03125 0.0047,-0.0025 0.02665,-0.02851 0.03125,-0.03125 0.0046,-0.0027 0.05805,-0.02828 0.0625,-0.03125 0.0045,-0.003 0.0582,-0.02806 0.0625,-0.03125 0.0043,-0.0032 0.02711,-0.02786 0.03125,-0.03125 0.0041,-0.0034 0.05853,-0.05891 0.0625,-0.0625 0.004,-0.0036 0.02746,-0.02746 0.03125,-0.03125 0.0038,-0.0038 0.02766,-0.02728 0.03125,-0.03125 0.0036,-0.004 0.05911,-0.05836 0.0625,-0.0625 0.0034,-0.0041 0.02806,-0.02695 0.03125,-0.03125 0.0032,-0.0043 0.02828,-0.05805 0.03125,-0.0625 0.003,-0.0045 0.02851,-0.0579 0.03125,-0.0625 0.0027,-0.0046 0.02873,-0.02652 0.03125,-0.03125 0.0025,-0.0047 0.02897,-0.05766 0.03125,-0.0625 0.0023,-0.0048 0.02921,-0.05755 0.03125,-0.0625 0.002,-0.005 -0.0018,-0.05746 0,-0.0625 0.0018,-0.005 0.02971,-0.05737 0.03125,-0.0625 0.0015,-0.0051 -0.0013,-0.02605 0,-0.03125 0.0013,-0.0052 0.03022,-0.05725 0.03125,-0.0625 0.001,-0.0053 -7.66e-4,-0.0572 0,-0.0625 7.66e-4,-0.0053 -5.03e-4,-0.05717 0,-0.0625 5.03e-4,-0.0053 -2.4e-4,-0.05715 0,-0.0625 2.4e-4,-0.0053 2.5e-5,-0.05715 0,-0.0625 l 0,-41.5 c 1.57e-4,-0.005 7.5e-5,-0.02623 0,-0.03125 -7.5e-5,-0.005 3.08e-4,-0.05749 0,-0.0625 -3.08e-4,-0.005 5.4e-4,-0.05751 0,-0.0625 -5.4e-4,-0.005 7.7e-4,-0.05754 0,-0.0625 -7.7e-4,-0.005 9.99e-4,-0.05758 0,-0.0625 -9.99e-4,-0.0049 -0.03002,-0.02638 -0.03125,-0.03125 -0.0012,-0.0049 0.0014,-0.05769 0,-0.0625 -0.0014,-0.0048 -0.02958,-0.05776 -0.03125,-0.0625 -0.0017,-0.0047 0.0019,-0.05785 0,-0.0625 -0.0019,-0.0047 -0.02915,-0.02669 -0.03125,-0.03125 -0.0021,-0.0046 -0.02894,-0.05804 -0.03125,-0.0625 -0.0023,-0.0045 -0.02873,-0.0269 -0.03125,-0.03125 -0.0025,-0.0043 -0.02854,-0.05827 -0.03125,-0.0625 -0.0027,-0.0042 -0.02834,-0.05841 -0.03125,-0.0625 -0.0029,-0.0041 -0.02816,-0.02729 -0.03125,-0.03125 -0.0031,-0.004 -0.02798,-0.02744 -0.03125,-0.03125 a 0.45252238,0.45252238 0 0 0 0,-0.03125 l -10,-11.28125 c -0.0039,-0.00425 -0.05835,-0.027213 -0.0625,-0.03125 -0.0041,-0.00404 -0.0269,-0.058689 -0.03125,-0.0625 -0.0044,-0.00381 -0.05795,-0.027677 -0.0625,-0.03125 -0.0046,-0.00357 -0.05776,-0.027925 -0.0625,-0.03125 -0.0047,-0.00332 -0.02634,-0.059433 -0.03125,-0.0625 -0.0049,-0.00307 -0.05744,-0.028449 -0.0625,-0.03125 -0.0051,-0.0028 -0.05729,-0.028723 -0.0625,-0.03125 -0.0052,-0.00253 -0.05717,0.00225 -0.0625,0 -0.0053,-0.00225 -0.05705,-0.029292 -0.0625,-0.03125 -0.0054,-0.00196 -0.05696,-0.029585 -0.0625,-0.03125 -0.0055,-0.00166 -0.05688,0.00137 -0.0625,0 -0.0056,-0.00137 -0.05681,-0.030186 -0.0625,-0.03125 -0.0057,-0.00106 -0.05676,7.594e-4 -0.0625,0 -0.0057,-7.594e-4 -0.05673,4.522e-4 -0.0625,0 -0.0058,-4.522e-4 -0.05671,1.437e-4 -0.0625,0 -0.0058,-1.437e-4 -0.05672,-1.652e-4 -0.0625,0 z"
       transform="matrix(1.1556819,0,0,1.1556819,-5.1530348,-5.3757078)"
       id="path3763"
       style="opacity:0.05;fill:#000000;stroke:none" />
    <path
       d="m 39.625,5.59375 -26.21875,0.0625 c -0.0031,2.36e-5 -0.02819,-6.14e-5 -0.03125,0 -0.0031,1.368e-4 -0.0282,-1.745e-4 -0.03125,0 -0.003,2.498e-4 -0.02821,-2.874e-4 -0.03125,0 -0.003,3.624e-4 -0.02822,-3.998e-4 -0.03125,0 -0.003,5.118e-4 -0.02824,-5.489e-4 -0.03125,0 -0.003,6.23e-4 -0.02826,0.03059 -0.03125,0.03125 -0.003,7.334e-4 -0.02829,-7.7e-4 -0.03125,0 -0.0029,8.428e-4 -0.02832,-8.79e-4 -0.03125,0 -0.0029,9.51e-4 -0.02836,-9.868e-4 -0.03125,0 -0.0029,0.00106 0.0029,0.030157 0,0.03125 -0.0029,0.00109 -0.02841,-0.00113 -0.03125,0 -0.0028,0.0012 -0.02845,-0.00123 -0.03125,0 -0.0028,0.0013 0.0028,0.029915 0,0.03125 -0.0028,0.00134 -0.02852,-0.00137 -0.03125,0 -0.0027,0.00144 -0.02857,-0.00147 -0.03125,0 -0.0026,0.00154 0.0026,0.029682 0,0.03125 -0.0026,0.00157 -0.02864,-0.0016 -0.03125,0 -0.0026,0.00166 -0.02871,-0.0017 -0.03125,0 -0.0025,0.00173 0.0025,0.029492 0,0.03125 -0.0025,0.00179 -0.02879,-0.00182 -0.03125,0 -0.0024,0.00188 0.0024,0.029341 0,0.03125 -0.0024,0.00191 -0.02889,-0.00194 -0.03125,0 -0.0023,0.00202 -0.02898,0.029198 -0.03125,0.03125 -0.0022,0.00213 0.0022,0.029088 0,0.03125 -0.0022,0.00216 -0.02911,-0.00219 -0.03125,0 -0.0021,0.00227 -0.02923,0.028959 -0.03125,0.03125 -0.0019,0.00236 0.0019,0.028862 0,0.03125 -0.0019,0.00239 -0.02937,-0.00241 -0.03125,0 -0.0018,0.00246 0.0018,0.028771 0,0.03125 -0.0018,0.0025 -0.02952,-0.00252 -0.03125,0 -0.0017,0.00254 0.0017,0.028685 0,0.03125 -0.0016,0.0026 0.0016,0.028626 0,0.03125 -0.0016,0.00262 -0.02971,-0.00264 -0.03125,0 -0.0015,0.00268 0.0014,0.028551 0,0.03125 -0.0014,0.00273 0.0013,0.0285 0,0.03125 -0.0013,0.00275 -0.02995,-0.00277 -0.03125,0 -0.0012,0.0028 0.0012,0.028438 0,0.03125 -0.0011,0.00284 0.0011,0.028395 0,0.03125 -0.0011,0.00285 -0.03019,-0.00287 -0.03125,0 -9.87e-4,0.00289 9.51e-4,0.028345 0,0.03125 -8.79e-4,0.00293 8.43e-4,0.028312 0,0.03125 -7.7e-4,0.00296 7.33e-4,0.028282 0,0.03125 -6.6e-4,0.00298 -0.03063,0.028257 -0.03125,0.03125 -5.49e-4,0.00301 5.12e-4,0.028236 0,0.03125 -4e-4,0.00303 3.62e-4,0.028215 0,0.03125 -2.87e-4,0.00304 2.5e-4,0.028203 0,0.03125 -1.74e-4,0.00305 1.37e-4,0.028196 0,0.03125 -6.1e-5,0.00306 2.4e-5,0.028193 0,0.03125 L 12.6875,59.1875 c 2.4e-5,0.0031 -6.1e-5,0.02819 0,0.03125 1.37e-4,0.0031 -1.74e-4,0.0282 0,0.03125 2.5e-4,0.003 -2.87e-4,0.02821 0,0.03125 3.62e-4,0.003 -4e-4,0.02822 0,0.03125 5.12e-4,0.003 -5.49e-4,0.02824 0,0.03125 6.23e-4,0.003 0.03059,0.02826 0.03125,0.03125 7.33e-4,0.003 -7.7e-4,0.02829 0,0.03125 8.43e-4,0.0029 -8.79e-4,0.02832 0,0.03125 9.51e-4,0.0029 -9.87e-4,0.02836 0,0.03125 0.0011,0.0029 0.03016,-0.0029 0.03125,0 0.0011,0.0029 -0.0011,0.02841 0,0.03125 0.0012,0.0028 -0.0012,0.02845 0,0.03125 0.0013,0.0028 0.02992,-0.0027 0.03125,0 0.0013,0.0027 -0.0014,0.02852 0,0.03125 0.0014,0.0027 -0.0015,0.02857 0,0.03125 0.0015,0.0026 0.02968,-0.0026 0.03125,0 0.0016,0.0026 -0.0016,0.02864 0,0.03125 0.0017,0.0026 -0.0017,0.02871 0,0.03125 0.0017,0.0025 0.02949,-0.0025 0.03125,0 0.0018,0.0025 -0.0018,0.02879 0,0.03125 0.0019,0.0024 0.02934,-0.0024 0.03125,0 0.0019,0.0024 -0.0019,0.02889 0,0.03125 0.002,0.0023 0.0292,0.02898 0.03125,0.03125 0.0021,0.0022 0.02909,-0.0022 0.03125,0 0.0022,0.0022 -0.0022,0.02911 0,0.03125 0.0023,0.0021 0.02896,0.02923 0.03125,0.03125 0.0024,0.0019 0.02886,-0.0019 0.03125,0 0.0024,0.0019 -0.0024,0.02937 0,0.03125 0.0025,0.0018 0.02877,-0.0018 0.03125,0 0.0025,0.0018 -0.0025,0.02952 0,0.03125 0.0025,0.0017 0.02869,-0.0017 0.03125,0 0.0026,0.0016 0.02863,-0.0016 0.03125,0 0.0026,0.0016 -0.0026,0.02972 0,0.03125 0.0027,0.0015 0.02855,-0.0014 0.03125,0 0.0027,0.0014 0.0285,-0.0013 0.03125,0 0.0028,0.0013 -0.0028,0.02995 0,0.03125 0.0028,0.0012 0.02844,-0.0012 0.03125,0 0.0028,0.0011 0.02839,-0.0011 0.03125,0 0.0029,0.0011 -0.0029,0.03019 0,0.03125 0.0029,9.87e-4 0.02834,-9.51e-4 0.03125,0 0.0029,8.79e-4 0.02831,-8.43e-4 0.03125,0 0.003,7.7e-4 0.02828,-7.33e-4 0.03125,0 0.003,6.6e-4 0.02826,0.03063 0.03125,0.03125 0.003,5.49e-4 0.02824,-5.12e-4 0.03125,0 0.003,4e-4 0.02821,-3.62e-4 0.03125,0 0.003,2.87e-4 0.0282,-2.5e-4 0.03125,0 0.0031,1.74e-4 0.0282,-1.37e-4 0.03125,0 0.0031,6.1e-5 0.02819,-2.4e-5 0.03125,0 l 36.125,0 c 0.0031,-2.4e-5 0.02819,6.1e-5 0.03125,0 0.0031,-1.37e-4 0.0282,1.74e-4 0.03125,0 0.003,-2.5e-4 0.02821,2.87e-4 0.03125,0 0.003,-3.62e-4 0.02822,4e-4 0.03125,0 0.003,-5.12e-4 0.02824,5.49e-4 0.03125,0 0.003,-6.23e-4 0.02826,-0.03059 0.03125,-0.03125 0.003,-7.33e-4 0.02829,7.7e-4 0.03125,0 0.0029,-8.43e-4 0.02832,8.79e-4 0.03125,0 0.0029,-9.51e-4 0.02836,9.87e-4 0.03125,0 0.0029,-0.0011 -0.0029,-0.03016 0,-0.03125 0.0029,-0.0011 0.02841,0.0011 0.03125,0 0.0028,-0.0012 0.02845,0.0012 0.03125,0 0.0028,-0.0013 -0.0027,-0.02992 0,-0.03125 0.0027,-0.0013 0.02852,0.0014 0.03125,0 0.0027,-0.0014 0.02857,0.0015 0.03125,0 0.0026,-0.0015 -0.0026,-0.02968 0,-0.03125 0.0026,-0.0016 0.02864,0.0016 0.03125,0 0.0026,-0.0017 0.02871,0.0017 0.03125,0 0.0025,-0.0017 -0.0025,-0.02949 0,-0.03125 0.0025,-0.0018 0.02879,0.0018 0.03125,0 0.0024,-0.0019 -0.0024,-0.02934 0,-0.03125 0.0024,-0.0019 0.02889,0.0019 0.03125,0 0.0023,-0.002 0.02898,-0.0292 0.03125,-0.03125 0.0022,-0.0021 -0.0022,-0.02909 0,-0.03125 0.0022,-0.0022 0.02911,0.0022 0.03125,0 0.0021,-0.0023 0.02923,-0.02896 0.03125,-0.03125 0.0019,-0.0024 -0.0019,-0.02886 0,-0.03125 0.0019,-0.0024 0.02937,0.0024 0.03125,0 0.0018,-0.0025 -0.0018,-0.02877 0,-0.03125 0.0018,-0.0025 0.02952,0.0025 0.03125,0 0.0017,-0.0025 -0.0017,-0.02869 0,-0.03125 0.0016,-0.0026 -0.0016,-0.02863 0,-0.03125 0.0016,-0.0026 0.02972,0.0026 0.03125,0 0.0015,-0.0027 -0.0014,-0.02855 0,-0.03125 0.0014,-0.0027 -0.0013,-0.0285 0,-0.03125 0.0013,-0.0027 0.02995,0.0028 0.03125,0 0.0012,-0.0028 -0.0012,-0.02844 0,-0.03125 0.0011,-0.0028 -0.0011,-0.0284 0,-0.03125 0.0011,-0.0029 0.03019,0.0029 0.03125,0 9.87e-4,-0.0029 -9.51e-4,-0.02835 0,-0.03125 8.79e-4,-0.0029 -8.43e-4,-0.02831 0,-0.03125 7.7e-4,-0.003 -7.33e-4,-0.02828 0,-0.03125 6.6e-4,-0.003 0.03063,-0.02826 0.03125,-0.03125 5.49e-4,-0.003 -5.12e-4,-0.02824 0,-0.03125 4e-4,-0.003 -3.62e-4,-0.02822 0,-0.03125 2.87e-4,-0.003 -2.5e-4,-0.0282 0,-0.03125 1.74e-4,-0.0031 -1.37e-4,-0.0282 0,-0.03125 6.1e-5,-0.0031 -2.4e-5,-0.02819 0,-0.03125 l 0,-41.5 c 5.7e-5,-0.0029 -2.3e-5,-0.02838 0,-0.03125 -7.6e-5,-0.0029 1.09e-4,-0.02838 0,-0.03125 -1.76e-4,-0.0029 2.09e-4,-0.02839 0,-0.03125 -2.75e-4,-0.0029 3.08e-4,-0.0284 0,-0.03125 -4.07e-4,-0.0028 4.4e-4,-0.02842 0,-0.03125 -5.05e-4,-0.0028 5.38e-4,-0.02843 0,-0.03125 -6.03e-4,-0.0028 -0.03061,-0.02845 -0.03125,-0.03125 -7.32e-4,-0.0028 7.65e-4,-0.02848 0,-0.03125 -8.28e-4,-0.0027 8.6e-4,-0.02851 0,-0.03125 -9.55e-4,-0.0027 9.86e-4,-0.02856 0,-0.03125 -9.86e-4,-0.0027 -0.03023,0.0027 -0.03125,0 -0.001,-0.0027 0.0011,-0.02859 0,-0.03125 -0.0012,-0.0026 0.0012,-0.02865 0,-0.03125 -0.0012,-0.0026 -0.02999,0.0026 -0.03125,0 -0.0013,-0.0026 0.0013,-0.0287 0,-0.03125 -0.0014,-0.0025 0.0014,-0.02875 0,-0.03125 -0.0014,-0.0025 -0.02978,0.0025 -0.03125,0 -0.0015,-0.0024 0.0015,-0.02882 0,-0.03125 -0.0016,-0.0024 -0.02962,-0.02889 -0.03125,-0.03125 -0.0017,-0.0023 0.0017,-0.02897 0,-0.03125 -0.0018,-0.0023 -0.02946,0.0022 -0.03125,0 -0.0018,-0.0022 0.0019,-0.02907 0,-0.03125 l -10,-11.28125 c -0.0023,-0.0024 -0.02895,0.00237 -0.03125,0 -0.0023,-0.00237 0.0023,-0.028912 0,-0.03125 -0.0024,-0.00227 -0.02882,0.00224 -0.03125,0 -0.0025,-0.00221 0.0025,-0.029074 0,-0.03125 -0.0025,-0.00214 -0.02871,0.00211 -0.03125,0 -0.0026,-0.00208 0.0026,-0.029209 0,-0.03125 -0.0026,-0.00204 -0.02862,0.00201 -0.03125,0 -0.0027,-0.0019 -0.02852,-0.029387 -0.03125,-0.03125 -0.0028,-0.00179 -0.02845,0.00175 -0.03125,0 -0.0028,-0.00171 0.0028,-0.029573 0,-0.03125 -0.0029,-0.00164 -0.02836,0.0016 -0.03125,0 -0.0029,-0.00152 -0.0283,0.00148 -0.03125,0 -0.003,-0.00148 0.003,-0.029807 0,-0.03125 -0.003,-0.0014 -0.02824,0.00136 -0.03125,0 -0.003,-0.00128 -0.02819,0.00124 -0.03125,0 -0.0031,-0.00116 0.0031,-0.030132 0,-0.03125 -0.0031,-0.00112 -0.02813,0.00108 -0.03125,0 -0.0032,-9.928e-4 -0.02808,9.507e-4 -0.03125,0 -0.0032,-8.658e-4 -0.02805,8.232e-4 -0.03125,0 -0.0032,-7.375e-4 -0.02802,-0.030556 -0.03125,-0.03125 -0.0032,-6.512e-4 -0.028,6.079e-4 -0.03125,0 -0.0033,-5.21e-4 -0.02798,4.774e-4 -0.03125,0 -0.0033,-3.899e-4 -0.02796,3.461e-4 -0.03125,0 -0.0033,-2.583e-4 -0.02795,2.143e-4 -0.03125,0 -0.0033,-1.262e-4 -0.02795,8.21e-5 -0.03125,0 -0.0033,6.1e-6 -0.02795,-5.02e-5 -0.03125,0 z"
       transform="matrix(1.1556819,0,0,1.1556819,-5.1530348,-5.3757078)"
       id="path3765"
       style="opacity:0.1;fill:#000000;stroke:none" />
    <path
       d="M 39.625,6 13.40625,6.0625 c -0.01907,-8.79e-5 -0.0122,-8.534e-4 -0.03125,0 -0.01899,0.00179 -0.01238,-0.00273 -0.03125,0 -0.01887,0.00273 -0.01253,-0.00366 -0.03125,0 -0.01872,0.00366 0.01851,0.026675 0,0.03125 -0.01851,0.00458 -0.01299,-0.00548 -0.03125,0 -0.01797,0.00638 -0.01361,-0.00726 -0.03125,0 -0.01764,0.00726 -0.01399,-0.00812 -0.03125,0 -0.01726,0.00812 0.01683,0.022289 0,0.03125 -0.01683,0.00896 -0.01488,-0.00978 -0.03125,0 -0.01587,0.010577 -0.01592,0.019903 -0.03125,0.03125 -0.01475,0.01209 -0.01712,-0.012803 -0.03125,0 -0.01413,0.012803 0.01348,0.017765 0,0.03125 -0.01348,0.013485 -0.01845,-0.014134 -0.03125,0 -0.0128,0.014134 0.01209,0.016501 0,0.03125 -0.01135,0.015327 -0.02067,0.015381 -0.03125,0.03125 -0.0098,0.016371 0.009,0.014416 0,0.03125 -0.009,0.016834 -0.02313,-0.017256 -0.03125,0 -0.0081,0.017256 0.0073,0.013615 0,0.03125 -0.0073,0.017635 0.0064,0.013278 0,0.03125 -0.0055,0.018265 0.0046,0.012736 0,0.03125 -0.0046,0.018514 -0.02759,-0.018717 -0.03125,0 -0.0037,0.018717 0.0027,0.012376 0,0.03125 -0.0027,0.018874 0.0018,0.012264 0,0.03125 -8.53e-4,0.019051 -8.8e-5,0.01218 0,0.03125 l 0.09375,52.71875 c -8.8e-5,0.01907 -8.53e-4,0.0122 0,0.03125 0.0018,0.01899 -0.0027,0.01238 0,0.03125 0.0027,0.01887 -0.0037,0.01253 0,0.03125 0.0037,0.01872 0.02667,-0.01851 0.03125,0 0.0046,0.01851 -0.0055,0.01299 0,0.03125 0.0064,0.01797 -0.0073,0.01361 0,0.03125 0.0073,0.01764 -0.0081,0.01399 0,0.03125 0.0081,0.01726 0.02229,-0.01683 0.03125,0 0.009,0.01683 -0.0098,0.01488 0,0.03125 0.01058,0.01587 0.0199,0.01592 0.03125,0.03125 0.01209,0.01475 -0.0128,0.01712 0,0.03125 0.0128,0.01413 0.01777,-0.01349 0.03125,0 0.01348,0.01349 -0.01413,0.01845 0,0.03125 0.01413,0.0128 0.0165,-0.01209 0.03125,0 0.01533,0.01135 0.01538,0.02067 0.03125,0.03125 0.01637,0.0098 0.01442,-0.009 0.03125,0 0.01683,0.009 -0.01726,0.02313 0,0.03125 0.01726,0.0081 0.01361,-0.0073 0.03125,0 0.01764,0.0073 0.01328,-0.0064 0.03125,0 0.01826,0.0055 0.01274,-0.0046 0.03125,0 0.01851,0.0046 -0.01872,0.02759 0,0.03125 0.01872,0.0037 0.01238,-0.0027 0.03125,0 0.01887,0.0027 0.01226,-0.0018 0.03125,0 0.01905,8.53e-4 0.01218,8.8e-5 0.03125,0 l 36.125,0 c 0.01907,8.8e-5 0.0122,8.53e-4 0.03125,0 0.01899,-0.0018 0.01238,0.0027 0.03125,0 0.01887,-0.0027 0.01253,0.0037 0.03125,0 0.01872,-0.0037 -0.01851,-0.02667 0,-0.03125 0.01851,-0.0046 0.01299,0.0055 0.03125,0 0.01797,-0.0064 0.01361,0.0073 0.03125,0 0.01764,-0.0073 0.01399,0.0081 0.03125,0 0.01726,-0.0081 -0.01683,-0.02229 0,-0.03125 0.01683,-0.009 0.01488,0.0098 0.03125,0 0.01587,-0.01058 0.01592,-0.0199 0.03125,-0.03125 0.01475,-0.01209 0.01712,0.0128 0.03125,0 0.01413,-0.0128 -0.01349,-0.01776 0,-0.03125 0.01349,-0.01349 0.01845,0.01413 0.03125,0 0.0128,-0.01413 -0.01209,-0.0165 0,-0.03125 0.01135,-0.01533 0.02067,-0.01538 0.03125,-0.03125 0.0098,-0.01637 -0.009,-0.01442 0,-0.03125 0.009,-0.01683 0.02313,0.01726 0.03125,0 0.0081,-0.01726 -0.0073,-0.01361 0,-0.03125 0.0073,-0.01764 -0.0064,-0.01328 0,-0.03125 0.0055,-0.01826 -0.0046,-0.01274 0,-0.03125 0.0046,-0.01851 0.02759,0.01872 0.03125,0 0.0037,-0.01872 -0.0027,-0.01238 0,-0.03125 0.0027,-0.01887 -0.0018,-0.01226 0,-0.03125 8.53e-4,-0.01905 8.8e-5,-0.01218 0,-0.03125 l 0,-41.5 c 5.61e-4,-0.01788 2.68e-4,-0.01336 0,-0.03125 -2.68e-4,-0.01789 0.0011,-0.01339 0,-0.03125 -0.0019,-0.01779 0.0027,-0.01357 0,-0.03125 -0.0036,-0.01754 -0.02688,-0.0139 -0.03125,-0.03125 -0.0052,-0.01713 0.006,-0.01438 0,-0.03125 -0.006,-0.01687 0.0067,-0.01467 0,-0.03125 -0.0075,-0.01625 -0.02301,-0.01536 -0.03125,-0.03125 -0.009,-0.01549 0.0097,-0.01619 0,-0.03125 -0.0097,-0.01506 -0.02089,0.01459 -0.03125,0 -0.01036,-0.01459 0.01102,-0.01715 0,-0.03125 l -10,-11.28125 c -0.01477,-0.014386 -0.01573,-0.017673 -0.03125,-0.03125 -0.01622,-0.01273 -0.01437,-0.019404 -0.03125,-0.03125 -0.01688,-0.011846 -0.01377,0.010929 -0.03125,0 -0.01804,-0.00998 -0.0127,-0.022246 -0.03125,-0.03125 -0.019,-0.008 -0.01185,0.00698 -0.03125,0 -0.0194,-0.00698 -0.0115,0.00593 -0.03125,0 -0.02004,-0.00487 -0.01098,-0.027457 -0.03125,-0.03125 -0.02027,-0.00379 -0.01081,0.00271 -0.03125,0 -0.02056,-0.00161 -0.01064,5.12e-4 -0.03125,0 -0.02061,-5.12e-4 -0.01064,-5.886e-4 -0.03125,0 z"
       transform="matrix(1.1556819,0,0,1.1556819,-5.1530348,-5.3757078)"
       id="path3767"
       style="opacity:0.2;fill:#000000;stroke:none" />
  </g>
  <g
     id="layer1"
     style="display:inline">
    <path
       d="m 10.197415,1.9541811 30.429316,-0.052738 11.602165,13.0788039 0,48.148985 -41.926007,0 z"
       id="path4051"
       style="fill:#ffffff;fill-opacity:1;stroke:none" />
    <path
       d="m 39.881855,5.0656708 0.369161,10.4946852 8.965309,0 -6.803088,-1.951272 z"
       id="path4561"
       style="fill:#999999;stroke:none" />
    <path
       d="m 16.993947,7.6497889 c 0,0 5.379187,11.2330061 6.539403,14.8718651 1.160216,3.638862 7.594144,18.510729 9.12352,19.670945 1.529377,1.160216 2.056748,0.896531 2.056748,0.896531 0,0 -0.632845,0.685582 0.158211,1.476638 0.791057,0.791058 4.693603,3.533388 4.693603,3.533388 0,0 -0.949266,-3.955284 -1.318427,-5.062764 -0.369161,-1.107479 -1.212955,-1.582113 -1.212955,-1.582113 0,0 0.632847,-1.212953 0,-2.373169 C 36.401206,37.920894 26.27568,23.840083 24.324406,19.726588 22.373134,15.613093 16.993947,7.6497889 16.993947,7.6497889 z"
       id="path4563"
       style="fill:#b3b3b3;fill-opacity:1;stroke:none" />
    <path
       d="m 39.80275,48.468316 c -0.07911,0.105475 -2.795068,1.423901 -4.56176,1.45027 -1.766694,0.02638 -5.932927,-0.395528 -8.042411,0.05273 -2.109485,0.448266 -5.326449,1.582115 -5.326449,1.582115 0,0 3.757519,-2.808252 7.106326,-2.992832 3.348807,-0.18458 4.498439,0.30477 6.813462,0.293804 1.257792,-0.0059 4.010832,-0.38609 4.010832,-0.386089 z"
       id="path4565"
       style="fill:#b3b3b3;stroke:none" />
    <path
       d="m 52.470849,62.239272 0,0.941593 -41.933473,0 0,-0.811074 0.09322,0.652589 41.709728,-0.05594 z"
       id="path4570"
       style="fill:#999999;stroke:none" />
  </g>
</svg>
