<?xml version="1.0" encoding="UTF-8" standalone="no"?>
<!-- Created with Inkscape (http://www.inkscape.org/) -->

<svg
   xmlns:dc="http://purl.org/dc/elements/1.1/"
   xmlns:cc="http://creativecommons.org/ns#"
   xmlns:rdf="http://www.w3.org/1999/02/22-rdf-syntax-ns#"
   xmlns:svg="http://www.w3.org/2000/svg"
   xmlns="http://www.w3.org/2000/svg"
   xmlns:sodipodi="http://sodipodi.sourceforge.net/DTD/sodipodi-0.dtd"
   xmlns:inkscape="http://www.inkscape.org/namespaces/inkscape"
   version="1.1"
   width="64"
   height="64"
   id="svg2985"
   inkscape:version="0.48.4 r9939"
   sodipodi:docname="folder.svg">
  <sodipodi:namedview
     pagecolor="#ffffff"
     bordercolor="#666666"
     borderopacity="1"
     objecttolerance="10"
     gridtolerance="10"
     guidetolerance="10"
     inkscape:pageopacity="0"
     inkscape:pageshadow="2"
     inkscape:window-width="1235"
     inkscape:window-height="986"
     id="namedview15"
     showgrid="false"
     inkscape:zoom="166.8772"
     inkscape:cx="28.295389"
     inkscape:cy="55.747366"
     inkscape:window-x="43"
     inkscape:window-y="0"
     inkscape:window-maximized="1"
     inkscape:current-layer="svg2985" />
  <defs
     id="defs2987">
    <linearGradient
       id="linearGradient3765">
      <stop
         id="stop3767"
         style="stop-color:#c8c8c8;stop-opacity:1"
         offset="0" />
      <stop
         id="stop3769"
         style="stop-color:#ffffff;stop-opacity:1"
         offset="1" />
    </linearGradient>
  </defs>
  <metadata
     id="metadata2990">
    <rdf:RDF>
      <cc:Work
         rdf:about="">
        <dc:format>image/svg+xml</dc:format>
        <dc:type
           rdf:resource="http://purl.org/dc/dcmitype/StillImage" />
        <dc:title />
      </cc:Work>
    </rdf:RDF>
  </metadata>
  <g
     id="g3755"
     style="display:inline">
    <path
       sodipodi:type="inkscape:offset"
       inkscape:radius="0.55348504"
       inkscape:original="M 27.3125 7.09375 L 3.03125 7.9375 A 0.56318157 0.56318157 0 0 0 2.5 8.5 L 2.5 60.875 A 0.56318157 0.56318157 0 0 0 3.0625 61.4375 L 60.59375 61.4375 A 0.56318157 0.56318157 0 0 0 61.15625 60.875 L 61.15625 17.25 A 0.56318157 0.56318157 0 0 0 60.59375 16.6875 L 39.4375 16.6875 L 27.6875 7.21875 A 0.56318157 0.56318157 0 0 0 27.3125 7.09375 z "
       style="opacity:0.1;fill:#000000;stroke:none;display:inline"
       id="path2992"
       d="M 27.28125,6.53125 3,7.375 c -1.527e-4,8.7e-6 -0.062348,-1.59e-5 -0.0625,0 -1.521e-4,1.59e-5 -0.031099,0.031227 -0.03125,0.03125 -1.512e-4,2.31e-5 -0.06235,-3.02e-5 -0.0625,0 -1.5e-4,3.02e-5 -0.062352,-3.73e-5 -0.0625,0 -1.484e-4,3.73e-5 -0.031104,0.031206 -0.03125,0.03125 -1.464e-4,4.42e-5 -0.062356,-5.11e-5 -0.0625,0 -1.442e-4,5.11e-5 -0.031108,0.031192 -0.03125,0.03125 -1.416e-4,5.79e-5 -0.062361,0.031186 -0.0625,0.03125 -1.387e-4,6.45e-5 -0.062365,-7.1e-5 -0.0625,0 -1.355e-4,7.1e-5 -0.031118,0.031173 -0.03125,0.03125 -1.32e-4,7.73e-5 -0.031122,0.031167 -0.03125,0.03125 -1.282e-4,8.35e-5 -0.062376,0.031161 -0.0625,0.03125 -1.241e-4,8.95e-5 -0.03113,0.031155 -0.03125,0.03125 -1.197e-4,9.52e-5 -0.062385,0.031149 -0.0625,0.03125 -1.151e-4,1.008e-4 -0.03114,0.031144 -0.03125,0.03125 -1.102e-4,1.061e-4 -0.031145,0.031139 -0.03125,0.03125 -1.05e-4,1.112e-4 -0.03115,0.062384 -0.03125,0.0625 -9.97e-5,1.161e-4 -0.031156,0.031129 -0.03125,0.03125 -9.41e-5,1.206e-4 -0.031162,0.031125 -0.03125,0.03125 -8.82e-5,1.25e-4 -0.031168,0.062371 -0.03125,0.0625 -8.22e-5,1.29e-4 -0.031174,0.031117 -0.03125,0.03125 -7.6e-5,1.327e-4 -0.03118,0.062364 -0.03125,0.0625 -6.97e-5,1.362e-4 -0.031187,0.031111 -0.03125,0.03125 -6.31e-5,1.393e-4 5.65e-5,0.062358 0,0.0625 -5.65e-5,1.422e-4 -0.0312,0.031105 -0.03125,0.03125 -4.97e-5,1.447e-4 4.28e-5,0.062353 0,0.0625 -4.28e-5,1.469e-4 -0.031214,0.062351 -0.03125,0.0625 -3.58e-5,1.487e-4 2.87e-5,0.0311 0,0.03125 -2.87e-5,1.502e-4 2.16e-5,0.062349 0,0.0625 -2.16e-5,1.514e-4 -0.031236,0.062348 -0.03125,0.0625 -1.44e-5,1.523e-4 7.2e-6,0.031097 0,0.03125 -7.2e-6,1.528e-4 -1e-7,0.062347 0,0.0625 l 0,52.375 c 2e-7,1.58e-4 -8e-6,0.06234 0,0.0625 8e-6,1.58e-4 -1.57e-5,0.06234 0,0.0625 1.57e-5,1.58e-4 0.031227,0.03109 0.03125,0.03125 2.34e-5,1.57e-4 -3.1e-5,0.06235 0,0.0625 3.1e-5,1.55e-4 -3.86e-5,0.06235 0,0.0625 3.86e-5,1.54e-4 0.031204,0.0311 0.03125,0.03125 4.61e-5,1.52e-4 -5.35e-5,0.06235 0,0.0625 5.35e-5,1.49e-4 0.031189,0.06235 0.03125,0.0625 6.07e-5,1.46e-4 0.031182,0.03111 0.03125,0.03125 6.78e-5,1.43e-4 0.031175,0.06236 0.03125,0.0625 7.47e-5,1.4e-4 -8.15e-5,0.03111 0,0.03125 8.15e-5,1.36e-4 0.031162,0.06237 0.03125,0.0625 8.81e-5,1.32e-4 0.031156,0.03112 0.03125,0.03125 9.44e-5,1.27e-4 0.03115,0.06238 0.03125,0.0625 1.005e-4,1.22e-4 0.062394,0.03113 0.0625,0.03125 1.064e-4,1.17e-4 0.031138,0.03114 0.03125,0.03125 1.12e-4,1.12e-4 0.031133,0.03114 0.03125,0.03125 1.174e-4,1.06e-4 0.031128,0.0624 0.03125,0.0625 1.224e-4,1.01e-4 0.062373,0.03116 0.0625,0.03125 1.272e-4,9.4e-5 0.031118,0.03116 0.03125,0.03125 1.317e-4,8.8e-5 0.062364,0.03117 0.0625,0.03125 1.358e-4,8.1e-5 0.03111,-7.5e-5 0.03125,0 1.397e-4,7.5e-5 0.062357,0.03118 0.0625,0.03125 1.432e-4,6.8e-5 0.031104,0.03119 0.03125,0.03125 1.463e-4,6.1e-5 0.062351,0.0312 0.0625,0.03125 1.491e-4,5.3e-5 0.062348,-4.6e-5 0.0625,0 1.516e-4,4.6e-5 0.031096,0.03121 0.03125,0.03125 1.536e-4,3.9e-5 0.062345,-3.1e-5 0.0625,0 1.553e-4,3.1e-5 0.062343,-2.3e-5 0.0625,0 1.567e-4,2.3e-5 0.031092,0.03123 0.03125,0.03125 1.576e-4,1.6e-5 0.062342,-8e-6 0.0625,0 1.582e-4,8e-6 0.062342,0 0.0625,0 l 57.53125,0 c 1.58e-4,0 0.06234,8e-6 0.0625,0 1.58e-4,-8e-6 0.06234,1.6e-5 0.0625,0 1.58e-4,-1.6e-5 0.03109,-0.03123 0.03125,-0.03125 1.57e-4,-2.3e-5 0.06235,3.1e-5 0.0625,0 1.55e-4,-3.1e-5 0.06235,3.9e-5 0.0625,0 1.54e-4,-3.9e-5 0.0311,-0.0312 0.03125,-0.03125 1.52e-4,-4.6e-5 0.06235,5.3e-5 0.0625,0 1.49e-4,-5.3e-5 0.06235,-0.03119 0.0625,-0.03125 1.46e-4,-6.1e-5 0.03111,-0.03118 0.03125,-0.03125 1.43e-4,-6.8e-5 0.06236,-0.03117 0.0625,-0.03125 1.4e-4,-7.5e-5 0.03111,8.1e-5 0.03125,0 1.36e-4,-8.1e-5 0.06237,-0.03116 0.0625,-0.03125 1.32e-4,-8.8e-5 0.03112,-0.03116 0.03125,-0.03125 1.27e-4,-9.4e-5 0.06238,-0.03115 0.0625,-0.03125 1.22e-4,-1.01e-4 0.03113,-0.06239 0.03125,-0.0625 1.17e-4,-1.06e-4 0.03114,-0.03114 0.03125,-0.03125 1.12e-4,-1.12e-4 0.03114,-0.03113 0.03125,-0.03125 1.06e-4,-1.17e-4 0.0624,-0.03113 0.0625,-0.03125 1.01e-4,-1.22e-4 0.03116,-0.06237 0.03125,-0.0625 9.4e-5,-1.27e-4 0.03116,-0.03112 0.03125,-0.03125 8.8e-5,-1.32e-4 0.03117,-0.06236 0.03125,-0.0625 8.1e-5,-1.36e-4 -7.5e-5,-0.03111 0,-0.03125 7.5e-5,-1.4e-4 0.03118,-0.06236 0.03125,-0.0625 6.8e-5,-1.43e-4 0.03119,-0.0311 0.03125,-0.03125 6.1e-5,-1.46e-4 0.0312,-0.06235 0.03125,-0.0625 5.3e-5,-1.49e-4 -4.6e-5,-0.06235 0,-0.0625 4.6e-5,-1.52e-4 0.03121,-0.0311 0.03125,-0.03125 3.9e-5,-1.54e-4 -3.1e-5,-0.06235 0,-0.0625 3.1e-5,-1.55e-4 -2.3e-5,-0.06234 0,-0.0625 2.3e-5,-1.57e-4 0.03123,-0.03109 0.03125,-0.03125 1.6e-5,-1.58e-4 -8e-6,-0.06234 0,-0.0625 8e-6,-1.58e-4 0,-0.06234 0,-0.0625 l 0,-43.625 c 0,-1.58e-4 8e-6,-0.06234 0,-0.0625 -8e-6,-1.58e-4 1.6e-5,-0.06234 0,-0.0625 -1.6e-5,-1.58e-4 -0.03123,-0.03109 -0.03125,-0.03125 -2.3e-5,-1.57e-4 3.1e-5,-0.06235 0,-0.0625 -3.1e-5,-1.55e-4 3.9e-5,-0.06235 0,-0.0625 -3.9e-5,-1.54e-4 -0.0312,-0.0311 -0.03125,-0.03125 -4.6e-5,-1.52e-4 5.3e-5,-0.06235 0,-0.0625 -5.3e-5,-1.49e-4 -0.03119,-0.06235 -0.03125,-0.0625 -6.1e-5,-1.46e-4 -0.03118,-0.03111 -0.03125,-0.03125 -6.8e-5,-1.43e-4 -0.03117,-0.06236 -0.03125,-0.0625 -7.5e-5,-1.4e-4 8.1e-5,-0.03111 0,-0.03125 -8.1e-5,-1.36e-4 -0.03116,-0.06237 -0.03125,-0.0625 -8.8e-5,-1.32e-4 -0.03116,-0.03112 -0.03125,-0.03125 -9.4e-5,-1.27e-4 -0.03115,-0.06238 -0.03125,-0.0625 -1.01e-4,-1.22e-4 -0.06239,-0.03113 -0.0625,-0.03125 -1.06e-4,-1.17e-4 -0.03114,-0.03114 -0.03125,-0.03125 -1.12e-4,-1.12e-4 -0.03113,-0.03114 -0.03125,-0.03125 -1.17e-4,-1.06e-4 -0.03113,-0.0624 -0.03125,-0.0625 -1.22e-4,-1.01e-4 -0.06237,-0.03116 -0.0625,-0.03125 -1.27e-4,-9.4e-5 -0.03112,-0.03116 -0.03125,-0.03125 -1.32e-4,-8.8e-5 -0.06236,-0.03117 -0.0625,-0.03125 -1.36e-4,-8.1e-5 -0.03111,7.5e-5 -0.03125,0 -1.4e-4,-7.5e-5 -0.06236,-0.03118 -0.0625,-0.03125 -1.43e-4,-6.8e-5 -0.0311,-0.03119 -0.03125,-0.03125 -1.46e-4,-6.1e-5 -0.06235,-0.0312 -0.0625,-0.03125 -1.49e-4,-5.3e-5 -0.06235,4.6e-5 -0.0625,0 -1.52e-4,-4.6e-5 -0.0311,-0.03121 -0.03125,-0.03125 -1.54e-4,-3.9e-5 -0.06235,3.1e-5 -0.0625,0 -1.55e-4,-3.1e-5 -0.06234,2.3e-5 -0.0625,0 -1.57e-4,-2.3e-5 -0.03109,-0.03123 -0.03125,-0.03125 -1.58e-4,-1.6e-5 -0.06234,8e-6 -0.0625,0 -1.58e-4,-8e-6 -0.06234,0 -0.0625,0 L 39.625,16.125 28.03125,6.78125 C 28.031137,6.7811589 28.000117,6.750086 28,6.75 c -1.17e-4,-8.6e-5 -0.03113,-0.031169 -0.03125,-0.03125 -1.2e-4,-8.07e-5 -0.06238,-0.031175 -0.0625,-0.03125 -1.24e-4,-7.52e-5 -0.03112,6.96e-5 -0.03125,0 -1.27e-4,-6.96e-5 -0.06237,-0.031186 -0.0625,-0.03125 -1.3e-4,-6.38e-5 -0.03112,-0.031192 -0.03125,-0.03125 -1.33e-4,-5.79e-5 -0.06236,5.19e-5 -0.0625,0 -1.35e-4,-5.19e-5 -0.03111,-0.031204 -0.03125,-0.03125 -1.37e-4,-4.58e-5 -0.06236,3.96e-5 -0.0625,0 -1.39e-4,-3.96e-5 -0.03111,-0.031217 -0.03125,-0.03125 -1.41e-4,-3.33e-5 -0.06236,2.7e-5 -0.0625,0 -1.42e-4,-2.7e-5 -0.03111,2.06e-5 -0.03125,0 -1.43e-4,-2.06e-5 -0.06236,-0.031236 -0.0625,-0.03125 -1.44e-4,-1.41e-5 -0.03111,7.6e-6 -0.03125,0 -1.45e-4,-7.6e-6 -0.06236,1.2e-6 -0.0625,0 -1.45e-4,-1.2e-6 -0.06236,-5.3e-6 -0.0625,0 z" />
    <path
       sodipodi:type="inkscape:offset"
       inkscape:radius="0.3889088"
       inkscape:original="M 27.34375 7.28125 L 3.0625 8.125 C 3.0616369 8.125 3.032113 8.1249705 3.03125 8.125 C 3.0303874 8.1249705 3.000863 8.125 3 8.125 A 0.15304668 0.15304668 0 0 0 2.96875 8.125 C 2.9678283 8.1252956 2.93841 8.1246693 2.9375 8.125 C 2.9365903 8.1253307 2.9383964 8.155885 2.9375 8.15625 C 2.9366036 8.1566153 2.907132 8.1558506 2.90625 8.15625 C 2.9053842 8.1566829 2.875849 8.1557843 2.875 8.15625 C 2.8741699 8.1567479 2.8758104 8.186971 2.875 8.1875 C 2.8741896 8.1880294 2.84454 8.18694 2.84375 8.1875 C 2.843288 8.1878994 2.812952 8.21834 2.8125 8.21875 C 2.812038 8.2191494 2.781702 8.24959 2.78125 8.25 C 2.7808395 8.2504522 2.750399 8.280788 2.75 8.28125 C 2.74944 8.2820395 2.7505294 8.31169 2.75 8.3125 C 2.7494706 8.3133104 2.719248 8.3116699 2.71875 8.3125 C 2.7182843 8.3133486 2.7191829 8.342884 2.71875 8.34375 C 2.7183506 8.3446317 2.7191153 8.374104 2.71875 8.375 C 2.7183847 8.3758964 2.687831 8.3740903 2.6875 8.375 C 2.6871693 8.3759097 2.6877956 8.405328 2.6875 8.40625 A 0.15304668 0.15304668 0 0 0 2.6875 8.4375 C 2.6875 8.4383631 2.6874705 8.467887 2.6875 8.46875 C 2.6874705 8.4696126 2.6875 8.499137 2.6875 8.5 L 2.6875 60.875 C 2.6875 60.875863 2.6874705 60.90539 2.6875 60.90625 C 2.6874705 60.907113 2.6875 60.93664 2.6875 60.9375 A 0.15304668 0.15304668 0 0 0 2.6875 60.96875 C 2.6877956 60.969672 2.6871693 60.99909 2.6875 61 C 2.6878307 61.00091 2.718385 60.999104 2.71875 61 C 2.7191153 61.000896 2.7183506 61.03037 2.71875 61.03125 C 2.7191829 61.032116 2.7182843 61.06165 2.71875 61.0625 C 2.7192479 61.06333 2.749471 61.06169 2.75 61.0625 C 2.7504379 61.063318 2.7495323 61.09295 2.75 61.09375 C 2.7505253 61.094515 2.780697 61.12425 2.78125 61.125 C 2.78183 61.125724 2.7806437 61.15555 2.78125 61.15625 C 2.7818563 61.156953 2.811868 61.15557 2.8125 61.15625 C 2.8131799 61.156882 2.8117974 61.18689 2.8125 61.1875 C 2.8132026 61.188106 2.843026 61.18692 2.84375 61.1875 C 2.8444952 61.188053 2.874235 61.21822 2.875 61.21875 C 2.8758015 61.219218 2.905432 61.218312 2.90625 61.21875 A 0.15304668 0.15304668 0 0 0 2.9375 61.25 A 0.15304668 0.15304668 0 0 0 2.96875 61.25 C 2.9696126 61.250029 2.999137 61.25 3 61.25 C 3.0008631 61.25 3.030387 61.250029 3.03125 61.25 C 3.0321126 61.250029 3.061637 61.25 3.0625 61.25 L 60.59375 61.25 C 60.594613 61.250029 60.62414 61.25 60.625 61.25 C 60.625863 61.25 60.65539 61.250029 60.65625 61.25 A 0.15304668 0.15304668 0 0 0 60.6875 61.25 C 60.688422 61.249704 60.71784 61.250331 60.71875 61.25 C 60.71966 61.249669 60.717854 61.21912 60.71875 61.21875 C 60.719646 61.218385 60.74912 61.219149 60.75 61.21875 C 60.750866 61.218317 60.7804 61.219216 60.78125 61.21875 C 60.78208 61.218252 60.78044 61.18803 60.78125 61.1875 C 60.78206 61.186971 60.81171 61.18806 60.8125 61.1875 C 60.813265 61.186975 60.843 61.1568 60.84375 61.15625 C 60.844474 61.15567 60.8743 61.156856 60.875 61.15625 C 60.875703 61.155644 60.87432 61.12563 60.875 61.125 C 60.875632 61.12432 60.90564 61.125703 60.90625 61.125 C 60.906856 61.124297 60.90567 61.09447 60.90625 61.09375 C 60.906803 61.093005 60.93697 61.06327 60.9375 61.0625 C 60.937968 61.061698 60.937062 61.03207 60.9375 61.03125 A 0.15304668 0.15304668 0 0 0 60.96875 61 A 0.15304668 0.15304668 0 0 0 60.96875 60.96875 C 60.968779 60.967887 60.96875 60.93836 60.96875 60.9375 C 60.96875 60.936637 60.968779 60.90711 60.96875 60.90625 C 60.968779 60.905387 60.96875 60.87586 60.96875 60.875 L 60.96875 17.25 C 60.96875 17.249137 60.968779 17.21961 60.96875 17.21875 C 60.968779 17.217887 60.96875 17.18836 60.96875 17.1875 A 0.15304668 0.15304668 0 0 0 60.96875 17.15625 C 60.968454 17.155328 60.969081 17.12591 60.96875 17.125 C 60.968419 17.12409 60.93787 17.125896 60.9375 17.125 C 60.937135 17.124104 60.937899 17.09463 60.9375 17.09375 C 60.937067 17.092884 60.937966 17.06335 60.9375 17.0625 C 60.937002 17.06167 60.90678 17.06331 60.90625 17.0625 C 60.905721 17.06169 60.90681 17.03204 60.90625 17.03125 C 60.905725 17.030485 60.87555 17.00074 60.875 17 C 60.87442 16.999276 60.875606 16.96945 60.875 16.96875 C 60.874394 16.968047 60.84438 16.96943 60.84375 16.96875 C 60.84307 16.968118 60.844453 16.93811 60.84375 16.9375 C 60.843047 16.936894 60.81322 16.93808 60.8125 16.9375 C 60.811755 16.936947 60.78202 16.90677 60.78125 16.90625 C 60.780448 16.905782 60.75082 16.906688 60.75 16.90625 A 0.15304668 0.15304668 0 0 0 60.71875 16.875 A 0.15304668 0.15304668 0 0 0 60.6875 16.875 C 60.686637 16.875 60.65711 16.874971 60.65625 16.875 C 60.655387 16.874971 60.62586 16.875 60.625 16.875 C 60.624137 16.875 60.59461 16.874971 60.59375 16.875 L 39.4375 16.875 L 27.59375 7.34375 C 27.59316 7.343397 27.5631 7.3440868 27.5625 7.34375 C 27.561901 7.3434132 27.563108 7.31282 27.5625 7.3125 C 27.561884 7.3121963 27.53187 7.3127868 27.53125 7.3125 C 27.530611 7.3122476 27.50065 7.312735 27.5 7.3125 C 27.499342 7.3123005 27.46941 7.281432 27.46875 7.28125 C 27.468078 7.2811048 27.43818 7.2813769 27.4375 7.28125 A 0.15304668 0.15304668 0 0 0 27.40625 7.28125 C 27.405387 7.2812205 27.37586 7.28125 27.375 7.28125 C 27.374137 7.28125 27.34461 7.2812205 27.34375 7.28125 z "
       style="opacity:0.15;fill:#000000;stroke:none;display:inline"
       id="path2994"
       d="M 27.34375,6.90625 3.0625,7.75 c 0.008,0 -0.030387,-2.95e-5 -0.03125,0 -8.626e-4,-2.95e-5 -0.03925,0 -0.03125,0 0.00402,0 -0.035265,2.055e-4 -0.03125,0 0.00402,-2.055e-4 -0.035249,4.104e-4 -0.03125,0 a 0.38894769,0.38894769 0 0 0 -0.03125,0 c 0,0 -5.021e-4,0.026389 0,0.03125 -0.00387,-5.72e-5 -0.024824,2.66e-5 -0.03125,0 -6.662e-4,-0.00465 0,-0.03125 0,-0.03125 a 0.38894769,0.38894769 0 0 0 -0.03125,0 0.38894769,0.38894769 0 0 0 -0.03125,0 c 0,0 0.00387,0.029189 0,0.03125 0,0 -6.879e-4,0.026602 0,0.03125 -1.304e-4,1.15e-5 -0.031171,-1.44e-5 -0.03125,0 0,0 0.0625,0.375 0.0625,0.375 0,0 -0.09375,-0.375 -0.09375,-0.375 a 0.38894769,0.38894769 0 0 0 0.03125,0 c -8.929e-4,-0.00432 0,-0.03125 0,-0.03125 -0.010544,0.00562 -0.020706,-0.00562 -0.03125,0 0,0 -0.03125,0 -0.03125,0 a 0.38894769,0.38894769 0 0 0 0,0.03125 0.38894769,0.38894769 0 0 0 -0.03125,0 c 0,0 0.00301,0.028896 0,0.03125 -0.00452,0.00353 -0.023035,-0.00642 -0.03125,0 C 2.634342,7.8608689 2.59375,7.875 2.59375,7.875 a 0.38894769,0.38894769 0 0 0 0,0.03125 c -0.00695,0.00803 0.00463,0.025898 0,0.03125 -0.00232,0.00268 -0.03125,0 -0.03125,0 l 0,0.03125 C 2.5500274,7.9899234 2.53125,8 2.53125,8 c 0,0 -0.028197,-0.00764 -0.03125,0 0,0 0.00268,0.028935 0,0.03125 -0.00535,0.00463 -0.023225,-0.00694 -0.03125,0 -0.00803,0.00694 -0.03125,0 -0.03125,0 a 0.38894769,0.38894769 0 0 0 0,0.03125 0.38894769,0.38894769 0 0 0 -0.03125,0 0.38894769,0.38894769 0 0 0 0,0.03125 0.38894769,0.38894769 0 0 0 0,0.03125 0.38894769,0.38894769 0 0 0 -0.03125,0 c 0,0 0.00522,0.020118 0,0.03125 -0.00522,0.011132 -0.03125,0 -0.03125,0 0,0 0,0.03125 0,0.03125 a 0.38894769,0.38894769 0 0 0 0,0.03125 c 0,0 0.027451,0.00975 0.03125,0 0,0 0,-0.03125 0,-0.03125 0,0 0.091483,0.03799 0.1875,0.0625 -0.029666,-0.00704 -0.03612,0.00626 -0.0625,0 -0.056805,-0.00495 -0.1249962,-4.32e-5 -0.125,0 0,0 0.1744133,0.044453 0.28125,0.0625 -0.080557,-0.00578 -0.2369745,-0.028132 -0.28125,-0.03125 0.052457,0.00918 0.34375,0.0625 0.34375,0.0625 -9.4e-6,7.49e-5 -0.2894965,-0.03111 -0.34375,-0.03125 -0.00848,-0.00122 -0.026599,6.666e-4 -0.03125,0 1.73e-5,-2.641e-4 5.54e-5,0.028468 0,0.03125 -0.00489,-1.03e-5 -0.031232,-3.443e-4 -0.03125,0 -4.276e-4,0.00832 4.91e-5,0.028347 0,0.03125 4.104e-4,-0.004 -2.055e-4,0.035265 0,0.03125 2.055e-4,-0.00402 0,0.03527 0,0.03125 0,-0.008 -2.95e-5,0.030387 0,0.03125 -2.95e-5,8.626e-4 0,0.03925 0,0.03125 l 0,52.375 c 0,-0.008 -2.95e-5,0.03039 0,0.03125 4.104e-4,-0.004 -2.055e-4,0.03527 0,0.03125 0,-0.004 2.055e-4,0.03527 0,0.03125 2.31e-5,0.0017 -3.06e-4,0.0243 0,0.03125 4.91e-5,0.0029 -4.275e-4,0.02293 0,0.03125 0,0 0.026588,5.87e-4 0.03125,0 6.92e-5,0.0034 -6.256e-4,0.02118 0,0.03125 -0.00465,6.66e-4 -0.03125,0 -0.03125,0 0,0 0,0.03125 0,0.03125 l 0.03125,0 L 2.375,61.125 c 0.00465,-6.88e-4 0.022774,0.0013 0.03125,0 -0.00217,4.49e-4 0.00198,0.03084 0,0.03125 0.00465,-7.01e-4 0.022777,0.0013 0.03125,0 1.538e-4,0.0047 2.74e-5,0.03151 0,0.03125 -0.00789,0.0017 -0.026937,-9.15e-4 -0.03125,0 a 0.38894769,0.38894769 0 0 0 -0.03125,0 0.38894769,0.38894769 0 0 0 0,-0.03125 c -0.00432,8.93e-4 -0.03125,0 -0.03125,0 0.00562,0.01054 -0.00562,0.02071 0,0.03125 0,0 0,0.03125 0,0.03125 a 0.38894769,0.38894769 0 0 0 0.03125,0 0.38894769,0.38894769 0 0 0 0,0.03125 c 0,0 0.02055,0.01756 0.03125,0.03125 0.0107,0.01369 0.023225,0.02098 0.03125,0.03125 0,0 -0.00721,0.02043 0,0.03125 l 0.03125,0 c 0.00401,0.0035 -0.00401,0.02778 0,0.03125 0.00803,0.0069 0.03125,0 0.03125,0 -0.00395,-0.0032 0.00395,-0.02802 0,-0.03125 -0.00777,-0.0054 0.010357,-0.024 0,-0.03125 L 2.78125,61.15625 2.5625,61.375 c 0,0 -0.022449,0.004 -0.03125,0 l 0,0.03125 a 0.38894769,0.38894769 0 0 0 0,0.03125 c 0.0077,0.0072 0.025477,-0.0054 0.03125,0 0.00577,0.0054 0,0.03125 0,0.03125 0,0 0.025843,-0.0039 0.03125,0 0.00321,0.0027 -0.0031,0.02868 0,0.03125 0.00621,0.0051 0.03125,0 0.03125,0 0.00541,0.0039 0,0.03125 0,0.03125 0.012058,0.0056 0.03125,0 0.03125,0 a 0.38894769,0.38894769 0 0 0 0,0.03125 c 0.013159,0.005 0.03125,0 0.03125,0 0,0 0.03125,0 0.03125,0 0.011959,0.0059 0,0.03125 0,0.03125 a 0.38894769,0.38894769 0 0 0 0.0625,0 c 0,0 -9.156e-4,-0.02694 0,-0.03125 l 0.03125,0 -0.03125,-0.03125 c 4.188e-4,-0.002 0.03079,0.0022 0.03125,0 l 0.0625,-0.1875 c -0.00734,0.100709 -0.02879,0.184225 -0.03125,0.21875 -3.473e-4,0.0049 -1.08e-5,0.03125 0,0.03125 0,0 -0.03125,0 -0.03125,0 A 0.38894769,0.38894769 0 0 0 2.90625,61.625 c -0.004,-4.1e-4 0.035265,2.05e-4 0.03125,0 -0.00402,0 0.035265,-2.05e-4 0.03125,0 -0.00402,2.05e-4 0.035249,-4.1e-4 0.03125,0 -0.00785,0 0.030387,2.9e-5 0.03125,0 8.626e-4,2.9e-5 0.039099,0 0.03125,0 l 57.53125,0 c 8.63e-4,2.9e-5 0.03913,0 0.03125,0 -0.0078,0 0.03039,2.9e-5 0.03125,0 -0.004,-2.05e-4 0.03527,0 0.03125,0 0.0039,4e-5 0.02583,-1.4e-5 0.03125,0 0.0029,-4.9e-5 0.02292,4.28e-4 0.03125,0 0,0 5.87e-4,-0.02659 0,-0.03125 0.0039,5.7e-5 0.02482,-2.7e-5 0.03125,0 6.67e-4,0.0047 0,0.03125 0,0.03125 0,0 0.03125,0 0.03125,0 a 0.38894769,0.38894769 0 0 0 0.03125,0 c 0,0 0.01369,-0.02188 0.03125,-0.03125 0,0 -0.03125,0 -0.03125,0 0,0 6.88e-4,-0.0266 0,-0.03125 l 0.03125,0 0,0.03125 c 0.01054,-0.0056 0.02071,0.0056 0.03125,0 0,0 0.03125,0 0.03125,0 a 0.38894769,0.38894769 0 0 0 0,-0.03125 0.38894769,0.38894769 0 0 0 0.03125,0 c 0,0 0.01756,-0.02055 0.03125,-0.03125 0.01369,-0.0107 0.02098,-0.02322 0.03125,-0.03125 0,0 0.02253,0.0067 0.03125,0 l 0,-0.03125 c 0.01201,-0.0056 0.03125,0 0.03125,0 0.0069,-0.008 0,-0.03125 0,-0.03125 -0.0032,0.0039 -0.02803,-0.0039 -0.03125,0 l -0.03125,0 -0.15625,-0.28125 0.21875,0.21875 0,0.03125 c 0,0 0.03125,0.03125 0.03125,0.03125 l 0,-0.03125 c 0.0076,-0.0067 0.02552,0.005 0.03125,0 0.0072,-0.0077 -0.0054,-0.02548 0,-0.03125 0.0054,-0.0058 0.03125,0 0.03125,0 0,0 0.02096,-0.01684 0.03125,-0.03125 0.0051,-0.0062 0,-0.03125 0,-0.03125 0.0028,-0.006 0.02845,0.006 0.03125,0 0.0056,-0.01206 0,-0.03125 0,-0.03125 a 0.38894769,0.38894769 0 0 0 0.03125,0 0.38894769,0.38894769 0 0 0 0,-0.03125 c 0,0 0,-0.03125 0,-0.03125 0.0059,-0.01195 0.03125,0 0.03125,0 0,0 0,-0.03125 0,-0.03125 0,0 0,-0.03125 0,-0.03125 l -0.03125,0 -0.03125,0 0.03125,-0.03125 -0.03125,0 -0.1875,-0.0625 c 0.100709,0.0073 0.184225,0.02879 0.21875,0.03125 0.0049,3.47e-4 0.03125,1.1e-5 0.03125,0 0,0 0,0.03125 0,0.03125 a 0.38894769,0.38894769 0 0 0 0.03125,-0.09375 c -4.1e-4,0.004 2.05e-4,-0.03527 0,-0.03125 0,0.004 -2.05e-4,-0.03527 0,-0.03125 2.9e-5,-8.63e-4 0,-0.03913 0,-0.03125 0,0.0078 2.9e-5,-0.03039 0,-0.03125 2.9e-5,-8.63e-4 0,-0.03913 0,-0.03125 l 0,-43.625 c 0,0.0079 2.9e-5,-0.03039 0,-0.03125 2.9e-5,-8.63e-4 0,-0.03913 0,-0.03125 0,0.004 -2.05e-4,-0.03526 0,-0.03125 2.05e-4,0.004 -4.1e-4,-0.03525 0,-0.03125 a 0.38894769,0.38894769 0 0 0 0,-0.03125 c 0,0 -0.02639,-5.03e-4 -0.03125,0 -5.5e-5,-0.0028 -1.7e-5,-0.03151 0,-0.03125 0.0047,-6.67e-4 0.03125,0 0.03125,0 0,0 0,-0.03125 0,-0.03125 a 0.38894769,0.38894769 0 0 0 0,-0.03125 c 0,0 -0.02919,0.0039 -0.03125,0 0,0 -0.0266,-6.88e-4 -0.03125,0 l 0,-0.03125 c 0.0043,-8.93e-4 0.03125,0 0.03125,0 -0.0056,-0.01054 0.0056,-0.02071 0,-0.03125 0,0 0,-0.03125 0,-0.03125 a 0.38894769,0.38894769 0 0 0 -0.03125,0 c 0,0 -0.01858,-0.01672 -0.03125,-0.03125 -0.0084,-0.0097 0,-0.03125 0,-0.03125 -0.0043,-0.0055 -0.02676,0.0057 -0.03125,0 0.0042,0.0045 -0.0042,0.02673 0,0.03125 l -0.125,0.03125 0.09375,-0.0625 c 0,0 0.02284,-0.009 0.03125,0 0,0 0.0051,-0.01966 0,-0.03125 -0.0048,-0.0062 0,-0.03125 0,-0.03125 0,0 -0.02322,0.0069 -0.03125,0 -0.004,-0.0035 0.004,-0.02778 0,-0.03125 -0.0058,-0.0094 -0.03125,0 -0.03125,0 0.0039,0.0032 -0.0039,0.02803 0,0.03125 0.0077,0.0054 -0.01032,0.02406 0,0.03125 L 60.875,16.96875 61.09375,16.75 l 0.03125,0 c -0.0071,-0.0042 0.0071,-0.02709 0,-0.03125 a 0.38894769,0.38894769 0 0 0 0,-0.03125 c -0.005,-0.0057 -0.03125,0 -0.03125,0 -0.0058,-0.0054 0,-0.03125 0,-0.03125 a 0.38894769,0.38894769 0 0 1 -0.03125,0 c -0.0039,-0.0039 0.0036,-0.02766 0,-0.03125 0,0 -0.01919,0.0056 -0.03125,0 -0.006,-0.0028 0.006,-0.02845 0,-0.03125 a 0.38894769,0.38894769 0 0 1 -0.03125,0 0.38894769,0.38894769 0 0 0 0,-0.03125 c -0.01315,-0.0049 -0.03125,0 -0.03125,0 0,0 -0.03125,0 -0.03125,0 -0.01195,-0.0059 0,-0.03125 0,-0.03125 a 0.38894769,0.38894769 0 0 0 -0.0625,0 l 0,0.03125 -0.03125,0 0.03125,0.03125 -0.03125,0 -0.0625,0.1875 c 0.0073,-0.100709 0.02879,-0.184225 0.03125,-0.21875 3.47e-4,-0.0049 1.1e-5,-0.03125 0,-0.03125 0,0 0.03125,0 0.03125,0 A 0.38894769,0.38894769 0 0 0 60.75,16.5 c 0.004,4.1e-4 -0.03527,-2.05e-4 -0.03125,0 0.004,2.05e-4 -0.03527,0 -0.03125,0 0.0078,0 -0.03039,-2.9e-5 -0.03125,0 -8.63e-4,-2.9e-5 -0.03913,0 -0.03125,0 0.0078,0 -0.03039,-2.9e-5 -0.03125,0 L 39.625,16.5 27.84375,7.03125 a 0.38894769,0.38894769 0 0 0 -0.0625,0 0.38894769,0.38894769 0 0 0 0,-0.03125 c 0,0 -0.01957,0.00567 -0.03125,0 a 0.38894769,0.38894769 0 0 0 0,-0.03125 c -0.01168,-0.00567 -0.03125,0 -0.03125,0 0,0 -0.02127,0.00237 -0.03125,0 0,0 0,-0.03125 0,-0.03125 0,0 -0.01996,0.00368 -0.03125,0 a 0.38894769,0.38894769 0 0 0 -0.03125,0 0.38894769,0.38894769 0 0 0 -0.0625,-0.03125 c 0,0 -0.03125,0 -0.03125,0 0,0 -0.03125,0 -0.03125,0 a 0.38894769,0.38894769 0 0 0 -0.03125,0 c 0.004,4.104e-4 -0.03526,-2.055e-4 -0.03125,0 0.004,0 -0.03526,2.055e-4 -0.03125,0 -8.63e-4,-2.95e-5 -0.03928,0 -0.03125,0 0.008,0 -0.03039,-2.95e-5 -0.03125,0 z M 61.125,16.75 c 0.01411,0.0083 0.03125,0 0.03125,0 -0.0039,-0.0038 0.0024,-0.02883 0,-0.03125 0,0 -0.03125,0.03125 -0.03125,0.03125 z M 2.53125,61.375 c 0,0 -0.023347,0.0065 -0.03125,0 0.00387,0.0038 -0.0024,0.02885 0,0.03125 0,0 0.03125,-0.03125 0.03125,-0.03125 z m -0.1875,-0.21875 c 0,0 0,-0.03125 0,-0.03125 l -0.03125,0 c 0,0 0.021886,0.01368 0.03125,0.03125 z m 0,-52.84375 c 0,0 0,-0.03125 0,-0.03125 0,0 0,-0.03125 0,-0.03125 a 0.38894769,0.38894769 0 0 0 -0.03125,0 c 0,0 0,0.03125 0,0.03125 0,0 0,0.03125 0,0.03125 0,0 0.026599,-6.666e-4 0.03125,0 z M 60.96875,17 c 0.03436,-0.0088 0.06591,0.01508 0.125,0 -0.06464,0.01171 -0.08987,0.02489 -0.125,0.03125 l 0,-0.03125 z M 60.8125,61.25 c 0.104245,-0.02886 -0.04791,0.156173 0.03125,0.125 -0.01171,-0.06464 -0.02488,-0.08987 -0.03125,-0.125 z m 0.125,0.125 L 61,61.46875 61,61.5 c -0.0045,0.0042 -0.02673,-0.0042 -0.03125,0 L 60.9375,61.375 z" />
    <path
       sodipodi:type="inkscape:offset"
       inkscape:radius="0.26594177"
       inkscape:original="M 27.34375 7.5 L 3.0625 8.34375 L 3.03125 8.34375 A 0.090423394 0.090423394 0 0 0 3 8.34375 A 0.090423394 0.090423394 0 0 0 3 8.375 A 0.090423394 0.090423394 0 0 0 2.96875 8.375 A 0.090423394 0.090423394 0 0 0 2.96875 8.40625 A 0.090423394 0.090423394 0 0 0 2.9375 8.40625 A 0.090423394 0.090423394 0 0 0 2.9375 8.4375 A 0.090423394 0.090423394 0 0 0 2.90625 8.4375 A 0.090423394 0.090423394 0 0 0 2.90625 8.46875 L 2.90625 8.5 L 2.90625 60.875 L 2.90625 60.90625 A 0.090423394 0.090423394 0 0 0 2.90625 60.9375 A 0.090423394 0.090423394 0 0 0 2.9375 60.9375 A 0.090423394 0.090423394 0 0 0 2.9375 60.96875 A 0.090423394 0.090423394 0 0 0 2.96875 60.96875 A 0.090423394 0.090423394 0 0 0 2.96875 61 C 2.9810467 61.006735 2.9999747 60.999998 3 61 A 0.090423394 0.090423394 0 0 0 3 61.03125 A 0.090423394 0.090423394 0 0 0 3.03125 61.03125 L 3.0625 61.03125 L 60.59375 61.03125 L 60.625 61.03125 A 0.090423394 0.090423394 0 0 0 60.65625 61.03125 A 0.090423394 0.090423394 0 0 0 60.65625 61 A 0.090423394 0.090423394 0 0 0 60.6875 61 C 60.69156 60.997803 60.6875 60.96875 60.6875 60.96875 C 60.697608 60.950308 60.718747 60.937538 60.71875 60.9375 A 0.090423394 0.090423394 0 0 0 60.75 60.9375 A 0.090423394 0.090423394 0 0 0 60.75 60.90625 L 60.75 60.875 L 60.75 17.25 L 60.75 17.21875 A 0.090423394 0.090423394 0 0 0 60.75 17.1875 A 0.090423394 0.090423394 0 0 0 60.71875 17.1875 L 60.71875 17.15625 C 60.71875 17.15625 60.699794 17.162988 60.6875 17.15625 C 60.681353 17.152881 60.69365 17.128369 60.6875 17.125 A 0.090423394 0.090423394 0 0 0 60.65625 17.125 A 0.090423394 0.090423394 0 0 0 60.65625 17.09375 A 0.090423394 0.090423394 0 0 0 60.625 17.09375 L 60.59375 17.09375 L 39.28125 17.09375 L 39.25 17.09375 L 27.4375 7.53125 A 0.090423394 0.090423394 0 0 0 27.40625 7.5 A 0.090423394 0.090423394 0 0 0 27.375 7.5 L 27.34375 7.5 z "
       style="opacity:0.3;fill:#000000;stroke:none;display:inline"
       id="path2990"
       d="M 27.34375,7.21875 3.0625,8.0625 l -0.03125,0 c 0.00254,1.103e-4 -0.03379,0 -0.03125,0 0.00127,-1.102e-4 0.00448,0.030762 0,0.03125 -0.00448,4.878e-4 -0.032509,1.65e-4 -0.03125,0 a 0.26596836,0.26596836 0 0 0 -0.03125,0 0.26596836,0.26596836 0 0 0 -0.0625,0.03125 0.26596836,0.26596836 0 0 0 -0.03125,0 0.26596836,0.26596836 0 0 0 0,0.03125 0.26596836,0.26596836 0 0 0 -0.03125,0 0.26596836,0.26596836 0 0 0 0,0.03125 0.26596836,0.26596836 0 0 0 -0.03125,0 0.26596836,0.26596836 0 0 0 -0.03125,0.03125 0.26596836,0.26596836 0 0 0 0,0.03125 0.26596836,0.26596836 0 0 0 -0.03125,0 0.26596836,0.26596836 0 0 0 0,0.03125 0.26596836,0.26596836 0 0 0 -0.03125,0 0.26596836,0.26596836 0 0 0 0,0.03125 0.26596836,0.26596836 0 0 0 0,0.03125 0.26596836,0.26596836 0 0 0 -0.03125,0.03125 0.26596836,0.26596836 0 0 0 0,0.03125 c 1.65e-4,-0.00126 4.878e-4,0.026774 0,0.03125 -4.878e-4,0.00448 -0.03136,0.00127 -0.03125,0 0,-0.00254 1.103e-4,0.033788 0,0.03125 l 0,0.03125 0,52.375 0,0.03125 c 1.103e-4,-0.0025 0,0.03379 0,0.03125 -1.102e-4,-0.0013 0.030762,-0.0045 0.03125,0 0,-0.0025 1.103e-4,0.03379 0,0.03125 a 0.26596836,0.26596836 0 0 0 0,0.03125 0.26596836,0.26596836 0 0 0 0.03125,0.0625 0.26596836,0.26596836 0 0 0 0,0.03125 0.26596836,0.26596836 0 0 0 0.03125,0 0.26596836,0.26596836 0 0 0 0,0.03125 0.26596836,0.26596836 0 0 0 0.03125,0 0.26596836,0.26596836 0 0 0 0,0.03125 0.26596836,0.26596836 0 0 0 0.03125,0 0.26596836,0.26596836 0 0 0 0,0.03125 0.26596836,0.26596836 0 0 0 0.03125,0 0.26596836,0.26596836 0 0 0 0,0.03125 0.26596836,0.26596836 0 0 0 0.03125,0 0.26596836,0.26596836 0 0 0 0,0.03125 0.26596836,0.26596836 0 0 0 0.03125,0 0.26596836,0.26596836 0 0 0 0.0625,0.03125 0.26596836,0.26596836 0 0 0 0.03125,0 c -0.00252,-3.3e-4 0.033781,0.03147 0.03125,0.03125 -0.00254,0 0.033788,-1.1e-4 0.03125,0 -0.00127,1.1e-4 0.026774,4.88e-4 0.03125,0 l 57.53125,0 c 0.0045,4.88e-4 0.03251,1.1e-4 0.03125,0 -0.0025,0 0.03379,-1.1e-4 0.03125,0 -0.0013,1.1e-4 -0.0045,-0.03076 0,-0.03125 -0.0025,-1.1e-4 0.03379,0 0.03125,0 -0.0013,1.1e-4 0.02677,4.88e-4 0.03125,0 a 0.26596836,0.26596836 0 0 0 0.0625,-0.03125 0.26596836,0.26596836 0 0 0 0.03125,0 0.26596836,0.26596836 0 0 0 0,-0.03125 c 7.6e-5,-4.1e-5 0.01163,-0.01608 0.03125,-0.03125 a 0.26596836,0.26596836 0 0 0 0.03125,0 0.26596836,0.26596836 0 0 0 0,-0.03125 c 0.0051,-0.0043 0.02203,-0.01992 0.03125,-0.03125 A 0.26596836,0.26596836 0 0 0 60.96875,61.09375 0.26596836,0.26596836 0 0 0 61,61 0.26596836,0.26596836 0 0 0 61,60.96875 c -3.3e-4,0.0025 0.03147,-0.03378 0.03125,-0.03125 0,0.0025 -1.1e-4,-0.03379 0,-0.03125 1.1e-4,0.0013 4.88e-4,-0.02677 0,-0.03125 l 0,-43.625 c 4.88e-4,-0.0045 1.1e-4,-0.03252 0,-0.03125 -1.1e-4,0.0025 0,-0.03379 0,-0.03125 1.1e-4,0.0013 -0.03076,0.0045 -0.03125,0 l 0,-0.03125 a 0.26596836,0.26596836 0 0 0 0,-0.03125 0.26596836,0.26596836 0 0 0 -0.03125,-0.0625 0.26596836,0.26596836 0 0 0 0,-0.03125 0.26596836,0.26596836 0 0 0 -0.03125,0 0.26596836,0.26596836 0 0 0 0,-0.03125 c -0.0018,-0.004 -0.02966,0.0035 -0.03125,0 a 0.26596836,0.26596836 0 0 0 0,-0.03125 c -5.8e-5,-8.4e-5 -0.02365,0.0069 -0.03125,0 a 0.26596836,0.26596836 0 0 0 0,-0.03125 c -0.01011,-0.0092 -0.02113,0.0092 -0.03125,0 -0.01686,-0.01528 -0.0311,-0.03117 -0.03125,-0.03125 a 0.26596836,0.26596836 0 0 0 0,-0.03125 0.26596836,0.26596836 0 0 0 -0.03125,0 0.26596836,0.26596836 0 0 0 -0.03125,0 0.26596836,0.26596836 0 0 0 -0.03125,-0.03125 c -0.0045,-4.88e-4 -0.03251,-1.1e-4 -0.03125,0 0.0013,1.65e-4 -0.02677,4.88e-4 -0.03125,0 -0.0045,-4.88e-4 -0.0013,-0.03136 0,-0.03125 0.0025,1.1e-4 -0.03379,0 -0.03125,0 0.0013,-1.1e-4 -0.02677,-4.88e-4 -0.03125,0 l -21.25,0 L 27.65625,7.375 27.625,7.3125 c 0.0013,0.00128 -0.03257,-0.00124 -0.03125,0 0.0014,0.00115 -0.0014,-0.03236 0,-0.03125 0.0014,0.00111 -0.03271,-0.00107 -0.03125,0 0.0015,9.733e-4 -0.0328,-9.26e-4 -0.03125,0 A 0.26596836,0.26596836 0 0 0 27.4375,7.25 c 0.0025,3.299e-4 -0.03378,-0.03147 -0.03125,-0.03125 0.0025,1.103e-4 -0.03379,0 -0.03125,0 l -0.03125,0 z" />
  </g>
  <g
     id="layer1"
     style="display:inline"
     transform="translate(-0.10786375,-0.29962152)">
    <path
       d="m 3.1498393,8.7813886 0,52.3901844 57.5327787,0 0,-43.647773 -21.341768,0 L 27.4486,7.945717 z"
       id="path3758"
       style="fill:#ffffff;stroke:none"
       inkscape:connector-curvature="0" />
  </g>
</svg>
