<?xml version="1.0" encoding="UTF-8" standalone="no"?>
<!-- Created with Inkscape (http://www.inkscape.org/) -->

<svg
   xmlns:dc="http://purl.org/dc/elements/1.1/"
   xmlns:cc="http://creativecommons.org/ns#"
   xmlns:rdf="http://www.w3.org/1999/02/22-rdf-syntax-ns#"
   xmlns:svg="http://www.w3.org/2000/svg"
   xmlns="http://www.w3.org/2000/svg"
   xmlns:sodipodi="http://sodipodi.sourceforge.net/DTD/sodipodi-0.dtd"
   xmlns:inkscape="http://www.inkscape.org/namespaces/inkscape"
   width="64px"
   height="64px"
   id="svg2985"
   version="1.1"
   inkscape:version="0.48.4 r9939"
   sodipodi:docname="New document 2">
  <defs
     id="defs2987" />
  <sodipodi:namedview
     id="base"
     pagecolor="#ffffff"
     bordercolor="#666666"
     borderopacity="1.0"
     inkscape:pageopacity="0.0"
     inkscape:pageshadow="2"
     inkscape:zoom="11"
     inkscape:cx="20.022966"
     inkscape:cy="29.076449"
     inkscape:current-layer="layer1"
     showgrid="true"
     inkscape:document-units="px"
     inkscape:grid-bbox="true"
     inkscape:window-width="1280"
     inkscape:window-height="978"
     inkscape:window-x="0"
     inkscape:window-y="22"
     inkscape:window-maximized="1" />
  <metadata
     id="metadata2990">
    <rdf:RDF>
      <cc:Work
         rdf:about="">
        <dc:format>image/svg+xml</dc:format>
        <dc:type
           rdf:resource="http://purl.org/dc/dcmitype/StillImage" />
        <dc:title></dc:title>
      </cc:Work>
    </rdf:RDF>
  </metadata>
  <g
     id="layer1"
     inkscape:label="Layer 1"
     inkscape:groupmode="layer">
    <path
       style="fill:#000000;stroke:none;stroke-width:1px;stroke-linecap:butt;stroke-linejoin:miter;stroke-opacity:1;fill-opacity:0.62745099999999998"
       d="m 38.794449,10.93485 0,14.881384 14.592113,0 c 0,0 1.124943,3.053415 1.124943,5.528289 0,2.474874 -0.642825,6.363961 -0.642825,6.363961 l -15.106372,0.09642 0,15.84562 c 0,0 -3.374828,1.028519 -6.171114,1.028519 -2.796285,0 -7.071067,-1.092801 -7.071067,-1.092801 l 0,-15.845621 -15.074231,-0.03214 c 0,0 -0.7071071,-3.471251 -0.7071071,-6.042549 0,-2.571297 1.1249421,-5.978266 1.1249421,-5.978266 l 14.592113,0 0,-14.656395 c 0,0 2.603439,-1.1249428 6.685373,-1.1249428 4.081935,0 6.653232,1.0285188 6.653232,1.0285188 z"
       id="path3039"
       inkscape:connector-curvature="0" />
  </g>
</svg>
