<?xml version="1.0" encoding="UTF-8" standalone="no"?>
<!-- Created with Inkscape (http://www.inkscape.org/) -->

<svg
   xmlns:dc="http://purl.org/dc/elements/1.1/"
   xmlns:cc="http://creativecommons.org/ns#"
   xmlns:rdf="http://www.w3.org/1999/02/22-rdf-syntax-ns#"
   xmlns:svg="http://www.w3.org/2000/svg"
   xmlns="http://www.w3.org/2000/svg"
   xmlns:sodipodi="http://sodipodi.sourceforge.net/DTD/sodipodi-0.dtd"
   xmlns:inkscape="http://www.inkscape.org/namespaces/inkscape"
   width="64px"
   height="64px"
   id="svg3004"
   version="1.1"
   inkscape:version="0.48.4 r9939"
   sodipodi:docname="close.svg">
  <defs
     id="defs3006" />
  <sodipodi:namedview
     id="base"
     pagecolor="#ffffff"
     bordercolor="#666666"
     borderopacity="1.0"
     inkscape:pageopacity="0.0"
     inkscape:pageshadow="2"
     inkscape:zoom="11"
     inkscape:cx="31.870988"
     inkscape:cy="34.152298"
     inkscape:current-layer="layer1"
     showgrid="true"
     inkscape:document-units="px"
     inkscape:grid-bbox="true"
     inkscape:window-width="1280"
     inkscape:window-height="978"
     inkscape:window-x="0"
     inkscape:window-y="22"
     inkscape:window-maximized="1" />
  <metadata
     id="metadata3009">
    <rdf:RDF>
      <cc:Work
         rdf:about="">
        <dc:format>image/svg+xml</dc:format>
        <dc:type
           rdf:resource="http://purl.org/dc/dcmitype/StillImage" />
        <dc:title />
      </cc:Work>
    </rdf:RDF>
  </metadata>
  <g
     id="layer1"
     inkscape:label="Layer 1"
     inkscape:groupmode="layer">
    <path
       style="opacity:0.69819821;fill:#000000;fill-opacity:0.58431373;stroke:none"
       d="m 31.230726,9.929439 c -9.271534,-0.039194 -13.930001,5.379862 -13.930001,5.379862 l 13.425639,14.242226 14.02607,-14.338294 c 0,0 -5.049256,-5.2479777 -13.521708,-5.283794 z m 16.788053,8.838346 -13.785897,13.833932 13.737863,13.785898 c 0,0 4.609922,-3.935258 5.091655,-13.137433 0.465933,-8.90034 -5.043621,-14.482397 -5.043621,-14.482397 z m -34.224572,0.144103 c 0,0 -5.2779352,5.410225 -5.3798622,13.137432 -0.106963,8.108991 5.8602072,14.194191 5.8602072,14.194191 L 27.267881,32.74582 13.794207,18.911888 z M 31.086623,36.156269 17.540897,49.701994 c 0,0 3.61588,4.55435 13.041364,4.587294 8.39873,0.02935 13.978035,-4.779432 13.978035,-4.779432 L 31.086623,36.156269 z"
       id="path3195"
       inkscape:connector-curvature="0" />
  </g>
</svg>
